<?xml version="1.0" encoding="UTF-8"?>
<svg id="_Шар_1" data-name="Шар_1" xmlns="http://www.w3.org/2000/svg" version="1.1" viewBox="0 0 1080 1080">
  <!-- Generator: Adobe Illustrator 30.2.1, SVG Export Plug-In . SVG Version: 2.1.1 Build 1)  -->
  <polygon points="396.1251221 350.2400208 453.6751709 375.9599915 453.6751709 704.0499573 396.1251221 729.7599792 396.1251221 540.6499939 338.5650635 566.3699646 338.5650635 755.47995 281.0150146 781.1999817 281.0150146 298.809967 338.5650635 324.5299988 338.5650635 503.3399963 396.1251221 477.6199646 396.1251221 413.2799988 396.1151123 413.2799988 396.1151123 350.2400208 396.1251221 350.2400208"/>
  <polygon points="597.5550537 387.6100159 597.5550537 450.6499939 540.0050049 476.3600159 540.0050049 539.3999939 597.5550537 513.6800232 597.5550537 576.7200012 540.0050049 602.4399719 540.0001221 665.4689159 482.4451904 691.1899719 482.4451904 439.0500183 597.5550537 387.6100159"/>
  <polygon points="798.9849854 297.6000061 798.9849854 782.3999939 626.335083 705.2499695 626.335083 374.7499695 683.8851318 349.0400085 683.8851318 667.9299622 741.4351807 693.6499939 741.4351807 323.3199768 798.9849854 297.6000061"/>
</svg>