<?xml version="1.0" encoding="UTF-8"?>
<svg id="_Шар_1" xmlns="http://www.w3.org/2000/svg" version="1.1" viewBox="0 0 1080 1080">
  <!-- Generator: Adobe Illustrator 30.4.0, SVG Export Plug-In . SVG Version: 2.1.3 Build 42)  -->
  <defs>
    <style>
      .st0 {
        fill-rule: evenodd;
      }
    </style>
  </defs>
  <path class="st0" d="M525.1206295,880.8962975c-3.3933786,4.6771252-8.070224,7.6574212-13.618573,8.070224h-79.096927c-20.6096461,0-15.9036269-15.4648471-48.9253831-105.4625693-2.4691166-8.200072-13.1598721-4.9635946-13.1598721,1.6965494v84.6452759c0,10.6377172-8.9414477,19.120744-19.5794448,19.120744h-74.8785026c-10.592099,0-19.5332669-8.4830268-19.5332669-19.120744v-299.3304179c23.8224341,11.6316719,37.7461121,5.4087612,113.9912142,7.1531022v83.3612494c0,5.0896481,5.5024509,6.7864774,7.6574212,6.7864774,6.458149,0,6.3903551,2.6666663,35.9947215-90.1477268h50.8055248c10.8152864,19.009919,27.7427905,32.5458865,51.3557419,39.4339982-47.693876,148.1706879-31.2441988,97.0664332-34.802771,108.1218587,41.3676015,133.552273,53.0437189,141.1498456,43.7901168,155.6719789Z"/>
  <path class="st0" d="M618.7988694,553.1829611c-.2616182.4789239-9.4587639,51.9327058-62.5439561,64.3320217-15.9920245,35.3444253-7.5159505,56.5784311-9.9041877,142.1911001,0,72.7232523,68.9173508,129.2604385,138.6603072,129.2604385,71.4392259,0,138.6603072-56.5371862,138.6603072-129.2604385v-96.9798224c0-88.2970758-108.8694007-159.9236306-204.8724706-109.5432995ZM713.4857473,755.4417605c0,14.4436187-13.1598721,27.236866-28.4747146,27.236866-15.7276452,0-28.0621917-12.7932473-28.0621917-27.236866v-85.0577988c0-15.3151223,12.3345465-28.0621917,28.0621917-28.0621917,15.3148425,0,28.4747146,12.7470694,28.4747146,28.0621917v85.0577988Z"/>
  <path class="st0" d="M823.6713399,221.6634433v284.1070917c0,14.3521025-9.6749772,26.2738462-23.1559668,29.6213267-27.7869723-22.0098036-62.5438452-36.4993204-100.1435998-39.6173106l-40.4426362-85.6998121v86.8920424c-15.3149494,2.1549703-30.1256458,6.2818785-44.1108435,12.0594379-10.611408-30.6561193-38.6985118-52.9824913-71.5769201-55.6659624.4033262-8.7052779.4669807,5.3825186.4050095-2.7651772-.078411-10.3091261-.3579405-56.2158621-.4050095-228.9316365,0-16.9640431,13.9639728-30.6299648,31.0427676-30.6299648h53.5566103c13.2057702,0,24.6690929,8.1161221,29.3459383,19.9919677l49.7968867,110.5983953v-99.9603983c0-17.0113918,14.4436187-30.6299648,31.0424877-30.6299648h53.6025084c17.4241946,0,31.0427676,13.618573,31.0427676,30.6299648Z"/>
  <path class="st0" d="M372.0164237,320.7526179c0,4.9983612,6.3776419,1.3767636,88.0382724,2.5677731,11.0506222,0,20.4045928,9.3539706,20.4045928,20.4044906v46.3578899c0,11.5092208-9.3539706,20.4503887-20.4045928,20.4503887-84.1813498,1.1838866-88.0382724-2.6718619-88.0382724,2.9346778.996426,23.454352-2.2741299,30.2174419,2.980296,30.2174419h108.8559479c9.8123916,0,18.2954183,6.7402994,21.3675105,15.7276452-30.7035303,12.7049314-51.40164,42.9434711-51.40164,76.9875748h-166.4473903c-17.4241946,0-31.0424877-13.6182931-31.0424877-38.7001888V220.7922196c0-9.7667734,13.6182931-23.3850665,31.0424877-23.3850665h196.4815198c12.3345465,0,22.5597408,9.8126714,22.5597408,22.1472179v47.6413566c0,11.8761255-10.2251943,22.1013198-22.5597408,22.1013198h-108.8559479c-5.1546803,0-2.0866009,9.5574108-2.980296,31.4555703Z"/>
  <path class="st0" d="M537.0842024,489.7402145c25.7513358,0,46.6604253,20.9090895,46.6604253,46.6602854,0,25.7558137-20.9090895,46.6649032-46.6604253,46.6649032-25.7555338,0-46.6649032-20.9090895-46.6649032-46.6649032,0-25.7511959,20.9093694-46.6602854,46.6649032-46.6602854Z"/>
</svg>