<?xml version="1.0" encoding="UTF-8"?>
<svg id="_Шар_1" data-name="Шар_1" xmlns="http://www.w3.org/2000/svg" version="1.1" viewBox="0 0 1080 1080">
  <!-- Generator: Adobe Illustrator 30.2.1, SVG Export Plug-In . SVG Version: 2.1.1 Build 1)  -->
  <path d="M222.486613,462.8295062c9.0211795,8.6908865,13.734174,16.0547308,14.1158619,21.9651422.0082663,6.8301282.016892,13.6603762.0251583,20.4906242-2.6286865,4.7401895-5.2561749,9.4876869-7.8825852,14.2423723.0122198.1885677.0244395.3771354.0365395.5657031,6.4769531,3.5245628,9.8361897,7.0529592,10.0599791,10.5232518.1661648,9.2713252.3322098,18.5426504.4983746,27.8139756.4382342,6.7696284,7.1940854,14.6180701,20.3219436,23.8124827.2368477-.0614582.4738153-.1229164.7105432-.1843746.1743113-.285008.3485028-.5698962.5228141-.8547843-6.4053118-9.6135983-9.8237303-17.7707688-10.2608863-24.5366833.2869248-2.2744332.5739694-4.5487465.8613734-6.8229401,10.2642408-27.4714629,15.2927927-42.9101739,15.0600182-46.4905642-.3022594-1.6911192-.604399-3.3821187-.9066584-5.0729983-7.6368721-13.717282-11.6372868-23.4929719-12.0208915-29.4154832-1.3299174-20.5668181,3.4983262-38.9377928,14.51552-54.9287891-.0306692-.4698618-.0608592-.9398435-.0912888-1.4095855-7.9329018-6.392493-12.1875355-14.0981312-12.7775583-23.2173084-.1975528-3.0533831-.3949858-6.1067662-.5924189-9.1600295-.315797-4.8826336,1.7344874-17.8546299,6.1570829-38.877892-.1249531-1.9259304-.2495467-3.8517409-.3740206-5.7776713-.5709744-8.8304554-4.7875111-18.8377217-12.6305618-29.9227232-.4730965.1268699-.9460732.254219-1.4191696.3816879,1.3762807,7.1302312,2.7528009,14.262499,4.1299202,21.3966837.6930522,10.7184086-4.4080995,22.0264806-15.2706294,34.1115857-8.4076755,6.9253705-13.4170592,11.9192997-15.0525905,14.8722891,1.4203676,1.1657893,2.8414541,2.333735,4.2625405,3.5038371,3.96699-1.132724,6.5115758,6.9967722,7.6325593,24.3591374.409362,6.3357071.8186043,12.6717735,1.2277267,19.0079598-.1392094,1.568083-.2784189,3.1362858-.4175085,4.7043688.3391583,5.2586908-1.6682371,8.487703-6.0098467,9.7192633-3.0225941-1.3876618-6.043511-2.7656197-9.0628704-4.1337538-3.7646451-3.2066093-6.6137665-9.4352138-8.5561097-18.6999499.0407325-6.7969432.9131277-14.1280816,2.6176647-21.9888629-.4249362.1254323-.8499923.2509843-1.2748087.376776-5.4363565,12.5038117-7.8520358,23.4202523-7.2543456,32.6968488,2.9168093,15.4635099,9.2761173,27.7331095,19.0991288,36.9504042Z"/>
  <path d="M207.9069992,319.4577928c3.8795349,2.094611,6.9064418,8.0884043,9.0840753,17.9642483-.1019512,4.4273875-2.2897678,11.4624963-6.5628509,21.1355162.0148554.2343319.03019.4686638.045285.7029957.4240976-.1255521.847716-.2509843,1.2720533-.3760572,2.5000196-2.9359776,5.0017164-5.865366,7.5044914-8.7879258,6.2924587-5.2582116,9.1583523-12.2685214,8.5886957-21.0945441-.4351194-6.7526166,3.270823-14.8893009,11.1299271-24.320082-12.573057-8.3807202-19.024133-15.3591628-19.401508-21.184515-.425056.1230362-.8505913.2463121-1.2758869.3698275-.6841869,3.5427726-1.368254,7.0859046-2.0522012,10.6296356-4.579296,12.4228258-8.8013436,19.2180918-12.6613508,20.3810058.0270752.4225402.0543899.8450804.0815849,1.2677404,1.9833153,2.4625217,3.3974533,3.5655349,4.2476852,3.3121545Z"/>
  <path d="M264.5650045,282.1585263c3.9063704,2.2498738,6.953404,8.3653856,9.1408613,18.329164-.0990759,4.4224757-2.3012687,11.3700094-6.603823,20.8719527.015095.2349309.0304296.4698618.0456444.7047928.4264937-.1084204.8532269-.2168409,1.2799602-.3249019,2.5163126-2.8355838,5.0331044-5.6643389,7.5510942-8.486505,6.3317536-5.0081856,9.2165759-11.9019285,8.6430857-20.7505937-.4382342-6.7701076,3.2849596-14.8044814,11.185515-24.015187-12.6425419-8.7897228-19.1302772-15.9802142-19.509569-21.8206615-.4272125.1057848-.8541853.2118092-1.2810384.3178336-.6882601,3.515338-1.3764005,7.0311553-2.0647804,10.5474517-4.6177523,12.1453653-8.8661562,18.7233112-12.7504832,19.7309624.0304296.469742.0608592.9394841.091169,1.4092261,1.9920608,2.5427887,3.4179393,3.7053434,4.2723643,3.4864659Z"/>
  <path d="M346.2791528,565.020861c.239124-.0455246.4772895-.0910492.7164135-.1365738-8.6599777-14.3927233-13.1551729-24.4614479-13.4967273-30.3199852-.0740374-1.2742097-.1480748-2.5484194-.2222319-3.8226291-.209533-3.5868596,2.8904529-17.5914258,9.2951657-41.9492453-.3294544-5.6638597,3.5894952-9.6401943,11.7707458-11.8286099,1.3156611.1859321,2.6310825.3736612,3.9469832.5631873,8.7016686,10.067287,15.4968148,14.7275688,20.3792088,13.9051309,1.5308247-.2574536,3.061889-.512631,4.5936721-.7652926.177546-.2678764.3553315-.5358725.5328775-.8038687-.6574711-.5123914-1.3159007-1.0243036-1.9733718-1.5356168-4.5994226-.9551781-9.0996495-6.8727776-13.5021183-17.7544757-7.3419206-8.262476-13.4465304-11.91307-18.3195798-10.9955097-1.0990598.2070171-2.1983592.4153521-3.2976585.6250049-3.4581927-8.0314986-5.3582459-14.9663334-5.6996804-20.8231935-.0112613-.1888073-.0218039-.3777344-.0330652-.5665417,1.3233284-11.1930625,2.6473755-22.3831299,3.9714227-33.5727182,6.4156147,9.7186643,16.5637677,17.5619546,30.4653046,23.7455136-.0134178-.2362487-.0273148-.4727371-.0414513-.7089858-9.1051604-13.6301862-13.7961114-22.8873748-14.0877085-27.9026288-.0989561-1.7017816-.1981518-3.4034434-.2968683-5.1052249-.2022251-3.4937738,2.6092786-7.4489034,8.4440952-11.8149525.3766562,2.322234.7533124,4.6445878,1.129729,6.9670614,5.6900963,8.0957122,17.544224,13.3360733,35.5992819,16.1742928.9991453.6180564,3.3050862,6.9577169,6.9108745,19.0461765.4463807,7.6728126-.4276917,15.1044646-2.6193419,22.3016649-6.0696277,5.3774141-10.9944315,10.4780866-14.7746508,15.2725462-5.2988243,3.6932434-8.8392009,10.0529108-10.6395792,19.0383894.8041083,13.8258222,7.7358282,24.1129451,20.8109737,31.1305628.1916825-.0286326.3833651-.0571454.5750476-.0856581-6.7740611-11.6939529-10.2377646-18.9262551-10.4033304-21.7675894-.0495979-.8525081-.0994353-1.7050162-.1490332-2.5575243.348383-5.5911402,2.8785926-11.1501735,7.5882327-16.6387635,1.5924027-2.5189482,10.6000446-8.8980234,27.0495217-18.7288221,4.1935348-5.9990646,7.115256-15.6302738,8.7586942-28.927172-.088174-1.5175267-.1768271-3.0350535-.2650011-4.5524604-.4308065-7.3936749-4.0742125-17.6884651-10.9309366-30.8148856-8.9058106-.1435223-15.7167705-.8734734-20.4403076-2.2785064-7.6835947-4.1135074-13.7235117-9.8472114-18.1171152-17.2637684,0-.0051515-7.3112514-15.8661631-9.162186-17.279103-4.3291502,5.3529746-14.0833956,14.0550027-29.4388446,26.5821757-2.8002423,4.0114364-4.8907801,7.6075207-6.3360665,10.8198805-3.0983087-9.7646681-7.6214177-16.7548513-13.5960428-20.880219,1.4309102-8.6011551,3.0647643-14.5623624,4.8984474-17.8887733,4.9018018-6.9774842,17.2442408-19.7727731,37.070685-37.8148925.2467913-.16904,35.1368477-22.6742478,35.1471507-22.550373-4.7532479.088174-9.5050581.1997092-14.2547119.334486-5.9888815.0849393-11.0421125-.3712651-15.1618495-1.3970063-4.2373822-1.3858648-11.324365-6.8702617-21.244895-16.3279982-.1909637.0349821-.3821671.0700839-.5733704.105066,1.1443448,19.6798071-7.1646143,34.675971-24.8794357,45.4764437-.9809354-11.8390327-2.6147895-17.5281705-4.902281-17.0599859-8.5579067-6.0775346-13.0629257-13.070593-13.5299123-21.093346-.2564952-4.4339766,1.7856427-14.141739,6.1254553-29.0952536-.2381656.0499573-.4765707.1000343-.7148561.1501114-10.4547253,14.3388126-15.3538915,27.10487-14.71475,38.1332053.3384395,2.5042126.67628,5.0086648,1.0145997,7.5131171,3.1717471,13.1044969,6.3450516,26.2194164,9.5189551,39.3448786.6536375,11.2336752-3.1984628,23.876337-11.5365337,38.0421561-8.9524134,10.2039806-13.0692752,21.4946814-12.3582528,33.7407998.453449,7.8280755,3.96699,16.0820456,10.5498478,24.8319942.4282907-.0956017.8564616-.1907241,1.2847522-.2858466-.9277435-5.1905237-1.855487-10.3803285-2.7831107-15.569175-.405169-6.9765258,1.4301914-12.7898979,5.4985335-17.4132808.618895-.1360946,1.2373108-.2718298,1.8563256-.4072056,1.5981532.9404425,3.196546,1.8835206,4.7952982,2.8292343,2.2583798,2.3778219,4.3089038,7.7697321,6.1498948,16.1684225-.224628.2860862-.4491362.5721724-.6737641.8583784.0604998,1.0384402.1208798,2.0770002.1809004,3.1154403.2638031,4.5305367-.5374299,16.5440005-2.3944744,36.0411101.0987165,1.6985469.197433,3.3972137.2960297,5.0958804,5.7490387,15.9708697,8.6930429,25.0689618,8.8195534,27.2368913.0628958,1.0849232.1259115,2.1699662.1890469,3.2550092-1.0710262,12.3041024-2.1418128,24.6094029-3.2125994,36.9157816,1.2379098,9.6893129,9.5066155,20.8066608,24.8439744,33.7236682Z"/>
  <path d="M411.5973753,350.4922747c5.7662901-3.5478043,9.7480157-5.5445374,11.93727-6.0333278,1.7943882-.1592163,3.5885368-.3150782,5.382925-.4674658,9.424791,5.3529746,19.326632,10.3085674,29.70121,14.8967286,2.1899731-.43476,4.4086985,3.9958622,6.6518634,13.2909081,2.1729612,7.4886775,10.9342911,16.7794106,26.2959697,28.2308851-3.6129763,8.062048-7.2261923,16.1373939-10.8391686,24.2262774-.6900572,2.3132489-4.2337882,5.0304687-10.6280782,8.2185088,1.6216343,12.846564,1.5118961,22.3764211-.3359237,28.5832216-.3177138,1.0664737-.6344692,2.1329475-.952183,3.1996608-7.6960541,12.2304245-12.1780712,20.5266845-13.4453324,24.7988092-.1238748.419066-.2484685.8381319-.3728225,1.2573177-.7410926,5.4966167-1.4824249,10.9938325-2.2235175,16.491767-1.0664737,2.9323835-2.1327079,5.865965-3.198942,8.8007446-3.7469145,12.6649448-13.9607188,23.4827887-30.6107437,32.8542681-.0548691.1872499-.1099779.37438-.1650866.5616299.1614925.283211.3220267.5664219.4835192.8497527,8.5241227-3.2022965,17.0530374-6.3294774,25.5853066-9.3817823,6.6173606-4.7393509,11.652861-11.050858,15.0904478-18.9759727,2.7015258-9.0946179,11.6415996-16.2728895,26.8262115-21.194818-.8489141-9.4765453-.6510018-16.2934954.591101-20.4509699.4094818-.5400656.8196825-1.0801311,1.2291643-1.6197175,2.5395541-8.4935733,6.4489196-14.0871095,11.7326489-16.7486216,16.7722225-8.7164042,27.8807051-21.8958969,33.3182596-39.9290311,1.1318854-3.7491907,1.7768972-10.3782919,1.9357541-19.8864648-.4159511-.121958-.8319022-.2436764-1.248093-.365275-1.0161571,4.0321621-2.0320746,8.0654024-3.0482316,12.0997209-.4415887,1.4646942-.8834169,2.9297479-1.3252452,4.3949213-8.6695618,17.1019165-16.6464308,24.6746948-23.9349199,22.6851498-1.0290957-1.2260495-2.0584309-2.4510207-3.0875266-3.6750336,2.4382019-7.3032247,4.8773623-14.6003395,7.3160435-21.8914642.3725829-1.2404257.7449263-2.4808513,1.1172696-3.7210374.6057168-2.0247667,8.9122798-20.1119314,15.3305302-28.2084822,5.1957949-7.1465242,7.9881304-18.388945,8.3774855-33.7658384-.303098-2.0694527,4.1065589-6.9253705,13.2229806-14.4450766,7.6200999-9.8067185,13.1410363-14.892895,16.5740707-15.3254985,4.0030503-.5026875,8.7366507.0257573,14.2008012,1.6071383.1559817-.2588912.3126821-.5177825.4686638-.7765539-1.7855229-2.2971955-4.5495852-4.6239819-8.2826027-6.9671812-4.7451014-1.9283264-8.2179098-10.492942-10.431364-25.7234379-.7386966-8.0942746-1.4776328-16.1879502-2.2163294-24.2810267-1.2921799-8.8746621-10.1963133-21.4116589-26.7126396-37.1854549,9.9150191,19.2509174,15.0564241,30.222347,15.4290071,32.7692089-.0167722,2.8924896-.0335444,5.7849791-.0500771,8.6775885-2.002843,25.0384124-4.8689762,40.418181-8.6099006,46.1557187-9.8723698,12.404017-17.1960805,19.041025-21.9605897,19.795176.1186036,8.8443523-.284409,13.7747867-1.2092772,14.7887874-2.7353099,11.3255631-7.5005379,19.796374-14.2894544,25.4707763-1.4582249-.6199732-2.9169291-1.23779-4.375154-1.8533306-12.0637804-9.6706239-18.6097393-17.9138119-19.6378765-24.9556295-.810338-5.5333958-3.8374845-7.8194497-9.0747308-6.8150332-10.6618622-4.5989434-18.3075997-9.2341867-22.9381707-14.0553621-12.5949807-21.6558145-19.4749464-36.3732002-20.654992-44.4069749-.5074795-3.4493274,1.4275557-16.025619,5.8070226-37.6976067-.4279313.0933254-.8558626.1868905-1.2835542.2805753.1507104,1.0271788-1.329558,4.6739392-4.4321796,10.9486673-7.6613116,15.3881547-10.9606474,26.7138376-9.9051954,33.8863588,1.6669193,7.9997511,3.3340782,16.0024973,5.001956,24.0081187.3399969,5.656432.6802334,11.3129839,1.0204699,16.9697753.3972621,2.7064377-2.7161416,8.9343233-9.333023,18.7478705.0618176.419066.123156.8382517.1849737,1.2574375Z"/>
  <path d="M320.7346985,642.8938109c-9.9722843-7.6782037-15.1798198-18.0774608-15.6427331-31.3506383.1907241-.0376177.3809691-.0751156.571813-.1127333.439552-6.6704327.9923166-10.0725582,1.6650025-10.2045796.6415375-11.8585603,4.2159377-23.5384965,10.7339828-34.9785898-5.4138338-3.6556257-8.1529774-6.6459932-8.2364791-9.0190231.184135-.226425.3683899-.45285.5524051-.679275-.1453193-4.1705329-.2907585-8.3410659-.4360778-12.511479-.1081808-3.1265819-.9113307-6.8845181-2.4077723-11.2685375-2.3457151-3.9294921-4.6907114-7.8532338-7.0349889-11.7711052-.0379771-1.0903143-.0758344-2.1805087-.1139313-3.2707032-.2435566-7.0080336,3.5795517-18.3362323,11.4901704-33.8899528-.0083861-.2367279-.0165326-.4735757-.0249187-.7105432-.2375666.0457642-.4747737.0915284-.7122204.1374124-1.2417435,1.5750315-2.4833671,3.1517402-3.7245116,4.7301262-12.877952,16.0798891-19.6771715,30.0495931-20.4248532,41.6463869.2198359.8130934.4400312,1.6263066.6598672,2.4394,3.8405994,8.4498457,5.7936049,13.5387776,5.8530265,15.2427156.1652064,4.7404291-3.0157654,13.9730584-9.5315343,27.7574292-18.3559995,28.9990529-35.0098581,50.6940425-49.9819419,64.91521-.2139656-6.2351935-5.4382733-17.7016432-15.6359044-34.2319863-.4261343.1109363-.8521487.2219923-1.2778038.3334078-8.9754153,2.3479914-15.7890109,2.0194954-20.4639085-1.0786935-16.8574014-6.1004167-25.5336721-17.2908436-26.1112356-34.0271256.3101663-3.3835563.620692-6.766873.9307385-10.1503095-.4769301-13.9620366-1.9727728-42.7109438-16.5775449-48.7363648,8.6877717,10.314797,7.1655727,39.6787656,7.5437863,50.7230345.0147356.4246966.0293514.8496329.0439672,1.2743295-5.2979857,11.3359858-7.7742845,21.795623-7.4481846,31.3291938.18114,5.289959-2.2489154,10.4190244-7.2779466,15.4317625,9.8092343,7.4248233,15.0759518,21.2215337,15.7631337,41.2348685-1.6531421,9.7565216-3.4686154,14.9329087-5.4356377,15.5350315-1.2651048.3868393-2.5297304.7754757-3.7938767,1.1659091-12.226471-.4131957-18.766919-13.6202427-19.6674675-39.8643383-.4200244.1360946-.8402883.2724288-1.2603127.4090026-.4022937,7.5732575-.8043479,15.1466347-1.206402,22.7201318.3371217,9.8177402,3.666887,18.8356851,10.0017555,27.1221214,13.594725,13.2453835,20.5240489,22.8431681,20.715971,28.4986417.1867707,5.4308456.3734216,10.8616913.5601922,16.2925369-.1377718,2.9038707-.2755437,5.8079811-.4136749,8.7119716.4329629,12.5640719-2.9447231,21.8690613-10.1182026,27.9988295,3.7718332,5.1297843,6.3133042,10.082981,7.6130316,14.8404219-.1564609.9537405-.313401,1.9074809-.4698618,2.8613412.1182442,3.4471709.2370873,6.8944617.3555711,10.3416326,4.249602,10.6345475,6.4223236,17.2410061,6.5104976,19.7918216.0291118.8496329.058583,1.6992657.0876948,2.5490184-.2209141,5.1173249,30.1571749,31.7780904,30.1749055,31.8758485-5.9531806-11.5474356-11.8998919-23.0567743-17.8390557-34.5281359-1.1808843-2.2829391-5.9288609-28.675349-3.3655861-28.179011.0009584.0039535,3.2039737,2.2363363,10.8572586,2.6671428-2.7493267-6.4225632-5.4968563-12.8370997-8.2428286-19.2432501,1.5598167-4.2699682,6.5088204-18.3757668,6.2393866-26.219057-4.6296126-18.5215653-7.0230088-30.1295007-7.1851003-34.8554338-.0832621-2.4090902-.1659252-4.8179407-.2489477-7.2270309-.4188264-12.183582,3.3453396-24.0323186,11.3147809-35.4486913-5.8045068-3.0340951-8.7985881-7.2163685-8.9845202-12.6043252-.2345715-6.8019748.8479556-13.9367585,3.2524933-21.40495,6.8502549,3.0948345,13.6334209,4.0628313,20.3558475,2.9044697,13.7227929,16.8939409,20.9149615,34.2351012,21.5180427,51.7207422-.153346,1.1361983-.3066921,2.2721569-.4597985,3.4082354,1.2833146,6.7388394,6.3116269,12.8799887,15.1063814,18.5469633.2376864-.0582236.4751331-.1163273.7128195-.1744311-1.7517388-5.0591013-3.5029985-10.114968-5.2537789-15.1676-.1142907-3.3092793,1.0739014-7.5671476,3.5668527-12.7613851,10.1948757-17.2861713,24.7871884-40.2905923,43.8289323-68.6039009,4.023177-.1885677,6.1733759,3.7531442,6.452873,11.803811.0755948,2.1789513.1517886,4.3577828.2273834,6.5366143.1717955,4.9286374-2.5318868,9.8754846-8.1111666,14.8867851,2.5303294,3.8459904,5.0614973,7.6985699,7.5937435,11.5578583,3.4529214,8.3443005,5.3541726,17.5935822,5.7069883,27.7289165-3.3956562,29.1326317-5.0074668,46.1721316-4.8360308,51.0957373.0838611,2.4156792.1679618,4.8312387.2521823,7.2469179.4899885,1.6633253.979977,3.3268901,1.4704447,4.9906946,5.5248899,7.2514704,8.3895855,13.6930821,8.5842631,19.2855401.015095.4261343.0299504.8525081.044686,1.2786424.3108851,8.9128788-4.7370746,22.6347133-15.1059022,41.3364602.0148554.4270927.0297108.8540655.0444464,1.2810384,8.8687919-9.6106033,14.9827462-17.1765529,18.3409045-22.8060296,5.0527518-9.2120234,8.0607301-17.9462781,9.0199815-26.2418193-.5732506-4.0397096-1.1471002-8.0788202-1.7207102-12.117811-.1922816-5.4957781,2.7263248-11.320172,8.7609704-17.4161561-6.707092-13.2407113-10.3857196-29.2134978-11.0393571-47.9818544-.0083861-.2368477-.016293-.4736955-.0246791-.7105432.2326547-.2362487.4653094-.4723777.6977245-.7083868-.3886364-11.1776081,3.629509-22.5259334,12.0704893-33.9303259Z"/>
  <path d="M348.183998,819.0657619c-.0210851.0210851-.0400137.0426494-.0610988.0637344,0,.0767928.0222831.0475612.0610988-.0637344Z"/>
  <path d="M456.9743837,659.6498602c-14.334979-11.1971357-24.4749855-26.5391669-30.437271-46.2991212-3.6503544-26.7007792-6.723984-44.4253046-9.2206491-53.1812433-5.6716468-11.6296195-8.5042356-18.7562566-8.5059128-21.4299885v-3.8606062c1.344653-7.5558862,6.3427753-17.6489305,14.9917313-30.167358v-.5720526c-9.996005,5.3733409-18.063444,15.0823013-24.2049527,29.0221746-2.2086621,15.2809323-4.4178034,30.5668963-6.6255071,45.8577722.0019168,10.4022522-5.2774996,23.0633634-15.8255504,38.1621973-17.4464659,12.4509792-30.602118,24.2843812-39.4970266,35.1537398-3.5359439,6.3121061-5.9300589,15.1957534-7.1728806,26.6262626.4309263-.0624166.8617328-.1245937,1.2926591-.1865311,1.7688705-3.5440904,3.5376211-7.0849462,5.306851-10.6225673,7.6460968-11.562291,13.7751462-17.6080782,18.3692975-18.1928298,1.0528164-.1339382,2.1056327-.2666783,3.1586887-.3984601,1.9141898-.2396032,3.9311694,4.5193952,6.0377605,14.276995-1.2938572,5.2113691-2.5877143,10.4244155-3.8810923,15.6391391-15.4184646,38.3466917-23.1105652,62.3700252-23.111284,71.700772.9091743,3.1159195,1.8182287,6.2326777,2.7272832,9.3501546,4.1130282,8.635658,8.2279732,17.2889268,12.3443558,25.9598064-.0007188,12.2727144-3.9980186,31.0341225-4.5368862,32.5776462,10.9656791-10.9701117,16.4588216-23.5997151,16.4576235-38.0740233-2.2045888-9.3651298-4.4084589-18.725228-6.6118497-28.0802945-.0004792-7.4368035,2.635635-13.8298955,7.9018732-19.1371059,2.3042638-1.8953809,7.0929729-4.4247519,14.3776283-7.5143151-8.7220349-5.7127388-13.0818544-13.0913187-13.082094-22.2497908,1.2442593-4.9146206,2.3938754-7.435845,3.4486086-7.5584021.0009584-3.4263255,4.7935012-7.250512,14.381462-11.3305947-2.684514-4.7684627-4.0258126-9.6719417-4.0265314-14.727449v-4.4352944c.0007188-14.0963342,7.9076237-31.1445796,23.7482691-50.7505889.2410408-.0222831.4820816-.0445662.7228828-.0669691,3.0724316,10.1120928,6.7695086,18.6959964,11.0914707,25.7676447,7.0611057,8.7952337,14.1250866,17.6416226,21.1921824,26.5395263v4.5783375c-1.3453718,1.1429072-2.6909833,2.2876113-4.0363551,3.4341126-1.5394504.1122541-3.0786612.2267844-4.6178721.3438306-9.6085667-1.5551444-22.1513139-9.4778631-37.5982912-23.5447262-.1916825.0196475-.3838443.0392949-.5755268.0589424,8.2536107,22.9061837,21.212309,38.8859187,38.8974196,48.3218513,20.1848906,8.8921532,30.2927903,20.4611531,30.2935091,34.0740879-.1924014.8684417-.3850423,1.7368834-.5772041,2.6053252,0,10.6943285-7.2652476,23.0567743-21.7856794,37.4100829v.5719328c6.5862122-3.7512274,13.1752996-7.4577687,19.7660642-11.1196241,9.7130337-9.6042538,16.0701852-20.5599894,19.0527656-32.9944359-.1924014-3.2335647-.3850423-6.4671294-.5772041-9.7006941-3.0791404-10.3077287-6.1575621-20.6059932-9.2362233-30.8943141v-4.0035295c.0009584-3.907209,2.2124958-5.9800161,6.6382061-6.18296.24152-.0110217.48304-.0219237.72456-.0328256,2.0212924-.09057,5.7222031,1.0310125,11.1171083,3.4046414.2396032-.2472705.4792064-.4944212.7190491-.7416916-2.6476151-3.3834365-5.2952303-6.7594453-7.9421266-10.1283858-10.6819889-6.1240176-17.7061957-10.4888688-21.0733392-13.2582023Z"/>
  <path d="M733.5456973,382.9111838c8.4802753-8.7043043,15.0075451-12.4936285,19.5767777-11.4499171,1.0473055.2393636,2.0943714.4799252,3.1411977.721565,1.9043661.4394322,3.499644,5.8355354,4.7793646,16.1804027-1.6959113,4.6744184-3.3923018,9.3519517-5.0889319,14.0322404-18.2922651,32.3485856-27.845723,53.3827496-28.6047859,62.5799176.6428553,3.3887078,1.2854711,6.7780145,1.9283264,10.1676807,3.3527673,9.9426933,6.7043365,19.8971272,10.0549474,29.8631818-1.072943,12.9826586-9.5870024,27.2789417-25.5670968,43.2895855-.0155742.1882083-.0309088.3762968-.0467226.5645051.2393636.0480404.4789668.0962007.7185699.1443609,11.7194707-7.8728812,17.6113128-12.2710372,17.7057165-13.4069959,11.7467854-7.0498443,18.196903-17.610594,19.3769487-31.8917821-1.4081479-9.9836655-2.8170146-19.9654141-4.2258813-29.9450063.6052376-7.3252682,3.720079-12.708313,9.3344606-16.1015732,2.4211901-1.0647965,7.3383266-1.8893909,14.7487737-2.3955526-8.107932-8.6521906-11.8006962-17.4383193-11.0550511-26.4532691,1.6249888-4.4024688,2.9600577-6.481266,4.0054463-6.2337559.2796169-3.3716959,5.3055332-5.4581604,15.0533093-6.1152721-2.2505927-5.6277995-3.1697105-10.9209931-2.7597494-15.8922798.1198016-1.4540319.2396032-2.9078242.359884-4.3617363,1.1412299-13.8609241,10.3007803-27.8505151,27.4137185-41.5027448.237926.0630156.4756123.1262709.7132987.1895261,2.1938067,11.0133601,5.1198407,20.7424472,8.7795397,29.2017572,6.2018887,11.1138736,12.3989853,22.26836,18.589373,33.4633393-.1226768,1.4959624-.2463121,2.9919249-.3692285,4.4878873-1.4081479.649684-2.815577,1.3015245-4.224204,1.9555213-1.5142921-.4280511-3.0295426-.8538259-4.5450327-1.2770849-9.2752787-4.8846702-20.9156803-17.0405781-34.9351019-36.2949697-.1897657-.04828-.3795314-.0964403-.5695368-.1444807,6.2428608,25.4144696,17.6618691,45.6391343,34.2057498,61.0504107,19.0288052,15.7501952,27.9554613,30.5786369,26.860954,43.9087201-.2575734.7838618-.5153864,1.5678434-.7734391,2.3519448-.8623318,10.4735341-8.9489391,20.0664068-24.3132534,29.1484455-.015095.1870103-.0304296.3740206-.0462434.560911,6.7481839-1.4134192,13.4887006-2.7787979,20.2217895-4.0962559,10.2617249-6.0632782,17.3415197-14.5895574,21.2508851-25.72212.0721206-3.2302103.1449599-6.4603007.2170805-9.6906308-2.1729612-11.1520904-4.3466413-22.2989094-6.5217589-33.4409365.1078214-1.3060769.2151637-2.6121539.3222663-3.9183506.3143594-3.8238271,2.6418646-5.0807854,6.9702961-3.7344551.2360091.0735582.4727371.1471164.7087462.2207943,1.976247.616499,5.4960177,3.0055823,10.5573953,7.2078626.2532606-.1581381.5067607-.3161564.7597817-.4742945-2.3064202-4.2310327-4.6137988-8.4564348-6.9223754-12.6760864-9.9157379-9.7214198-16.4209643-16.4547483-19.4823741-20.3449455-13.088084-15.9828498-21.7679488-34.5867189-26.0031746-56.0694201-1.4143776-27.4719421-2.9885704-45.949061-4.7237767-55.4266845-4.6075691-13.4277215-6.8085639-21.436338-6.5922023-24.0596334.1039878-1.2627088.2074964-2.5254175.3119633-3.7881263,1.92617-6.9330378,7.6354345-15.0476786,17.1021561-24.2121408l.0460038-.5606714c-10.203741,1.6762638-18.8893562,8.3034482-26.0324062,19.7901443-3.4009275,14.2108645-6.8032927,28.433829-10.2078142,42.6690133-.8434032,10.218836-7.0390622,20.7786273-18.6265115,31.8929801-18.1497012,6.0696277-32.0706459,13.0758643-41.7247371,20.6485227-4.0032899,4.972964-7.087462,12.8877758-9.242453,23.7244285.4300877.089971.8599358.1803014,1.2900235.2707516,2.0335122-2.8727223,4.0667848-5.7411318,6.0990989-8.6052284Z"/>
  <path d="M577.1614946,645.6045615v-6.5802221c.1924014-.8538259.3850423-1.7077717.5774437-2.5617174.1931202-5.4204229,6.4065098-14.7394291,18.63346-27.7224472v-.5719328c-8.9558876,4.4303826-13.5773537,7.1248401-13.8653567,7.9725562-8.8622028,4.0320423-17.0456097,15.9381638-24.561003,35.6818252-2.984018,9.6040142-11.6547778,17.5765704-26.0091647,24.2280744.0009584-8.1014627-2.1655335-18.3948152-6.4966006-30.8459142-14.3579809-29.0347538-32.0795112-48.3514423-53.1564444-57.5822745,1.9731322-4.7165886,3.946504-9.4292237,5.9203549-14.1377856,5.1950761-5.9388044,9.6224637-8.9616381,13.2864755-9.0834763-.434161-2.7985651-.8683219-5.5968907-1.3024829-8.3952162.6740037-3.3125139,1.3477679-6.6246685,2.021532-9.9363438.1924014-.0063495.3850423-.0124594.5774437-.018689,3.1289779.0894918,6.2581954.1891667,9.3878921.2987852,16.9480912-5.294751,27.9832552-12.0922932,33.086803-20.7942015,1.5895275-.0050317,3.179055-.0076673,4.7688221-.0076673,10.1165254.0002396,20.5153034,5.1606931,31.2075952,15.4958564-.6742433,4.5631227-1.3480075,9.1266049-2.0220112,13.6905662.3860007,9.1615869,1.2509682,16.6171993,2.5994549,22.3685142.0007188,12.3122489-6.4048326,25.0524292-19.2161749,38.4742804v.7149759c.1921617.0016772.3852819.0033544.5774437.0050317,9.1533206-4.5875623,16.4746354-10.5903407,21.9629858-18.0907588,7.5127577-7.6354345,11.2692563-21.2817939,11.2680583-41.0254553.0007188-6.3778772,6.2121916-15.8534641,18.6303452-28.1839229v-1.4299518c-4.4278667-.1970736-8.8566919-.3740206-13.2857567-.5309606-3.5624201-1.4140182-7.1262777-2.8149779-10.6896562-4.2028794-18.8785741-13.3910623-30.1466323-24.7955746-33.8048937-34.7465342.0004792-12.2003543-4.1911388-21.440531-12.5741352-27.6159436v.7177313c1.734727,6.5739924,2.8445689,12.6760864,3.3247337,18.299573-.4344006,2.1940463-.8685615,4.3882124-1.3027225,6.5826181-4.1405825,11.9334363-11.8970166,21.5858504-23.2613954,29.1319129-8.9534916,4.7416271-16.2757647,7.3848096-21.9538809,7.8587447-6.0701069-1.132724-11.3610243-2.8741599-15.8847323-5.2513829-.2412804.0105425-.4828004.0213247-.7240808.0321068-.192641.2001885-.3852819.4003769-.5774437.6005654.4339214,3.031699.8676031,6.0637574,1.3015245,9.0959357.001198,7.2488348-2.4566514,13.2637132-7.3685166,18.0794975-13.6664861,29.9610597-20.4913431,51.5156418-20.4906242,64.3763425.0009584,18.4141033,5.9594103,31.113551,17.8935654,38.3168611.24152-.0123396.4825608-.0245593.7240808-.0367791-4.4305024-9.119896-6.6429981-15.7637327-6.6425189-19.9622992-.0007188-6.8652301,1.5399296-11.576188,4.6224245-14.1222114,1.1055291-.0572652,2.2105789-.1132125,3.3158684-.1679618,6.1623542-.3045356,13.9116002,5.498893,23.2527697,17.4871984,12.319437,24.483132,18.4896981,42.5605928,18.4880209,53.9934981-.8664051,9.0300448-1.7328102,18.0608084-2.5992153,27.0924106-.0009584,6.5823785,3.0808177,15.0368965,9.242453,25.4250121,0,10.1140096-5.5396255,25.2881987-16.6097716,45.7101766v1.2896641c4.8620277-5.1899247,9.7245346-10.3556494,14.5877603-15.4970544,11.0790114-14.3987134,16.6171993-24.8911762,16.6174389-31.6690709v-6.5801023c-.434161-5.2419185-.8683219-10.4837173-1.3024829-15.7252764v-1.429832c-.0002396-11.3375432,7.0800343-21.2614277,21.240103-29.4698732,12.1373386-9.1543988,20.1352927-13.5922091,23.9847574-13.5049936.6268019.921394,1.2536038,1.8431475,1.8804057,2.7652603v1.2869087c.0009584,5.5336354-3.0865681,12.4564901-9.2477243,20.8260687v.5719328c.24152.242718.48304.4855558.72456.7286333,3.0808177-1.8963394,6.1616353-3.782855,9.2422134-5.6595469,5.1006725-4.826207,8.1824486-10.4475372,9.2465263-16.8995716-.1919221-1.293977-.3845631-2.5878341-.5774437-3.8816913.0002396-2.1905721-2.8884163-10.6334693-8.6690826-25.2771769Z"/>
  <path d="M646.4727041,617.2022402c-.0004792-4.8625069,2.835464-16.8202629,8.5059128-35.8295405v-5.8652462c-.0002396-8.7697159-3.5070717-19.9317498-10.5238508-33.4069128-.4310461-.0309088-.862811-.061578-1.2948156-.0921274.8652071,7.4524975,1.7296953,14.9058336,2.5949024,22.3600082,0,10.6863018-5.6742825,20.0153713-17.0202118,28.1888348-8.755819,3.9539317-14.0026494,7.1804281-15.7337823,9.5692718,1.2998472,1.5912047,2.5994549,3.1839668,3.8990625,4.778526,3.9441079.2084548,5.9179589,9.002131,5.9179589,26.3583863v18.8798919c-.24152,1.5123753-.48304,3.0248703-.7243204,4.5374852.0002396,5.24707-2.1667315,7.7415787-6.495163,7.5162319-2.8388185-2.340324-5.6771577-4.6723818-8.5169346-6.9961732-3.5595448-4.4554211-5.9709112-11.5138912-7.2163685-21.1980526.3778542-6.5645281,1.6808163-13.4258047,3.8940309-20.5766418-.4315253-.0189287-.8637695-.0376177-1.2962532-.0559473-6.163073,10.4205818-9.2434114,20.2846853-9.243651,29.5292948,1.9244927,16.0961821,7.4114055,30.2092886,16.4600196,42.4612773,8.2794878,11.4621369,12.4131219,20.1543412,12.4143199,25.9650777-.4320045,6.7465067-.8637695,13.493253-1.2955344,20.2401191-2.8402561,3.7529046-5.6805122,7.5141953-8.5212474,11.2838721v.5719328c6.1606769,5.5531631,9.2405362,10.0718394,9.2398174,13.5011599-.4339214,9.1306781-.8676031,18.2614761-1.3015245,27.3925136,0,6.7793323,6.1103603,16.6146834,18.3258095,29.730801.24152.016293.48304.0327058.7236016.0491187.1924014-.225227.3845631-.450454.5767249-.6755612-5.6752409-11.3517996-8.5102257-20.3910691-8.5107049-27.1614163.4320045-2.1663721.8632903-4.3327443,1.2952948-6.4986372,11.8323238-23.5594618,17.7418966-36.9516022,17.7414174-40.3912257-.1919221-1.7790536-.3845631-3.5579874-.5764852-5.3369212-6.6307784-15.8493909-9.95072-26.6969456-9.949522-32.6150243.0002396-20.4923015,5.9189173-36.8613916,17.7366253-48.8853979v-1.2869087c-7.402061-8.8898769-11.1044093-17.8239607-11.1051281-26.8881489v-9.1539196Z"/>
  <path d="M628.5614081,508.3451251c.1102175-.4708202.1969538-.9363692.318193-1.4095855,4.6178721-9.8251679,7.550615-18.3048442,8.7999059-25.4692189-.9131277-14.9859808-1.826495-29.9710032-2.7398623-44.9553068v-6.7231454c.0009584-6.481266,1.8262554-10.5629061,5.4823603-12.2214393,1.3451322.092966,2.0198548,1.0011819,2.017938,2.7169802,8.3626301,8.7975099,22.0645775,15.8081791,41.0694225,21.4888111.1921617.0189287.3833651.0378573.5755268.0569058-.0002396-5.9093332,1.8231406-13.7424403,5.4703802-23.4779967,4.2186932-12.1453653,14.728647-25.582072,31.4884101-39.9014768-7.3735482-26.7548097-20.1151661-49.25247-38.2540851-67.0592991-10.6544345-7.4326104-18.0529015-13.3926197-22.1824623-18.0264254-4.9964451-13.4776788-7.9311048-20.3745365-8.7948743-20.7277116.2400824,13.6077833.4801648,27.2154469.7204868,40.82335.0007188,9.6340844-3.8425162,16.6648803-11.5342574,21.1837962-2.696015-4.1926962-4.7115569-8.3292055-6.0588456-12.4234248,1.5871315-9.7187841,3.1742629-19.4350524,4.7613944-29.1486851-.8642487-9.403706-2.4537762-18.1919911-4.7613944-26.3523962,0-6.3811119,4.9506809-16.7659928,14.8546783-30.997583v-.7177313c-1.3480075-.0988363-6.0552515,4.2105467-14.1334727,13.0227922-6.7318909,7.7635024-11.0155165,19.3463993-12.8422512,34.6893888-.0002396,18.6066244-6.5414064,32.2097355-19.6328449,41.0733759,1.1553665,2.0526804,2.3112123,4.1067985,3.4665788,6.1622344,2.5989757.1187234,5.9663588,9.6738585,10.104066,28.6757084-.2908783,17.3429573-2.3068994,25.9110472-6.0602832,25.7287091-1.3480075-.0652919-2.6955358-.1286669-4.0437828-.1901251-9.4324583-4.4317004-14.1512033-16.4013168-14.1514429-36.0517725v-6.0081695c.1924014-3.3303644.3850423-6.6607288.5776833-9.9909733-.4327233-.0158138-.8659259-.0312682-1.2991284-.0466028-2.699609,13.6372545-4.0466581,22.9393687-4.0452205,27.8986753v3.4317165c.0004792,12.3058995,3.8063361,24.4317371,11.4099034,36.46389,10.8767863,16.2793588,16.3129032,28.1755368,16.313622,35.5114673-.0002396,18.5037149-3.1725857,33.0653585-9.526862,43.7412375,6.0648357,8.8575305,9.4307811,17.0495632,10.104066,24.5212289-.1921617.1806608-.3848027.3613216-.5772041.5419824.0002396,2.9084232.0002396,5.8167266,0,8.72503-.240322,1.1323646-.4808836,2.264849-.7214452,3.3973335.2405616.0123396.4811232.0246791.7214452.0371385.0002396.4288897.0002396.8578992,0,1.2869087.0002396,3.666887.767449,7.8727614,2.2910856,12.620139-.0764334.9945928-.1305837,1.9996083-.1305837,3.0294228.4339214,6.3172576.8676031,12.634635,1.3012849,18.9523718-.4336818,1.931561-.8673635,3.8633617-1.3012849,5.7954019-5.2894798,10.402372-7.9394909,17.6734899-7.9390117,21.7709438v5.8652462c.5582754.0267158,1.1160716.0535513,1.6741074.0808661.1152491-.6616642.2307379-1.3233284.3462266-1.9848727,2.2134542-5.8016316,7.8944455-10.7252373,17.0350672-14.6579641,2.8304324.1726341,4.3408908-3.075786,4.5685138-9.6719417l.3385593.0215643c-.1059046-.4044502-.2043815-.7928469-.3078901-1.191906.002396-.2068973.0158138-.3846829.0158138-.5974505v-5.8652462c-.8654467-6.5877696-1.7308934-13.1749402-2.5961004-19.7612722.4317649-3.2152351.8635299-6.4301107,1.2950552-9.6447468-.0014376-4.0819996,8.515497-13.3962137,25.5292395-27.4885945-.6253643.1878489-1.2507286.376177-1.8760929.5648645-11.7980605,2.8498402-20.8224746,7.1900122-27.1403313,12.8835827ZM651.812261,356.1738651c8.940553-9.7039287,14.0781244-19.9243221,15.4234962-30.7778669,5.4718178,3.2469825,8.2114405,5.273067,8.2104821,6.033807,9.5994618,6.6158032,18.0890816,19.993208,25.4734119,40.0717148-6.3286388,6.2613103-11.0320492,9.7859928-14.1006471,10.5242102v-.7148561c-4.0282086-.4056482-6.0480634-5.2675561-6.0468654-14.6159137-.0009584-5.5284839,1.1026538-11.0023384,3.3127535-16.4135366v-.7149759c-.1916825-.0190485-.3833651-.0379771-.5755268-.0569058-5.469901,6.2350737-8.8329712,15.3222639-10.0815433,27.2203587.1919221,4.4521865.3840839,8.9041333.5757664,13.3563198-.0002396,2.4792939-.0002396,4.9587076,0,7.4380015-.0014376,4.1978477-1.7745011,9.1340326-5.3275767,14.8247279-4.706046-2.8474442-9.4137693-5.6722459-14.1231698-8.4739258-10.6692899-11.1331617-17.6412632-23.4007247-20.9111278-36.9672962,5.2882818.3393979,11.3444917-3.2469825,18.1705467-10.733863Z"/>
  <path d="M787.7008078,700.508312c7.9045089-8.16951,11.8536485-19.2218056,11.8531693-33.243743.0007188-10.4865925-2.8534343-20.640496-8.5708453-30.4142691.6682533,4.6939461,1.3367461,9.3882516,2.0049994,14.083156-.002396,14.7903448-5.2372463,24.3289474-15.7289903,28.7959892-.6670552-.1098581-1.3345897-.2191171-2.0018846-.327897-1.5255534-.2484685-3.4816738-1.4233627-5.8676422-3.5209687-7.8201685-4.7683429-17.8940446-14.6047722-30.2343271-29.3678022v-.7148561c3.1538966-2.3303805,7.3167623-10.7149344,12.4742207-25.1227527,1.0513787-2.2261531,5.877466-8.3044066,14.472032-18.1213082,2.4801325-3.2329657,7.3023861-16.4504354,14.4487905-39.575856,5.5269265-12.3296202,13.1530165-21.950167,22.8586225-28.7581319v-.7149759c-.1904845-.0348623-.3802502-.0696047-.5707348-.1043472-9.6107231,2.8220462-18.327966,7.9075039-26.1507701,15.2060563-4.624581,9.7307643-9.2513183,19.4839315-13.8811706,29.2593818-6.6870851,8.5072307-13.6585792,12.2483947-20.9290981,11.2347534-1.3369857,14.213021-2.6768467,22.133703-4.0152701,23.7619264-11.2889038,16.4832611-21.3915322,25.9628014-30.3028536,28.3688966-.4320045-3.1497036-.8642487-6.2992874-1.2962532-9.4486316v-34.0447365c.8620922-10.8196409,1.7246637-21.6386829,2.5869955-32.4566466v-1.2869087c-.4300877-3.769557-.860415-7.5388744-1.2907423-11.308072-4.7968556-17.0486048-7.1914498-26.9375072-7.1928874-29.7061219v-3.2915487c0-7.1465242,4.8452555-17.744652,14.5235467-31.6508611v-.7148561c-16.6778189,10.8789427-25.0275104,24.7317203-25.0251144,41.1168639.4308065,7.0535582.861613,14.1072362,1.2921799,21.1611537.002396,7.5364784-3.5480439,13.6872118-10.6479653,18.530191,7.4840053,14.2677703,11.2222941,25.5893799,11.2232525,33.8824053.0002396,1.097143.0002396,2.1942859,0,3.2914289-1.7272993,17.3658394-4.9863818,27.0884572-9.7841958,29.1937305-.2408012-.0233613-.4813628-.0468424-.722164-.0703235-5.8527868-.5664219-9.1674572-6.9598733-9.9358646-19.2406145v-9.8688955c.2410408-1.0745005.4816024-2.1490009.7226432-3.2232618-.4332025-.0392949-.8659259-.0783502-1.2988888-.117166-3.5523567,12.4610425-5.3306915,20.4164671-5.3311707,23.847345-.0002396.858019-.0002396,1.7157984,0,2.5738173-.0007188,7.25171,2.8812282,14.500425,8.6456015,21.79742,10.9438752,10.5520042,16.4130573,24.4528222,16.4123385,41.5142458-.0014376,17.2666437-4.4163658,31.6655967-13.2450241,43.3192963-.0002396.1907241-.0002396.3813285,0,.5719328,6.238548,6.8841587,9.3572229,14.4564578,9.3577021,22.6575954v11.7276172c-.0026356,14.2257199,8.5473642,27.6950126,25.6042353,40.8586915-10.0630939-18.1634784-15.1009903-31.7937844-15.1009903-41.0490562.4324837-2.1468445.8647279-4.2932098,1.296972-6.4394552,7.4777756-14.0581175,11.2184604-24.524823,11.217502-31.4918844-2.5925064-19.1820315-3.8830091-33.7271424-3.8830091-43.6468338-.0004792-3.6218416,1.0552124-8.7488705,3.1620431-15.3700647-.0009584-1.6116908,6.184158-6.8424678,18.5349831-15.4608743,3.9254189,5.942638,7.8486813,11.9012097,11.7705062,17.8758348,10.7085849,11.1053677,20.3578841,18.2752533,28.9493353,21.4401716.2374468.0374979.4751331.0751156.7128195.1127333-7.4403975,13.414783-11.1671854,24.649177-11.1659873,33.6065022-.4792064-.0721206-.9584127-.1440015-1.4376191-.2157627-8.6889697-8.2534909-13.0435178-15.6178144-13.0435178-22.2027088.4315253-4.087151.8623318-8.1739426,1.2931384-12.2606145-.4308065-.060979-.861613-.1214788-1.2931384-.1819786-2.865654,6.5590172-4.6387175,12.2306641-5.3084084,17.0008039.4775291,4.643869,1.5816206,9.3699219,3.301013,14.187024,10.992275,15.2667957,16.4863759,27.4750569,16.4885323,36.4311841-.0007188,5.545376-8.3585569,15.1334566-25.1003498,29.2013978-.0002396.2382854-.0002396.4765707,0,.7148561,10.2411191-2.8359432,21.4272331-9.3456022,33.5504351-19.4650028,5.2473096-6.3301962,8.7742684-14.4767043,10.585908-24.4781003.0009584-12.6801596,3.6745543-28.9222601,11.0133601-48.6465136Z"/>
  <path d="M936.3101269,716.4232344c.2319359.10267.4638718.2054597.6958076.3082495,1.9383897.860415,5.2985847,3.6537089,10.0753137,8.4176191.268116-.120161.5364715-.2404418.8043479-.3607226-2.005239-4.4305024-4.0111968-8.8566919-6.018113-13.2784488-9.2470055-10.793644-15.2792551-18.2268534-18.0658401-22.4303318-11.954761-17.33529-19.2775133-36.6743813-21.9258473-58.2524446.6282395-27.0591058.4269729-45.3443026-.6085921-54.8511577-3.6213624-13.7617284-5.2257453-21.9002097-4.8138675-24.4368886.1981518-1.2212574.3965433-2.442395.5949347-3.6635326,2.4477861-6.5184045,8.7704348-13.6734346,18.9363184-21.3118641.0292316-.180541.0584632-.361082.0879344-.5415032-10.3489405.2161221-19.5396392,5.4943405-27.5529279,15.7585813-4.4664429,13.4438948-8.936959,26.9091142-13.4110691,40.3957781-1.6060601,9.8970489-8.607265,19.4078575-21.046264,28.7784982-18.6375333,3.5581072-33.0980643,8.6276313-43.3324745,14.8220922-4.3780293,4.370362-8.0621678,11.7560102-11.0373204,22.1383753.4240976.1436421.8472368.287404,1.2713345.4312857,2.2515511-2.5651916,4.5023833-5.1249922,6.7524968-7.6796413,9.1461325-7.4671133,15.965239-10.3398356,20.4618719-8.7223943,1.0312521.3710255,2.0610665.7431293,3.0918394,1.1163112,1.8724988.6785562,3.0666811,6.1842778,3.5722438,16.5045858-2.0498052,4.369763-4.1003292,8.7439586-6.151572,13.1227067-20.7551462,29.4257862-31.9072365,48.9528462-33.359711,57.9025042.3886364,3.4135067.7763143,6.827253,1.1649507,10.2411191,2.6087994,10.1948757,5.2166404,20.3970592,7.8237626,30.606311-2.0507636,12.6354736-11.6612471,25.6515569-28.8796107,39.5131998-.0297108.183536-.0594216.3669523-.0888928.5503685.2362487.0759542.4724975.1519084.7087462.2279824,12.3330944-6.3554743,18.5704444-9.9683308,18.750626-11.0755371,12.3012272-5.5217751,19.5674332-15.1133299,21.8213803-29.0016886-.660586-9.983306-1.3214115-19.9662527-1.9824767-29.9486003,1.1563249-7.1240015,4.6837629-12.0260429,10.564823-14.6552086,2.50577-.7421708,7.4976627-.9354108,14.9632185-.4989736-7.4792132-9.512965-10.5169023-18.6081819-9.0941386-27.3659177,1.9597144-4.1163826,3.4500462-5.9866052,4.4817775-5.610548.5312002-3.2741774,5.7257972-4.6818461,15.5454542-4.0754105-1.8315267-5.8086999-2.3600913-11.1199835-1.5751513-15.9435549.2295398-1.4106637.4581213-2.8213274.6876611-4.2318713,2.1861394-13.4470096,12.407611-25.9852043,30.5810329-37.0854206.2338527.0934452.4677054.1868905.7013185.2803357,1.3731658,11.0751777,3.5823071,20.9874414,6.6233507,29.7488911,5.3913111,11.6943123,10.7771114,23.4197731,16.1571612,35.1765021-.2350507,1.4469636-.4698618,2.8938074-.7049126,4.3410106-1.4613398.4521312-2.9233984.9065386-4.3852174,1.3632223-1.4879357-.6157802-2.9773091-1.2290445-4.4662033-1.8399128-8.9431886-5.984329-19.7143099-19.3892882-32.3263025-40.0887266-.1866509-.0720008-.3730621-.1440015-.5599526-.2158825,4.3567046,25.7272715,14.29209,47.0146961,29.7484119,64.2209598,17.9319019,17.861818,25.7980743,33.4913729,23.7063385,46.3798675-.3174742.7334253-.6347088,1.4668507-.9519434,2.2003958-.7144967,4.401151-3.3875097,14.006483-7.9529087,25.3982964-1.8722592,4.599183-37.7111443,21.6931926-37.7346254,21.8277298.016293-.0926066,29.5842837-4.0715768,28.7866447-2.5145156-5.0192074,9.424192-11.1247756,18.8364039-18.2922651,26.7403138-10.5712922,11.6582521-18.9871143,18.227093-18.9875935,18.2242178.0016772-.0045525,16.0258586-4.2552327,31.5873663-15.1601723,3.9091259-2.7451336,10.5202568-13.7387265,17.278504-26.4163703,1.1553665-2.170086,6.3135438-12.1965206,7.6915016-14.9589057,2.4854038-4.9826679,6.1436651-12.5904282,8.1199121-16.7156762.6651384-1.3936519,2.6538448-1.2772047,3.8933121.227623,3.6757524,4.4561399,10.3688276,11.9929777,12.9095797,10.7418897-3.0496693-11.5940384-6.1017345-23.1780135-9.1554771-34.7518054-1.357352-11.1693418-2.7149436-22.3364073-4.073254-33.5016759.2046211-1.2616305.4092422-2.5235007.6141029-3.7850114.6016436-3.6936028,3.0283446-4.6176325,7.2791446-2.7365079Z"/>
</svg>