<?xml version="1.0" encoding="UTF-8"?>
<svg id="_Шар_1" xmlns="http://www.w3.org/2000/svg" version="1.1" viewBox="0 0 721.2758717 696.9528257">
  <!-- Generator: Adobe Illustrator 30.6.0, SVG Export Plug-In . SVG Version: 2.1.4 Build 75)  -->
  <defs>
    <style>
      .st0 {
        fill: #00aeef;
      }

      .st0, .st1, .st2, .st3, .st4 {
        stroke: #231f20;
        stroke-linecap: round;
        stroke-linejoin: round;
        stroke-width: 44.5655913px;
      }

      .st1 {
        fill: #ec008c;
      }

      .st2 {
        fill: #fff200;
      }

      .st3 {
        fill: #fff;
      }

      .st4 {
        fill: #ebe2e3;
      }
    </style>
  </defs>
  <path class="st0" d="M678.0070242,129.3291556c-11.7428042-7.353159-26.8952133-9.2920232-41.2231699-3.1196456l-276.1507924,119.101428L84.5048461,126.20951c-14.3276846-6.1723776-29.4354845-4.2335134-41.1785608,3.0750365C131.3879329,62.1464757,241.3534695,22.2827956,360.6330619,22.2827956c119.302169,0,229.2902822,39.8859846,317.3739623,107.04636Z"/>
  <g>
    <g>
      <polygon class="st4" points="698.993076 218.1600653 360.6379358 364.0796054 360.6379358 575.5087678 698.993076 431.0752908 698.993076 218.1600653"/>
      <polygon class="st3" points="22.2827957 218.1600652 360.6379358 364.0796054 360.6379358 575.5087678 22.2827956 431.0752908 22.2827957 218.1600652"/>
    </g>
    <g>
      <path class="st1" d="M698.993076,377.5965695l-338.3551402,145.9195402v151.1539204l311.285844-132.8784211c16.4175627-7.0081562,27.0692962-23.1366673,27.0692962-40.987455v-123.2075845Z"/>
      <path class="st2" d="M22.2827957,377.5965695l338.3551402,145.9195402v151.1539204S49.3520918,541.791609,49.3520918,541.791609c-16.4175627-7.0081562-27.0692962-23.1366674-27.0692962-40.987455v-123.2075845Z"/>
    </g>
    <g>
      <path class="st1" d="M636.7792853,126.2145703l-276.1413494,119.0891284v151.1539204l338.3551402-144.433477v-84.8872954c0-32.037844-32.795095-53.6094268-62.2137908-40.9222764Z"/>
      <path class="st2" d="M84.4965864,126.2145703l276.1413494,119.0891284v151.1539204S22.2827956,252.0241421,22.2827956,252.0241421v-84.8872954c0-32.037844,32.795095-53.6094268,62.2137908-40.9222764Z"/>
    </g>
  </g>
</svg>