<?xml version="1.0" encoding="UTF-8"?>
<svg id="_Шар_1" xmlns="http://www.w3.org/2000/svg" version="1.1" viewBox="0 0 1080 1080">
  <!-- Generator: Adobe Illustrator 30.4.0, SVG Export Plug-In . SVG Version: 2.1.3 Build 42)  -->
  <defs>
    <style>
      .st0 {
        fill: #ff971a;
      }
    </style>
  </defs>
  <polygon class="st0" points="101.6171875 545.8244934 219.2239685 534.1135559 219.2239685 608.6448059 101.6171875 596.9338684 101.6171875 545.8244934"/>
  <path class="st0" d="M260.0926208,539.6309509c0-38.1152954,30.8985596-69.013855,69.013855-69.013855v138.02771c-38.1152954,0-69.013855-30.8985596-69.013855-69.013855Z"/>
  <path d="M713.2705078,620.3557434h-38.0380859v-161.4492188h38.0380859c44.5117188,0,80.7246094,36.2128906,80.7246094,80.7246094s-36.2128906,80.7246094-80.7246094,80.7246094ZM698.6542969,596.9338684h14.6162109c31.5966797,0,57.3027344-25.7060547,57.3027344-57.3027344,0-31.597168-25.7060547-57.3037109-57.3027344-57.3037109h-14.6162109v114.6064453Z"/>
  <polygon points="519.7358398 482.3274231 519.7358398 458.9065247 428.9648438 458.9065247 428.9648438 621.0383606 452.3857422 621.0383606 452.3857422 545.8244934 486.5634766 545.8244934 486.5634766 522.4031067 452.3857422 522.4031067 452.3857422 482.3274231 519.7358398 482.3274231"/>
  <path d="M329.1064453,458.9065247c-44.5117188,0-80.7241211,36.2128906-80.7241211,80.7246094s36.2124023,80.7246094,80.7241211,80.7246094,80.7241211-36.2128906,80.7241211-80.7246094-36.2124023-80.7246094-80.7241211-80.7246094ZM271.8032227,539.631134c0-27.5846558,19.5932617-50.6757812,45.5927734-56.0966187v112.1923218c-25.9995117-5.4207153-45.5927734-28.5114746-45.5927734-56.0957031ZM340.8168945,595.7268372v-112.1923218c25.9995117,5.4208374,45.5927734,28.5119629,45.5927734,56.0966187,0,27.5842285-19.5932617,50.6749878-45.5927734,56.0957031Z"/>
  <circle cx="356.9217224" cy="539.4074402" r="6.6827393"/>
  <circle cx="301.2911987" cy="539.4074402" r="6.6827393"/>
  <circle cx="166.3500824" cy="503.5462646" r="6.6827469"/>
  <circle cx="166.3500824" cy="570.0776062" r="6.6827469"/>
  <g>
    <path class="st0" d="M966.7159424,539.6309509c0,38.1152954-30.8985596,69.013855-69.013855,69.013855s-69.013855-30.8985596-69.013855-69.013855h138.02771Z"/>
    <path d="M897.7021484,458.9065247c-44.5117188,0-80.7246094,36.2128906-80.7246094,80.7246094s36.2128906,80.7246094,80.7246094,80.7246094,80.7246094-36.2128906,80.7246094-80.7246094-36.2128906-80.7246094-80.7246094-80.7246094ZM897.7021484,482.3274231c27.5842285,0,50.6749878,19.5936279,56.0957031,45.5932617h-112.1914062c5.4207153-25.9996338,28.5114746-45.5932617,56.0957031-45.5932617ZM897.7021484,596.9338684c-27.5839844,0-50.6744995-19.5930176-56.09552-45.5917969h112.19104c-5.4210205,25.9987793-28.5115356,45.5917969-56.09552,45.5917969Z"/>
    <circle cx="897.9255981" cy="567.4461975" r="6.6827393"/>
    <circle cx="897.9255981" cy="511.8156815" r="6.6827507"/>
  </g>
  <polygon points="231.0830078 620.3557434 101.5732422 620.3557434 101.5732422 596.9338684 207.6621094 596.9338684 207.6621094 545.8244934 101.6171875 545.8244934 101.6171875 458.9065247 231.0830078 458.9065247 231.0830078 497.1950989 207.6621094 497.1950989 207.6621094 482.3274231 125.0380859 482.3274231 125.0380859 522.4031067 231.0830078 522.4031067 231.0830078 620.3557434"/>
  <path class="st0" d="M633.6845093,574.1334534h-78.6999512v-103.4199829l43.4199829,11.75c12.9699707,0,23.5,10.5300293,23.5,23.5l11.7799683,68.1699829Z"/>
  <path d="M621.9745483,504.2234802v58.1900024h-55.2800293v-79.9899902h33.0499878c12.3400269-.6900024,22.1400146-10.9100342,22.1600342-23.4200439h-78.6300049v162.0900269h23.4199829v-35.25h55.2800293v35.25h23.4199829v-138.6300049c-12.3800049.0100098-22.5300293,9.6000366-23.4199829,21.7600098ZM621.904541,459.0034485c.0200195,12.9500122,10.5299683,23.4500122,23.4899902,23.460022v-23.460022h-23.4899902Z"/>
</svg>