<?xml version="1.0" encoding="UTF-8"?>
<svg id="_Шар_1" xmlns="http://www.w3.org/2000/svg" version="1.1" viewBox="0 0 1080 1080">
  <!-- Generator: Adobe Illustrator 30.2.1, SVG Export Plug-In . SVG Version: 2.1.1 Build 1)  -->
  <path d="M163.7082444,617.6423691h-67.0867491v-153.8349089h67.0867491c-71.0941856,26.3810355-71.2760068,127.422899,0,153.8349089"/>
  <path d="M192.2141178,478.9242062c-34.1434649,0-61.8113503,27.6732369-61.8113503,61.8060395,0,34.138093,27.6678854,61.81133,61.8113503,61.81133,34.1381134,0,61.8059785-27.6732369,61.8059785-61.81133,0-34.1328026-27.6678651-61.8060395-61.8059785-61.8060395M192.3581403,584.0642912c-23.9927073.0800487-43.4781086-19.3520412-43.4781086-43.3447484,0-31.0670838,31.7271198-51.8512637,59.9924101-40.0322717-8.2390963,10.2650118-.9348635,25.7777867,12.332379,25.9023178,4.0005616.0213246,7.6757601-1.4028662,10.4868237-3.8085587,13.0598387,28.7488394-8.1976497,61.1864373-39.3335042,61.2832611"/>
  <path d="M303.7070843,463.8079485v153.8509431h-82.9823521c71.2174441-26.4222637,71.180834-127.4556817,0-153.8509431h82.9823521Z"/>
  <polygon points="406.3775028 514.091293 406.3775028 463.8069311 388.3162923 463.8069311 388.3162923 514.1073271 363.4007667 514.1073271 363.4007667 463.8069311 345.344928 463.8069311 345.344928 528.6426928 398.504368 528.6426928 398.504368 541.8765655 415.2747479 541.8765655 415.2747479 514.091293 406.3775028 514.091293"/>
  <polygon points="442.1222667 514.4609331 442.1222667 502.6032708 470.9209465 502.6032708 470.9209465 488.9053844 442.1222667 488.9053844 442.1222667 477.9704997 474.8201755 477.9704997 474.8201755 463.7978559 423.9757171 463.7978559 423.9757171 528.6229553 476.025667 528.6229553 476.025667 514.4449396 442.1222667 514.4449396 442.1222667 514.4609331"/>
  <polygon points="529.8326995 463.8079485 529.8326995 488.1580464 504.8265036 488.1580464 504.8265036 463.8079485 486.4825793 463.8079485 486.4825793 528.6384197 504.8265036 528.6384197 504.8265036 503.34951 529.8326995 503.34951 529.8326995 528.6384197 548.171252 528.6384197 548.171252 463.8079485 529.8326995 463.8079485"/>
  <polygon points="556.5031508 463.8079485 556.5031508 478.3433548 576.420579 478.3433548 576.420579 528.6384197 594.4817895 528.6384197 594.4817895 478.3433548 614.2978851 478.3433548 614.2978851 463.8079485 556.5031508 463.8079485"/>
  <path d="M652.3649965,463.8058323h-29.636159v64.8357617h18.3439651v-16.9463486h11.3029376c38.8511132,0,38.733758-47.8894131-.0107437-47.8894131M651.2609189,497.2345158h-10.1881164v-18.9839882h10.1881164c7.5903396,0,11.3988983,3.531176,11.3988983,9.5373496-.0160342,5.9368279-3.8085587,9.4466386-11.3988983,9.4466386"/>
  <path d="M757.3851915,494.9323128c15.6592255-7.730112,11.8059309-32.5912043-20.7389139-32.5912043-7.5957928,0-15.6449371,1.5735445-22.7872158,4.9926849l5.3714409,13.8953018c10.339182-5.5016809,28.5266282-6.9517697,28.5266282,2.1282691,0,8.1625642-13.8705325,4.6241649-22.877886,5.4621112v13.4312067c11.3055134.7387141,25.470291-2.5665946,25.470291,5.6541547,0,4.9926849-6.1129187,7.5850492-13.8953425,7.5850492-5.9314967,0-12.8658198-1.4882053-18.8932772-4.5392928l-5.4568207,12.7751088c8.4332314,4.2566197,17.7945715,6.2942185,26.3877375,6.2942185,16.4822942,0,30.3776368-7.2276585,30.3776368-19.634755.0159528-7.1209948-4.3419995-12.7751088-11.4842782-15.4528528"/>
  <path d="M810.6428305,462.5160598c-48.0029143,0-48.0376702,67.4175043,0,67.4175043,48.0075877,0,48.0302052-67.4175043,0-67.4175043M810.6428305,514.7420598c-23.3709246,0-23.3720664-37.0344957,0-37.0344957,23.3694285,0,23.359174,37.0344957,0,37.0344957"/>
  <path d="M886.1220948,463.8058323h-29.636159v64.8357617h18.3439651v-16.9463486h11.3082281c38.8596317,0,38.7215466-47.8894131-.0160342-47.8894131M885.0180173,497.2345158h-10.1881164v-18.9839882c4.9758386.8139413,21.5870147-3.4909125,21.5870147,9.5373496,0,5.9368279-3.8085587,9.4466386-11.3988983,9.4466386"/>
  <path d="M965.4975766,463.8079485l-15.6502276,31.3004144-15.100834-31.3004144h-19.3520005l25.1875364,46.6839216c-3.0349547,4.4382959-6.6416748,6.4029242-15.100834,3.8778637l-4.3578709,13.5272489c3.9898179,1.5788756,7.7824239,2.410983,11.4842782,2.410983,9.7293118,0,18.146509-5.5634437,23.8912933-16.3916239l26.8677853-50.1083932h-17.8691263Z"/>
  <path d="M370.6333087,569.355073c-33.652703,0-33.6818419,48.289453,0,48.289453,33.6974427,0,33.693682-48.289453,0-48.289453M370.6333087,609.9954216c-9.4626728,0-16.4983284-6.9022954-16.4983284-16.4982877,0-21.9989049,32.9966161-21.9879188,32.9966161,0,0,9.5959923-7.0409868,16.4982877-16.4982877,16.4982877"/>
  <polygon points="472.6945516 570.0207344 472.6945516 616.9713357 481.2770552 616.9713357 481.2770552 577.4031184 505.6164908 577.4031184 505.6164908 616.9713357 514.193704 616.9713357 514.193704 570.0207344 472.6945516 570.0207344"/>
  <polygon points="588.8458258 570.0207344 588.8458258 577.4031184 604.3252937 577.4031184 604.3252937 616.9713357 612.9825149 616.9713357 612.9825149 577.4031184 628.5473626 577.4031184 628.5473626 570.0207344 588.8458258 570.0207344"/>
  <polygon points="736.9919479 570.0207344 711.7723431 603.3587477 711.7723431 570.0207344 703.19513 570.0207344 703.19513 616.9713357 711.3029576 616.9713357 736.5171905 583.7079993 736.5171905 616.9713357 745.0996941 616.9713357 745.0996941 570.0207344 736.9919479 570.0207344"/>
  <polygon points="849.5858787 592.7690043 865.6094496 570.0351815 856.3548139 570.0351815 842.8755454 589.6912611 833.8930019 589.6912611 833.8930019 570.0191473 825.3051264 570.0191473 825.3051264 616.9697486 833.8930019 616.9697486 833.8930019 597.1856399 842.608825 597.1856399 856.3548139 616.9697486 866.2175265 616.9697486 849.5858787 592.7690043"/>
  <path d="M962.1802978,570.0228913h-8.5825036l-21.123001,46.9452294h8.9826249l4.6245913-10.8601671h23.4806725l4.683356,10.8601671h9.1212349l-21.1869748-46.9452294ZM949.047839,599.269632l8.7851688-20.5308769,8.8545959,20.5308769h-17.6397647Z"/>
  <rect x="345.3422828" y="551.9526056" width="638.0362219" height="3.5844876"/>
</svg>