<?xml version="1.0" encoding="UTF-8"?>
<svg id="_Шар_1" xmlns="http://www.w3.org/2000/svg" version="1.1" viewBox="0 0 1080 1080">
  <!-- Generator: Adobe Illustrator 30.2.1, SVG Export Plug-In . SVG Version: 2.1.1 Build 1)  -->
  <path d="M722.1404951,439.0952218c.7182403-16.8620051.7019273-59.5479942.4110971-60.0293649-1.7562401-9.3663362-7.7059692-14.9166449-16.5713402-20.6178302-42.9474714-27.5766871-79.3490214-34.422529-130.1428085-37.6773246-1.5672057-.1798315-5.9862486-.4239243-6.0633058,2.2351915,0,5.7179971,47.3032244,1.1072023,93.8399996,19.3589159,9.8119858,3.8415165,37.4664846,18.2132425,44.9224562,24.111936,3.5451177,2.8213373,7.3335325,6.5049953,8.4912186,10.8677287-36.4853063,7.2965523-70.8119191,27.4231021-162.6945916,28.543806-28.9643846.4112299-166.3731101-4.9090939-189.979499-20.6434846-16.7866245-23.980474,85.336292-51.123842,110.359984-53.9788863,11.7238966-1.3157334,26.952582-1.359212,25.8589732-5.6650672-1.9143481-7.9599688-141.9604268,20.8209539-143.4384343,52.1547605v-.0128585c-1.9793264,20.5935903,2.011436,35.9099041,1.4644628,57.7941734-10.6439906,5.3203713-15.7140117,27.6870606-16.7255016,39.7968833-1.0037386,12.0079236.7348622,21.3499816,18.9221645,30.4450203-1.6854758,23.2592363,1.0295187,93.9204579.89922,122.3324655-9.5565459,2.285476-14.3959826,15.0490735-16.9310344,24.5101432-7.828631,29.1479343-1.1452668,37.3369411,15.4665873,46.5667505.6573866,9.7666246,1.577635,19.223126,1.7599114,30.1623832-2.4184945.0288875-4.7401772,1.5828806-4.7401772,4.2006671.19269,3.7767115-2.6205872,42.340429-2.4921272,44.2801875h0c-1.056031,9.719391-.8890757,21.1908794,2.2352072,30.4963918,5.404765,16.0404146,73.4025088,23.134647,90.3844851,24.6899746,74.4857703,7.0005487,135.919045,5.6576164,176.9023117.9892298-.5672535-.2492357-14.8390507-6.5051703-15.8005802-6.9369028-75.1385025,6.8375954-214.8158877-2.5034842-244.1639182-15.3253785-2.05536-2.0296429-4.2263372-4.7787371-5.2154729-9.0564301,3.4170329,1.5030071,9.261963,3.27573,11.6898601,3.9694015,5.4379877,1.5775706,12.4384306,5.9576831,26.5141474,7.617653,5.8022304.7015014,21.7132228,1.4007515,16.6098844-1.5158656-1.6250778-.9155399-17.0157685-.0065327-38.8719933-8.7096257-7.1215401-2.8207157-5.0062018-.617885-16.5071102-5.9477357-.0413903-1.1591305.1610519-7.1934681.2055329-8.3627586,3.0477326,1.7143496,6.2466607,4.4391366,18.4982402,6.5514601,1.724667.2781743,1.5953169.3942686,2.6077286-.3596629-1.2435638-1.8031069-10.4921215-2.2076148-20.9389645-9.1720315.5577912-9.6756441,2.6190708-22.7491189,2.76189-23.3154902,33.1259029,15.9426463,64.9222537,15.9737898,61.5837121,12.434903-1.0214841-1.1165396.8102076.3825825-11.6770173-1.2204327-33.1185086-4.1947955-40.131801-11.7113488-49.1744791-15.4281214.0128429-2.2223329.3083071-7.1552472.6037557-12.0752401,1.8693782.9346076,13.0095798,4.56925,14.4646087,3.5840842-.6721827-1.0546339-9.1470597-2.6971477-11.4586258-3.7509944-.8221471-.3596629-1.9140572-1.3745471-2.8775072-1.73421.2183757-3.6482515.4110657-7.0910172.4624529-9.1977486,45.9675655,19.084041,171.7613402,22.2849851,222.6982708,19.1918489,53.5664351-3.2324573,125.4583301-22.728985,130.3226713-24.8955859.2826371.0128585.5652115,0,.8221315-.06423.1156015,1.86267.96345,8.3756172,1.7727229,14.4902631-3.3420087.9555255-17.2574671,2.1503861-18.4084185,3.6996857,1.6572652,1.3559442,1.1334967.1951752,18.6395587-2.05536.5266986,3.8923129,1.0019629,7.424963,1.2460871,9.223403-2.3522668.6272456-3.7189193,2.0376758-13.976423,3.6867644-.5668819.0916571-11.5892392,1.8027545-12.0367272,2.69766.5682076.5909581,13.9249998-.0841245,26.3985303-4.17495.4110971,2.8646329.6808129,6.2303101,1.2460871,8.5297315-22.8798955,9.1228262-58.4530938,9.2958245-54.1458905,13.526813.8221315.8221315,2.69766.3082915,3.72534.2440615,20.1027047-1.2619624,27.5725019-1.9248866,51.3710792-9.929933.4624685,2.1966786.7836186,4.43187.96345,6.6799201-8.3179509,4.0740138-19.0047123,5.3290824-20.309476,7.938803,1.8939359.9739185,19.4363194-4.8923002,20.4637158-5.3310901.0899471,2.4535986.0128585,4.919993-.2312029,7.3350786-.0257171-.0385129-.06423-.06423-.1027429-.0513715.1873809.1561254-2.812078,1.4494109-4.04649,1.7727229-7.193745,1.9480925,3.3067447.3672239,3.9694015-.2954329-.3340085,2.6077129-.8863615,5.2154886-1.73421,7.7076001-13.990959,4.5851951-41.2249582,5.5862016-38.3581689,8.8765986,2.3881594,2.7945385,32.6552861-3.3385362,36.2642333-4.1107828-6.8322028,12.1672621-12.919994,5.8524796-38.6664604,12.1394074-10.3378341,2.5238877-19.1052851,5.0188815-28.543806,7.3479372.5663234.2636502,9.9433794,4.5105404,11.8440058,5.5109215,37.5762333-9.9286401,49.6610932-8.2081471,51.5894863-10.4566316,8.3643517-3.2341071,17.9502482-17.6953819,16.2759073-39.7970088h0c.1541771-1.7599271-5.2668601-39.4243618-6.3716286-49.0974376-.6037871-2.9288629-4.88148-4.020773-7.874573-3.5711629.1564436-17.525889-.3128799-20.301481-.2055485-26.5012732,30.8723969-12.998904,22.2001447-66.6766861.9249998-63.484895.0168032-3.978506.1692773-126.3275347-.6165829-130.3354985,28.8551675-12.4141278,22.9509676-61.2869315,3.6352675-63.4072419ZM718.7234465,385.4117684c0,.0128585-.0128585-.0128585,0,0h0ZM637.9221057,406.4149786c-5.0130572,49.4171692,3.4217338,19.4131628,1.4516043-.2826371,15.4659657-2.9803887,29.4362363-7.0824671,43.5736575-11.1888473.7876034,8.9786024-.285056,25.244041.2568886,25.460766.0385129.0128585.1027429-.0128585.1413185-.0128585.0513715-.0128585.1413185,0,.19269-.0256857,3.3821822-1.6910911.8850734-23.8961275.5652115-25.7562616,6.8771939-2.0210872,16.7180458-4.9458336,24.3303117-6.9882115-1.3628603,12.9338764-1.4758628,40.0105082-2.5177658,49.3800119-.0257171.06423-.0257171.1027743-.0385129.12846,0,0,.0128585,0,0,.0128585h.0128585c-.0257171.0513715-.0385129.1027743-.0513715.1413185-.0128585.06423-.06423.1413185-.06423.19269,0,.0385443.0257171.0770885.0385129.1156015.0128585.0513715.0385129.1670043.0770885.2055485.3439782-2.4851202,2.2687522,12.8657287,3.1475209-50.343462,5.2160082-1.4127076,5.7011658-1.4301861,7.6947415-1.9140728-2.5956696,19.4663339-1.7241132,44.2520952-1.9268373,55.6488663-.5818007.1203962-24.9662336,4.8402578-36.546839,6.2945401.6307722-1.2615444,1.7964485-42.1213543-1.8240944-48.0054962-.4799068-.7798302-.8551364.3570186-1.5029757.0128585-.63492-.1511644.3969616-.5474521.1670043-1.0533657-.2787727-.6770472-1.7309107-.3302148-2.1324486,1.34883-2.4237969,10.9070861-1.5401057,23.3618078-1.0790515,44.5756518.0302112,1.9618128-.4146185,2.4540346.83499,3.8666586-6.8835027,1.0305933-8.9904376,1.837094-20.2581359,3.3913629-.6282286-3.7663073,1.7168363-18.3169964.6166456-19.0506558-.1540823.0257013-.2697089.0726328-.44961.12846-.69242.5769228-2.5646853,12.3485534-1.0277114,19.0121116,0,.0128585.0128585.0256857.0128585.0385443-10.7070693,1.4761611-21.9935805,2.4898579-32.7315832,3.1986415-.3383974-6.3158343.8523184-39.741009-2.5178286-45.0894918,3.8404711-.51384,14.6853415-2.1216283,21.5550927-3.4427343ZM556.0288549,414.1354373c12.8819744-.1982165,27.2699951-.944554,35.6090747-1.66998-.6068449,3.0349656.6547731-11.8072445-.4495473,33.6180388,0,6.6694006,2.1452757,6.6840683,2.1452757-.0641986,0-11.3222086.8994142-22.9396485-.2440301-30.2908746-.1586021-.8920825-.4726703-3.2934893-.4881543-3.3399287,3.3014158-.2697785,6.6028315-.57807,9.9042786-.9120786-1.360464,5.4407492-.9154614,22.3141005,1.117533,20.8618603,1.2259826-.7661924.5309337-11.3357544.3596943-20.9389802h0v-.0128585h0v-.0128585h0v-.0257171h0v-.0257171c3.9463143-.4008111,7.2005927-.8064973,10.2254286-1.1818257-1.8660922,4.4498853-1.1612378,38.1412826-1.1047686,45.1536904-12.8197682.7065548-25.1316939,1.0101967-37.8957004,1.02768.2416464-1.8127909,2.0413649-22.2223624.5652428-22.7759645-1.8230199,0-3.5966316,15.162837-2.5949171,22.7759645-5.8063858,0-11.5999444-.0256857-17.3934716-.1027743-.7680884-31.4866261,1.5798833-36.5736713.2440615-42.0834776ZM514.0224031,413.5701944c-2.7693119,47.088447,3.324082,41.5419382,1.3487987.0513401,10.2732947.3889563,16.3145236.4735561,22.634646.5652428-.4401207,4.9870795-.0988707,15.1312035,1.60575,11.3815373.2695175-.5726733-.2829731-.2369563-.2055485-5.8834743.0416964-1.6056948.0871939-3.8742512.0128272-5.4852671,2.9417215.0256857,5.8834743.0256857,8.8251958.0128585-1.0918681,5.5139874.978763,9.2087357,1.7213515,41.8907876-13.2510877-.3232253-30.3261128-1.040884-43.1625918-1.8369843.1581597-1.5819837,1.2419444-18.3062933-.6679857-19.3974916-1.9008428.7128886-1.1176271,18.7073442-1.1176271,19.281796-4.4961-.2826057-8.9922001-.6037557-13.5011587-.9377643-.2079528-6.8558472,1.3485072-29.6505831-2.6205715-40.991599,1.8114554.115821,24.6739963,1.316712,25.1269142,1.3490182ZM450.8586267,409.1897272c-1.9809073,9.1123668,2.351179,6.5163085.5781014,5.5494971.0770885,0,.1413185,0,.2055485.0256857.06423.0128585.1027743.0385443.12846.06423-.0128585-.0128585,0,0,0,0-.0128585-.0128585,0-.0128585,0,0,.0128585,0,.0128585.0128585.0128585.0128585v-.0128585c.0128585,0,.0128585.0128585.0128585.0128585v-.0128585c.0128585,0,.0128585.0128585.0128585.0128585v-.0128585c.0128585,0,.0128585.0128585.0128585.0128585v-.0128585h0v-.0128585h0v-.0256857c-.0128585,0,0,0,0-.0128585-.0128585.0128585.0128585-.0385443,0-.0128585v-.0256857h0v-.0128585c0,.0128585.0256857-.0385443.0128585-.0256857,0-.0128585.0128585-.0256857.0128585-.0385443,0-.0256857.0128585-.06423.0256857-.0899157.0911313-.5463433.3340085-4.9234047.3340085-5.2540329,1.0764197.1024923,8.7054953.7883924,17.0980074,1.47729-2.7676913,11.7652224,3.6565852,58.6032827,2.6591785,5.66513-.0581143-2.7867932-.0287248-2.2504558-.7835872-5.5237801,4.7491127.3957795,9.8006003.7583384,14.0021401,1.0405386.2044219,24.9150423,1.4060293,32.1708016,1.1689986,40.8245947-16.2468975-1.2817239-27.2071781-2.5118236-50.1122277-6.2559958.8840398-5.7478779.4365773-16.8541514-.4367201-17.7274488-1.9893768-.7955564-1.116704,16.2615021-1.1433128,17.457733-10.8914524-1.8002437-9.4831702-1.5772099-9.6088144-1.5928915.5327656-37.7899756.4134105-32.9240719-.6551586-38.2682218,2.9415333.372396,15.1764175,1.7889313,26.4625407,2.7746231ZM409.0577705,404.1669286c-.5469403,5.058822.4407542,18.9563167.7964457,24.0348161.0256857.0385443.1798471.1798315.2312343.1798315.0256857,0,.12846-.1027743.1541457-.12846.0360817-.5689016,1.5469606-15.3439606.9248901-23.7394459,2.8890561.4758113,6.8686415,1.04425,9.7501016,1.4387457.2630627,8.0255017-1.7085243-4.0462585-1.7085243,37.7415233-18.2348452-3.010468-18.4828003-2.5908523-27.5289845-4.9714271.0652408-.8611914.9265383-10.9194518-.7065614-12.3193329-1.9393147-.7755365-1.4006178,9.6225773-1.1946843,11.8054929-5.9721953-1.6287805-10.2395929-2.895262-14.593053-3.66111.874122-4.5890736-.4050174-4.7574581-.6423-13.0643759-.3539531-8.2575625-.5305191-10.5267959-1.4002172-10.700693-.06423.0128585-.1413029.0256857-.2440771.0128585-.7586307.3791996-1.2328147,8.2164661-1.2460714,8.7866515-.1541599,6.7845435,1.41306,14.5188714,1.41306,14.6316443-2.7319006-.3774524-5.048526-.4543217-7.3350629-.3340085-.0447154-8.4532292-1.5112998-42.0872986-5.0613115-49.1873219,14.983531,12.2600079,26.8458336,15.7750569,48.3909703,19.4746115ZM429.3159221,743.6224193c-18.3697433-2.0182456-42.6939994-5.3141705-60.080752-11.9339216.0314501-1.3841103-.502453-15.0323413-1.9526014-29.3274559,4.8288878,1.9194304,9.775573,3.483205,14.7729001,4.8301086-1.3884636,22.2221995,3.904779,24.3650467,2.8775072.7578387,9.7543446,2.4621981,20.1162364,4.2868645,30.1238703,5.6650359.2819444,11.2805304,2.5538394,7.5274896,1.7470372.2697158,1.2278737.1365599,2.8731654.4515124,12.987303,1.5929542-.0898844.7195767-.0727818,17.6792117-.4752644,28.1457243ZM493.6358385,748.7865991c-10.6397675-.5160296-28.2202757-1.7254701-36.6367861-2.4793157.0643358-.7078508.02456-.7967574-.5138714-5.4466915v.0128585-.0385129.0128585c.0648885-.5833631.9040242-12.309599.1798628-13.2313174-1.7084799-.8535449-2.8134236,5.166496-2.9160671,6.9111857-.4244681,7.4974404,1.5248313,12.087887,1.3616886,11.5099659,0,.0128585.0128585.0513715,0,.0385129,0,.0128585.0128585.0513715,0,.0257171v.0128585c-6.6028315-.5652115-13.2056944-1.1946529-19.8085259-1.8883871,0-3.2411757.3922404-22.0306395-.9763086-28.3254303,15.5473985,1.7274887,31.09818,2.998924,46.4254319,4.020773.089781.8081385.6842207,7.2530264,1.5543786,7.5792028.0197806-.00792-.0333435.0190099.3725215-.1670356.5797098-.5797098-.1679313-6.7144729-.2312343-7.2835817,2.0987428.1613407,8.6006613.5168123,10.6621801.6294415,0,8.690163.0156772,2.9882752.5652115,25.8718317.0128899.693546-.0384815,1.464306-.0384815,2.235066ZM498.69715,749.0306606c.2110698-6.175401.7524661-21.9388165.19269-28.0556517,15.1838954.6859156,36.1560315,1.3600419,51.2298548,1.15614,2.3937628,26.9695717,1.2711918,20.4610449,1.6956971,27.8886788-7.0139286.0898844-36.16851-.2730606-53.1182419-.9891671ZM557.5575163,749.9427391c0-9.5905993-.7039431.5427261.7450743-27.9015374,12.6188713-.1963551,25.6602115-.6991159,38.3453104-1.66998-.0615535,3.6951466-.5496303,8.3316616,1.5030071,11.6898601.4422538.7371196,1.2123438.721989,1.4516043-.0256544.0745414-.2236015-.3405036-3.4145072.0128272-11.9082672,5.3807275-.4392266,10.1946502-.925449,15.2610544-1.5158029-.577517,5.3552507.368869,26.5966558.8992514,27.4262103-4.4576185.6037244-39.6474103,3.5480423-58.218129,3.9051715ZM621.170934,745.3181791c.1232604-.5371092-.71194-25.1254657-1.3359401-27.3106088,8.1985816-1.0799006,18.2429322-2.691179,31.4470146-5.3438859-.3171455,11.5783275.834544,8.7935539.9120472,9.3647843.0513715-.0385129.1413185-.0770885.19269-.12846.0256857-.0385129.0513715-.0899471.06423-.1413185.8009059-1.4414741.5003536-8.8484348.4624685-9.4161557,5.2872796-1.0654322,12.204227-2.5892714,17.521963-3.8024286-.2723114,3.8579016.1346971,26.8620837.2183757,27.0922017-5.2155513,1.2075115-32.3228383,7.167631-49.4828489,9.6858716ZM710.9387579,725.8950018c-2.4138881.324209.1654713-.2228474-33.6565517,8.1572101.1312411-4.461558.815872-22.9934053.3596629-27.1950074.9367956-.2251934,7.1078689-1.6438068,20.9518074-5.112683-.1607196,2.5730837-1.4636412,14.0806837-.7321844,15.5435974,1.4001071,3.735139,2.6188044-12.1419547,2.4150229-15.9418987,2.6215857-.6665159,11.1155301-2.7588302,11.1760201-2.7747486-.7905396,5.0070236-.7777374,22.0236255-.5137773,27.3235301ZM727.6513538,643.8218568c-17.3460392,12.0731143-34.3593604,13.7449717-32.474726,15.8905272,1.3906308,1.5802389,19.4052051-3.0953079,34.5556776-11.2531087.9221382,2.6164599,1.5208843,5.2925894,1.8369529,7.6947415-1.5800329,1.0019629-3.9308886,3.72534-9.5831286,6.3459115-14.8705671,6.9429544-2.708315,4.5843945,9.9299957-2.4536613.1260821,3.3033756-.0935901,6.4606548-.7193886,9.6987301-1.4002015,1.1047686-3.8795171,3.6868271-10.0969686,6.2431686-7.3442396,3.0061846-37.3056876,12.225583-17.8430816,11.0089845,10.3068738-.6501587,22.8168771-6.4525314,24.3816832-7.4378215-4.1590293,7.3523688-9.946626,10.6704334-17.8559402,12.6533101-37.1593833,9.3312299-69.6252268,17.6524385-105.1316839,21.0289273-43.6641879,4.2103622-255.0004987,6.656288-256.8301025-37.8571247,5.7077281,6.9314881,29.6259331,14.8378232,30.213786,14.9013601.51384.0513715.9506071-.2184071,1.4516043-.4238929-1.2321144-2.8748964-23.1001828-11.8626034-31.5626317-18.8065316.2503181-3.1700174.4940569-5.8452405,1.1689829-9.5574743,2.5099157,2.763411,12.6612262,7.1845148,13.9250516,6.7698044-.3751938-1.0603077-.4653009-.889831-2.7490472-2.11959-3.4525895-1.8514797-8.1844049-6.8541341-10.3795744-8.5939615.3725371-1.6571215.7964457-3.2885886,1.2717571-4.919993.8221471.7322471,2.4535829,1.4644315,3.2371858,1.9782715.3468357.2312029,1.5286772,1.3103171,1.9654443.77076.4624529-.57807-1.3616729-1.7470686-2.11959-2.5306871-.7579171-.7836186-1.4002172-1.6442629-2.44074-2.1966786-.0128429-.0385129-.0256857-.06423-.0385443-.0899471.9377643-3.0445271,2.0810457-6.1147086,3.6097229-8.9279701,4.071339,4.4307768,17.0911386,6.7984935,18.6138573,5.7935586-1.4726571-2.1740161-9.3516233-1.4372731-17.290713-7.9773159,7.1705856-10.8720705,20.4618738-4.3702185,36.456939-.4110344,44.7755578,11.1560707,148.9023194,20.8468299,230.9711293,13.6167601,47.1211588-4.2255926,90.4307727-16.0049915,93.994208-15.9291029,4.19958.0017817,8.226638,3.8231813,9.5318826,7.0910799ZM382.0425946,618.566608c.0385443.0385129.12846.06423.19269.0899471,2.8041122,1.4016282-4.5505551-103.4778709-4.1492643-106.2878866,14.2318604,4.2223341,30.4143046,6.8141161,45.1537061,8.6067887-1.2870246,39.8600928-1.2677453,47.2482741,2.3122487,117.4895297-3.4289525-.6864602-23.610665-3.7569243-26.2315574-4.2520386-.7980657-18.358435.1681861-77.4434883-1.5029757-78.8358965-.7346964-.2098767-1.02768.3902412-1.02768,1.0790828-.8294034,27.7915978-.6165986,51.541041-.6165986,51.1398763.0564505,1.1099939.0385443,13.7026504.0385443,13.1286372,0,5.3437505.3872179,10.8289387.4624529,12.9358845-10.7055428-2.3994548-18.9149576-5.8123431-27.8244331-6.1147086.1242154-10.8093194-1.6195206-100.2311341-4.7787058-120.2385926,5.1924527,2.3023264,8.784287,3.3636567,12.6790115,4.6502458-2.4319671,7.4695679,5.111818,99.0452533,5.2925615,106.6091307ZM376.7500802,511.9705554h0q0-.0128272,0,0h0ZM438.8091037,546.051c.1848723.0924362.1178014.0395763.2954329.12846.0513715,0,.12846-.0513715.1798315-.0770885.0385443-.0128585.0899157-.0256857.1156015-.0513715.0385443-.0513715.0513715-.1413185.0770885-.19269.2393639-7.6376353.0676575-16.4580249-1.2846-23.212716,4.701595.5530097,19.9510717,2.0196166,34.8383461,3.0830714-3.2681667,53.5385221,4.8557316,74.1091212,4.8557316,120.0458085-8.8662992-.8156303-17.0471543-1.6685083-33.0784503-4.1620915-6.509394-71.8159778-5.2280586-67.3301893-6.1532529-68.0710676-4.206433-.9008545,2.7042324,58.0104707,3.5069643,67.6471747-3.5455086-.5652115-7.0781586-1.1432815-10.6236358-1.73421-5.5698372-109.889739-5.266105-112.3165127-5.7164701-118.1703426,3.7767115.44961,7.5534543.8606757,11.3301658,1.2589143.4771222,3.8162012.4818024,6.6612341,1.6572469,23.5081489ZM490.0389585,646.7893581c-3.3271015-.25692-6.6542343-.5266986-9.9813358-.8092729,1.3364332-28.03902-5.5494031-83.1746901-5.5494031-120.1358496,4.34677.301604,8.420187.5685896,12.7303987.8221315,0,53.8100485-2.3135148,20.1650221,2.8003402,120.1229911ZM523.7083687,580.4140504c.4112759.1541187.5543214.1300531.7193572-.2826371,2.1989842-34.6737578.9120472-47.7934205.9120472-49.8938206-.0654143-.3921664.4690679-2.4975099.3596943-2.0168157,2.8623777,0,4.2978972.2183757,25.1267888.2183757-5.7546534,28.0774231-4.2802701,37.5104403-.6294728,121.3562197-11.4631042-.275942-25.2696938-.843363-33.5922903-1.2846-5.9108969-55.7360265-.1650427-95.8548077-4.2263529-92.9536695-1.7219257,1.0761379-3.1068437,51.9514101,2.0039886,92.838068-.5846831-.0348982-9.1717385-.4867889-19.2946859-1.2332286-1.5296558-38.7247242-2.7896168-97.9067793-5.2797186-120.3542254,11.9017662.6696481,23.4186105,1.121322,34.7484303,1.3873743-1.1917768,3.4262219-1.5539634,34.9822506-1.5929228,37.9085903-.1324101,9.9446806.711694,13.7362797.745137,14.3103689ZM573.7691622,650.0137167c-5.8963015.0128585-11.7926344-.0257171-17.6761087-.1027429-1.7602695-87.2101618.9986167-99.3923742-2.4021958-121.4975068,6.8318103-.0543735,14.3831968-.2395999,18.5881873-.3982385-3.9922971,23.9537827.7052806,102.9434883,1.4901172,121.9984883ZM588.7091294,527.2315785c9.986799-.6068357,19.3722029-1.4753115,26.0260088-2.2737358-2.7308066,16.3840064-1.0424977,73.3360268.0899157,123.9253883-7.9449949.4517755-11.4305673.5466689-12.0495544.5909286.4496914-10.7816253-2.2684986-28.7144642-3.0059828-29.0832063-.7492609-.0681751-.9089816.2179296-.8735343.96345.0508734.5851368,2.4925901,27.5848363,2.5563101,28.1583946-8.3884444.32115-16.7768887.4624685-25.1653017.4881229.2999043-23.081597-1.4563224-36.1766995-2.2994842-71.9761136-.2176716-9.3622702.7995735-44.1914727-.2697158-50.073652,4.3547815-.1541457,8.7224215-.3596943,13.0643759-.6166143,1.6688626,29.2122274.387697-21.9443433.0641046,59.7853348.0750995,3.713977,4.805499-47.1304637,1.8628582-59.8882972ZM641.9041148,646.6353692c-5.7110063.6409955-13.2999414,1.342797-21.4271345,1.9012457,0-.5664664-3.5194358-121.6045879-3.91803-123.796897,9.802489-1.1985772,18.6973418-2.7017006,28.415346-4.5346443.0598413.478633.0612704,1.0829327.0385129,1.3102857-1.0401447,40.4039111-6.5167217-14.817423-3.1086944,125.1200099ZM646.0407715,519.9993055c7.1965286-1.3795241,16.3977099-3.3136499,25.1910188-5.3567758-5.2406785,29.6962306-1.6635865,70.9622692.6937028,127.4066042-6.9291001,1.0820607-11.7714994,2.447846-26.7582245,4.2135257,0-44.1503017-.3965991-18.160409-.5138086-60.0808304,0-52.938846,4.4575656-59.8371321,1.3873116-66.1825237ZM674.661666,513.8589112c3.9320457-.907387,7.5173659-1.7801921,13.7965916-3.3142429-3.2758769,27.8169888,4.7849919,171.1598293,2.6979736,39.8100241,0-9.7504296.1827074-31.0843168-.8735029-40.2594146,2.6848015-.6551586,5.369603-1.3231443,8.0544672-1.99113.1350536,1.261343.3247346,1.3056845.44961,2.2737358-.0128585,0,0,.0385443,0,.0513715v.0513715h0c.4168108,13.7415402-2.2747844,2.3250372,1.7598644,122.448161.2055485.1413185.44961.1669729.6680171.0128585,1.6400736-4.546327-.2031034-120.6332483-1.913916-125.0815283,10.8273358-2.725874,12.6994022-3.0298774,16.1731016-4.1877772-3.6458983,28.8857845-3.4339415,99.4883995-3.4684828,131.7356999-22.5023059,4.0132326-19.1166035,3.9455339-33.1812246,5.7036115-.1874245-27.898829-4.7039066-93.5407949-4.1749187-121.831484.0317567-1.9530376.2144165-3.5016687.0124195-5.4212567ZM683.8722105,504.9694853c-39.9986891,9.7388396-65.566963,14.4774917-104.052601,16.3272473-39.8977242,1.8650377-205.2679654,1.1465413-228.979968-30.7019717,17.8235617,9.9155099,35.1941986,13.0613857,55.5974948,16.1345573,1.1923822.1656079,7.212394,1.7923963,5.6522401-1.0405386-.6827974-1.2775128-2.5074184-.4544906-20.5022131-4.17495-30.7483366-6.3738658-37.5924844-14.2196609-43.625029-18.0743159-.1413029-1.1818257-.1798471-2.3893686-.1541457-3.59688,6.8309637,5.1944266,22.8159809,11.946958,24.5230017,11.1503344-.6830167-1.45708-11.7233776-4.1998638-24.3046417-14.9270145.1293716-.56692,1.4185427-18.4430478,8.1186658-29.4559159,13.2419771,7.2549285,13.3711032,5.8048313,27.2463788,9.4932129,1.4002172.3596943,5.9605472,1.6186086,6.9239972.9505915-1.2197302-1.7424717-6.7893955-.9938331-32.6545261-12.6789959,7.311913-9.1393335,21.7578539-2.4364679,35.4934889.96345,76.241417,18.9959585,232.6452593,24.600842,321.9721503-2.6333987.51384.6294415,1.6571215.4110657,2.4022271.4239243.8478486.0256857,2.0296429.2312343,2.9930929.1798315,7.4904943,2.3209148,11.0861134,15.2242097,11.3943645,23.1484546-1.73421.6808443-3.6868271,1.6828386-4.36764,2.05536-4.8529658,2.6314849-7.2662928,2.8588844-11.5871172,4.3290958-1.0405386.3596943-5.8963015,2.9674386-4.4832415,3.8666586.8400625.5250471,15.990869-4.0550567,20.4250775-6.6285486-.0758911,1.3267985-.0915424,1.9136325-.3597256,3.8794858-21.2717402,12.15687-50.1441261,16.6515154-51.2041377,18.2028073-4.0975385,6.1463884,35.2082429-4.2300881,49.4442106-11.0218744-.4243838,1.1838793-.9869816,2.528915-1.5800957,3.66111-3.0812907,1.5919877-8.2407292,4.8392036-14.1691131,7.3992773-1.5615792.6537317-1.8321232.3416069-2.50497,1.8369843,2.2792664,1.0386941,13.4294244-5.4581444,15.0555372-6.4744029-1.2460871,1.8755286-2.7233771,3.5840215-4.4190115,5.0741701-5.4649034,4.7431561-9.9148104,5.4168036-38.2937508,12.3322542Z"/>
  <path d="M558.1613034,328.3112979c-1.1675836-16.4433261-9.8130518-5.6791009-33.5922903,3.2629028-14.2232383,5.3377646-12.8834985,6.846197-10.2511144,29.2760217,11.7540901-5.0998558,22.1978945-9.6858716,32.6930703-14.1819716,10.4951758-4.4832729,11.9596073-6.8212386,11.1503344-18.356953ZM520.0985988,353.7592367c-6.9753843-12.3450187.9891357-18.6523859,16.1859602-21.0931259-.2697785,10.9190687-7.0267558,19.6928931-16.1859602,21.0931259Z"/>
  <path d="M518.274473,317.2508792c-.4624685-3.4170486-.9249057-6.8982958-1.41306-10.3924016-1.7213515-.25692-1.5800643-.57807-4.2263215-.0899157-1.47729,5.9091601-1.9140415,11.7412316,0,18.0486302,15.5822044-1.3102857,41.4925804-11.8568644,42.468889-19.4103187-8.8380544-.6037557-14.5673516-.70653-23.0714288-.2440615,2.2480187,9.1848901-3.2243586,13.3855259-13.7580787,12.0880673Z"/>
  <path d="M542.2322633,368.0825268c11.3815687-.5395257,14.3361487-4.17495,13.7323616-15.8262659-11.2402501,4.5346443-28.0042803,11.3815687-39.3344461,15.9804116.12846.7193572,19.0377659.1541457,25.6020845-.1541457Z"/>
  <path d="M530.4010846,205.8375295c32.5260661,0,58.9117691-26.3856874,58.9117691-58.9117534s-26.3728445-58.9117574-58.9117691-58.9117574-58.9117691,26.3856835-58.9117691,58.9117574,26.3857031,58.9117534,58.9117691,58.9117534ZM530.4010846,95.773002c28.2483417,0,51.1656248,22.9044167,51.1656248,51.1527741s-22.9044245,51.1784676-51.1656248,51.1784676-51.1656248-22.9172674-51.1656248-51.1656169,22.917283-51.1656248,51.1656248-51.1656248Z"/>
  <path d="M442.8684523,358.9233224c34.6365993-4.7788477,20.0140185-2.453616,60.9542706-8.9536872.1156015-1.34883.1027743-1.3231443-.1413185-3.14727-60.2035974,8.9638381-64.8061021,7.9353101-74.802265,17.2906974,1.1175957,3.33996-6.6927786,12.9616016-9.6601858,17.7146216,76.0513909,10.5588721,113.5220622,18.2854708,206.6792835,7.5662815,14.6315816-1.6828386,28.8906417-6.6156901,43.5222547-10.1097958-6.0247615-17.5347902-10.2254286-22.3263545-24.4074002-29.250336v.0128585l-.0128585-.0128585h.0128585c0-.0128585-.0128585-.0256857-.0128585-.0385443v.0256857c-.0128585.0128585-.0128585.0256857-.0256857.0385443h.0513715c2.2609086,8.0158915-1.4387457,10.9191001-9.0821158,12.7303987-75.6722597,17.9898768-178.1734892,7.0136731-189.8125104,1.5672057-2.0810457-.9763086-3.3656458-3.1087258-3.2500443-5.3953201-.0127958-.0127958-.0127958-.0256544-.0127958-.0384815ZM564.3658964,377.7170269c5.7867176.2009274,2.596865-1.4644315,21.4142759-1.4644315.1670043,1.0405386.32115,2.0939043.4881543,3.14727-9.0692886,1.5286615-18.1385459,3.0444958-27.2078345,4.56033,0,.1798315-.0128585.3596943-.0128585.5395257h57.6399963c.19269.4110657.3725215.8221315.5652115,1.2332286-2.5692.9120786-5.0998558,2.4664258-7.7204586,2.6205715-70.8087769,4.1625386-61.4690989,5.7769828-171.0701774-8.9536558-4.6091698-.6228553-2.7773928.8714533-10.1226544-7.6819143,2.95458-1.47729,6.5257743-4.8557943,8.7738244-4.1364058,41.6596474,13.4112116,84.706575,8.7994787,127.2525212,10.1354816Z"/>
  <path d="M565.0595992,344.2018251c-.0385443.70653-.06423,1.4259186-.0899157,2.1324486,14.3522993,2.9456504,54.8932039,6.1121599,68.1223136,6.9368401,11.0218744.6936715,10.0712516-.9763086,11.8825501-3.2115-30.065016-1.4716064-64.204031-7.1544788-79.914948-5.8577886Z"/>
  <path d="M501.13789,121.7476158c-.3713011-2.4666688,2.4696604-5.137516,4.0850343-3.4427343,1.4296387,1.5069457.4449257,3.9417231.38538,10.6878737l1.5158343,1.5800564,7.9131486-7.6305272-1.9012143-1.9654365-4.4832415,4.3291036.2183757-4.5860236c.6042584-10.8770807-11.8176692-5.5381738-10.5979501,1.5928993l2.8646329-.5652115Z"/>
  <path d="M528.9109674,111.2138957c-2.1933399-9.8834494-14.3364133-7.1757285-12.1780144,2.6719665,1.02768,4.68879,14.3437108,7.2090236,12.1780144-2.6719665ZM525.5966617,111.9332686c1.3545685,6.2063895-4.1775353,7.4228322-5.5366386,1.22037-.7064986-3.2371858,4.1831438-7.3972221,5.5366386-1.22037Z"/>
  <polygon points="539.9842132 120.5786329 543.7866105 106.5379485 537.7104461 104.8936621 537.0039161 107.5013985 539.817209 108.2593157 536.7341689 119.7050987 539.9842132 120.5786329"/>
  <path d="M556.6840134,127.4126987c1.0533657-1.15614,1.2460557-2.5563572.6808443-4.0207965,3.4644742.6786205,6.5068758-3.7394547,1.9397586-7.9259836-4.4947192-4.1380227-8.6722386-.7735727-7.7076001,2.6205872-1.5029757-.4239164-2.89035-.1156171-3.9437158,1.02768-4.0629287,4.4578113,4.985798,12.7085524,9.030713,8.2985129ZM557.6474634,117.2772093c2.2563606,2.0850137-.1624274,4.7626566-2.4535986,2.6719665-1.02768-.9377564.2557748-4.6725302,2.4535986-2.6719665ZM553.6394863,121.6320065c2.719064,2.5473406-.1773525,5.5823009-2.8132928,3.0573543-1.2331972-1.1176114.1256837-5.5469429,2.8132928-3.0573543Z"/>
  <path d="M333.3177412,292.3039846c.1188212-.2178429.0089252-.7856254-.3339929-1.0662086-.5824642-.524232-2.0405127.9246432-5.9605472,3.0573543-1.6770628.6706613,1.5447622,5.5377644-.7065457,6.3715972-.89922-.1156171-1.9140572-.4367671-3.0316529-.9762929-14.426971-6.7989151-13.5738602-20.5604237-5.49811-13.2057258,4.6806318-2.4224371,5.7095761-2.8026667,8.7738244-4.6631043-9.5561678-4.4592339-4.261223-2.2443593-12.1522973-6.4229844-2.8209492,2.8768301-4.6035891,7.4448642-5.4852358,11.3558672-3.0546861,13.9067208,1.0850905,17.9289155,13.4625987,22.5704473,3.8370532,2.0013033,7.1736182-9.6281406,10.9319587-17.0209502Z"/>
  <path d="M339.5608942,283.5686731c1.0286415,3.6306038,1.3774222,6.0128389,4.0465057,11.5485416,1.4250053,2.9008283,2.3577408,2.1338509,4.5988743,1.5929072,4.2909843-1.0726526,9.6093401-3.8992144,5.5751672-6.7569929-5.489338-3.8881298-6.69351-19.4261764-9.8914358-20.3994545-.9891357.2440771-1.9782872.51384-2.9802658.7836029-8.3934006,2.259984-4.3987171,3.0647443-1.3488457,13.2313958Z"/>
  <path d="M341.3850356,267.3184987c1.1674654-2.0066118-.9503521-5.5409941-3.1986415-4.7915643-7.3818622,2.3488023.8900779,8.569175,3.1986415,4.7915643Z"/>
  <path d="M363.1590058,267.0615787c.9603501.1800977,5.0195127,4.392417,4.1877929,5.8064015-12.0444547,20.4764551-.6490832,20.5790698,5.9220029,13.7452045-4.4974138-.8406419-6.5071748-5.6784094-5.9348615-9.0307444,1.2106141-7.0911924,7.5837285,4.0308497,11.2017058,7.3992929,2.2071249,2.1505461,6.1927757,1.1187193,8.748123-.2440771-1.821492-3.7501037-3.0010413-11.1823659-.1156171-14.336133,1.9484304-1.7046537,7.7780724,9.4952052,11.7284044,10.7520958,2.2752256.7239297,9.0699161-1.1665388,9.3775801-4.9200243-4.4386631-.6659078-14.4819816-23.4440839-22.4676574-21.2858003-2.2629567.8185387-9.189578,4.9562325-6.8212229,6.14041.7480356.433058,2.0755172.6506638,2.4921272.9891514.8029416.1505783,5.2390135,3.9218891,3.7381829,6.5771615-.8835886,1.4033429-1.8782577,3.0422617-2.5949014,4.5218015-4.6760278-6.5008717-10.2076583-15.0397078-15.4280587-13.141433-.7620118.2771183-7.4670599,3.8358285-7.0267558,5.4081786.2774289,1.0163557,2.3351947,1.0839338,2.9931557,1.6185145Z"/>
  <path d="M423.9206021,279.6763288c3.6191017,2.5849524,8.0292085-7.7722061,13.3855259-15.171123.1863942-.266296.0647065-.8458574-.1798315-1.1175957-.5102474-.5670031-2.1120497.5945312-6.3587701,2.1324329-1.7816015.3562333.7210076,5.6895354-1.6828072,6.2046087-.8255319.1179126-7.0555848-4.0329722-7.3350473-5.5237801-.415474-2.1462497,2.7186792-1.3231096,12.4862745-6.5643186,6.2676127-3.404607.2470577-4.2198972-6.4486858-9.5060558-3.4784151-2.6851303-3.7597691-3.0639181-6.6285486-5.2154886-6.0600785,4.545043-9.9277782,15.8380014-9.4289672,22.6218188.7478359,2.4659341,6.6324768,9.0931504,12.1908573,12.1395015ZM423.3939349,261.4607101c-.609848.3266986-3.7713235,1.2051551-4.1878086.83499-1.0537678-1.0036001-1.6694105-2.4122851-1.9526014-3.8281143-2.1894987-11.2045361,10.7972257.4984451,6.14041,2.9931243Z"/>
  <path d="M445.6945409,254.1513485c1.1827878,9.4617613,1.3982542,14.4273298,2.9160358,16.4685659,1.1498162,1.5067258,13.4294432-.0335845,10.8034673-4.1364214-1.7901794-2.6851325-3.0017725-3.3243403-3.7381672-7.6690872,2.4894042-2.2065802,5.332529-5.3698762,6.7441187-5.6522401,1.0431958,17.2171883,3.2959309,15.7964663,6.2559958,15.6978216,4.3048116-.1434587,10.1356633-1.9966788,6.7441187-5.5494815-4.6793617-5.1471836-3.0255034-20.3668818-5.8963015-21.9024459-8.93223.678378-9.513671.044082-7.8103744,7.1680587.5052466,1.9704741-3.1935841,3.6969196-6.56435,6.8083957-1.2687965-8.8838994-.2079766-10.5950741-2.3507929-11.7412473-5.1799493.3934027-9.0606887-.0716393-8.5939615,3.6097072.1455085,1.1141365,1.1962146,4.74186,1.4902113,6.8983742Z"/>
  <path d="M458.9516695,239.5325941c-.3711619-.8658432,5.2311804-7.9648614,3.2243586-7.6305272l-5.0227986,1.4259029c-3.0799684,6.5022174-.736832,13.8104405,1.79844,6.2046243Z"/>
  <path d="M483.0121713,254.6651729c-.0466725,5.5486261.2361888,4.4442751.5009815,7.1680743.4754617,4.2788652.2911468,6.3204723,7.5662815,5.1512429,2.6797119-.4306721,5.8783821-1.5563788,4.5860471-3.9565743-1.2060932-2.4120731-2.2304866-.3787644-3.3913315-11.9853244,2.1652362,1.1785742,3.278161,1.0880078,6.6413758,2.1581343-.0238092,1.6174604-.0067958,3.5566275.0899157,5.1769286,1.5648872,7.6943738-.330349,7.8874472,6.4101415,7.8874472,1.9083218-.0829485,6.5292127-1.096463,6.4358586-3.0573543-.1091334-1.6374014-1.6783927-2.4516047-2.1452444-4.0079458-3.336438-10.9632885-.2174016-18.5593975-3.0444958-20.3095074-13.7656215,0-7.2864347,1.5005425-7.8104057,11.4457673-2.1344424-.5941154-4.979384-1.491633-6.8469243-2.6848172-.1965693-3.6031844.8057657-6.5995084-1.2332286-7.8617458-4.9011307,0-9.0363947-.8474029-8.8252272,2.95458.1178118,1.8424478,1.1876976,4.0350709,1.0662556,11.9210944Z"/>
  <path d="M526.2004488,265.5971315c3.2180597-.234055,4.0355934-1.9783025,6.3844558-2.8004186,3.1494673-1.2113639,2.6856535,1.053678,5.6650986,2.8646643,1.8206227,1.0503691,8.5059704,1.2909954,9.90431-2.2352072-4.3944756-2.1972378-7.5090943-29.367153-17.3164144-26.5655502-3.6441923,1.2579312-8.1812351,2.095565-6.4743715,3.8024286.655056.6140775,1.9230949,1.3406339,2.11959,1.6442943.7486599.4030813,3.9097712,5.2746439,1.7213515,7.3479058-3.8639784,3.5463416-8.6461961,7.8147066-8.7481073,13.0643759-.0128585.6294571.12846,1.1175957.4239243,1.4901329,1.3184209,1.6055394,4.2262495,1.5369461,6.3201631,1.3873743ZM529.553236,251.9032985c1.476622.0820123,1.636736,1.0336268,2.5692314,3.1729558.6494719,1.6235807,1.4387771,2.6606329,1.4387771,3.5069486,0,2.4193372-6.9685557,1.7772124-6.8982958-1.8112829.0609456-1.8355382,1.0440495-4.9148225,2.8902873-4.8686215Z"/>
  <path d="M590.4689937,274.3580973c4.2143191,1.2395412,16.3654113-9.5251612,17.1879544-11.3944115,1.1813864-8.2079178-2.0794785-14.104141-8.9279701-22.7887917-7.2681287,2.3873501-18.3797176,14.1545405-15.916213,22.7374202.7656797,2.7564283,7.0500187,11.2675064,7.6562286,11.445783ZM592.1903139,247.9338813c4.2455888-3.4738349,10.8756823,20.9715251,5.1640858,20.155393-4.8904488-3.5412885-9.4158728-16.6767225-5.1640858-20.155393Z"/>
  <path d="M620.3487399,275.2187887c2.2414096.2401371,3.2825392-.4414205,4.6888214-.9377643-6.841434-5.1114449.7686841-15.9474591,2.3893058-10.9062572,3.275668,10.5626013,1.6182324,13.9313348,7.4249943,15.1454373,2.8522305.6004985,5.9549796.9302989,7.5020515-1.5543786-3.7644835-3.2626749-2.5757844-28.4580558-10.8420116-29.1476088-1.3728032-.228754-1.1193586-.1206495-7.3479372.7579015-3.3087674.7520093.3446348,3.0794199.6166143,3.72534.66423.4598467,1.415655,3.3367121,1.5800643,4.5346286.3939611,2.6098569-.090566,2.2765508-4.5089272,5.1898029-3.0839591,1.9994768-9.1541298,7.4931478-7.4635386,10.675023.2184385.4239713,3.9624852,2.2635926,5.9605629,2.5178756Z"/>
  <path d="M664.8344759,252.4942271c1.6035469-5.7729254-7.5244939-5.6529589-6.0376514-.0770729.1927214.5651958,5.3243633,2.9777664,6.0376514.0770729Z"/>
  <path d="M660.9807073,283.3502974c2.1247443-.6504449.9383627-2.9514085.4367201-4.4061843-.5574753-1.6166918.7061687-8.5959638,1.02768-10.2639416,1.4299509-7.3280075,3.6013802-9.246703,1.8883557-11.2273916-9.6672562-3.0132205-8.9596861-2.9012394-10.1354816,5.5237801-.4347474,3.1152183-4.5954333,14.6902384-3.6353929,18.0871588.3809657,1.3482278,6.8403599,3.4548318,10.4181186,2.2865786Z"/>
  <path d="M680.7892018,288.7070732c3.3020242-.9245829-.9666219-3.4251043.8863615-10.7135359,2.6228084-.7961729,6.9541901-2.7635388,8.4398158-2.4664258-.760226,1.9635821-5.4420798,15.4551211-2.4278188,16.3529644,1.1762976.3920593,2.7218843,1.0842249,3.2885886,1.2460557,1.9391829.5058962,6.5551794,1.1481284,7.1166715-.77076.5862973-2.1991519-2.6609985-2.2927931,1.4387771-16.0575002,1.3667117-4.7830359,3.1709402-6.8026087,1.6571215-8.6582229-4.9047832-1.7424349-8.2927661-3.6497035-9.3134128-.12846-1.1329849,3.92246.2587116,4.4004771-3.53265,5.5623243-2.560329.7315651-3.5963092.8063423-5.8705844,1.6185929,2.8394385-9.2307755,3.9724501-9.9983996,2.5820586-11.7027187-9.7229213-3.4540889-8.7818088-3.1167868-10.3153444,5.1255572-.587882,3.1597089-5.1168388,14.3978543-4.2777243,17.9073273.3065152,1.3101074,6.5663438,3.7381228,10.3281402,2.6848015Z"/>
  <path d="M692.3120577,261.6277143c0-1.1274084,8.0113931-5.1748247,6.0246988-5.7164701l-5.176913-.6936871c-5.6101534,4.8087428-6.4172371,12.510973-.8477858,6.4101572Z"/>
  <path d="M715.6018935,299.4463419c2.0790672-.4989558,1.3112236-2.5530405.77076-4.3547815-.4813379-1.8054579,1.3375042-8.4443215,1.8370157-10.1483558,1.7632796,2.062182,2.5491073,2.1196501,5.3953201,4.4447129-.9904792,2.3999359-1.9997709,5.0514589-2.95458,9.904263-.6238205,3.1185952.6967905,3.1016438,2.7362357,4.0079614,4.2321135,1.7242227,9.9656438,2.6004236,8.516873-2.0681872-.5927406-1.9101651-.7132185-2.0334403.6679544-8.0415929,2.253707-10.201485,5.2769835-11.8786011,3.5325873-14.2847459-2.6150869-1.0601844-3.8688149-1.5552378-5.8063544-2.2095214-4.6778225-1.5593044-3.5608895,5.4277906-5.7165328,10.0070529-1.7759271-1.3374051-4.0764548-3.2291455-5.3953201-5.0227829.9458659-2.9485644,3.1734233-5.786555,1.7341473-7.7718301-9.1477358-3.7085905-8.7654482-3.7092459-10.5337201,4.7401772-.6378824,3.0480258-5.7001991,13.9752683-4.984223,17.7146216.2429531,1.2944002,6.4464493,3.9838767,10.199837,3.0830087Z"/>
  <path d="M736.6564752,323.4555349c-.0128585.0385443,0,.0513715.0257171.06423l.12846.0513715c1.1591684.5795842-.0229977-3.7530352,9.6474214-9.6472959,8.227845-5.0934279,11.6702345-5.8518556,12.3963901-7.9260072l.2954329.5009815c-.8373047,1.8576821-1.7068562,3.676909-2.8004657,5.3953201-.6745014,2.1681915,1.0806149,3.4622214,3.2243586,4.2520072,1.6565987.5846749,6.7741355,2.5393064,7.360733.8863928,2.1650839-5.8735163,7.0034757-19.7881038,6.8212386-26.038836-.3404535-.9078761-.8747353-1.8525634-1.7855815-2.18382-2.2482408-.5739717-5.6022266-2.4550651-7.553423-.3982229-3.2658705-.6213298-6.156453-1.2930884-9.0948803-.7964457-4.0786147.679723-8.0510099,3.4832728-6.5513973,7.2323043,1.2112187,3.1743251,4.1890593,5.2351523,6.3459115,7.2194458-5.9748.9335767-14.0804164-.7509605-18.5881873,11.5100443-.2920282.8098009-1.5572226,7.6746007.1282718,9.8785302ZM759.9334525,292.3553404c.9196493-.8977057,2.847946-.7860061,3.1087571.25692.2265076.9057936-2.5883689,16.6261901-4.7145071,9.1849058-.5977365-1.7931624-.5890454-7.2993997,1.60575-9.4418258Z"/>
  <path d="M375.7480859,933.4735053c-2.6514223-3.1333742-10.1411794-4.1099393-11.6898444-10.2511457-4.6219658-18.8175141,1.0266505-61.7267191-9.35191-74.8922435-5.2593519-6.6716502-15.0271608-5.0944221-26.5269903-5.2540015-8.9879284.5892308-.3846769,8.4019636.1413029,10.2254286,1.8386966,1.9000463,4.6248133,17.6027507-.5395414,19.7443273-12.242843,5.3822827-23.1817775,8.6216301-32.0892989,16.519906-5.1236671,4.5431421-5.3304123,8.6515171-6.2174672,9.094943-4.4861294-1.6387669-8.6981464-2.0692968-12.0110101,1.4259186-5.2421601,5.4825669-15.0124621,30.6491367-8.4783679,39.8740346,2.8274143-7.958714,14.282574-25.6253182,24.4202353-29.096253,6.1771611-2.1149379,6.5966711.6579682,49.0974062,15.3895458,9.3474503,3.4319663,8.601608,6.2928191-.9377329,20.5150246-3.4218456,5.1327683-10.1835941,15.18093-6.4872301,16.5456858,3.7941133,1.4090304,12.1918058-8.8968694,24.2018674-18.4725858,2.8646643-2.2864375,11.2797762-8.8294695,16.4685816-11.3685847ZM307.5358252,904.9939607c5.8861497-12.6335902,11.8296441-18.8593878,20.3994545-24.4459132,1.6275143.5887491,2.7514629,1.6920609,3.01881,3.4298444,2.6837224,17.2764787,2.8226963,19.7306263,2.89035,30.6119932l-26.3086145-9.5959245Z"/>
  <path d="M405.4480476,917.9941379c-7.5239938,6.1319024-17.1008886,18.441319-9.5702701,24.4844261,3.1361224,2.516649,9.2530359,3.7128222,13.3983687,4.3804986,8.3130648,1.2831137,11.6866124-2.7955636,18.4596802-3.6867644,9.4084761-1.1655656,6.3309963,4.4269536,13.2570972,10.829153,4.3362959,4.0083736,21.8069562,8.2969132,27.4004932-.1541771-9.5037879-7.77621-4.2888989-74.3845967-25.4992789-79.5295366-4.9012189-1.2245568-21.3025264,1.0917512-22.9429374,1.8112358-1.4564745.6026495-1.959106,2.6049551-1.0662086,3.91803,1.9514021,2.9566262,3.84159,3.6417137,4.6374029,5.5366386,1.765837,1.4448588,4.8090097,12.1247816,3.6225971,16.9696414-.8843584,3.6206988-10.174819,6.009016-21.6969444,15.4408545ZM429.4957536,915.6689993c.6889525,2.7952016,3.5879806,15.364669,3.2372171,16.9182073-1.2491848,5.472481-10.8313855,1.5002784-14.0920559-.9891044-8.2133129-6.2705143,2.018184-20.3542501,7.4892243-18.9864258.6165829.1541144,2.9906467,1.7003425,3.3656144,3.0573229Z"/>
  <path d="M488.9213627,963.1606242c2.719313-.0955085,10.3021797.3082148,13.8479944,1.7727229,56.9831201,3.8066217,56.9487007,7.8230427,58.1924119-10.4180559,1.1610695-17.1127416-18.7798124-27.0727468-33.1169946-34.3887674,9.1175224-2.4070615,20.6320361-4.7384442,27.5418117-10.0070216,8.444953-6.4267537.0110208-13.8305639-10.3410301-17.1879858-9.8468721-3.2468584-32.0716025-3.7541714-41.1714304-3.8023659-11.6468081,0-11.4853165-.1613746-10.764923,12.3065058.6751932,11.6855972,1.2362923,18.6144332.6808129,26.3599546-2.2457337,33.5383454-9.2585426,32.920111-4.8686529,35.3650133ZM521.6658045,899.2003394c.273499-4.5575743,8.2549547-2.9963857,10.1611673,1.4515729,3.7918372,9.3682286-7.1547145,19.0873736-9.7373057,18.8836202-.3982385-.0257171-.6808443-.7579015-.8221315-2.18382-.5167892-5.2633557.062838-12.9405618.3982699-18.1513731ZM521.2675973,922.4644581c16.237364,9.4235112,11.9074225,37.0639678,7.7846886,36.7652147-8.4972294-.5814952-7.4116139-1.5956035-10.1997116-1.7855815-.9158176-.4742384-1.7677825-1.0124192-2.1709928-1.9654129-.3624482-1.8119249-.0547264-26.9389022,4.5860158-33.0142203Z"/>
  <path d="M606.2952596,928.3608224c2.0485133.4625389,8.6374699,10.6233894,9.7629601,12.3835316,6.3253843,9.7972222,8.71106,17.1037421,15.6849473,20.3223973,5.7067751,2.6519392,24.6297156.2010379,26.7967688-9.8914201-13.4375905-4.7278836-32.7397307-75.798517-57.3445947-63.4977535-13.01011,6.854185-14.1913779,6.8305822-16.1345887,8.773793-1.0866869,1.0625147-.9284079,3.0677088.4239243,4.0336315,2.0277226,1.5208177,5.1303608,2.2152701,6.3330843,3.4812786,2.0371786.6269419,8.8254711,9.4196432,9.5317258,14.4646714.7083546,5.1946968-22.3671589,23.0677055-19.6158673,42.9056404,1.2905754,9.392336,18.9202782,5.96973,24.2532232,2.9417842,2.1567406-1.225414,2.913246-2.0657645,5.9862486-4.5989057-18.3979299-5.8899098-15.714998-33.5849653-5.6778317-31.3186487Z"/>
  <path d="M668.4056702,913.5621424c1.9826505,8.4392348,2.8714256,16.7742741,9.159173,31.7681332,3.2814402,7.9473593,6.2051889,6.0864881,12.1266429,4.9329142,11.8533333-2.2795443,26.3281914-9.0097303,16.0189872-17.354896-3.7017246-3.0449294-4.5005166-3.098724-10.443773-19.0891687-10.0367414-27.0040443-6.0578849-34.6954199-13.2956101-37.3434102-33.6763044,7.055831-20.9178925,5.9790344-13.56542,37.0864275Z"/>
  <path d="M765.5599755,902.8229365c.3477654-1.2669722.0044108-2.4221327-.6037244-4.0336315l1.47729.4881229c4.5800535,15.1140274,2.7226061,16.9311088,6.333053,19.1662573,6.3652209,3.9405687,23.3198689-4.6172152,26.9637417-8.067263,2.1098812-1.9976523,3.2865732-.5463226-10.1354816-31.4084703-10.4410259-23.9745645-14.684255-30.7230476-20.5150873-37.1120818-5.928992-3.2551273-7.2971416-1.1623466-12.5891428.8221315-5.1433513,1.8799143-10.8067925,4.9128605-11.0732145,10.3538886,3.1670527-1.0565432-17.2071631,7.1705269-24.1119673,20.6691389-5.4346175,10.6250394-2.6325709,20.3406984,11.7027187,22.801713,6.2238999,1.0684896,8.8628576.6130188,17.4577644.8478486-6.4655694,8.5917226-19.3849365,14.4925484-21.3885275,33.5280603-2.0195488,21.3386131,12.3142594,40.6084617,21.272926,42.6230033.0950284.2848535.9126581-.2774917,1.0919727-.5394944.9507991-1.316546-4.1618542-5.8871843-.8607071-24.073329,1.4577626-8.1746823,11.1414167-33.1557436,14.978386-46.0658945ZM743.0666167,868.9865847c.3197941-3.3471162,4.3916679-6.642568,6.8212386-4.94571,2.9753131,2.03074,15.123885,26.895394,13.3341858,28.6850932-1.248632,1.3875195-4.9834823-.4827549-6.8469557-1.60575-4.3198286-2.6302394-14.1207278-13.6321459-13.3084687-22.1336331Z"/>
  <path d="M338.1093056,939.5368425c-18.528389-6.8941987-29.4120223-11.5077048-47.2989819-19.3588846-2.5408501,2.1672178-4.5970378,4.6308363-6.5386172,7.2194772,15.865525,6.4379826,32.5741916,12.9406003,49.3414834,19.0377973,1.8595294-2.9496361,2.9650717-4.4487739,4.4961157-6.8983899Z"/>
  <path d="M268.7794491,900.6263206c-.0518793-130.793048-.0350511-88.3673137-.0385364-97.1542739,131.6107248,54.8532311,248.3588536,88.1371553,383.9155802,61.301075-.0759957-4.8589048,1.8387653-8.9362524,6.0247615-11.664143-202.2818949,44.4637039-352.117023-49.6471014-399.4720597-63.9858765v120.5854283h.0385364v7.4378215c.77076.2826371,1.6956736.6294415,2.6591236,1.0148215,1.4358912-5.0256193,4.7740961-13.7459362,6.8725944-17.5348529Z"/>
  <path d="M724.8510136,951.6891084c-119.3911903,40.2969324-223.5555784,43.7498695-360.0348393-2.5948544-2.1643924,1.7053177-4.3241542,3.4406857-7.0653001,5.8063544,139.0194071,46.964989,242.6095396,49.3157819,371.5062923,7.0910172-2.3359174-4.3385979-2.963071-5.7608401-4.406153-10.3025172Z"/>
  <path d="M674.5716876,849.3707801c.5747051.5593647,5.8143981,6.2632873,7.1038443,8.8765986,43.998348-11.0583701,87.7869167-27.1943074,129.5262569-44.973859v106.8144911c-10.5850916,4.2006671-29.7898618,11.535683-51.242682,19.2818587-1.599639,5.1708309-2.653084,10.2564991-3.01881,13.0001145,15.2192709-5.7735338,26.5356299-9.7289115,54.3000676-21.5556258-.0257171-.0128585,6.5000886-2.89035,9.5060401-4.6502771v-7.0010701h.0128585v-119.7632341c-7.2343895,1.0732997-90.694839,36.2603955-146.1875755,49.9710032Z"/>
  <path d="M669.394806,849.0623632c-1.0707466-1.0707466-1.6072488-.7423112-7.0138973,7.2707859-1.7947585,2.6599795-3.5775655,5.6717698-3.4042214,8.6196786.4458616,5.1274083,4.7045435,8.7482014,9.4932129,8.7482014,6.0984577,0,10.2600242-5.6868802,9.5188673-10.2382245-.5633114-3.4236719-5.9431173-11.036743-8.5939615-14.4004414Z"/>
  <path d="M451.7707053,414.8291087c-.0128272.0128585,0,0,0,0h0Z"/>
  <path d="M666.427336,840.4043599c.0128585-.0128585.0256857-.0257171.0256857-.0385129,8.0304144-11.9425645-3.8553222-13.3925429-99.8519653-50.7928838-10.8071104-4.1040167-13.054611-5.7692116-16.9310344-4.68879-6.7619265,1.8783257-6.8704853,10.2643432-1.5671744,12.5762216,2.2874326.9892335,14.2677042,6.0750866,14.8371301,6.3202572,114.6139975,48.2890435,92.3968083,40.7063239,103.4873582,36.623708ZM664.1536317,833.9041458c.8887137,3.5548548-1.4863057,6.8487295-5.5623243,5.7165328-2.8967597-.8451584-4.2363013-3.7707379-3.5455399-5.498063.3989331-1.0542238,7.7421946-3.6334776,9.1078643-.2184698ZM548.6038605,793.8118923c-.2370234-.5685047-.7527956-1.39981-.6551586-2.6205715.4673705-5.607685,8.7493715-1.5898096,12.0109788-.3210873,42.6033549,17.1526491,16.1061652,3.8832238,95.1246623,37.8955122-3.0669437,1.5692555-4.8537885,4.7899765-3.8281143,8.2985914-2.8007366-1.5434054-87.9889232-37.0016921-88.7144267-37.3047718-.7512252-.3249171-13.3708732-5.7058377-13.9379415-5.947673Z"/>
  <path d="M767.345557,785.1664339c-22.7609375,5.3967674-20.6357649,6.2209801-15.4922887,33.9005818,71.3335535-26.1407907,70.211013-23.1367163,68.6490121-37.1634533-.9762458-8.6839086-15.4626474-5.6948035-53.1567234,3.2628715Z"/>
  <path d="M750.9797653,466.5342592c69.3999853-19.0754595,71.1918481-16.2798405,69.3812592-32.5388932-1.8473978-16.4319302-15.4626474-5.6949657-53.1567234,3.2629028-22.5638512,5.3500369-20.380921,6.9084162-16.2245358,29.2759904Z"/>
  <path d="M800.6424144,397.0117128c-56.2601365,15.4039036-55.6289408,6.0584566-49.8039676,37.4075461,70.3166491-19.3274161,71.3867714-16.4250351,69.6767549-31.7809918-.9763713-8.6839086-13.4112743-7.3993086-19.8727873-5.6265543Z"/>
  <path d="M767.345557,532.8067927c-22.5638512,5.3500369-20.3806629,6.9083996-16.2245358,29.2760217,69.3999853-19.0754595,71.1918481-16.2798405,69.3812592-32.5388932-1.847274-16.4319442-15.4626474-5.694997-53.1567234,3.2628715Z"/>
  <path d="M767.345557,597.357912c-22.5638512,5.3500369-20.3806629,6.9083996-16.2245358,29.2760217,69.3999853-19.0753424,71.1918473-16.2798475,69.3812592-32.5388932-1.8472785-16.4319244-15.4626474-5.6948035-53.1567234,3.2628715Z"/>
  <path d="M820.5022804,689.6307685c-1.8473957-16.4319113-15.4626474-5.6948035-53.1567234,3.2628715-22.5638512,5.3500369-20.3806629,6.9083996-16.2245358,29.2760217,18.6009831-5.112683,35.1466689-9.6987301,51.7308676-14.1819716,16.6099158-4.4832415,18.9349916-6.8212386,17.6503916-18.3569216Z"/>
  <path d="M800.7836702,746.9495835c-54.6800127,14.9712692-57.3091683,6.4872323-51.3582834,38.5122833,71.144731-20.946445,73.0074323-16.934068,71.2310707-32.8857603-.9763086-8.6838459-13.4112116-7.3992459-19.8727873-5.626523Z"/>
  <path d="M800.6424144,491.3013538c-56.2601365,15.4039036-55.6289408,6.0584566-49.8039676,37.4075461,70.3166491-19.3274161,71.3867714-16.4250351,69.6767549-31.7809918-.9763713-8.6839086-13.4112743-7.3993086-19.8727873-5.6265543Z"/>
  <path d="M820.6564575,625.8375194c-.9763086-8.6839086-13.4112116-7.3993086-19.8727873-5.626523-55.9244883,15.3120039-55.6506793,5.9414319-49.8039676,37.4075147,18.6009831-5.112683,35.1466689-9.6987301,51.7308676-14.1819716,16.6099158-4.4832415,19.2304873-6.0633372,17.9458873-17.5990202Z"/>
  <path d="M750.6328982,497.7243538c66.4347247-18.2604203,71.8838977-13.8195183,69.8308065-32.2562875-1.7172482-15.2742969-35.2619138-.0779638-53.9146876,4.3547815-17.9201702,4.2520386-15.7492087,6.8726101-18.1128602,13.1029201-.9761831,2.5563415-1.5028817,9.9427916,2.1967413,14.7985859Z"/>
  <path d="M820.4637675,656.5522555c-1.7172482-15.2742969-35.2619138-.0779638-53.9146876,4.3547815-17.9201702,4.2520386-15.7492087,6.8726101-18.1128602,13.1029201-.9763086,2.5563415-1.5030071,9.9427916,2.1966786,14.7986172,66.4349487-18.2603082,71.8839605-13.8194992,69.8308692-32.2563189Z"/>
  <path d="M750.6328982,593.2600505c66.4347247-18.2603082,71.8838969-13.8195262,69.8308065-32.2562875-1.7172482-15.2742969-35.2619138-.0779638-53.9146876,4.3547815-17.9201702,4.2520072-15.7492087,6.8725787-18.1128602,13.1028888-.9761831,2.5564042-1.5028817,9.9428543,2.1967413,14.7986172Z"/>
  <path d="M750.6328982,753.359725c66.4347247-18.2603082,71.8838913-13.819557,69.8308065-32.2563189-1.7172482-15.2742969-35.2619138-.0779638-53.9146876,4.3547815-17.9201702,4.2520386-15.7492087,6.8726101-18.1128602,13.1029201-.9761831,2.5564042-1.5028817,9.9428543,2.1967413,14.7986172Z"/>
  <path d="M259.5431719,770.3678166c-1.2846,11.535683,1.2717571,13.8223087,17.1751037,20.0526187,17.1494023,6.718433,32.2691539,15.2096516,50.8701527,20.3223973l3.4298758-17.8687987c1.9269-12.049523-.38538-12.9230887-18.318393-17.1751273-25.5130681-6.0629392-50.9910465-24.5944454-53.1567391-5.3310901Z"/>
  <path d="M313.0210767,426.8401188c-37.5407784-8.9214035-51.3072507-19.7137027-53.156747-3.2629028-1.80123,16.1750545-.015331,13.4645183,69.3812514,32.5388932.9762929-5.2540015,1.60575-8.1957544,2.0939043-11.1760201,1.9268843-12.0494917-.3853957-13.8479317-18.3184087-18.0999703Z"/>
  <path d="M279.3516978,387.2615799c-6.4615365-1.7727543-18.8964631-3.0573543-19.8727638,5.6265543-1.7029475,15.2924768-.7903062,12.3990012,69.6767,31.7809918.9762929-5.2540015,1.60575-8.1957544,2.0939043-11.1760201,2.8933187-18.0928488-4.8734424-13.3563476-51.8978405-26.231526Z"/>
  <path d="M329.3740255,392.7982185c3.6996543-4.8557943,2.4150543-12.0752401,2.1966629-14.7985859-.6423-8.1957544.4881543-12.1266116.2440771-12.6789959,0,0,3.9565743-28.6465803,48.8918733-49.4442419,113.3410308-34.8597046,214.0375676-27.8620899,321.1885475,6.5257743,44.5627619,21.1188117,48.1725005,50.3177762,48.1725005,50.3177762-.1798315.1413185.7322471,7.8874315-1.6314671,14.1177416-.9763086,2.5563415-1.5030071,9.9427916,2.1966786,14.7985859,62.7533702-17.2485536,71.016988-14.2776956,70.1005851-29.2374775-2.3718019-99.3832155,5.5219228-99.8450442-7.617653-106.4805139-63.2629609-32.1084169-145.9992369-56.7969256-224.3553609-61.9177206-4.30341-.3982229-9.6216416,1.1946843-13.2442387,3.6739529-25.974606,17.7274802-61.8149463,17.7788673-88.0079281.1541457-3.8281143-2.5820429-9.4931815-4.3547972-13.9250516-3.7510258-66.9148178,4.9071658-148.6924515,23.9706331-207.4500592,54.2615077-12.4725522,6.4644229-4.2661943,2.81988-6.9368401,106.1593639,0,0,.0128429-.0128585.0385364-.0256857-.4765602,13.9492906,8.6026001,11.4114252,70.1391372,28.3253989ZM268.7409049,277.3769074c.9766704-3.9288785-1.9940003-8.9994984,6.6156901-13.2313801,44.3543735-24.5924761,149.9229493-45.1801573,195.7987434-50.6132405,4.1235786-.5009971,9.1206601.8093043,12.7303987,2.9674229,57.8966546,34.6678036,93.5726399-4.8224779,106.4034253-3.2243429,104.0604195,12.9518204,190.3572056,45.3255868,213.153655,58.2694534,8.3457009,4.7418931,6.5862145,12.9876332,7.7846259,17.1365516v66.1569163h-.0128585c-216.6873603-90.311803-341.7925609-95.2848766-542.4737112-9.801473v-67.6599078h.0000314Z"/>
  <path d="M312.7898424,521.6050555c-37.5407784-8.9214035-51.3072507-19.7137027-53.156747-3.2629028-1.7906312,16.0798771-.2484243,13.3872271,69.3812514,32.5388932.9762929-5.2540015,1.60575-8.1957544,2.0939043-11.1760201,1.9268843-12.0494917-.3853957-13.8479317-18.3184087-18.0999703Z"/>
  <path d="M329.0143469,614.9184193c4.1578535-22.3758353,6.3223092-23.9300236-16.2244888-29.2760217-37.5407784-8.9214035-51.3072573-19.7136721-53.156747-3.2628715-1.7906576,16.0798742-.24844,13.3872271,69.3812357,32.5388932Z"/>
  <path d="M329.0143469,709.670466c4.1578535-22.3758353,6.3223092-23.9300236-16.2244888-29.2760217-37.5407784-8.9214035-51.3072573-19.7136721-53.156747-3.2628715-1.790648,16.0798753-.24844,13.3872271,69.3812357,32.5388932Z"/>
  <path d="M277.4248057,757.149295c16.5841909,4.4832415,54.1587412,16.4685973,54.1587412,16.4685973,4.2355689-22.7940673,3.5609284-24.4746085-18.639543-29.7384903-20.3459898-4.8351364-51.6909846-20.0074667-53.4522112-4.3419857-1.2974507,11.5486043,1.3231364,13.1286372,17.933013,17.6118787Z"/>
  <path d="M279.5829321,480.3693951c-6.4615365-1.7727543-18.8964631-3.0573543-19.8727638,5.6265543-1.7134912,15.3871598-.5600989,12.4756583,69.6767,31.7809918.9762929-5.2540015,1.60575-8.1957544,2.0939043-11.1760201,2.8933187-18.0928488-4.8734424-13.3563476-51.8978405-26.231526Z"/>
  <path d="M329.1556497,645.6460139c5.8227086-31.3353919,6.4313435-22.0107105-49.8039362-37.4075147-6.4615365-1.7727229-18.8964631-3.0573229-19.8727638,5.626523-1.7029545,15.2924881-.7903657,12.3990012,69.6767,31.7809918Z"/>
  <path d="M331.9303826,472.2507293c-2.3636672-6.2303101-.19269-8.8508815-18.1128602-13.1029201-18.250633-4.337184-52.20491-19.5625426-53.9146641-4.3547815-2.0440242,18.3553475,3.0357357,13.8969389,69.8308457,32.2562875,3.6996543-4.8557943,3.1729714-12.2422444,2.1966786-14.7985859Z"/>
  <path d="M331.9303826,661.7677441c-2.3636672-6.2303101-.19269-8.8508815-18.1128602-13.1029201-18.250633-4.337184-52.20491-19.5625426-53.9146641-4.3547815-2.0440297,18.3553469,3.0371506,13.8973592,69.8308457,32.2563189,3.6996543-4.855763,3.1729714-12.242213,2.1966786-14.7986172Z"/>
  <path d="M331.9303826,567.0028388c-2.3636672-6.2303101-.19269-8.8508815-18.1128602-13.1029201-18.250633-4.337184-52.20491-19.5625426-53.9146641-4.3547815-2.0440242,18.3553475,3.0357357,13.8969703,69.8308457,32.2563189,3.6996543-4.8558257,3.1729714-12.2422758,2.1966786-14.7986172Z"/>
  <path d="M329.7337041,740.603672c3.6996543-4.855763,3.1729558-12.242213,2.1966629-14.7986172-2.3636672-6.2303101-.19269-8.8508815-18.1128602-13.1029201-18.250633-4.337184-52.20491-19.5625426-53.9146641-4.3547815-2.0439941,18.3553509,3.0357514,13.8969703,69.8308614,32.2563189Z"/>
  <path d="M615.4801497,803.8188511c27.1061643-1.6154134,29.8114036-.2068873,29.1732475-2.5563415-.481751-1.806594-34.7088884-.3441832-36.1871761-.2825744,4.5374635,1.8017573,5.789386,2.3596792,7.0139286,2.8389158Z"/>
  <path d="M554.1790434,804.3069741c-49.4165512,2.8121167-65.3695525.0713644-83.3448551-1.3744844-15.8169452-1.2766829-36.2529281-2.0828492-47.4659705-4.1878086-11.9988096-2.2630587-11.8617233-3.9016124-26.0902231-3.3014471-.57807.0257171-1.6314357-.1413185-2.1581343.1541771-.7579171.4367515-.5266829,1.2460871.3468357,1.2588829,15.3001488-.9192562,16.3280643,1.3663668,28.2483574,3.59688,14.9688025,2.7966648,83.1495601,9.4385031,137.0539628,6.6670615-.5747442-.2438103-4.6747917-2.0129372-6.589973-2.8132615Z"/>
  <path d="M512.7506616,722.2466876c-1.4371282-.0757161-1.0233955,1.2855646-1.1047686,2.50497-.5690643,5.7197906-3.6032006,21.6096215,1.3745157,23.366799.891403-2.6742091-.6355707-.8074248.32115-10.5080657.2898227-2.732845,1.9895162-13.9969698-.5908972-15.3637032Z"/>
  <path d="M626.155157,724.8672591c-2.1322072,0-2.9667719,13.7099442-1.1689986,14.7085447.2697785.12846.5523843-.2055485.57807-.44961,0-.0257171.0128585-.0770885.0128585-.1027429-.0128585-.0385129-.06423-.0513715-.0770885-.0899471-.0128585-.0385129.0385443-.06423.06423-.0899471.9968994-1.1631845,1.870768-13.5491635.5909286-13.9762976Z"/>
  <path d="M528.332866,149.7133518c-4.4488316,1.9392187-4.5550947,8.2035639-.1798315,10.3024937-.7532639,22.4991921-5.4546935,21.0276969-3.27573,21.4785138,2.9448069.5718044,13.1512627.9634163,11.8311473-.7450743-2.7105186-3.6867958-3.59688-11.7155537-3.9951186-20.5792938,4.8494516-1.9879545,4.6150771-8.9188693-.3083228-10.5979501-.0351803-1.6464395-.4774619-23.0209701-1.60575-24.9726274-2.6280374,5.4538521-2.3451109,15.2107315-2.4663944,25.1139381Z"/>
</svg>