<?xml version="1.0" encoding="UTF-8"?>
<svg id="_Шар_1" xmlns="http://www.w3.org/2000/svg" version="1.1" viewBox="0 0 1080 1080">
  <!-- Generator: Adobe Illustrator 30.4.0, SVG Export Plug-In . SVG Version: 2.1.3 Build 42)  -->
  <path d="M590.6309052,360.9297638c-18.0634155-13.1669617-43.4505615-9.1756287-56.6589966,8.9287415-5.2252197,7.159729-7.694397,15.4711609-7.7355957,23.7416992h-75.7917786l.6579895,100.480011c0,36.2913818-7.4884644,62.9545898-22.4247131,79.9890747-14.9774475,17.03479-36.7029724,25.552124-65.1354675,25.552124-58.3868408,0-87.5596619-35.1802979-87.5596619-105.5412292v-216.6780701h-90.9751587v220.052124c0,57.6464844,15.6354218,101.9614868,46.9067688,133.0271606,31.2306519,31.0656738,74.9283752,46.6192017,131.0524292,46.6192017h41.3520813l195.2411194-259.4707031c13.166748-18.1046143,9.1755981-43.4920349-8.9290161-56.7001953v.000061Z"/>
  <path d="M894.9924774,277.4021454h-94.5548706l-243.7114258,323.700531h243.7114258v201.536377l94.5548706-125.5384521v-399.6985168.000061ZM707.9399872,525.1461334l92.4975586-122.4936218v122.4936218h-92.4975586Z"/>
  <polygon points="498.6682587 677.1006622 593.2231293 677.1006622 498.4211273 802.6390533 403.8662262 802.6390533 498.6682587 677.1006622"/>
  <line x1="800.4375458" y1="277.4021454" x2="800.4375458" y2="277.3609467"/>
</svg>