<?xml version="1.0" encoding="UTF-8"?>
<svg id="_Шар_1" xmlns="http://www.w3.org/2000/svg" version="1.1" xmlns:xlink="http://www.w3.org/1999/xlink" viewBox="0 0 1080 1080">
  <!-- Generator: Adobe Illustrator 30.2.1, SVG Export Plug-In . SVG Version: 2.1.1 Build 1)  -->
  <defs>
    <style>
      .st0 {
        fill: url(#_Безымянный_градиент_21);
      }

      .st1 {
        fill: url(#_Безымянный_градиент_2);
      }

      .st2 {
        fill: #000001;
      }
    </style>
    <linearGradient id="_Безымянный_градиент_2" data-name="Безымянный градиент 2" x1="824.4875513" y1="488.7742235" x2="747.3176117" y2="586.3568567" gradientUnits="userSpaceOnUse">
      <stop offset="0" stop-color="#fead38"/>
      <stop offset=".1528919" stop-color="#faaa37"/>
      <stop offset=".2823095" stop-color="#f0a335"/>
      <stop offset=".4031856" stop-color="#de9731"/>
      <stop offset=".5189295" stop-color="#c5862b"/>
      <stop offset=".631013" stop-color="#a67124"/>
      <stop offset=".7403228" stop-color="#7e561c"/>
      <stop offset=".8474325" stop-color="#503612"/>
      <stop offset=".9502274" stop-color="#1c1307"/>
      <stop offset="1" stop-color="#000001"/>
    </linearGradient>
    <linearGradient id="_Безымянный_градиент_21" data-name="Безымянный градиент 2" x1="401.1870759" y1="360.9571373" x2="89.0222238" y2="658.1858721" xlink:href="#_Безымянный_градиент_2"/>
  </defs>
  <g>
    <path class="st2" d="M939.8163604,568.3552454c0-1.3502047,0-54.6016519,0-52.1596432l18.284098-16.5195914h47.1472052l-18.284098,16.5195914h-28.8631071v9.5590829h28.8631071v16.5207386h-28.8631071v9.5590829h28.8631071v16.5207386h-47.1472052Z"/>
    <path class="st2" d="M901.3023884,497.8885588v24.4093913l27.9349629-24.4093913v70.4666867h-19.211095v-26.0798216l-30.9064013,27.541448v-27.541448l-30.4406082,27.541448v-24.2854858l52.6231417-47.6428273Z"/>
    <path class="st2" d="M839.5836623,498.0744171v70.2808283h-18.2829508v-53.7761515l18.2829508-16.5046768Z"/>
    <path class="st2" d="M74.7523364,694.885172h142.1891904v-59.6945872h-76.1230351v-188.5519865l-66.0661553,59.7153145v188.5312592Z"/>
    <path class="st2" d="M733.2389873,516.5953758v68.1489275h-18.1417789v-9.209776h-32.617862l18.3614929-16.6686701h14.256369v-18.0507057l-50.4670682,45.4717039v-24.028522l50.4670682-45.6629576h18.1417789Z"/>
    <path class="st2" d="M652.4741465,584.7443033c-3.0272744-.3953586-18.7754405,2.3099612-32.370826-9.8085823-14.6548621-13.0586304-14.9044011-35.1545422.046675-48.4862264,16.0180763-14.285322,33.6449281-8.5722416,50.4670682-9.8541188l-18.1429173,16.3920353c-.6568348.1759933-25.2329649-1.5424158-25.2329649,17.6818593,0,10.8483547,10.4521585,17.6818593,21.4568429,17.6818593h3.776122v16.3931737Z"/>
    <path class="st2" d="M597.9554599,515.0061486v69.7381546h-18.1417789v-53.3609188l18.1417789-16.3772359Z"/>
    <path class="st2" d="M523.0841927,532.987411l18.1429173-16.3920353h40.9817958l-18.1417789,16.3920353h-3.7772604v51.7568922h-18.1417789v-51.7568922h-19.0638949Z"/>
    <path class="st2" d="M511.8491767,584.7443033c-3.0272744-.3953586-18.7754405,2.3099612-32.370826-9.8085823-14.6548621-13.0586304-14.9044011-35.1545422.046675-48.4862264,16.0191728-14.2840924,33.6449306-8.5722079,50.4670682-9.8541188l-18.1429173,16.3920353c-.6568907.1757844-25.2329649-1.5424158-25.2329649,17.6818593,0,10.8472021,10.4521275,17.6818593,21.4579813,17.6818593h3.7749836v16.3931737Z"/>
    <path class="st2" d="M457.2394168,516.5953758v68.1489275h-18.1429173v-9.209776h-32.617862l18.3626314-16.6686701h14.2552306v-18.0507057l-50.4670682,45.4717039v-24.028522l50.4670682-45.6629576h18.1429173Z"/>
    <path class="st2" d="M337.1497431,532.987411l18.1423481-16.3920353h40.9812266l-18.1423481,16.3920353h-3.7755528v51.7568922h-18.1423481v-51.7568922h-19.0633257Z"/>
    <path class="st2" d="M783.3372091,568.3511296v16.3931737h-39.047629c0-2.43293,0-54.0893819,0-51.7739685l18.1429173-16.3988658v51.7796605h20.9047117Z"/>
  </g>
  <g>
    <path class="st1" d="M762.4324974,516.571469l19.9813783-16.8954581h41.3006993l-18.2829508,16.5195914h-3.8055063v52.1596432h-18.284098v-52.1596432l-20.9095226.3758668Z"/>
    <polygon class="st0" points="213.5793018 385.114828 140.8184918 446.6385983 216.9591451 445.269561 216.9591451 635.2050939 283.5393371 635.2050939 283.5393371 445.269561 297.3968241 445.269561 363.9728707 385.114828 213.5793018 385.114828"/>
  </g>
</svg>