<?xml version="1.0" encoding="UTF-8"?>
<svg id="_Шар_1" xmlns="http://www.w3.org/2000/svg" version="1.1" viewBox="0 0 1080 1080">
  <!-- Generator: Adobe Illustrator 30.2.1, SVG Export Plug-In . SVG Version: 2.1.1 Build 1)  -->
  <defs>
    <style>
      .st0 {
        fill: #ff945c;
      }
    </style>
  </defs>
  <path d="M248.4984067,397.7235499v130.4291681c0,40.4019169-32.9186711,73.5717207-73.320588,73.5717207h-4.9871394c-40.4019169,0-73.569184-33.1698038-73.569184-73.5717207v-130.4291681h37.4086186v130.4291681c0,20.2022268,16.2094713,36.4116981,36.1605654,36.4116981h4.9871394c19.9510941,0,36.1631021-16.2094713,36.1631021-36.4116981v-130.4291681h37.1574859Z"/>
  <path d="M802.0996135,571.6846111c-63.7915748,63.7828074-174.293896,19.0167796-174.293896-72.061091,0-91.0040119,110.4678711-135.8783438,174.293896-72.061091l-28.173117,27.9270968c-32.905442-38.3870265-104.2314021-19.1042227-104.2314021,44.1339943,0,62.9037924,71.1722083,82.7003855,104.2314021,44.1339943l28.173117,27.9270968Z"/>
  <path d="M887.5172011,526.3948716l-25.2386702,34.9300914v40.2828057h-38.2470107v-203.9684971h38.2470107v103.5143364l75.2077103-103.5143364h43.599725l-70.114333,96.8856845,72.4068714,107.0828126h-45.6329266l-50.228377-75.212897Z"/>
  <polygon class="st0" points="394.7087911 514.1729191 326.4251307 423.515378 285.9707541 438.3791956 342.1087694 511.9672538 394.7087911 514.1729191"/>
  <path d="M383.8514256,397.6393034h-97.8806715v40.7398922c10.0082668.1348189,97.8806715,0,97.8806715,0,16.9309857,0,30.6867877,13.7556827,30.6867877,30.6867081s-13.755802,30.6921165-30.6867877,30.6921165h-97.8806715v101.8497306h40.7398922v-61.1098384h57.1407792c39.4159579,0,71.4266402-32.0106425,71.4266402-71.4320087,0-39.4159579-32.0106823-71.4266004-71.4266402-71.4266004Z"/>
  <path d="M599.2511537,601.6077686h44.1786305l-87.0391424-203.9684971h-39.1467626l-87.3028293,203.9684971h44.4426336l22.4241408-52.4490421h80.0188725l22.4244569,52.4490421ZM512.5879391,512.2501414l24.2294795-56.6708789,24.2291633,56.6708789h-48.4586428Z"/>
  <rect x="479.4060236" y="259.1852932" width="40.3959843" height="805.9650408" transform="translate(1161.7718294 162.5637979) rotate(90)"/>
  <rect class="st0" x="942.9825204" y="641.9698215" width="40.3959843" height="40.3959843"/>
</svg>