<?xml version="1.0" encoding="UTF-8"?>
<svg id="_Шар_1" xmlns="http://www.w3.org/2000/svg" version="1.1" viewBox="0 0 1080 1080">
  <!-- Generator: Adobe Illustrator 30.2.1, SVG Export Plug-In . SVG Version: 2.1.1 Build 1)  -->
  <defs>
    <style>
      .st0 {
        fill: #000001;
      }
    </style>
  </defs>
  <path class="st0" d="M147.3923757,147.3923757v785.2152485h785.2152485V147.3923757H147.3923757ZM827.3399931,719.8984549c0,14.1038852-11.8551233,25.9590084-25.8573307,25.9590084-3.3982412-.6447968-14.0015836,2.5534946-14.0015836-5.7232705,1.6407789-40.2336545-4.1241405-52.6335037,5.6215928-52.6335037h8.3799909c14.0022074,0,25.8573307,11.8551233,25.8573307,26.265913v6.1318528ZM803.5118503,891.7269424h-16.0307715c.3960216-54.6244162-1.4283334-56.4429874,2.1464604-56.4429874,3.5842158,0,2.4155234,3.1233111,6.1318528,20.2363617l7.7524584,36.2066257ZM781.553829,428.2424608c0,21.5650338-19.5208749,40.4720996-42.3116555,40.4720996-23.4039658,0-41.6984702-18.9070659-41.6984702-40.4720996v-126.4234589c0-22.688479,18.2945044-41.6978464,41.6984702-41.6978464,22.7907805,0,42.3116555,19.0093674,42.3116555,41.6978464v126.4234589ZM672.4910613,615.3993326c-4.786041,14.2102847-1.6737749,4.3180463-2.6436208,276.3276097h-16.6177577c-76.5452617-294.2994039-72.8027734-281.3048084-79.4520943-288.9518657-12.9544603-12.9532249-23.5638678-6.8293193-108.9473666-8.2783131,36.8210585-26.3682145,64.0806685-70.8656291,64.0806685-141.3170618,0-162.9095423-143.5932704-150.8491922-194.0809375-150.8491922-15.6371602,0-45.6838626-3.5774339-45.6838626-32.500691,0-37.1972115,51.1195197-47.1153209,64.897833-10.2201705,6.882155,20.3611671,20.8040385,5.2345687,161.0699865-10.2201705,20.9316946-1.609828,1.6046329-45.7719793-6.6196563-61.1164198h60.2131723c-55.1940616,73.1964928-28.5003168,132.0909261-35.6059162,246.305859,0,84.5041671,62.5448983,154.3374243,139.3895516,180.8204161ZM321.5438561,735.3310121h-64.3869492c-5.5333655,0-2.0095735-5.9996115-3.0665502-43.4357245,0-6.2443138,8.1761646-1.4822412,92.4930418-3.0659264,12.7752131,0,22.7907805-10.527075,22.7907805-22.7914043v-39.6206267c12.9130706-.7223485,26.1754635-2.7446747,39.3361786-6.1474475l-73.8554531,271.4570597h-80.7645479v-62.9834224c0-6.101966,4.3535167-2.3279131,67.4534994-3.4751324,11.446541,0,21.1558277-9.3000807,21.1558277-20.644944v-48.2389052c0-11.8551233-9.7092867-21.0535262-21.1558277-21.0535262ZM460.2316443,882.2971134h67.1465949l3.5867908,9.4298289h-74.2627878l3.5294021-9.4298289ZM468.1007514,772.6348839c.4064515-1.059222,21.5785399-56.2341765,20.2363617-52.736429,1.7372543-5.620969,9.6069852-5.620969,11.3442395,0,.4135768,1.0564602,21.972241,56.1269396,20.644944,52.736429,1.3286721,4.2922969-1.7378781,8.2783131-5.7232705,8.2783131h-40.7790042c-4.3945984,0-7.8691071-3.9860162-5.7232705-8.2783131ZM188.2730576,383.6246548c31.4053163,26.4649019,74.5210367,40.6324136,123.7661148,40.6324136h35.9745759c50.3911213,0,44.5848041,64.897833,3.0665502,64.897833-9.6069852,0-25.8573307-2.9636249-31.8875058-26.9813998-4.6034361-12.727633-5.8788877-4.3925632-130.9197351,8.0044695v-86.5533163ZM213.3281948,593.5772975h-25.0551372v-19.4896854c7.3588471,7.0313575,15.6346651,13.5786542,25.0551372,19.4896854ZM891.7269424,600.3928238c-19.3507869-9.0393568-35.5654885-6.9364738-38.7036558-7.2091376,14.1119944-8.9451443,27.1641701-19.4135831,38.7036558-31.2774394v38.486577Z"/>
</svg>