<?xml version="1.0" encoding="UTF-8"?>
<svg id="_Шар_1" xmlns="http://www.w3.org/2000/svg" version="1.1" viewBox="0 0 1080 1080">
  <!-- Generator: Adobe Illustrator 30.4.0, SVG Export Plug-In . SVG Version: 2.1.3 Build 42)  -->
  <defs>
    <style>
      .st0, .st1 {
        fill: #f15e3f;
      }

      .st1, .st2, .st3, .st4 {
        fill-rule: evenodd;
      }

      .st5, .st2 {
        fill: #eec339;
      }

      .st3 {
        fill: #00badd;
      }

      .st6 {
        fill: #b9b9b9;
      }

      .st4 {
        fill: #00ac5d;
      }
    </style>
  </defs>
  <g>
    <polygon class="st0" points="395.2290649 375.1433411 528.2335205 375.1433411 528.2335205 419.2568665 483.4486694 419.2568665 483.4486694 544.1610718 439.1163025 544.1610718 439.1163025 419.2568665 395.2290649 419.2568665 395.2290649 375.1433411"/>
    <path class="st0" d="M630.7199707,375.3699951c-46.5599976,0-84.2999878,37.75-84.2999878,84.3099976s37.7399902,84.3099976,84.2999878,84.3099976c46.5700073,0,84.3100586-37.75,84.3100586-84.3099976s-37.7400513-84.3099976-84.3100586-84.3099976ZM630.7199707,499.9000244c-22.2099609,0-40.2099609-18.0100098-40.2099609-40.2200317s18-40.2199707,40.2099609-40.2199707c22.2200317,0,40.2200317,18.0099487,40.2200317,40.2199707s-18,40.2200317-40.2200317,40.2200317Z"/>
    <path class="st6" d="M237.6083984,696.3037109c-6.6865234,0-13.8989258-.5361328-21.7407227-1.6992188l-.2080078-.0400391c-17.0385742-4.0244141-29.9018555-14.5761719-36.2197266-29.7099609-6.6616211-15.9580078-5.237793-34.9863281,3.7163086-49.6611328.7192383-1.1787109,2.2578125-1.5517578,3.4365234-.8320312,1.1787109.71875,1.5512695,2.2568359.8320312,3.4355469-8.1347656,13.3320312-9.4262695,30.625-3.3706055,45.1308594,5.671875,13.5869141,17.2651367,23.0820312,32.652832,26.7470703,49.7001953,7.3417969,72.1914062-10.9072266,98.2255859-32.03125,12.878418-10.4501953,26.1953125-21.2558594,43.9335938-30.1210938,40.9697266-23.7978516,76.4716797-16.8945312,107.7973633-10.8056641,22.4277344,4.3603516,43.6142578,8.4804688,64.0073242.9023438,28.8408203-14.5976562,45.7480469-41.7626953,63.6464844-70.5195312,23.3623047-37.5361328,47.5205078-76.3505859,100.4101562-85.5410156l.2148438-.0273438c37.6201172-3.2094727,66.1171875,12.7133789,91.2607422,26.7612305,22.75,12.7109375,42.3984375,23.6875,64.2099609,18.828125,24.3310547-5.421875,49.1435547-30.4414062,78.0869141-78.7382812.7099609-1.184082,2.2460938-1.5688477,3.4296875-.859375,1.1845703.7099609,1.5693359,2.2451172.859375,3.4296875-29.6972656,49.5537109-55.5273438,75.3076172-81.2880859,81.0483398-3.9365234.8769531-7.8134766,1.2773438-11.6396484,1.277832-19.1884766.0014648-37.2041016-10.065918-56.0966797-20.621582-24.4921875-13.684082-52.2392578-29.1967773-88.2890625-26.1533203-50.6064453,8.8427734-74.1494141,46.6625977-96.9130859,83.2373047-17.5,28.1162109-35.5947266,57.1894531-65.762207,72.4042969l-.25.109375c-21.7519531,8.1337891-43.6542969,3.8779297-66.8408203-.6298828-31.96875-6.2158203-65.0258789-12.6425781-104.3989258,10.2597656l-.1401367.0751953c-17.2827148,8.6279297-30.4008789,19.2724609-43.0874023,29.5664062-21.9462891,17.8076172-42.8613281,34.7773438-80.4746094,34.7773438Z"/>
    <path class="st0" d="M630.7199707,375.3699951c-46.5599976,0-84.2999878,37.75-84.2999878,84.3099976s37.7399902,84.3099976,84.2999878,84.3099976c46.5700073,0,84.3100586-37.75,84.3100586-84.3099976s-37.7400513-84.3099976-84.3100586-84.3099976ZM630.7199707,499.9000244c-22.2099609,0-40.2099609-18.0100098-40.2099609-40.2200317s18-40.2199707,40.2099609-40.2199707c22.2200317,0,40.2200317,18.0099487,40.2200317,40.2199707s-18,40.2200317-40.2200317,40.2200317Z"/>
    <path class="st6" d="M715.7318115,466.7058716c-6.4604492-.6740723-13.1970825-.7979126-20.2562256-.2019653-10.8497314,1.895813-20.447876,5.1315918-29.0686646,9.3934326.9727783-2.1395874,1.7567139-4.3577881,2.3305664-6.6333618,7.8403931-3.4088135,16.440918-6.0460815,25.9900513-7.7053833l.2148438-.0273438c7.3551025-.6275024,14.3571167-.5153198,21.0580444.1629028-.0400391,1.6704102-.1294556,3.3417969-.2686157,5.0117188Z"/>
    <polygon class="st0" points="834.2729492 482.0402832 834.2729492 544.1640015 790.3856812 544.1640015 790.3856812 482.0402832 728.7216797 375.3725586 779.8115845 375.3725586 812.2198486 431.6363831 844.8469849 375.3725586 895.9368896 375.3725586 834.2729492 482.0402832"/>
    <polygon class="st5" points="395.2290649 574.727417 429.410614 574.727417 429.410614 670.499939 476.2533264 670.499939 476.2533264 704.8566284 395.2290649 704.8566284 395.2290649 574.727417"/>
    <path class="st5" d="M492.0348511,704.8544922l60.7226562-130.1292725h15.4415283l61.2479858,130.1292725h-34.1815186l-7.9835205-17.0031738h-53.2645264l-7.8083496,17.0031738h-34.1742859.0000305ZM547.3792725,659.0479736h26.5482788l-13.1865845-28.6281128-13.3616943,28.6281128Z"/>
    <polygon class="st5" points="742.3841553 704.8566284 680.9609985 643.265625 680.9609985 704.8566284 646.7794189 704.8566284 646.7794189 574.727417 660.6665649 574.727417 722.2575684 636.1505737 722.2575684 574.727417 756.4390869 574.727417 756.4390869 704.8566284 742.3841553 704.8566284"/>
    <path class="st5" d="M782.6254883,574.7252197h48.229187c35.918335,0,65.0646362,29.1462402,65.0646362,65.0646362s-29.1463013,65.0646362-65.0646362,65.0646362h-48.229187v-130.1292725ZM816.631897,671.19104h14.3979492c17.0032349,0,30.8830566-13.8725586,30.8830566-30.8757935,0-16.8353271-13.8798218-30.7079468-30.8830566-30.7079468h-14.3979492v61.5837402Z"/>
  </g>
  <polygon class="st1" points="286.3760376 377.8067627 344.413147 516.9119263 245.2545319 474.9147949 286.3760376 377.8067627"/>
  <polygon class="st3" points="182.3149719 623.5205688 344.4072876 516.9112549 245.256012 474.9140625 182.3149719 623.5205688"/>
  <polygon class="st2" points="182.3149719 623.5205688 146.0901184 432.9168701 245.256012 474.9140625 182.3149719 623.5205688"/>
  <polygon class="st4" points="286.3760376 377.8067627 146.0886383 432.917572 245.2472382 474.9147949 286.3760376 377.8067627"/>
</svg>