<?xml version="1.0" encoding="UTF-8"?>
<svg id="_Шар_1" xmlns="http://www.w3.org/2000/svg" version="1.1" viewBox="0 0 1080 1080">
  <!-- Generator: Adobe Illustrator 30.2.1, SVG Export Plug-In . SVG Version: 2.1.1 Build 1)  -->
  <path d="M380.4351625,781.5532436l-6.3262121-6.272557-45.2591693,62.7895663c.0032972.002398.007194.003597.0101915.0065945.1867439.1372852.4622137.1600662.8566839.0485594h.0092922c7.2395487-2.0760647,14.2401971-6.509359,21.2147673-14.142179,6.6610323-7.2887076,11.5337593-15.3699528,16.8282338-23.3462856l12.6662127-19.0836986Z"/>
  <path d="M397.1390003,821.0822526c.0038967.001199.007194.004796.0104912.004796.1966356.0983178.4592162.0779349.8150188-.0845293h.0086927c4.4830528-2.0668474,8.6897365-5.1644582,12.653923-9.513448l-5.6505769-5.6028418-7.8375489,15.1960231Z"/>
  <polygon points="486.32825 703.3844323 489.1518898 703.3844323 487.6735255 698.8977826 486.32825 703.3844323"/>
  <path d="M364.7357851,828.4554895c.0029975.002398.0062947.005995.009592.005995.1888422.1121063.4520222.1121063.8189155-.022781h.009592c6.7323726-2.5035074,13.053489-7.1819968,19.1012339-14.8369982,4.3032031-5.4476465,7.6283237-11.2273404,10.8728118-17.0638369l-6.920915-6.8620892-23.8912301,38.7797103Z"/>
  <path d="M366.2453233,767.4840535l-5.9868958-5.936313-71.5046316,85.8423222c.0032972.002398.007194.004796.0110907.008393.1903409.1624642.4849946.2086256.9181326.1181013.002398.0005995.0038967.0005995.0062947,0,.0017985.0005995.002398.0005995.0041965,0,7.9577484-1.6857909,15.8393604-5.9344396,23.9373915-13.6380004,7.733236-7.356451,13.6032295-15.7062716,19.9171519-23.9104141l32.6972694-42.4840889Z"/>
  <path d="M245.1060797,754.3778086c0,.001199,0,.002398.0038967.003597h-.0005995c0,.002398.0038967.0041965.0053955.005995.1414817.1816482.400765.2841625.81352.297951.004796,0,.009592.001199.0149875.0017985,0-.0005995,0,0,.0041965,0,7.6870746.2020311,15.8369624-1.8680386,24.9088795-6.9338043,8.6624593-4.8373566,15.8141814-10.9438524,23.3456861-16.8279341l19.6716571-15.3686788-6.2764537-6.2231733-62.4911657,45.044249Z"/>
  <path d="M235.799159,794.4842849c.1657614.1846457.4538207.27517.8998478.258384.0065945,0,.0113905.0005995.016786.0005995v-.0005995h.0038967c8.3141505-.3710898,16.9538289-3.2253041,26.3575686-9.3773618,8.979894-5.8744897,16.2323319-13.0013326,23.9107138-19.9171519l40.4559842-36.4362691-5.9659133-5.9151807-85.6890753,71.3767885c0,.0017985.0038967.003597.0038967.0041965h-.0008992c.0041965.002398.004796.0041965.007194.0065945Z"/>
  <path d="M447.2810882,696.5237669c-1.6911864,0-2.4033911,1.2613457-2.4033911,4.2564422,0,3.1363534.7424794,4.4960919,2.4576457,4.4962417,1.6911864-.0001499,2.4036908-1.2639685,2.4036908-4.2564422,0-3.1365782-.7433786-4.4962417-2.4579455-4.4962417Z"/>
  <path d="M352.0608796,753.4198094l-11.2564911-11.1610958c-62.1620408,62.1132566-115.0938968,115.005096-115.092398,115.0068945.3492081.3429134,1.2397637.7283912,1.9411774.7871421.009592,0,.0173855.003597.0269775.0041965.0017985,0,.0032972.0005995.0056952,0,13.0292093.9855762,25.4337408-2.1330171,37.5349258-10.638108,11.5553413-8.1220111,19.7900581-18.6791867,28.7996273-28.8005266l58.0404859-65.1985027Z"/>
  <polygon points="535.1490423 735.7981388 537.9726821 735.7981388 536.4943178 731.311489 535.1490423 735.7981388"/>
  <path d="M444.8126515,840.8729102h.004796l-.0005995.0005995h.0086927c.2077264.0635469.4619139,0,.7817466-.2140211.0044962-.0041965.0086927-.0041965.0125895-.0065945h.002398c5.1170228-3.4929054,9.5431232-8.4931009,13.2492254-15.498845l-9.0494359.0384429-5.0094128,15.6804183Z"/>
  <path d="M600.1940732,847.1448677l-4.5621866-22.5714333-8.9040574.0378434,12.4162217,76.5250602v.002398c.0038967-.0041965.0086927-.0041965.0134887-.0041965.2287088-.0347709.4397324-.2134216.6396653-.5713225.0008992-.0005995.002398-.004796.0032972-.004796.0005995-.003597.0014987-.003597.0014987-.003597,3.6506485-6.5878934,5.4665307-14.6727355,5.0013196-25.0015021-.4442287-9.8635554-2.7124328-19.024498-4.6092473-28.4084543Z"/>
  <polygon points="604.0110827 629.9901802 611.3273673 629.9901802 607.4965693 618.3682945 604.0110827 629.9901802"/>
  <path d="M575.6586816,824.6582635l-8.4265565.0357451,10.1495164,111.3841227v-.0005995h.014388c.2493915-.0197835.4903901-.1960361.7331872-.565927.0017985-.0005995.002398-.004796.0041965-.004796q.0005995-.0041965.002398-.0041965c4.4347931-6.8193,7.0030464-15.3963307,7.2824129-26.5703907.2664773-10.6704809-1.4873568-20.7246769-2.8239396-30.9910956l-6.9356028-53.2828626Z"/>
  <polygon points="624.9743602 703.3844323 627.798 703.3844323 626.3196357 698.8977826 624.9743602 703.3844323"/>
  <path d="M254.7193442,718.4924041c0,.001199,0,.0029975.0041965.0041965h-.002398c0,.002398.0038967.003597.004796.005995.1166025.1840462.3507069.3021474.7331872.3471099.004796.0005995.0086927.002398.014388.0029975v-.0005995s0,.0005995.0038967.0005995c7.1394324.7913385,14.8894544-.544345,23.7335619-4.6611039,7.5234114-3.5024224,14.0111885-8.0565908,20.6218629-12.5563546l-6.802514-6.745037-38.3109771,23.6021967Z"/>
  <path d="M616.9036063,824.4831349l-9.7406581.0413654,10.5568759,44.4385303v.002398c.0038967,0,.0080932-.0041965.01199-.0041965.2134216-.0539549.4001655-.2403991.563529-.5953024.0014987-.0005995.002398-.0053955.0032972-.0053955.0005995-.003597.0014987-.003597.0014987-.003597,2.9903005-6.5315405,4.1521294-14.3094392,3.0157792-23.9985404-.8141195-6.9378509-2.5664548-13.4133382-4.4123119-19.8752619Z"/>
  <path d="M608.2579329,702.3652842h-2.5580618v3.2348961h2.5580618c1.1971993,0,1.8458571-.568325,1.8458571-1.621045,0-1.0455261-.6486578-1.613851-1.8458571-1.613851Z"/>
  <path d="M472.9429383,825.094324l-10.4297821,43.904077h.0038967v-.0005995h.0080932c.2125224.0473604.4610147-.0341714.7643611-.272772.0038967-.0041965.0077935-.004796.0116902-.008393h.002398c5.6089117-4.4884483,10.1435214-10.9132779,13.4863272-20.0778176,2.8587105-7.837399,4.2252682-15.6868629,5.7279122-23.5851859l-9.5748967.040691Z"/>
  <path d="M609.4083713,697.7467447c0-1.0023622-.6222799-1.5467072-1.7709197-1.5467072h-1.9375804v3.1030063h1.9375804c1.1486399,0,1.7709197-.546743,1.7709197-1.5562991Z"/>
  <path d="M321.7918805,363.3349435l-85.9744368-71.6144149c-.0032972.0029975-.004796.005995-.0086927.0101915-.1618647.1900412-.2080261.4849946-.1175018.9178328-.0008992.002398-.0008992.003597,0,.007194-.0008992,0-.0008992.0041965,0,.0041965,1.6857909,7.9577484,5.9338401,15.8387609,13.6380004,23.9373915,7.3567507,7.7335358,15.7059719,13.60263,23.9104141,19.9171519l42.6207747,32.8027812,5.9314421-5.9823246Z"/>
  <path d="M481.0907278,901.1705094c.0014987.0005995.0029975,0,.004796,0v-.0017985c.002398.0005995.0053955,0,.0086927,0,.2278096.0293754.4840954-.0821313.7856433-.3632963.0038967-.004796.0077935-.0065945.01199-.0101915h.002398c5.5783373-5.2923763,9.8773439-12.5193355,12.7108754-22.5159796,2.7046393-9.5464205,3.4435217-18.9213842,4.6086478-28.4084543l3.0577441-24.9010111-8.8333165.0374687-12.3574708,76.1632626Z"/>
  <path d="M555.6923708,824.7430177l-15.5297192.0659449v162.6803958h.0101915v-.001199c.0062947-.0005995.01199,0,.0182847,0,.4879921-.004796.9879742-.2110236,1.5254249-.6654438.007194-.005995.0140882-.009592.0212822-.015587.0017985,0,.0032972,0,.004796-.0041965,9.9103163-8.5164814,16.4760282-19.4927067,19.0188028-34.0641269,2.4276708-13.9137699.7856433-27.201663,0-40.7293557l-5.0690629-87.2664319Z"/>
  <path d="M502.8546361,936.1087057h.0053955v.001199h.0086927c.2484923.0125895.5158688-.1270938.8201145-.4544202.0038967-.003597.0077935-.0065945.0125895-.0113905q.0005995,0,.002398-.0041965c5.6155062-6.1406672,9.7067864-14.2674743,12.0061644-25.2676796,2.1959645-10.5044197,2.2846903-20.670722,2.8236398-30.9910956l2.8488188-54.4924266-8.3962818.0355952-10.1315314,111.1844146Z"/>
  <polygon points="560.1433503 783.8563685 560.1433503 769.1027006 551.7521643 783.8563685 560.1433503 783.8563685"/>
  <path d="M258.0510594,461.836884l-.0386677-9.0489113-15.6774957-5.0088882v.004796l-.0008992-.0005995v.008393c-.0635469.2080261,0,.4622137.2143209.7817466.0038967.004796.004796.0089925.0062947.013189v.002398c3.4926806,5.1161985,8.4928011,9.5418493,15.496447,13.2478765Z"/>
  <path d="M262.2049872,400.939636c2.0868557,4.5265164,5.2261316,8.770519,9.641441,12.7676779l5.6340906-5.6821255-15.3549653-7.9194554c-.0014987.003597-.004796.007194-.004796.0101915-.0983178.1966356-.0776351.4592162.0842296.8153185v.008393Z"/>
  <path d="M214.2100047,465.4918789c-.0476602.2128221.0341714.4610147.272772.7643611.0041965.003597.004796.0077935.0080932.0113905v.002398c4.488748,5.6089117,10.9132779,10.1441209,20.0781174,13.4863272,7.8366496,2.8586356,15.6852892,4.2251933,23.5830877,5.7276874l-.0407659-9.5747468-43.9022036-10.4294074v.0041965l.0008992-.0005995v.008393Z"/>
  <path d="M288.2244384,239.9310178c.3704903,8.3132512,3.2253041,16.9526299,9.3776615,26.3569691,5.8744897,8.979894,13.0004334,16.2314327,19.9171519,23.9110136l36.5502488,40.5824035,5.9104596-5.9609674-71.4866467-85.82104c-.0014987,0-.0029975.0041965-.004796.0041965l.0008992-.0005995c-.002398.0041965-.0038967.004796-.0062947.0065945-.1849454.1654617-.2754697.4538207-.2586838.9004473,0,.005995-.0008992.010791-.0008992.016786h.0008992v.0041965Z"/>
  <path d="M182.038196,484.0709493c-.0284762.2278096.0824311.4831961.3641956.7853436.0041965.0041965.0065945.0077935.0104912.01199v.002398c5.2920765,5.5783373,12.518736,9.8773439,22.5153801,12.7105756,9.545821,2.704939,18.9219837,3.4441212,28.4081546,4.6089475l24.899887,3.0577441-.0377684-8.8333165-76.1618388-12.3574708v.004796h.0014987v.0089925Z"/>
  <path d="M526.589397,486.9833149c0-3.6557443-2.2661058-5.6364886-6.4482102-5.6364886h-6.0297599v11.2969572h6.0297599c4.1821043,0,6.4482102-1.9891373,6.4482102-5.6604686Z"/>
  <path d="M293.6813772,391.685771l-38.9293602-23.9835529c-.002398.0029975-.0056952.0065945-.0056952.009592-.1127058.1882427-.1118065.4520222.0221815.8189155v.0089925c2.5041069,6.7329721,7.1825963,13.0540885,14.8378975,19.1018334,5.4953067,4.341571,11.3290304,7.6874493,17.2185076,10.9594394l6.8564689-6.9152198Z"/>
  <path d="M517.889469,612.2138388c-4.3823369,0-6.2275946,3.270866-6.2275946,11.0271827,0,8.1264324,1.9252907,11.6479638,6.3684768,11.6482636,4.3805385-.0002997,6.2281941-3.2700417,6.2281941-11.0259837,0-8.1268071-1.9267895-11.6494626-6.3690763-11.6494626Z"/>
  <path d="M521.6944885,731.0860774c0-1.1846098-.7331872-1.8248746-2.0868557-1.8248746h-1.9507694v3.6569433h1.9507694c1.3536685,0,2.0868557-.6450608,2.0868557-1.8320686Z"/>
  <path d="M529.4424122,703.9791352c0-1.0455261-.6486578-1.5898711-1.8464566-1.5898711h-1.3356835v3.2109161h1.3356835c1.1977988,0,1.8464566-.570723,1.8464566-1.621045Z"/>
  <path d="M646.7619487,696.8474963h-1.9507694v3.6569433h1.9507694c1.3536685,0,2.0868557-.6450608,2.0868557-1.8320686,0-1.1846098-.7331872-1.8248746-2.0868557-1.8248746Z"/>
  <path d="M308.0672525,377.1769235l-62.9302986-45.3607095c-.0014987.003597-.0029975.0065945-.0062947.0101915-.1372852.1870437-.160366.4616142-.0491589.8554849v.010791c2.0769639,7.2395487,6.5102583,14.2398973,14.1424788,21.2144675,7.2890074,6.6610323,15.3705523,11.5343588,23.3474846,16.8285336l19.2283277,12.7622824,6.2674612-6.3210414Z"/>
  <path d="M258.4638144,558.6592533l-.0659449-15.5298691H95.7184479c-.0008992.0029975-.0008992.0065945,0,.0101915h.0014987v.017985c.0038967.4885916.2104241.9879742.665144,1.5257247.0053955.007194.0101915.0137885.0149875.021582,0,.001199.004796.002398.004796.0041965,8.5164814,9.9103163,19.4927067,16.4760282,34.0635274,19.0191026,13.9143694,2.427371,27.2019628.7853436,40.7296554,0l87.2657574-5.0689131Z"/>
  <path d="M243.0102315,638.9149203c.0005995.001199.0044962.002398.0044962.0029975q.0041965.0005995.0041965.001199c4.6635019,1.7201122,9.8680516,2.502833,15.796796,2.2139494l-.0341714-7.9892221-16.4109826,5.2429176h-.0017985c.0008992.003597.004796.0077935.004796.01199.0698416.2080261.2700743.3794828.6366678.5161686Z"/>
  <path d="M258.634072,598.5982446l-.0377684-8.9039075-76.5248354,12.4161468h-.002398c.0041965.0041965.0041965.0089925.0041965.013189.0347709.2290086.2134216.4394327.5713225.6396653,0,.001199.004796.002398.004796.003597.0038967.0005995.0038967.0017985.0038967.0017985,6.5872939,3.6503488,14.6718363,5.4656315,25.0012023,5.0010198,9.8632556-.4442287,19.0241983-2.712133,28.4081546-4.6089475l22.5714333-4.5625613Z"/>
  <path d="M238.8491096,624.2823511c6.9386003-.8139696,13.4140876-2.5664548,19.8757865-4.4123119l-.0416652-9.7405832-44.4390549,10.5571007h-.0017985c0,.003597.0038967.0077935.0038967.01199.0542547.2134216.2406988.3998658.5953024.563529.0008992.001199.0056952.0017985.0056952.0029975.0029975.0005995.0029975.001199.0029975.0017985,6.5315405,2.9903005,14.3094392,4.1521294,23.9988402,3.0154795Z"/>
  <path d="M482.5837798,550.4378753v9.4720826l5.0549747-.001199c3.5070686,0,5.4062811-1.6678059,5.4062811-4.7456333,0-3.0646384-1.8992125-4.7252503-5.4062811-4.7252503h-5.0549747Z"/>
  <polygon points="394.2236372 555.7518336 390.7381506 567.3737192 398.0544351 567.3737192 394.2236372 555.7518336"/>
  <path d="M262.0907827,686.0900881c0,.0005995,0,.002398.0038967.003597h-.0032972c0,.002398.0041965.0041965.004796.0065945.1025143.1918396.3261274.3273264.7050107.4016643.004796.001199.0086927.0029975.013189.0041965l.004796.0005995c6.0504426,1.141296,12.673107.7428541,20.1905234-1.5521026l-6.4047465-6.350267-14.5141681,7.4857179Z"/>
  <path d="M147.5625131,506.6672617v.0005995q0,.0005995.004796.002398c6.1412667,5.6155062,14.2680738,9.7064867,25.2679793,12.0061644,10.5044197,2.1959645,20.6710218,2.2846903,30.9913953,2.8236398l54.4908529,2.848594-.0356702-8.3962069-111.182766-10.1316813c0,.002398-.0005995.0041965-.0005995.005995h-.0008992v.0089925c-.0125895.2481925.1270938.5155691.4541204.819515.004796.003597.0068942.0077935.010791.01199Z"/>
  <path d="M464.0736518,613.0543363v9.4720826l5.0549747-.001199c3.5070686,0,5.4074801-1.6678059,5.4074801-4.7456333,0-3.0646384-1.9004115-4.7252503-5.4074801-4.7252503h-5.0549747Z"/>
  <path d="M258.5489432,578.6249647l-.0359699-8.4263317-111.3835981,10.1494414h.0008992v.014388c.0197835.2493915.1960361.4903901.565927.7331872.0005995.001199.0044962.002398.0044962.0041965.004796.0005995.004796.001199.004796.0017985,6.8190002,4.4356924,15.3957312,7.0039456,26.5694914,7.2833121,10.6710804.2661775,20.7249767-1.4873568,30.9913953-2.8242393l53.2825629-6.9357526Z"/>
  <path d="M264.5891944,296.9871265l65.3264957,58.1543907,10.9324619-11.0259088-115.0654206-115.0654955c-.0041965.003597-.0056952.004796-.007194.007194-.004796.0041965-.0077935.0089925-.01199.014388-.3420141.3483089-.5497405.8470919-.6084914,1.5479062,0,.009592-.0041965.017985-.0041965.0269775,0,0-.0005995.0041965,0,.0053955-.9855762,13.0295091,2.1324176,25.4343403,10.6387075,37.5352255,8.1220111,11.5553413,18.6791867,19.7900581,28.7996273,28.7999271Z"/>
  <polygon points="394.4910137 703.3844323 397.3146535 703.3844323 395.8362892 698.8977826 394.4910137 703.3844323"/>
  <path d="M791.776236,846.4878169c-.3713896-8.3138507-3.2253041-16.9532294-9.3776615-26.3575686-5.8744897-8.979894-13.0004334-16.2314327-19.9171519-23.9104141l-36.5514478-40.5836025-5.9098601,5.9604429,71.4878457,85.8221641c.0008992,0,.002398-.0041965.0032972-.0041965v.001199c.002398-.0041965.004796-.004796.0062947-.007194.1849454-.1660612.2754697-.4538207.2586838-.8998478,0-.0065945.0005995-.0113905.0005995-.016786h-.0005995v-.0041965Z"/>
  <path d="M841.1515648,462.1364836c-6.9391998.81352-13.4155864,2.5663798-19.8781845,4.412162l.0416652,9.7402085,44.4414528-10.5577751.0017985.0005995c0-.0041965-.0038967-.008393-.0038967-.01199-.0542547-.2128221-.2406988-.3992663-.5953024-.563529-.0008992-.001199-.004796-.0017985-.004796-.003597-.004796,0-.004796-.001199-.004796-.001199-6.530941-2.9909-14.3094392-4.1515299-23.9979409-3.01488Z"/>
  <path d="M817.910791,400.3287466c0-.0017985,0-.0029975-.004796-.0041965h.0029975c0-.002398-.0038967-.0041965-.004796-.005995-.1022146-.1930386-.3261274-.3279259-.704711-.4022638-.004796-.001199-.0086927-.0029975-.0134887-.0041965v.0005995q0-.0005995-.0038967-.0005995c-6.0507424-1.1418955-12.6749055-.7434536-20.1926217,1.5525523l6.4050462,6.3507916,14.5162663-7.4866921Z"/>
  <path d="M836.9913422,447.5033149c-.0014987-.001199-.0056952-.002398-.0056952-.0029975-.0038967-.0005995-.0038967-.001199-.0038967-.001199-4.6638017-1.7201872-9.8692506-2.5033575-15.7988942-2.2141742l.0341714,7.9901963,16.4130808-5.243667h.0008992c0-.003597-.0038967-.0077935-.0038967-.01199-.0701414-.2074266-.2700743-.3800823-.6357686-.5161686Z"/>
  <path d="M352.0422952,297.4133702l15.4739658,19.8063195,6.2180026-6.271283-45.1446651-62.6309988c-.0008992,0-.0017985,0-.0032972.0041965v-.002398c-.002398,0-.004796.004796-.0062947.0065945-.1816482.1402827-.2841625.4004653-.2985505.8129205,0,.0053955-.0005995.009592-.0014987.0149875h.0008992s-.0008992,0-.0008992.004796c-.2017314,7.6861754,1.8683383,15.8369624,6.934104,24.9085797,4.8370569,8.6627591,10.9432529,15.8141814,16.8282338,23.3462856Z"/>
  <path d="M821.4493332,507.793945l.0359699,8.4262568,111.3859961-10.1500409h-.0008992v-.014388c-.0197835-.2493915-.1951369-.4903901-.5650277-.7331872-.0014987-.0017985-.0053955-.0029975-.0053955-.0041965-.0041965-.0005995-.0041965-.001199-.0041965-.0017985-6.8195997-4.4350929-15.3963307-7.0039456-26.5709902-7.2833121-10.6695816-.2661775-20.7240774,1.4879563-30.9904961,2.8242393l-53.2849608,6.9364271Z"/>
  <path d="M984.2807278,543.2786595v-.017985c-.0041965-.4885916-.2104241-.9879742-.665144-1.5251252-.0056952-.0077935-.009592-.014388-.0152872-.0221815,0-.001199-.0038967-.002398-.0038967-.0041965-8.5173806-9.9097168-19.4933062-16.4766277-34.0644267-19.0185031-13.9140697-2.4279705-27.2010635-.7859431-40.7293557,0l-87.2681554,5.068988.0662446,15.5291947h162.6815199v-.0101915h-.0014987Z"/>
  <path d="M821.3642044,487.8200655l.0380682,8.9038326,76.5266339-12.4161468h.002398c-.0038967-.0041965-.0038967-.0089925-.0038967-.013189-.0350707-.2284091-.2134216-.4394327-.5704232-.6396653-.0008992-.001199-.004796-.002398-.004796-.003597-.004796-.0005995-.004796-.001199-.004796-.0017985-6.5872939-3.6509483-14.672136-5.466231-25.0012023-5.0010198-9.8632556.4442287-19.0241983,2.712133-28.4081546,4.6089475l-22.5738313,4.5626362Z"/>
  <path d="M865.5098045,620.1500052v-.002398c-4.488748-5.6077127-10.9132779-10.1435214-20.0775179-13.4857277-7.8381483-2.8583358-15.6873874-4.2253432-23.5857854-5.7276874l.0407659,9.5746718,43.9034026,10.4300818v-.0125895c.0476602-.2128221-.0341714-.4610147-.2730717-.7643611-.0038967-.003597-.004796-.007194-.0077935-.01199Z"/>
  <path d="M834.8945948,332.0410261c0-.0017985,0-.0029975-.0041965-.0041965h.0008992c0-.002398-.0038967-.003597-.0056952-.005995-.141182-.1822477-.4004653-.2841625-.81352-.297951-.0044962-.0005995-.0092922-.001199-.0149875-.0017985v.0005995h-.0038967c-7.6870746-.2026306-15.8369624,1.8674391-24.9088795,6.9332048-8.6618598,4.8367571-15.8141814,10.9438524-23.3456861,16.8279341l-19.6728561,15.3695031,6.2764537,6.2233231,62.4923647-45.0446237Z"/>
  <path d="M897.9624784,602.3478854c.0284762-.2284091-.0827308-.4837956-.3644953-.7859431-.0038967-.003597-.0062947-.0077935-.009592-.01199v-.002398c-5.292676-5.5783373-12.5193355-9.8779434-22.5159796-12.7105756-9.5467202-2.704939-18.9210845-3.4441212-28.4084543-4.6089475l-24.9016855-3.0582687.0374687,8.8337661,76.1642368,12.3569462v-.004796l-.002398.0005995c.0008992-.0029975,0-.005995.0008992-.008393Z"/>
  <path d="M932.4372621,579.7509735q0-.001199-.0032972-.002398c-6.1412667-5.6161057-14.268973-9.7070862-25.2685788-12.0067639-10.5038202-2.195365-20.6710218-2.2846903-30.9916951-2.8242393l-54.4929511-2.848594.0356702,8.3962069,111.1857635,10.1316813v-.0053955l.0008992.0005995v-.009592c.0134887-.2481925-.1270938-.5155691-.4541204-.819515-.0038967-.0041965-.0068942-.008393-.0116902-.01199Z"/>
  <path d="M825.2810304,367.9258312c0-.001199,0-.0029975-.0038967-.0041965l.0032972.0005995c0-.002398-.004796-.004796-.0056952-.0065945-.1166025-.1840462-.3498076-.3015479-.7331872-.3471099-.004796-.0005995-.0086927-.0017985-.014388-.0029975h-.0038967c-7.1394324-.791938-14.8894544.5437455-23.7329624,4.6611039-7.5243107,3.5026473-14.0126873,8.0577148-20.6239611,12.5574037l6.8031135,6.7454117,38.3115766-23.6036205Z"/>
  <path d="M630.1777109,824.426782l5.2426179,16.4101583v.001199c.0038967,0,.0077935-.0041965.0110907-.0041965.2089254-.0695419.3803821-.2697745.5176673-.6360683,0-.001199.0014987-.0053955.002398-.0053955q.0005995-.003597.0014987-.003597c1.7199623-4.6632771,2.5026082-9.8676769,2.2139494-15.7960466l-7.9892221.0339466Z"/>
  <path d="M821.9472171,624.5805269l.0386677,9.0489113,15.6798937,5.009113v-.0041965h.0008992v-.0077935c.0635469-.2086256,0-.4622137-.2143209-.7823461-.0038967-.0041965-.0038967-.0077935-.007194-.0125895v-.002398c-3.4917813-5.1163484-8.4922016-9.5424488-15.4979458-13.2487008Z"/>
  <path d="M727.9391953,332.9987256l11.2567908,11.1615454c62.1614413-62.1138561,115.0941965-115.0064449,115.092398-115.0076439-.3483089-.3423139-1.239464-.7289907-1.9411774-.7865426-.0086927,0-.0164862-.004796-.0260782-.004796h-.0008992c-.0014987,0-.0029975-.0005995-.0053955,0-13.0292093-.9855762-25.4337408,2.1330171-37.5352255,10.6387075-11.5553413,8.1220111-19.7900581,18.6785872-28.7999271,28.7999271l-58.0404859,65.1988025Z"/>
  <path d="M699.5655119,304.8650666l6.3262121,6.2728567,45.2588696-62.7899409c-.0029975-.002398-.0068942-.0029975-.0101915-.007194-.1864442-.1366857-.4619139-.1594667-.8554849-.0479599h-.0101915c-7.2395487,2.0766642-14.2404968,6.5099585-21.2147673,14.142179-6.660133,7.2887076-11.5340591,15.3699528-16.8282338,23.3462856l-12.6662127,19.0837735Z"/>
  <path d="M404.4453931,279.9747716l-7.5680741-14.6741594c-.0008992,0-.002398,0-.0041965.0041965l.0008992-.0029975c-.002398,0-.004796.0041965-.007194.004796-.1921394.1031138-.3270266.3267269-.4016643.7050107-.0005995.0053955-.002398.0089925-.0038967.0137885l-.0005995.0041965c-1.1507381,6.1012502-.7415801,12.7829651,1.6057578,20.3786162l6.378968-6.4334475Z"/>
  <path d="M713.7550514,318.9346313l5.9868958,5.9362381,71.5049314-85.8426969c-.0032972-.002398-.007194-.004796-.0101915-.008393-.1906406-.1618647-.4858939-.2080261-.9190318-.1187008h-.0104912c-7.9577484,1.6863904-15.8384611,5.9344396-23.9376913,13.6385999-7.7329363,7.356451-13.6020305,15.7062716-19.9171519,23.9110136l-32.6972694,42.4839391Z"/>
  <path d="M629.3363142,564.7934759v8.3210447l3.4603076-.001199c3.1030063,0,4.7840012-1.4747673,4.7840012-4.1988903,0-2.712133-1.6809949-4.1209554-4.7840012-4.1209554h-3.4603076Z"/>
  <path d="M715.2648893,257.9627457c-.0032972-.002398-.0062947-.0053955-.009592-.0053955-.1888422-.1127058-.4523219-.1127058-.8189155.0221815h-.009592c-6.7323726,2.5041069-13.0537888,7.1825963-19.1012339,14.8369982-4.3032031,5.4471969-7.628024,11.2270407-10.8728118,17.0639868l6.920915,6.862314,23.8912301-38.780085Z"/>
  <path d="M682.8616741,265.3359826c-.0041965-.0017985-.007194-.004796-.0104912-.004796-.1969354-.0983178-.4595159-.0779349-.8150188.0845293h-.0086927c-4.4830528,2.0667725-8.6897365,5.1646081-12.653923,9.5132232l5.6505769,5.602542,7.8375489-15.1954986Z"/>
  <path d="M381.4294314,303.1873689l6.7398664-6.7975681-23.6948942-38.4600275c-.0005995,0-.002398,0-.0038967.0041965v-.0029975c-.002398,0-.0038967.0041965-.0062947.005995-.1834467.1163028-.3015479.3495079-.3468101.7325877-.0008992.0053955-.0014987.0089925-.0032972.014388h.0008992s-.0008992,0-.0008992.0041965c-.7910388,7.1394324.5446447,14.8891546,4.6620032,23.7329624,3.5271518,7.5782656,8.1217113,14.1057595,12.6533235,20.7662672Z"/>
  <path d="M815.4114801,789.4311087l-65.327395-58.1555147-10.9324619,11.0260587,115.0663198,115.0664697c.004796-.003597.004796-.004796.0080932-.007194v.0005995c.0038967-.004796.0068942-.009592.010791-.014388.3429134-.3489084.5500402-.8476914.6087911-1.5491052,0-.0089925.0038967-.0173855.0038967-.026378,0,0,.0008992-.0041965,0-.0053955.9858759-13.0301086-2.1324176-25.4343403-10.6378082-37.5352255-8.1220111-11.5553413-18.6788869-19.7900581-28.8002268-28.7999271Z"/>
  <path d="M727.9583793,789.004865l-15.4745653-19.8074436-6.2180026,6.271283,45.1452646,62.6321229c.0008992,0,.002398,0,.0038967-.0041965v.0017985c.0017985,0,.0041965-.0041965.0065945-.005995.1807489-.1408822.2832632-.4004653.2973515-.8129205,0-.004796.0008992-.009592.0017985-.0149875h-.0008992l.0008992-.0041965c.2014316-7.6873744-1.8683383-15.8369624-6.934104-24.9091792-4.8370569-8.6627591-10.9435526-15.8147809-16.8282338-23.3462856Z"/>
  <polygon points="732.2534891 567.3737192 739.5697737 567.3737192 735.7389757 555.7518336 732.2534891 567.3737192"/>
  <polygon points="674.1908218 487.6859276 670.0338964 501.5475411 678.7602024 501.5475411 674.1908218 487.6859276"/>
  <path d="M844.3103245,793.7588913c-1.6866902-7.9589474-5.9350391-15.8399599-13.6388997-23.937991-7.3561512-7.7341353-15.7059719-13.60263-23.9107138-19.9171519l-42.6216739-32.8033807-5.9314421,5.9820998,85.9756358,71.6158387c.0029975-.0029975.004796-.007194.0086927-.0101915.1618647-.1906406.2080261-.4855941.118401-.9184323v-.010791Z"/>
  <path d="M675.5546818,806.4424895l7.5686736,14.674534c.0008992,0,.002398,0,.0038967-.003597v.002398c.0017985,0,.0041965-.003597.0065945-.0041965.1918396-.1025143.3267269-.3267269.4016643-.7050107.0014987-.004796.0029975-.0089925.0038967-.0137885l.0005995-.0041965c1.1513376-6.1021494.7418799-12.7839393-1.6057578-20.3804147l-6.3795675,6.4342718Z"/>
  <path d="M663.4975599,699.219114c-.1492752,2.8488188-.5389495,4.7432353-.7973335,5.7312095h4.4794558v-8.1028271h-3.558026l-.1240963,2.3716176Z"/>
  <path d="M811.2932224,429.4793806l-157.0807014-155.7513126v110.0802875h-60.7960825c-2.998094,11.7711609-7.623228,22.1622753-14.0378662,31.5810025-8.6240914,12.6638147-20.2612643,23.2935297-35.5763629,32.4982358l-4.4629696,2.6821581-4.7246508-2.188171c-1.6456245-.7625626-38.4404689-18.3009029-50.5179737-64.5732254h-60.8239592v-108.871398l-155.5276995,156.8564888.9597977,225.1466073,159.8785628,158.5206977,225.1460078-.9568002,158.5242947-159.8791623-.9603972-225.1454083ZM664.3386569,466.3185879h22.834913l18.512526,55.0963468h-20.3781666l-2.3920006-7.2611307h-16.6636714l-2.17738,7.2611307h-18.6348238l18.8986033-55.0963468ZM653.7670933,569.13145c0,9.4804756-7.1184499,14.8999456-19.0209011,14.8999456h-21.5076225v-46.1949871h16.0989434v16.0989434l6.3426983.001199c11.3173402,0,18.0868818,5.8067463,18.0868818,15.1948991ZM552.685584,466.3185879h19.1995517v40.0705064h14.4335355v-40.0705064h19.2007507v40.0705064h14.4323365l.001199-40.0705064h19.2007507v55.0963468h-86.4681241v-55.0963468ZM578.5767425,550.4366763l-.7457766,14.2345018c-.7134037,13.608625-4.2216712,20.0592331-15.257247,20.0592331-3.9339118,0-5.8283283-.8572834-5.8283283-.8572834l.8656764-10.4972257s.7170007.3740873,2.185773.3740873c3.0826233,0,4.0646025-1.9627594,4.3151931-6.7431636l1.5275232-29.1704174h37.8020025l.001199,46.1961861h-16.0977444v-33.5959183h-8.7682709ZM564.9801074,735.4744094v6.7527556h-6.2138061v-17.8290972h6.2138061v6.2132066h5.3091622v-6.2132066h6.2132066v17.8290972h-6.2132066v-6.7527556h-5.3091622ZM570.926537,709.8134585l-.7745526-2.3500357h-5.3924926l-.7044112,2.3500357h-6.0303594l6.1160878-17.8290972h7.3888239l5.991392,17.8290972h-6.5944879ZM572.1980742,614.4943326v32.1535239h-16.0977444v-32.1535239h-13.4383673v-13.9982993h42.974479v13.9982993h-13.4383673ZM506.6692476,696.8474963l-.2877595,5.4938079c-.27517,5.2516104-1.6300375,7.7431278-5.8888777,7.7431278-1.5185307,0-2.2499194-.3309234-2.2499194-.3309234l.3345204-4.0526126s.276369.1438797.843495.1438797c1.1894058,0,1.5682891-.7577666,1.6654079-2.6018252l.5893074-11.2585893h14.5912037v17.8290972h-6.2132066v-12.9659622h-3.3841713ZM511.4430573,724.3980677h8.4775139c5.2372224,0,7.9877233,2.2924838,7.9877233,6.6616318,0,4.3115961-2.7505009,6.7191837-7.9877233,6.7191837h-2.2637078v4.4482818h-6.2138061v-17.8290972ZM520.0470655,709.8134585v-17.8290972h6.2138061v6.2132066h2.447754c4.3685485,0,6.9811647,2.2421259,6.9811647,5.8654972,0,3.6593413-2.7475035,5.7503934-7.3414635,5.7503934h-8.3012612ZM517.8199271,647.487155c-14.1973329,0-22.5363626-8.8402108-22.5363626-23.8936281,0-15.2980129,8.4769144-24.2065665,22.8169281-23.9799559,14.1973329,0,22.5363626,8.8414098,22.5363626,23.8948271,0,15.2980129-8.4769144,24.2053675-22.8169281,23.9787569ZM509.6643441,537.8376075h17.8051173l7.3858264,17.7175904,7.6591979-17.7163914h16.2608081l-15.3603608,32.5024323c-5.3043663,11.2214204-11.439638,14.3903716-20.0532382,14.3903716-4.2972081,0-6.1928236-.8572834-6.1928236-.8572834l.8668754-10.4972257s.7158017.3740873,2.7708839.3740873c2.5490693,0,4.4255009-.517967,5.8055473-1.6941839l-16.9478339-34.2193971ZM538.2526481,691.9843613h6.2138061v6.2132066h5.3091622v-6.2132066h6.2132066v17.8290972h-6.2132066v-6.7527556h-5.3091622v6.7527556h-6.2138061v-17.8290972ZM548.9327209,717.8443457c1.7109699,0,2.3212597.6090909,2.3212597,2.3212597s-.6102899,2.3212597-2.3212597,2.3212597c-1.7115694,0-2.3218592-.6090909-2.3218592-2.3212597s.6102899-2.3212597,2.3218592-2.3212597ZM548.7720552,724.3980677h6.2132066v17.8290972h-6.2132066v-17.8290972ZM554.7712407,722.4868652c-1.7115694,0-2.3218592-.6090909-2.3218592-2.3212597s.6102899-2.3212597,2.3218592-2.3212597c1.7109699,0,2.3212597.6090909,2.3212597,2.3212597s-.6102899,2.3212597-2.3212597,2.3212597ZM494.9106762,466.3185879h26.1969029v.002398c16.1840723,0,24.6825687,7.08248,24.6825687,20.5855932,0,13.3244625-8.4984964,20.7630449-24.6825687,20.7630449h-6.9961521v13.7453107h-19.2007507v-55.0963468ZM509.14278,555.0995788c0,11.1710625-7.1244449,17.40705-20.693503,17.40705h-5.8654972v11.5247668h-16.0989434v-46.1949871h21.9644406v.002398c13.5690581,0,20.693503,5.9386361,20.693503,17.2607723ZM490.633851,617.7160397c0,11.1710625-7.1256439,17.40705-20.694702,17.40705h-5.8654972v11.5247668h-16.0977444v-46.1949871h21.9632416v.002398c13.5690581,0,20.694702,5.9386361,20.694702,17.2607723ZM442.5636314,466.3185879h42.2958463v15.0258404h-23.0950956v5.8439153h21.3769317v13.3568355h-21.3769317v5.8439153h23.8384742v15.0258404h-43.0392249v-55.0963468ZM377.0264118,466.3185879h53.8242101v55.0963468h-19.2007507v-40.0705064h-15.4227087v40.0705064h-19.2007507v-55.0963468ZM364.8601811,584.0313956h-16.0977444v-33.5959183h-12.9311912v33.5959183h-16.0989434v-46.1949871h45.1278791v46.1949871ZM384.4961681,709.8134585h-6.2132066v-6.7527556h-5.3091622v6.7527556h-6.2138061v-17.8290972h6.2138061v6.2132066h5.3091622v-6.2132066h6.2132066v17.8290972ZM370.1189855,584.0313956l15.8447559-46.1949871h19.1443978l15.5222255,46.1949871h-17.0857186l-2.0059233-6.0873118h-13.9707223l-1.8248746,6.0873118h-15.6241403ZM399.4338821,709.8134585l-.7745526-2.3500357h-5.3924926l-.7044112,2.3500357h-6.0303594l6.1160878-17.8290972h7.3888239l5.991392,17.8290972h-6.5944879ZM427.4232867,714.2185764h-4.6197385v-4.4051179h-14.6895215v-17.8290972h6.2138061v12.9659622h4.9908283v-12.9659622h6.2132066v13.2369357h1.891419v8.9972795ZM418.26714,551.8778717v-13.9982993h42.974479v13.9982993h-13.4383673v32.1535239h-16.0977444v-32.1535239h-13.4383673ZM436.0177029,709.8134585h-6.2138061v-17.8290972h6.2138061v17.8290972ZM447.2547102,710.1371879c-5.4800194,0-8.698729-3.4123477-8.698729-9.2202931,0-5.9062631,3.2714655-9.3449888,8.8066388-9.256263,5.4794199,0,8.698729,3.4123477,8.698729,9.2226911,0,5.9038652-3.272065,9.3425908-8.8066388,9.253865ZM464.811635,709.8134585h-6.2138061v-17.8290972h6.2138061v6.2132066h5.3091622v-6.2132066h6.2132066v17.8290972h-6.2132066v-6.7527556h-5.3091622v6.7527556ZM489.051174,798.280312h-14.0144858v-25.3420174l-7.5039277,1.8236756-2.2559144-13.1925728,15.2812269-4.2156763h8.4931009v40.9265908ZM483.7647927,736.9443807c-2.0472887,4.33078-4.4153094,5.5537578-7.7401303,5.5537578-1.6588135,0-2.3902021-.3309234-2.3902021-.3309234l.3345204-4.0526126s.276369.1462777,1.069506.1462777c.9837777,0,1.7079724-.2014316,2.2409269-.6546528l-6.541732-13.2081597h6.8726554l2.8506173,6.8390834,2.9561291-6.8390834h6.276154l-5.9284446,12.5463129ZM490.4965658,707.4634228h-5.3924926l-.7044112,2.3500357h-6.0303594l6.1160878-17.8290972h7.3888239l5.991392,17.8290972h-6.5944879l-.7745526-2.3500357ZM497.8847902,742.2271649h-6.2132066v-17.8290972h6.2132066v6.6064779l.9819792-.0527559,3.8278005-6.553722h6.7047957l-4.8373566,8.2059409,4.9722439,9.6231563h-7.074087l-3.0934143-6.3690763-1.4819613.0791339v6.2899424ZM534.5831153,798.279113h-34.2199966l-.3117394-2.8092518c-1.3920364-12.531925,19.7271108-16.6732634,19.7271108-25.4223503,0-2.2876878-1.4106209-3.5370435-3.7684501-3.5370435-2.9015747,0-4.5382067,1.8020937-4.5382067,6.1472617l-12.3802518-1.3188976c0-8.7682709,6.8115065-14.7272899,18.3062984-14.7272899,9.6225568,0,16.4046879,4.1305474,16.4046879,12.7561376,0,11.0643517-10.9906133,13.3724224-16.1295179,17.5413378h16.9100654v11.3700961ZM539.3173581,739.8771293h-5.3924926l-.7044112,2.3500357h-6.0303594l6.1160878-17.8290972h7.3888239l5.991392,17.8290972h-6.5944879l-.7745526-2.3500357ZM578.7529951,792.5383115h-4.9374729v5.7408015h-13.6721719v-5.7408015h-17.8950421l-.6438618-7.8654255,16.867501-27.6273072h15.3435748v26.8119887l4.9374729-.001199v8.681943ZM580.2943068,724.3980677h6.2138061v8.9948815l5.0387882-8.9948815h6.2132066v17.8290972h-6.2132066v-9.0092694l-5.0387882,9.0092694h-6.2138061v-17.8290972ZM585.2785407,709.8134585v-17.8290972h12.1872131v4.8631351h-5.973407v12.9659622h-6.2138061ZM608.3022959,798.280312h-14.0144858v-25.3420174l-7.5039277,1.8236756-2.2559144-13.1925728,15.2812269-4.2156763h8.4931009v40.9265908ZM608.1188492,709.8134585h-8.6321846v-17.8290972h7.9853253c5.162285,0,8.149588,1.625841,8.149588,4.9974228,0,1.5802791-.6528543,2.8416248-1.8644416,3.7144952v.002398c1.6576145.7289907,2.5604598,1.9471724,2.5604598,3.7432711,0,3.261274-3.0346634,5.3715101-8.1987469,5.3715101ZM614.8116549,640.5605447h-13.9707223l-1.8260736,6.0873118h-15.6229413l15.8447559-46.1949871h19.1443978l15.5210265,46.1949871h-17.0845196l-2.0059233-6.0873118ZM629.9172286,709.8134585l-.7745526-2.3500357h-5.3924926l-.7044112,2.3500357h-6.0303594l6.1160878-17.8290972h7.3888239l5.991392,17.8290972h-6.5944879ZM647.0748871,705.3651767h-2.2637078v4.4482818h-6.2138061v-17.8290972h8.4775139c5.2372224,0,7.9877233,2.2924838,7.9877233,6.6616318,0,4.3115961-2.7505009,6.7191837-7.9877233,6.7191837ZM675.3112852,714.2161784h-4.6197385v-4.4027199h-10.8563256v4.4027199h-4.6197385v-8.9948815h1.9795454c.3069434-.561131.9639942-2.2205439,1.1834108-6.4074442l.3579008-6.8294915h14.6565491l.0005995,13.2369357h1.917797v8.9948815ZM683.9224874,709.8134585h-6.2138061v-17.8290972h6.2138061v17.8290972ZM703.5638698,709.8134585h-6.2138061v-4.9902288h-1.631836l-2.2625088,4.9902288h-6.9529882l3.0106835-6.1556547c-1.5281227-.9568002-2.3254562-2.5298854-2.3254562-4.7959912,0-4.1341444,2.726521-6.8774514,7.5716711-6.8774514h8.8042408v17.8290972ZM706.3587337,584.0313956h-16.0977444v-17.4981739h-13.7549027v17.4981739h-16.0989434v-46.1949871h16.0989434v16.0989434h13.7549027v-16.0989434h16.0977444v46.1949871ZM745.0599846,584.0313956l-2.0059233-6.0873118h-13.9707223l-1.8248746,6.0873118h-15.6241403l15.8447559-46.1949871h19.1443978l15.5222255,46.1949871h-17.0857186Z"/>
  <path d="M693.3124387,698.669973c0,1.1894058.7331872,1.8320686,2.0862562,1.8320686h1.9513689v-3.6545453h-1.9513689c-1.353069,0-2.0862562.6402648-2.0862562,1.8224767Z"/>
  <path d="M698.5709433,783.2295174l-6.7401661,6.7976431,23.695194,38.460702c.0008992,0,.002398,0,.0041965-.003597v.002398c.002398,0,.0038967-.0041965.0062947-.004796.1840462-.1169023.3015479-.3501074.3468101-.7331872.0005995-.004796.002398-.0089925.0029975-.014388h-.0005995s.0005995,0,.0005995-.0041965c.7913385-7.1394324-.544345-14.8891546-4.6611039-23.7335619-3.528051-7.5782656-8.1232101-14.1060592-12.6542228-20.7670165Z"/>
  <polygon points="565.9836686 703.3844323 568.8073084 703.3844323 567.3289441 698.8977826 565.9836686 703.3844323"/>
  <path d="M810.3948733,698.7772833c-5.4962059-4.3421705-11.3308289-7.6883486-17.2209056-10.9604135l-6.8561692,6.9147702,38.930859,23.9849767c.002398-.003597.0053955-.007194.0053955-.010791.1127058-.1876432.1121063-.4514227-.0221815-.8189155v-.008393c-2.5038071-6.7329721-7.1822966-13.0540885-14.8369982-19.1012339Z"/>
  <path d="M817.7956872,685.4779997c-2.0865559-4.5257671-5.2261316-8.7705939-9.64264-12.7682025l-5.6337909,5.6821255,15.356464,7.9199799c.0014987-.0029975.004796-.005995.004796-.009592.0974186-.1966356.0776351-.4592162-.0848291-.8153185v-.0089925Z"/>
  <path d="M844.2015154,291.9339503c-.1657614-.1846457-.4541204-.2745705-.9001476-.258384-.0062947,0-.0110907-.0005995-.0164862-.0005995h-.0038967c-8.313551.3716893-16.9529296,3.2253041-26.3575686,9.3773618-8.979894,5.8756887-16.2314327,13.0019321-23.9107138,19.9171519l-40.4568834,36.4375431,5.9653138,5.9149559,85.6905741-71.3778376c0-.001199-.0038967-.002398-.0038967-.0041965h.0005995c-.0038967-.0017985-.0044962-.003597-.0068942-.005995Z"/>
  <path d="M834.9191742,753.7255538c-2.0769639-7.2395487-6.5102583-14.2398973-14.1427785-21.215067-7.2887076-6.6604328-15.3702525-11.5337593-23.3462856-16.8279341l-19.2301262-12.7636313-6.267761,6.3214161,62.9311979,45.3610842c.002398-.002398.0032972-.0053955.007194-.009592.1366857-.1864442.1594667-.4616142.0485594-.8560844v-.0101915Z"/>
  <polygon points="817.8781183 686.3137012 817.8757203 686.3119027 817.8748211 686.3137012 817.8781183 686.3137012"/>
  <polygon points="825.2501563 718.7172161 825.2486575 718.7166166 825.2477583 718.7172161 825.2501563 718.7172161"/>
  <polygon points="834.8643201 754.6020212 834.8634208 754.6014217 834.8628213 754.6032202 834.8643201 754.6020212"/>
  <polygon points="844.1838302 794.698306 844.1832307 794.698306 844.1832307 794.6989055 844.1838302 794.698306"/>
  <polygon points="397.1381011 821.0852501 397.1390003 821.0822526 397.1381011 821.0816531 397.1381011 821.0852501"/>
  <polygon points="364.7339866 828.457288 364.7357851 828.4554895 364.7339866 828.45489 364.7339866 828.457288"/>
  <polygon points="328.8491815 838.0714519 328.849781 838.0702529 328.8491815 838.0696534 328.8491815 838.0714519"/>
  <polygon points="288.7528967 847.3912617 288.753796 847.3900627 288.7528967 847.3894632 288.7528967 847.3912617"/>
  <polygon points="262.1225561 400.104534 262.1255536 400.105733 262.1255536 400.104534 262.1225561 400.104534"/>
  <polygon points="254.7505182 367.7004196 254.7520169 367.7022181 254.7529162 367.7004196 254.7505182 367.7004196"/>
  <polygon points="245.1363543 331.8156145 245.1369538 331.816214 245.1387523 331.8156145 245.1363543 331.8156145"/>
  <polygon points="235.8165445 291.7193297 235.8174437 291.7205287 235.818343 291.7193297 235.8165445 291.7193297"/>
  <polygon points="682.8622736 265.3335846 682.8616741 265.3359826 682.8622736 265.3365821 682.8622736 265.3335846"/>
  <polygon points="715.2663881 257.9609472 715.2648893 257.9627457 715.2663881 257.9633452 715.2663881 257.9609472"/>
  <polygon points="751.1514929 248.3467834 751.1505936 248.3479824 751.1514929 248.3491814 751.1514929 248.3467834"/>
  <polygon points="791.247478 239.027573 791.2468785 239.0281725 791.247478 239.0281725 791.247478 239.027573"/>
  <path d="M519.6786734,425.6760097c.9771832.9290734,1.9462732,1.8241253,2.8931817,2.6517335,1.9088045,1.66893,3.7423719,3.1341802,5.444649,4.4063918.9933697.7421047,1.9417769,1.4185643,2.8350303,2.031402.8932534.6129127,1.7307533,1.1622036,2.5017089,1.6500458,1.1567331.7318383,2.1638913,1.3253422,2.9843055,1.7877807.2736712.1541462.52636.2936795.7571671.4189748.527559.2863357.9394148.4979588,1.2193808.6379418.279966.1400579.428342.2084757.428342.2085507,0-.0000749.0002997-.0000749.0002997-.0001499v.0000749c1.228673-.7385077,2.4177791-1.488331,3.5894997-2.2432499,3.1656539-2.039795,6.1355715-4.1363925,8.9001606-6.2944387,1.5152335-1.1827364,2.9720158-2.3829332,4.3724452-3.6005904,2.8005591-2.4351645,5.3754069-4.939721,7.74043-7.5117212,1.7736175-1.9290376,3.4291337-3.8959935,4.9734429-5.9001932,1.5440094-2.0041998,2.9768118-4.0456434,4.3047018-6.1235815.4424302-.692646.8734699-1.3892638,1.2931191-2.090003.8392985-1.4014036,1.6327353-2.8189188,2.3827084-4.2523206.3749866-.7167009.7391821-1.4373735,1.0925867-2.1619429.7068092-1.4492136,1.371054-2.9141641,1.9945328-4.3946267.6234789-1.4805375,1.2061918-2.976512,1.7505368-4.4878488,1.7739172-4.9267569,3.130883-10.0189755,4.1509304-15.2633918.0752371-.3863021.1546707-.7707308.2260111-1.1586815h58.8764871V118.8624401c-3.0766283,1.6878142-6.0630321,3.540041-8.9577125,5.5108936-1.4387974.9795812-2.861708,1.9793955-4.2483489,3.0209499-6.0003845,4.5076322-11.5229683,9.615213-16.4832222,15.2299698-.1516732.1716066-.3018477.344562-.4523219.5171427-2.2361309,2.5629327-4.3526618,5.231677-6.3468948,7.9951421-1.0416293,1.4435933-2.0475885,2.9141641-3.0199757,4.4090146-.5254608.8083493-1.0410298,1.6237428-1.5458079,2.446555-.9139361,1.4893801-1.7925017,3.0022155-2.6362964,4.5373074-.4888914.8892817-.965493,1.7859822-1.4304044,2.6900265-.6495571,1.2638186-1.2835271,2.5370044-1.8851243,3.8286997-.4049615.8694982-.7988323,1.7452162-1.1819121,2.6269292-.7652603,1.7633511-1.4861578,3.5506821-2.1602943,5.3604943-1.0116544,2.7147558-1.918996,5.4800944-2.7175285,8.2913695-1.8629428,6.5595671-3.1326815,13.3686756-3.7471679,20.3658019l-4.3565585,36.3955032-2.3152647,19.3455297-.2062276,1.7237841-.3818808,3.1903833-.5881084,4.9129684-.7496734,6.2628151.9894729-.1060364,2.8623075-.3069434c6.1406672.0301248,11.8047328,3.2951457,14.9562985,8.4453658.2625805.4291663.5077756.8714466.7343862,1.3260166.679532,1.3637101,1.1918038,2.8381777,1.5044425,4.4023452.2380011,1.1918038.3495079,2.3794861.3438126,3.5491084s-.1288923,2.3211848-.3599991,3.4409738c-.1154035.559857-.2577845,1.1118456-.4262437,1.6540175-1.5766821,5.0772311-5.4284625,9.2858633-10.5781581,11.2392555-.9001476.3414146-1.8296706.6315721-2.8044558.8265591l-10.5922463,2.1330171c-.9001476-1.6974811-1.7999954-3.3945876-2.695347-5.0936424s-1.7865067-3.400058-2.6692688-5.1054825c-1.7649248-3.410849-3.4959778-6.8392333-5.1589878-10.3043369-1.8716356-4.7023944-3.6806235-9.4269703-5.3808024-14.180472-.9603972-2.6847809-1.8764316-5.381252-2.7588939-8.0857414-.1588672-.4877673-.3261274-.9735113-.4822969-1.4618781-.3662938-1.1446682-.7143029-2.2935329-1.0638108-3.4420979-.4963851-1.6310866-.9747852-3.2662199-1.4349006-4.9056245-1.7993959-6.4152377-3.2999417-12.8970198-4.4018207-19.4598841-.3567018-2.1229005-.6864262-4.2512715-.954702-6.3917823-.2083259-1.6628601-.3893745-3.3311906-.540748-5.0052163-.3027469-3.3481264-.4876924-6.7192586-.5413475-10.11527-.0266777-1.6980057-.0206827-3.4023811.0200832-5.1131261.0977183-9.1781783.5167681-18.3514107,1.0617125-27.5230694.2179178-3.6686335.4559189-7.3371171.7014137-11.0054509,1.1057757-16.5076518,2.3653229-33.0144793,2.6389942-49.5402659,0-4.7224027-.6345696-9.2918582-1.8014942-13.6436207-.7892403-2.9434647-1.8269729-5.7834408-3.0895176-8.5003698-.3342206-.7195486-.6840282-1.4300297-1.0494228-2.1316682-1.9945328-3.8301985-4.4335941-7.3937698-7.2656269-10.6077583-1.0257426,1.164077-2.0014271,2.3731164-2.9234564,3.623821-6.4539054,8.7550819-10.2826051,19.5520571-10.2826051,31.259746.2736712,16.5257117,1.5332184,33.0325392,2.6386944,49.540116.2457945,3.6683338.4837956,7.3368174.7017135,11.0054509.5449445,9.1716587.9639942,18.3448911,1.0617125,27.5230694.0407659,1.710745.0467609,3.4151204.0200832,5.1131261-.0536552,3.3960114-.2386006,6.7671436-.5413475,10.11527-.1513735,1.6740257-.3324221,3.3423562-.540748,5.0052163-.2682758,2.1405108-.5980002,4.2688818-.954702,6.3917823-.2541875,1.5138097-.5257605,3.0240223-.8216132,4.5293641-.5026798,2.5592608-1.0638108,5.1065316-1.6764987,7.6427117-.1942376.8046025-.3938708,1.6080059-.5982999,2.4104352-.4265435,1.6735012-.8743691,3.3423562-1.342278,5.00679-.1906406.6773588-.383979,1.3541181-.5809144,2.0300531-.2805655.9640692-.5674257,1.9266396-.8605807,2.8878611-.3360191,1.1011296-.6690408,2.2028587-1.0200474,3.3003913-.1729554.5401485-.3573013,1.0775243-.533554,1.6168485-.8671752,2.6524079-1.765824,5.2973221-2.7076368,7.9307709-1.7001789,4.7535017-3.5091668,9.4780776-5.3808024,14.180472-2.4945149,5.1976555-5.1419021,10.312655-7.8282566,15.4098194-.8956514,1.6990548-1.7951995,3.3961613-2.695347,5.0936424l-10.5922463-2.1330171c-1.1915041-.2383008-2.330552-.5916305-3.408451-1.0462005-2.1560978-.9089902-4.066401-2.2227171-5.6565719-3.8303483-.0401664-.040691-.0746376-.0864777-.114804-.1276183-.6444613-.6643947-1.2277737-1.3816951-1.7592295-2.1360146-.5788162-.8212386-1.0817958-1.6913363-1.513435-2.6003265-.3579008-.7532704-.6810307-1.5240761-.9298228-2.3253064-.1684592-.5422468-.3111399-1.0940855-.4265435-1.6540175-.4622137-2.2395031-.4924883-4.6063997-.0161865-6.9898574.1540712-.7706558.3716893-1.5113367.6189826-2.235981.1384842-.4068349.288359-.8067007.4544202-1.1977239.3390166-.7974834.7208974-1.5688137,1.1654259-2.2951066.2625805-.4292412.5428463-.8453684.8389987-1.2476321.5929044-.8045275,1.2505547-1.5534515,1.9639584-2.240777,3.2106164-3.0927399,7.5479909-4.9351499,12.1533414-4.9567318l2.8889852.3097911.9627952.1031887-.7080082-5.9145812-.5875089-4.9081724-.4238457-3.5434132-.1636632-1.3659582-2.3584287-19.7033556-4.355959-36.3955032c-.121998-1.3867908-.278767-2.7632403-.4517224-4.1347439-.154371-1.2267246-.3288251-2.4470796-.5236623-3.660915-.685527-4.2763755-1.6084555-8.4734673-2.7720829-12.570143-.3534046-1.2443349-.7358849-2.4760054-1.1318539-3.7019806-.7961345-2.4670129-1.6693047-4.8994797-2.6318002-7.287059-.7202979-1.7869563-1.4861578-3.550757-2.2960808-5.2897535-2.429769-5.2171392-5.2570058-10.2122389-8.4424432-14.9466316-6.9017311-10.2578008-15.4859558-19.2914999-25.3579042-26.7072263-1.6681057-1.2534023-3.3862695-2.4504517-5.1296123-3.6133297-2.6204097-1.7476892-5.310661-3.401257-8.0761494-4.9185138v255.1237254h58.8764871c4.5582899,24.7518857,16.8618058,41.3776388,27.7073403,51.6898442ZM509.9230279,373.9861655h20.01517v.0002997h.0002997v37.0851517l-.0002997-.0000749v.0002248c-4.7168573-4.9331266-8.8006438-10.4826879-12.132359-16.5053287-3.5289503-6.3794926-6.2132066-13.2902161-7.882811-20.5799729h.0002997c0-.0000749-.0002997-.0002248-.0002997-.0002997ZM567.5618495,373.9864653c-2.6371957,11.5146503-7.7898887,22.0940073-14.8393962,31.1050753-1.62704,2.0795118-3.3547958,4.0754684-5.1760735,5.9802263v-37.0856014h20.0154697c0,.0000749-.0002997.0002248-.0002997.0002997h.0002997ZM607.4935718,269.741775c-.4430297-.4387583-.8980494-.8658263-1.36386-1.2807545-.8788654-.7827207-1.7999954-1.5183059-2.7543977-2.2110269-.0572521-.0416652-.1118065-.0870023-.1693584-.1282928-.5080753-.3642705-1.0260424-.7152022-1.5539011-1.0526451-1.0554178-.6748109-2.1489038-1.2949176-3.2765612-1.8564982l.2218146-1.8539503,2.3044738-19.2703675,4.5582899-38.1156903c.3758858-3.0214744.9118378-5.9928907,1.5724856-8.9171714.9364173-4.1444858,2.1507023-8.1827853,3.6236711-12.0963141.6642448-1.7654493,1.3716535-3.5099911,2.1390121-5.2223098,2.700143-6.0235401,6.0231654-11.7077639,9.8926311-16.9654441,1.3042099-1.7718939,2.6698683-3.4955282,4.0942777-5.1676805v130.3143495h-9.9732637c-.4825966-1.8696872-1.115068-3.6784503-1.8839253-5.4131753-1.0248434-2.3128668-2.292184-4.4940686-3.7687498-6.511832-.3692913-.5044783-.7514719-.9986902-1.1462419-1.482261-.3824803-.4683585-.7778498-.9256263-1.1834108-1.373452-.4322387-.4769014-.8758679-.9429368-1.3329858-1.3954836ZM583.6559969,330.5710548l5.6400856-1.2841266,2.8200428-.6421383c3.01488-.8382493,5.869394-2.0671471,8.5038919-3.6290666,2.6347977-1.5618445,5.0495792-3.4566357,7.1858935-5.626522,1.6021608-1.6273398,3.0475527-3.409575,4.3112963-5.3220515,2.1066391-3.1875356,3.7085002-6.7371686,4.6910789-10.5358934h9.9735634v52.8416314h-39.6178847c0-2.1779046-.0764361-4.3385735-.2212151-6.4811826-.1789504-2.6538317-.4763019-5.2755903-.8659762-7.867224-.1882427-1.2507046-.400765-2.493241-.6360683-3.727909-.1843459-.9684155-.3824803-1.9315855-.5953024-2.8895847-.2409986-1.0849431-.4993826-2.1627672-.7754518-3.2336221-.137585-.5341535-.2676763-1.0716043-.413954-1.6021608v-.0001499ZM562.5818121,335.5433736c1.2472575-.4159024,2.5442733-.72382,3.8793574-.9125872.2469935.8644025.4807981,1.7345002.7005145,2.6099934.2197163.8755681.4256442,1.7565318.6171841,2.642816.9568002,4.4314209,1.5533016,8.9953311,1.7253578,13.670823.0344712.9350684.0518567,1.8745581.0518567,2.8183193v.0001499h-22.0097028v-.0001499c0-2.7748556.5143701-5.426739,1.4531853-7.8673739,1.8776306-4.881195,5.451843-8.9171714,9.9999414-11.4011202,1.1369497-.620931,2.3347485-1.144968,3.5823057-1.5608703ZM522.3743202,313.3607903c3.8454857-6.9567351,7.2896069-14.1644354,10.3074843-21.5913275,2.2634081-5.5701691,4.2870166-11.2636101,6.0606341-17.0669093,1.7736175,5.8032992,3.797226,11.4967403,6.0606341,17.0669093,1.1009797,2.7095851,2.2780958,5.3793036,3.4914816,8.0290138,2.9435396,6.4287264,6.1946221,12.6873451,9.7751293,18.7322423-.3318226.1008657-.6510558.2289336-.9792815.3380424-4.4266999,1.4710954-8.5152824,3.6576927-12.0930918,6.4798337-1.5374149,1.2125615-2.982507,2.5382034-4.3232863,3.9668842-.6705395.7143779-1.3147011,1.4544593-1.9315855,2.2190452-.6168844-.7645859-1.2613457-1.5046673-1.9318852-2.2190452-4.6931771-5.0002704-10.6623877-8.7384458-17.3956595-10.7847604,1.0113546-1.7072979,1.9978301-3.4307823,2.9594263-5.1699286ZM507.928495,356.372738c0-.9437611.0173855-1.8832509.0518567-2.8183193.1723559-4.6754919.7685576-9.2394021,1.7256576-13.670823.1912401-.8862842.397168-1.7672478.6168844-2.642816.2200161-.8754932.4535209-1.7455909.7008142-2.6099934,1.335084.1887672,2.6318002.4966848,3.8793574.9125872,1.8710361.6239285,3.6305653,1.4908039,5.2405196,2.5636821,1.0734028.7152022,2.0799614,1.5219029,3.0091847,2.4090863.9289235.8871085,1.780212,1.8547747,2.5421751,2.8916829.7622628,1.0369832,1.4352004,2.1432835,2.0077218,3.3080349,1.4316034,2.9117662,2.2358311,6.1882524,2.2358311,9.6568781h-.0002997v.0001499h-22.0097028v-.0001499ZM478.8803754,326.1238221c2.0556817,1.0438775,4.2264672,1.8923183,6.4880768,2.5209678l2.8200428.6421383,5.6397859,1.2841266v.0001499c-1.9819434,7.1879918-3.1812409,14.7131268-3.4501162,22.4654718-.0383679,1.1074993-.0575519,2.2197196-.0575519,3.3362114h-39.6178847v-52.8416314h9.9732637c.9825787,3.7987248,2.5847395,7.3483577,4.6910789,10.5358934.6096904.9228536,1.2760334,1.8036674,1.9675554,2.663049.7415801.9215797,1.5149337,1.8169313,2.3440407,2.6590024,1.0680073,1.0849431,2.2055564,2.1010938,3.4057532,3.0412579s2.4624417,1.8043418,3.7798406,2.5852641c.6585495.3904237,1.3308876.7601646,2.0161148,1.1080988ZM450.7027282,155.6037043c3.5610235,4.1803808,6.7557531,8.6823927,9.53503,13.4558277,5.0031181,8.5921681,8.6603611,18.0640259,10.6836699,28.1230928.4496242,2.2353066.818316,4.4996889,1.1033777,6.7898496l4.5582899,38.1157653,2.3653229,19.7783679.1609655,1.34595c-2.0305028,1.0112048-3.9429043,2.221593-5.7285117,3.5895746-1.9097037,1.4632269-3.6641373,3.1161203-5.2375221,4.9329767-.1669604.1927389-.3366186.3830798-.4993826.5794157-.1453785.1753534-.2868602.3538542-.4286417.5320553-.5701235.7155019-1.111471,1.4546841-1.6252415,2.2140993-.1918396.2830384-.3803821.5679503-.5638287.8568338-.4927881.7758265-.9544022,1.5727854-1.386641,2.3883287-.5044783.9524539-.964294,1.9312857-1.3815452,2.9332732-.3854778.9257012-.7433786,1.8657904-1.0500223,2.8298596-.026378.0833303-.0467609.1692835-.0728391.2528387-.1630637.527634-.3201324,1.0581156-.4592162,1.5961658h-9.9732637v-130.3142746Z"/>
</svg>