<?xml version="1.0" encoding="UTF-8"?>
<svg id="_Шар_1" xmlns="http://www.w3.org/2000/svg" version="1.1" viewBox="0 0 1080 1080">
  <!-- Generator: Adobe Illustrator 30.2.1, SVG Export Plug-In . SVG Version: 2.1.1 Build 1)  -->
  <path d="M304.8997001,302.563312c69.733547-64.0882509,148.3469727-118.1016159,240.3543477-143.3876324,32.1947951-8.8497929,40.0965248-12.5621377,23.0831355-13.6784405-17.183073-1.1321881-43.9318602-1.7870954-75.6567154,2.2025199-185.0085436,35.475469-307.2997851,157.8054611-342.683312,342.9528806-3.9970766,31.8634904-3.3265247,58.3577519-2.194818,75.4871519,1.1167842,16.8516481,4.6445226,8.9571389,13.7017871-23.1983039,24.8773312-92.7544652,79.3222467-170.6294654,143.3955751-240.3781756h0ZM410.0000464,338.7622839c66.3296417-57.5413441,134.9464045-108.1509241,211.6196582-148.5402437,33.0875004-17.4211118,42.0524616-26.6020889,25.5319978-31.3310924-16.490739-4.7208202-44.5329742-3.2114767-77.0889189,9.3427183-156.5735085,60.3679635-285.9968855,175.5815851-364.7956396,321.3409398-26.8726203,49.7009894-38.7415815,115.2672946-32.3564159,173.7944896,4.2052702,40.1351549,15.3423046,60.6534174,45.2032854,63.2253907,5.3598422.454175,11.1519569,6.8622058,11.2905922,14.3412904.8320524,44.5250315,14.8265139,68.7626187,47.852519,80.4549162,5.4609304,1.933192,10.1740486,6.68482,11.2679677,12.1534524,6.0152309,29.9170607,34.1348466,28.2293687,74.2165692-3.797307,148.6858589-118.8178982,284.8176432-253.4866711,410.4679021-397.6750667,36.3202778-42.445743,68.443228-44.7794369,73.6959648-5.4914976,2.9970252,22.351329-4.874017,44.9178315-22.4459187,69.340747-112.5195,149.7027583-245.9169681,279.658413-403.4764478,377.2569297-34.0503657,21.0891703-37.9085664,36.0584111-7.9484229,38.109058,19.8094415,1.3485651,39.0027261-3.4468678,60.406714-13.3681959,160.3933197-80.7954872,286.9134187-198.4431689,384.6396195-348.716113,15.5685497-25.6013155,28.1480167-38.8638501,39.0001989-32.9408021,17.9505012,9.797134,17.1302424,55.5460551-3.4621514,99.5940464-78.2450554,148.3782619-194.9344447,251.1938938-353.9181853,304.7846138-32.5559448,9.2038424-40.5579203,12.6822401-23.7527247,13.8336831,17.1215777,1.1670876,43.5857534,1.8217543,75.4413012-2.1611219,156.8575183-30.5377905,262.9768097-117.1071003,325.1485964-264.3767613,17.6664914-51.0096006,17.0906495-108.9593893,16.1520935-162.1727132-1.0882629-50.1087119-4.4085298-75.5634495-27.5564099-76.7266861-5.8678105-.3003764-8.4547064-4.436329-8.146989-18.0765004,1.0882629-47.0741396-7.5003854-73.7154604-32.3674874-86.7548789-4.3771202-2.2951841-9.2670225-6.3844436-10.0635737-12.6774264-4.8897819-38.5788776-26.7284492-37.9013458-65.588328,2.6037439-134.1450396,139.3590259-270.5852633,276.4308103-409.1894971,411.3537479-32.3099634,31.3390351-62.5858873,37.0536488-78.3060693,16.9132638-15.2337551-19.5319302-8.5640983-47.066197,22.5823878-82.3414151,128.1142844-142.9327354,264.8161341-276.9855921,411.0305062-401.3645463,12.4540695-10.4207521,26.4870409-27.495757,26.2866696-35.3137279-.2467034-9.7735467-10.9752932-17.6991044-23.8914803-18.3999827-10.2432459-.5624838-33.9116101,8.0947601-46.5581083,16.544051-155.5799556,107.7501815-290.0634001,237.5980087-408.2504596,385.1829687-29.9372783,38.5098006-51.1718231,47.3516509-63.1866402,26.1094042-11.8838838-20.9955433-7.532517-51.5954309,16.6978496-89.3504395,51.2257368-75.2637951,108.1432222-141.4927095,173.8174752-204.702937h0Z"/>
  <path d="M410.0000464,338.7699859c-65.674253,63.2025255-122.5917383,129.43144-173.8174752,204.695235-24.2303666,37.7550086-28.5817334,68.3548961-16.6978496,89.3504395,12.0148171,21.2422467,33.2493619,12.4003965,63.1866402-26.1094042,118.1870596-147.58496,252.670504-277.4327872,408.2504596-385.1829687,12.6464982-8.4492909,36.3148624-17.1065348,46.5581083-16.544051,12.9161871.7008784,23.6447769,8.626436,23.8914803,18.3999827.2003713,7.8179709-13.8326,24.8929758-26.2866696,35.3137279-146.2143721,124.3789541-282.9162218,258.4318109-411.0305062,401.3645463-31.1464861,35.2752181-37.8161429,62.8094849-22.5823878,82.3414151,15.720182,20.1403851,45.9961059,14.4257713,78.3060693-16.9132638,138.6042338-134.9229375,275.0444575-271.994722,409.1894971-411.3537479,38.8598788-40.5050897,60.6985461-41.1826215,65.588328-2.6037439.7965512,6.2929828,5.6864534,10.3822423,10.0635737,12.6774264,24.8671021,13.0394185,33.4557503,39.6807393,32.3674874,86.7548789-.3077174,13.6401714,2.2791785,17.776124,8.146989,18.0765004,23.1478801,1.1632367,26.468147,26.6179742,27.5564099,76.7266861.938556,53.2133239,1.5143979,111.1631126-16.1520935,162.1727132-62.1717866,147.269661-168.2910781,233.8389708-325.1485964,264.3767613-31.8555478,3.9828761-58.3197235,3.3282095-75.4413012,2.1611219-16.8051956-1.151443-8.8032201-4.6298408,23.7527247-13.8336831,158.9837406-53.59072,275.67313-156.4063519,353.9181853-304.7846138,20.5923938-44.0479914,21.4126526-89.7969125,3.4621514-99.5940464-10.8521822-5.923048-23.4316492,7.3394866-39.0001989,32.9408021-97.7262008,150.2729441-224.2462998,267.9206257-384.6396195,348.716113-21.4039879,9.9213281-40.5972725,14.716761-60.406714,13.3681959-29.9601435-2.0506469-26.1019429-17.0198878,7.9484229-38.109058,157.5594797-97.5985167,290.9569478-227.5541713,403.4764478-377.2569297,17.5719017-24.4229156,25.4429439-46.9894181,22.4459187-69.340747-5.2527368-39.2879393-37.375687-36.9542454-73.6959648,5.4914976-125.6502589,144.1883956-261.7820432,278.8571684-410.4679021,397.6750667-40.0817226,32.0266757-68.2013383,33.7143677-74.2165692,3.797307-1.093919-5.4686324-5.8070373-10.2202604-11.2679677-12.1534524-33.026005-11.6922975-47.0204666-35.9298847-47.852519-80.4549162-.1386353-7.4790847-5.93075-13.8871155-11.2905922-14.3412904-29.8609808-2.5719733-40.9980151-23.0902358-45.2032854-63.2253907-6.3851656-58.527195,5.4837956-124.0935002,32.3564159-173.7944896,78.7987541-145.7593548,208.2221311-260.9729763,364.7956396-321.3409398,32.5559448-12.554195,60.5981799-14.0635385,77.0889189-9.3427183,16.5204638,4.7290035,7.5555025,13.9099807-25.5319978,31.3310924-76.6732538,40.3893196-145.2900166,90.9988996-211.6196582,148.5479457h0Z"/>
  <path d="M304.90668,302.5712547c-64.0803083,69.7484696-118.5252237,147.6157678-143.402555,240.370233-9.0572644,32.1554429-12.5850029,40.049952-13.7017871,23.1983039-1.1317068-17.1294-1.8022587-43.6236615,2.194818-75.4871519,35.3835269-185.1474195,157.6747685-307.4774116,342.683312-342.9528806,31.7248551-3.9896153,58.4736423-3.334708,75.6567154-2.2025199,17.0133892,1.1163028,9.1116595,4.8286476-23.0831355,13.6784405-92.007375,25.2860165-170.6208007,79.2993815-240.3473678,143.3955751h0Z"/>
</svg>