<?xml version="1.0" encoding="UTF-8"?>
<svg id="_Шар_1" xmlns="http://www.w3.org/2000/svg" version="1.1" viewBox="0 0 1080 1080">
  <!-- Generator: Adobe Illustrator 30.2.1, SVG Export Plug-In . SVG Version: 2.1.1 Build 1)  -->
  <path d="M236.93,435.69c-18.11-15.49-43.25-26.29-70.72-26.29-61.07,0-110.46,49.09-110.46,110.17s49.39,110.46,110.46,110.46c27.47,0,52.02-10.22,70.72-26.59.88-.88,2.93-3.21,2.93-6.42v-18.7c0-3.21-2.05-3.51-3.8-1.17-15.79,21.33-40.92,35.36-69.85,35.36-50.55,0-91.76-42.38-91.76-92.93s41.2-92.65,91.76-92.65c28.94,0,54.06,13.74,69.85,35.07,1.75,2.33,3.8,2.05,3.8-1.46v-18.7c0-2.93-2.05-5.56-2.93-6.14Z"/>
  <path d="M330.85,482.75c-40.62,0-73.65,33.02-73.65,73.65s33.03,73.64,73.65,73.64,73.93-33.02,73.93-73.64-33.02-73.65-73.93-73.65ZM330.85,612.5c-30.1,0-54.94-25.72-54.94-56.11s24.84-56.11,54.94-56.11,54.93,25.71,54.93,56.11-24.55,56.11-54.93,56.11Z"/>
  <path d="M730.92,412.89h-1.17c-4.96,0-9.05,4.09-9.05,8.77v83.88c0,2.33-2.34,2.33-3.21.87-14.04-16.94-30.7-23.66-50.27-23.66s-37.7,6.72-52.02,21.33c-14.62,14.31-21.63,31.56-21.63,52.02s7.01,37.7,21.63,52.31c14.31,14.31,31.85,21.62,52.02,21.62s37.99-9.35,51.43-24.83c1.46-1.76,2.05.29,2.05,1.17v11.1c0,4.97,4.09,8.77,9.05,8.77h1.17c4.68,0,8.77-3.8,8.77-8.77v-195.8c0-4.68-4.09-8.77-8.77-8.77ZM667.22,612.5c-30.4,0-54.94-26.01-54.94-56.41s24.55-55.81,54.94-55.81,54.93,25.41,54.93,55.81-24.55,56.41-54.93,56.41Z"/>
  <path d="M890,504.08c-14.61-14.61-31.85-21.33-52.31-21.33s-37.69,6.72-52.3,21.33c-14.32,14.31-21.63,31.56-21.63,52.02s7.31,37.7,21.63,52.31c14.61,14.31,31.85,21.62,52.3,21.62s37.7-7.31,52.31-21.92c1.17-1.17,2.34-2.33,3.51-3.8,4.38-4.68,4.09-11.4-1.17-14.91-6.72-4.09-10.82-1.17-17.54,7.02-6.72,8.17-22.21,16.07-37.12,16.07s-28.06-7.31-38.57-17.83c-9.64-9.35-14.91-21.33-16.07-35.94-.29-4.38.58-5.56,4.68-5.56h111.93c8.17,0,9.35-7.31,8.76-11.68-2.05-14.61-8.17-27.17-18.41-37.41ZM882.69,534.46h-90.01c-4.68,0-6.14-.29-4.09-4.08,2.33-3.81,5.54-8.19,10.23-12.86,10.8-10.82,23.66-17.24,38.86-17.24s27.77,6.42,38.58,17.24c4.08,3.8,7.01,7.59,9.05,11.4,1.75,2.91,3.51,5.54-2.63,5.54Z"/>
  <path d="M987.97,491.22c-2.93-4.96-11.1-5.84-15.49-3.51-5.54,2.93-14.61,12.28-18.99,17.54-.88,1.17-2.63,1.75-2.63-.88v-9.05c0-4.97-4.39-9.05-9.35-9.05h-.58c-4.97,0-9.07,4.08-9.07,9.05v122.15c0,4.97,4.09,8.77,9.07,8.77h.58c4.96,0,9.05-3.8,9.05-8.77l.3-61.07c0-31.28,13.73-37.12,35.06-52.03,4.39-2.92,4.09-9.35,2.63-12.27-.29-.3-.58-.58-.58-.88Z"/>
  <path d="M1018.99,594.08h-1.76c-9.35,0-17.24,7.31-17.24,16.95v1.46c0,9.64,7.89,17.53,17.24,17.53h1.76c9.05,0,16.94-7.89,16.94-17.53v-1.46c0-9.65-7.89-16.95-16.94-16.95Z"/>
  <path d="M505.67,417.95c2.82-4.42,1.53-10.3-2.9-13.12-4.42-2.82-10.3-1.53-13.12,2.9-7.06,11.07-13.68,22.71-19.67,34.62-6.53,13.02-12.44,26.66-17.58,40.62-15.65,43.33-23.63,88.54-23.71,134.36,0,5.25,4.24,9.51,9.49,9.52h.02c5.24,0,9.49-4.24,9.5-9.49.08-43.62,7.68-86.67,22.56-127.88,4.88-13.24,10.5-26.23,16.71-38.6,5.69-11.32,11.98-22.4,18.7-32.92Z"/>
  <path d="M553.66,417.95c2.82-4.42,1.53-10.3-2.9-13.12-4.42-2.82-10.3-1.53-13.12,2.9-7.1,11.12-13.71,22.77-19.64,34.62-6.61,13.17-12.52,26.82-17.58,40.61-15.66,43.31-23.65,88.52-23.73,134.36,0,5.25,4.24,9.51,9.49,9.52h.02c5.24,0,9.49-4.24,9.5-9.49.08-43.65,7.68-86.69,22.58-127.89,4.8-13.08,10.42-26.07,16.71-38.6,5.64-11.27,11.93-22.34,18.67-32.91Z"/>
  <path d="M560.58,477.25c-4.94-1.78-10.38.77-12.17,5.71-15.65,43.33-23.63,88.54-23.71,134.36,0,5.25,4.24,9.51,9.49,9.52h.02c5.24,0,9.49-4.24,9.5-9.48.08-43.63,7.68-86.67,22.58-127.94,1.78-4.94-.77-10.38-5.71-12.17Z"/>
  <path d="M573.73,447.75c-4.76-2.2-10.41-.12-12.61,4.65l-.13.28c-2.23,4.75-.18,10.41,4.57,12.64,1.3.61,2.68.9,4.03.9,3.57,0,7-2.02,8.61-5.47l.18-.38c2.2-4.77.12-10.41-4.65-12.61Z"/>
</svg>