<?xml version="1.0" encoding="UTF-8"?>
<svg id="_Шар_1" xmlns="http://www.w3.org/2000/svg" version="1.1" viewBox="0 0 1080 1080">
  <!-- Generator: Adobe Illustrator 30.4.0, SVG Export Plug-In . SVG Version: 2.1.3 Build 42)  -->
  <defs>
    <style>
      .st0 {
        fill: #729452;
      }

      .st1 {
        fill: #fff;
      }

      .st2 {
        fill: #4c4c4c;
      }

      .st3 {
        fill: #89b751;
      }
    </style>
  </defs>
  <g id="_Текст">
    <path class="st2" d="M162.7401886,933.7610474v21.8796387h-13.2893524v-10.3518066h-32.8935318v10.3518066h-13.3634491v-21.8796387h1.8356476c6.534729-.145813,8.223381-10.27771,8.7372665-24.0092773l.5879822-15.8587646h41.4097137v39.868042h6.9757233ZM121.9901657,933.7610474h19.4571915v-28.340271h-14.75811l-.2198944,5.5786743c-.36689,10.0602417-1.4687576,18.430603-4.479187,22.7615967Z"/>
    <path class="st2" d="M166.4126892,919.5897217c0-15.4190063,12.1145782-26.7244873,28.5613403-26.7244873s28.5613403,11.305481,28.5613403,26.7244873-12.1145782,26.7268677-28.5613403,26.7268677-28.5613403-11.3079224-28.5613403-26.7268677ZM208.8513641,919.5897217c0-8.8842773-6.0937347-14.6828003-13.8773346-14.6828003-7.7823944,0-13.8761444,5.798584-13.8761444,14.6828003s6.0937347,14.6851807,13.8761444,14.6851807c7.7835846,0,13.8773346-5.8009644,13.8773346-14.6851807Z"/>
    <path class="st2" d="M277.6500549,912.9092407c0,11.673584-8.8113708,18.9420776-22.8345032,18.9420776h-8.9583588v13.437561h-14.5370178v-51.395874h23.4953766c14.0231323,0,22.8345032,7.2684937,22.8345032,19.0161743v.000061ZM262.9648438,912.9092407c0-4.7731934-3.0104065-7.5625-9.0300598-7.5625h-8.0775757v15.0509033h8.0775757c6.0196533,0,9.0300598-2.7893066,9.0300598-7.4884033Z"/>
    <path class="st3" d="M284.1871643,893.8930054h42.9525757v11.2338257h-28.635437v8.2962646h13.2893372c12.482666,0,19.3101807,5.4328613,19.3101807,15.3449097,0,10.4259033-7.8552856,16.520874-21.21875,16.520874h-25.697937v-51.395874h.0000305ZM308.9302063,934.862915c4.8460693,0,7.4895935-1.9814453,7.4895935-5.652771s-2.496521-5.4352417-7.4895935-5.4352417h-10.4259338v11.0880127h10.4259338Z"/>
    <path class="st3" d="M380.4088745,934.0550537v11.2338257h-41.263916v-51.395874h40.3090515v11.2338257h-25.9178162v8.6643677h22.8345032v10.8657227h-22.8345032v9.3981323h26.8726807Z"/>
    <path class="st3" d="M429.6021729,930.8235474c0,9.840332-11.013916,15.5671997-24.0821533,15.5671997-6.8287048,0-14.2442322-1.6157837-20.9259338-4.993042l4.3321838-10.131958c4.7731628,2.4212646,10.2789307,3.597229,14.9779968,3.597229,6.1678467,0,11.0127258-2.055542,11.0127258-6.020813,0-3.1574097-2.9363403-4.479187-7.0474243-4.479187h-13.1423645v-10.645813h11.9675903c3.9653015,0,6.1678467-1.6898804,6.1678467-4.3309937,0-3.451416-3.8912048-5.215332-8.958374-5.215332-4.1851807,0-9.2511597,1.1759644-13.65625,3.5255127l-4.2580872-11.013916c5.6527405-2.71521,12.0404968-3.965271,18.0613403-3.965271,12.4814758,0,23.4953918,5.4352417,23.4953918,14.979187,0,4.8448486-2.7176208,8.7384644-7.0486145,10.8657227,5.6527405,2.1296387,9.1041565,6.6088257,9.1041565,12.2615967l-.0000305-.0001221Z"/>
    <path class="st3" d="M485.697113,893.8930054v51.395874h-14.3912048v-39.868042h-19.5300903v39.868042h-14.3171387v-51.395874h48.2384338Z"/>
    <path class="st3" d="M537.9772949,934.0550537v11.2338257h-41.263916v-51.395874h40.3078613v11.2338257h-25.916626v8.6643677h22.833313v10.8657227h-22.833313v9.3981323h26.8726807Z"/>
    <path class="st3" d="M567.053772,925.6105957h-6.6064453v19.6782837h-14.465332v-51.395874h14.465332v19.9699097h6.9745483l12.2615967-19.9698486h15.270813l-16.0786743,24.8171387,16.2268677,26.5786743h-16.3726807l-11.6759644-19.6782837h-.000061Z"/>
    <path class="st3" d="M634.019165,935.3027344h-21.7338257l-4.0369873,9.986145h-14.8309937l22.6875-51.395874h14.3171387l22.7615967,51.395874h-15.125l-4.0393677-9.986145h-.000061ZM629.7598877,924.5828247l-6.6064453-16.4467773-6.6088257,16.4467773h13.215271Z"/>
    <path class="st2" d="M706.7478638,893.8930054v51.395874h-14.3912354v-39.868042h-19.5300903v39.868042h-14.3171387v-51.395874h48.2384644Z"/>
    <path class="st2" d="M764.0928955,912.9092407c0,11.673584-8.8101807,18.9420776-22.833313,18.9420776h-8.958374v13.437561h-14.5370483v-51.395874h23.4953613c14.0231323,0,22.833313,7.2684937,22.833313,19.0161743l.000061.000061ZM749.4100342,912.9092407c0-4.7731934-3.0115967-7.5625-9.0324707-7.5625h-8.076416v15.0509033h8.076416c6.020813,0,9.0324707-2.7893066,9.0324707-7.4884033Z"/>
    <path class="st2" d="M768.0605469,919.5897217c0-15.4190063,12.1134033-26.7244873,28.5601807-26.7244873s28.562561,11.305481,28.562561,26.7244873-12.1157837,26.7268677-28.562561,26.7268677-28.5601807-11.3079224-28.5601807-26.7268677ZM810.4980469,919.5897217c0-8.8842773-6.0949097-14.6828003-13.8773193-14.6828003s-13.8773193,5.798584-13.8773193,14.6828003,6.0949097,14.6851807,13.8773193,14.6851807,13.8773193-5.8009644,13.8773193-14.6851807Z"/>
    <path class="st2" d="M874.2319336,934.0550537v11.2338257h-41.263916v-51.395874h40.3078613v11.2338257h-25.916626v8.6643677h22.833313v10.8657227h-22.833313v9.3981323h26.8726807Z"/>
    <path class="st2" d="M903.3083496,925.6105957h-6.6064453v19.6782837h-14.465332v-51.395874h14.465332v19.9699097h6.9745483l12.2615967-19.9698486h15.270813l-16.0786743,24.8171387,16.2268677,26.5786743h-16.3726807l-11.6759644-19.6782837h-.000061Z"/>
    <path class="st2" d="M976.8061523,905.4207764h-15.7130127v39.868042h-14.3171387v-39.868042h-15.784668v-11.527771h45.8148193v11.527771Z"/>
  </g>
  <g id="_Іконка">
    <path class="st2" d="M703.4803467,342.1543579l-.0001831-.0001831c.000061.000061.000061.0001221.0001221.0001831l-.0001831-.0001221c.0001831.0001831.0003052.0003662.0004883.0005493,39.1762695,51.9800415,7.953125,93.1800537-54.3023682,125.3377075-66.8193359,34.5150146-169.3869629,58.6120605-259.0559082,74.4335327-100.2424927,17.6871338-184.3578491,25.0339966-184.3578491,25.0339966l-27.1473389,36.0211182-72.7456665,96.5244751,125.5767517,45.5792847,59.7200126,6.0739786,29.8951302,26.4525107,218.2666626,79.2218018,257.2883301-93.3796387c349.2590942-126.7595215-93.0988159-421.2730713-93.1380005-421.2991943Z"/>
    <path class="st3" d="M390.1222229,541.9260864c89.6690674-15.8214111,192.2366638-39.9185486,259.0559998-74.4335022,62.2557373-32.1578064,93.4790039-73.3580933,54.3018188-125.3383179.0006104.0006104.0010376.0013428.0016479.0019531l-164.1517334-217.7968597-333.5655365,442.6006622s84.1153412-7.3468018,184.3577728-25.0338745l.0000305-.000061Z"/>
    <path class="st0" d="M539.3300171,124.359314l-149.2077637,417.5667114c89.6690674-15.8214111,192.2366943-39.9185486,259.0559692-74.4335022l-109.8482056-343.1332397v.0000305Z"/>
    <path class="st1" d="M481.1090393,743.3466797c38.7549744-10.4848022,77.1959534-22.4694214,114.6819153-37.3862915,18.7411499-7.4328613,37.2660522-15.5286255,55.3041992-24.7576904,18.0404053-9.1981201,35.6676025-19.37146,52.4096069-31.0232544,16.7145996-11.6552124,32.5926514-24.8156738,46.4278564-40.1257324,13.8045654-15.2687378,25.5162964-32.8519897,32.9157715-52.3345947,7.4208984-19.4736328,9.7404175-40.687439,7.6166992-61.0457153-2.0952759-20.4310303-8.4658203-39.9647217-16.999939-58.1352234l-3.3163452-6.7679138c-1.1096191-2.2515259-2.1587524-4.5326538-3.4807129-6.6663513l-7.5353394-12.9893799c-2.6690674-4.2244873-5.5211182-8.3292847-8.2687988-12.4914856-1.4161987-2.0525513-2.7033081-4.1928101-4.2232666-6.1697693l-4.5008545-5.9676514c-11.730835-16.1131897-25.1734009-30.8089905-38.6598511-45.3313904,12.6929932,15.2400208,25.276062,30.5882263,36.0345459,47.1825562l4.133667,6.1425781c1.3967285,2.0337219,2.5545044,4.2208862,3.8423462,6.3218384,2.4893799,4.2555542,5.0804443,8.4474487,7.479126,12.7397461l6.6975708,13.1308594c1.1817627,2.1538391,2.0824585,4.4375,3.0441895,6.6897888l2.8701172,6.7574768c7.3400879,18.0943298,12.3579102,37.1211548,13.2734985,56.2764282.9376831,19.114502-2.2545166,38.2439575-9.9196777,55.5075684-7.6685791,17.2739258-19.1459961,32.6820068-32.6453857,46.0853271-13.520752,13.4293213-29.0163574,24.9506836-45.3909912,35.0969849-16.3974609,10.1438599-33.7064819,18.9343262-51.4539795,26.8063354-17.7390747,7.9022217-36.0097046,14.7403564-54.5046997,20.9416504-36.984314,12.4541626-75.0025024,22.0987549-113.3248901,30.2755737-38.3719482,8.0493774-77.1087036,14.5479126-116.0354919,19.8101807-38.916626,5.3139648-78.0325012,9.3621216-117.1947174,12.510437-2.9779968.2370605-5.958252.4295044-8.9369965.6553345l89.6149902,32.5264893c14.2681274-2.411377,28.520874-4.9195557,42.7381897-7.6489868,39.3604431-7.503479,78.51651-16.2640381,117.3074951-26.6157227h.0001526Z"/>
  </g>
</svg>