<?xml version="1.0" encoding="UTF-8"?>
<svg id="_Шар_1" xmlns="http://www.w3.org/2000/svg" version="1.1" viewBox="0 0 1080 1080">
  <!-- Generator: Adobe Illustrator 30.2.1, SVG Export Plug-In . SVG Version: 2.1.1 Build 1)  -->
  <defs>
    <style>
      .st0 {
        fill: #1f75ff;
      }
    </style>
  </defs>
  <path class="st0" d="M605.7144038,610.1531136h-19.8123203v-117.5962095h20.9648098l-1.1524895,117.5962095Z"/>
  <path class="st0" d="M704.4369293,610.1531136h-19.8123203v-140.766223h20.9648098l-1.1524895,140.766223Z"/>
  <path class="st0" d="M654.6714597,610.1531136h-19.8123203v-95.6625006h20.9648098l-1.1524895,95.6625006Z"/>
  <path d="M220.3254001,469.8456364v19.8148202h-50.9157881v40.3171342h46.7695757v19.8148202h-46.7695757v60.8219482h-19.8135702v-140.7687229h70.7293583Z"/>
  <path d="M256.9588178,590.7995391h50.9157881v19.8148202h-70.7293583v-140.7687229h19.8135702v120.9539027Z"/>
  <path d="M433.6684646,610.6143594h-20.9648098l-16.5885995-47.2295715h-44.0033508l-16.3573516,47.2295715h-20.9660598l48.8420569-140.7687229h21.1960577l48.8420569,140.7687229ZM389.433866,543.5699676l-15.2048621-43.542105-15.206112,43.542105h30.4109741Z"/>
  <path d="M514.540231,539.885001h54.6020046v19.8123203c0,3.9174645-3.2249707,10.8299018-5.067454,13.8248746-11.9798913,21.8873014-35.2509302,36.6321677-61.9756878,36.6321677-38.7046489,0-70.2681125-31.3347157-70.2681125-70.2693625,0-38.9371468,31.5634637-70.4993604,70.2681125-70.4993604,23.2697889,0,43.7733529,11.2898976,56.6757358,28.5672408l-17.5098411,10.137408c-9.2149164-11.5173955-23.2685389-18.6598307-39.1658947-18.6598307-27.6459992,0-50.2245444,22.5772952-50.2245444,50.4545423s22.5785452,50.4545423,50.2245444,50.4545423c19.3523244,0,37.5534093-11.5198955,46.7683257-30.642222h-34.3271886v-19.8123203Z"/>
  <path d="M834.0973319,610.6143594h-20.9648098l-16.5873495-47.2295715h-44.0046008l-16.3573516,47.2295715h-20.9648098l48.8420569-140.7687229h21.1948077l48.8420569,140.7687229ZM789.8627332,543.5699676l-15.2048621-43.542105-15.2048621,43.542105h30.4097241Z"/>
  <path d="M910.589138,469.6156385h19.8148202v140.7687229h-22.8097931l-41.4696238-95.1516368v95.1516368h-19.8123203v-140.7687229h20.9648098l43.3121071,99.5290971v-99.5290971Z"/>
</svg>