<?xml version="1.0" encoding="UTF-8"?>
<svg id="_Шар_1" xmlns="http://www.w3.org/2000/svg" version="1.1" viewBox="0 0 1080 1080">
  <!-- Generator: Adobe Illustrator 30.2.1, SVG Export Plug-In . SVG Version: 2.1.1 Build 1)  -->
  <path d="M616.2703946,578.642129v-26.4246419h-59.4095624l-1.2757951-2.3691749-12.7568388-22.0500106h-14.2139369v61.9600403c0,23.326918,15.8545627,37.5408549,47.3812727,37.5408549h40.2748604v-26.4235296h-38.81665c-8.7481504,0-12.5744234-5.1031804-12.5744234-11.1173253v-11.116213h51.3910734Z"/>
  <path d="M139.6862496,547.6327158h-36.1836658v-75.1315189h97.2563464c31.5842392,0,47.4443307,14.1947818,47.4443307,37.5657594v37.5657594h-36.1723371v-37.5657594c0-5.9815202-3.7611074-11.1303856-12.5294722-11.1303856h-5.551032v48.696145h-36.1836658v-48.696145h-18.0805042v48.696145Z"/>
  <path d="M363.8233275,547.6327158h-76.5249412c-9.0402521,0-15.3049882-.8326548-22.3967148-3.4778915-7.1030552-2.7811803-11.1360499-8.7627005-11.1360499-17.667009,0-14.6139414,11.1360499-21.9832196,33.5327648-21.9832196h40.3526041c0-3.2003399-2.5149574-5.568025-6.955783-5.568025h-61.3558966v-26.4353738h65.9439945c26.2937659,0,38.5400222,10.7168904,38.5400222,26.4353738v48.696145ZM327.6509904,521.197342v-5.5623606h-36.8747126c-2.9227883,0-4.3162106.9742628-4.3162106,2.7811803s1.3934223,2.7811803,4.3162106,2.7811803h36.8747126Z"/>
  <path d="M371.7647019,547.6327158v-26.4353738h71.9255147c2.9227883,0,4.3162106-.9742628,4.3162106-2.7811803s-1.3934223-2.7811803-4.3162106-2.7811803h-39.3670127c-22.4080435,0-33.6687084-7.2389989-33.6687084-21.847276,0-8.9043085,4.0329947-14.8858287,11.1247213-17.667009,7.0917266-2.7811803,13.4924064-3.6194994,22.5439871-3.6194994h75.2674625v26.4353738h-71.8008997c-2.9227883,0-4.4408256.9742628-4.4408256,2.7811803,0,1.8125819,1.5180373,2.7868446,4.4408256,2.7868446h39.3783413c22.4080435,0,33.5327648,7.3692782,33.5327648,21.9832196,0,8.9043085-4.0329947,14.8858287-11.1247213,17.667009-7.1030552,2.6452367-13.3677914,3.4778915-22.4080435,3.4778915h-75.4034062Z"/>
  <path d="M584.3788539,515.9524273c10.3865516-6.3778632,15.489732-16.4006964,15.489732-30.2509149v-13.1216694h-36.0826444v13.1216694c0,6.0130325-4.0098007,11.116213-12.7568388,11.116213h-26.9707757v-76.1750895h-36.2661721v127.0189169h1.2757951c10.2052485,0,16.7666394,1.0933798,24.0554671,3.8273853,4.9207651,1.8219288,8.7470381,5.1020681,10.9349099,9.2942841v-37.5408549h21.5038768l14.0315216,24.4191855h43.008866l-18.2237376-31.7091254Z"/>
  <path d="M449.0587467,595.3618953c2.0844692,3.7554431,5.7096329,5.5623606,11.1247213,5.5623606h61.0840093v26.4353738h-62.466103c-31.5842392,0-47.4443307-14.1891175-47.4443307-37.5657594,0-10.9887776,4.0329947-20.0346941,11.9630404-26.990477,8.0659894-7.0973909,19.8930861-10.5752824,35.4812903-10.5752824h30.3267606c9.0515808,0,15.3049882.8383191,22.3967148,3.6194994,7.0917266,2.6452367,11.1360499,8.6267569,11.1360499,17.5310654,0,14.6082771-11.1360499,21.9832196-33.5327648,21.9832196h-40.0693882ZM460.183468,578.6634847c-5.4150884,0-9.0402521,1.8069176-11.1247213,5.568025h36.5914967c2.9227883,0,4.304882-.9742628,4.304882-2.7868446,0-1.8069176-1.3820937-2.7811803-4.304882-2.7811803h-25.4667754Z"/>
  <path d="M624.720588,578.6634847v-26.4353738h50.0725744v48.696145h13.9115659v26.4353738h-63.9841403v-26.4353738h13.9115659v-22.2607712h-13.9115659ZM638.6321539,523.0115567h36.1610085v23.6541935h-36.1610085v-23.6541935Z"/>
  <path d="M730.9152289,627.3596298h-36.1836658v-75.1315189h64.5505722c31.5842392,0,47.4443307,14.1947818,47.4443307,37.5657594v37.5657594h-36.1610085v-37.5657594c0-5.9815202-3.897051-11.1303856-12.6654159-11.1303856h-26.9848127v48.696145Z"/>
  <path d="M926.6514145,552.2281109v69.4275503c0,23.3709776-15.8600914,37.7017031-47.4443307,37.7017031h-61.0840093v-26.4297095h63.4403658c5.9815202,0,8.9043085-1.8125819,8.9043085-5.568025h-31.153751c-31.5842392,0-47.4443307-14.1891175-47.4443307-37.5657594,0-10.9887776,4.0329947-20.0346941,11.9630404-26.990477,8.0659894-7.0973909,19.8930861-10.5752824,35.4812903-10.5752824h67.3374168ZM890.4677487,600.9242559v-22.2607712h-29.7716574c-16.8343542-.5551032-16.8343542,22.8158744,0,22.2607712h29.7716574Z"/>
  <path d="M937.5269058,596.7496533h38.9705104v30.6099765h-38.9705104v-30.6099765Z"/>
</svg>