<?xml version="1.0" encoding="UTF-8"?>
<svg id="_Шар_1" xmlns="http://www.w3.org/2000/svg" version="1.1" viewBox="0 0 1080 1080">
  <!-- Generator: Adobe Illustrator 30.2.1, SVG Export Plug-In . SVG Version: 2.1.1 Build 1)  -->
  <defs>
    <style>
      .st0 {
        fill: #f6e71b;
      }

      .st1 {
        fill: #3f3f3f;
      }
    </style>
  </defs>
  <polyline class="st0" points="123.7619788 540 531.050434 132.7115448 531.050434 947.2884552 123.7619788 540"/>
  <path class="st1" d="M682.7699499,264.7509644l.0522111,213.9890231h-62.990159c-6.7977901,0-12.8395872-5.7897995-12.8395872-12.335592v-213.9890231h63.1899456c6.5457924,0,12.5875896,5.5378019,12.5875896,12.335592Z"/>
  <g>
    <path class="st1" d="M439.828856,252.4153725h-196.8700857v213.9890231c0,6.5457924,6.0417972,12.335592,12.335592,12.335592h55.6376992v-116.0572073h77.2879845c7.0497877,0,14.3500365,6.2937948,14.3500365,13.342046v90.3795694c0,6.5457924,5.7897995,12.335592,12.335592,12.335592h55.3857015v-195.8620951c0-15.3580271-15.1060295-30.46252-30.46252-30.46252Z"/>
    <path class="st1" d="M802.352051,350.849647c8.3082394,0,16.6149422-8.3067028,16.6149422-16.6149422v-65.9588466c0-8.0562417-8.3067028-15.8604858-16.6149422-15.8604858h-195.3596364v213.9890231c0,6.5457924,6.0417972,12.335592,12.8395872,12.335592h199.1349913v-96.6718276c0-7.8057807-8.3067028-16.1124835-16.6149422-16.1124835h-114.2962969c-2.2649056,0-4.7833455-2.5184399-4.7833455-5.2873408v-9.8186887h119.0796424ZM683.2724086,282.8778924h33.2314209c2.5184399,0,4.7833455,2.012908,4.7833455,4.5313479v25.1751792h-32.9794233c-2.5169033,0-5.0353432-2.0144446-5.0353432-4.7833455v-24.9231815ZM683.2724086,418.3189429h33.2314209c2.5184399,0,4.7833455,2.2664422,4.7833455,4.5328844v25.4256403h-32.9794233c-2.5169033,0-5.0353432-2.012908-5.0353432-4.7833455v-25.1751792Z"/>
    <path class="st1" d="M807.3788174,733.9407041c5.7944797,0,11.5878878-5.7934081,11.5878878-11.5878878v-46.0021891c0-5.618727-5.7934081-11.0617014-11.5878878-11.0617014h-136.2511838v149.2440213c0,4.5652827,4.2137774,8.6033074,8.9548127,8.6033074h138.8842588v-67.4225812c0-5.444046-5.7934081-11.2374541-11.5878878-11.2374541h-79.7145513c-1.5796307,0-3.3360857-1.756455-3.3360857-3.687591v-6.8479241h83.050637ZM724.3281804,686.534637h23.1768472c1.756455,0,3.3360857,1.403878,3.3360857,3.160333v17.5581201h-23.0010945c-1.7553833,0-3.5118384-1.4049497-3.5118384-3.3360857v-17.3823675ZM724.3281804,780.9963375h23.1768472c1.756455,0,3.3360857,1.5807023,3.3360857,3.1614047v17.7328012h-23.0010945c-1.7553833,0-3.5118384-1.403878-3.5118384-3.3360857v-17.5581201Z"/>
    <path class="st1" d="M556.6748742,589.0073953c0,4.5313479,4.0288892,9.0626957,8.560237,9.0626957h47.1102801v43.5541049h-91.4516592c-10.0706863,0-19.889375-9.8186887-19.889375-19.889375v-128.1408016h91.4531958c10.0691497,0,19.8878384,9.8171521,19.8878384,19.8878384v24.4191863h-55.6705171v51.1063513Z"/>
  </g>
  <path class="st1" d="M576.7818923,264.7509644l.0522111,213.9890231h-62.990159c-6.7977901,0-12.8395872-5.7897995-12.8395872-12.335592v-213.9890231h63.1899456c6.5457924,0,12.5875896,5.5378019,12.5875896,12.335592Z"/>
  <path class="st1" d="M450.9059963,493.5940194h-207.947226v128.1408016c0,10.0706863,10.0706863,19.889375,19.889375,19.889375h207.947226v-128.1423382c0-10.0706863-9.8186887-19.8878384-19.889375-19.8878384ZM403.5765365,577.1757987h-89.8755741c-1.7624469,0-3.5233573-1.2599882-3.5233573-3.0224351v-16.3629445h90.3780328c1.7624469,0,3.0208986,1.2584516,3.0208986,3.0208986v16.3644811Z"/>
  <path class="st1" d="M793.4145858,501.6502611v28.1960778h-39.0212204v111.7778571h-70.9941897c-4.0288892,0-8.0562417-3.7768915-8.0562417-8.0562417v-103.7216153h-34.2378749c-4.2808868,0-8.560237-3.7768915-8.560237-8.0562417v-28.1960778h152.3095268c4.2793502,0,8.560237,3.7753549,8.560237,8.0562417Z"/>
  <path class="st1" d="M561.929397,665.2889258h-133.429679v142.7428358c0,7.3002488,7.3017854,15.1044929,14.8540318,15.1044929h32.7274256v-41.7901214h100.7007168v-100.9527144c0-7.3002488-7.3002488-15.1044929-14.8524952-15.1044929ZM530.9628818,734.5206686h-45.8190105c-2.012908,0-3.5233573-1.7624469-3.5233573-3.7768915v-8.8106981h45.5670129c1.7624469,0,3.7753549,1.5104493,3.7753549,3.5233573v9.0642323Z"/>
  <path class="st1" d="M650.2929853,674.0996239v149.0366306h-44.0565636c-4.5313479,0-8.8106981-3.7753549-8.8106981-8.5587004v-149.2886282h44.0565636c4.5313479,0,8.8106981,4.0273526,8.8106981,8.8106981Z"/>
</svg>