<?xml version="1.0" encoding="UTF-8"?>
<svg id="_Шар_1" xmlns="http://www.w3.org/2000/svg" version="1.1" viewBox="0 0 695.2099609 814.5800171">
  <!-- Generator: Adobe Illustrator 30.6.0, SVG Export Plug-In . SVG Version: 2.1.4 Build 75)  -->
  <defs>
    <style>
      .st0 {
        fill: #fff;
      }
    </style>
  </defs>
  <path class="st0" d="M276.7999878,425.0800171h-90.3800049v16.3599854c0,1.7700195,1.7600098,3.0299683,3.5200195,3.0299683h89.8800049v-16.3699951c0-1.7600098-1.2600098-3.0199585-3.0200195-3.0199585Z"/>
  <path class="st0" d="M352.3200073,690.4299927h-32.7300415c-7.5499878,0-14.8499756-7.8099976-14.8499756-15.1099854v-142.7399902h102.5499878v-23.6700439h-10.1599731c-10.0700073,0-19.8900146-9.8099976-19.8900146-19.8899536v-128.1400146h30.0499878v-14.8500366h-17.2099609c-6.7900391,0-12.8400269-5.789978-12.8400269-12.3399658V119.710022h30.0499878V0l-119.7099609,119.710022h28.4899902c15.3599854,0,30.4599609,15.0999756,30.4599609,30.4599609v195.8599854h-55.3800049c-6.5499878,0-12.3399658-5.789978-12.3399658-12.3399658v-90.3699951c0-7.0499878-7.2999878-13.3500366-14.3500366-13.3500366h-77.289978v116.0599976h-55.6400146c-6.289978,0-12.3299561-5.789978-12.3299561-12.3399658v-45.6000366L0,407.289978l407.289978,407.2900391v-165.9400024h-54.9699707v41.789978ZM119.2000122,489.0299683v-128.1499634h207.9499512c10.0700073,0,19.8900146,9.8200073,19.8900146,19.8900146v128.1399536h-207.9500122c-9.8199463,0-19.8899536-9.8099976-19.8899536-19.8800049Z"/>
  <path class="st0" d="M403.4299927,589.2199707h-45.5700073v8.8099976c0,2.0200195,1.5100098,3.7800293,3.5200195,3.7800293h45.8200073v-9.0599976c0-2.0200195-2.0100098-3.5300293-3.7700195-3.5300293Z"/>
  <polygon class="st0" points="119.2000122 119.710022 119.2000122 288.0899658 287.5800171 119.710022 119.2000122 119.710022"/>
  <path class="st0" d="M678.5899658,218.1400146c8.3099976,0,16.6199951-8.3099976,16.6199951-16.6199951v-65.9500122c0-8.0599976-8.3099976-15.8599854-16.6199951-15.8599854h-132.0813599c-.0289307-.0002441-.057373-.0045166-.0863037-.0045166h-63.1899414v.0045166h-.0023804v213.9799805c0,6.1411743,5.3095703,11.6141357,11.5769043,12.2733765.4178467.0440674.8400269.0667725,1.2650757.0667725h62.9901733v-.0001831h136.1478271v-96.6699829c0-7.8099976-8.3099976-16.1099854-16.6199951-16.1099854h-114.289978c-2.2700195,0-4.789978-2.5200195-4.789978-5.289978v-9.8200073h119.0799561ZM559.5100098,150.1699829h33.2299805c2.5200195,0,4.789978,2.0100098,4.789978,4.5300293v25.1699829h-32.9799805c-2.5200195,0-5.039978-2.0100098-5.039978-4.7800293v-24.9199829ZM592.7399902,285.6099854c2.5200195,0,4.789978,2.2700195,4.789978,4.5300293v25.4299927h-32.9799805c-2.5200195,0-5.039978-2.0200195-5.039978-4.7900391v-25.1699829h33.2299805Z"/>
  <path class="st0" d="M683.6199951,532.5800171h-136.25v149.2399902c0,4.5700073,4.210022,8.6099854,8.9500122,8.6099854h138.8899536v-67.4299927c0-5.4400024-5.7999878-11.2299805-11.5899658-11.2299805h-79.7200317c-1.5799561,0-3.3299561-1.7600098-3.3299561-3.6900024v-6.8500366h83.0499878c5.789978,0,11.5899658-5.789978,11.5899658-11.5899658v-46c0-5.6199951-5.7999878-11.0599976-11.5899658-11.0599976ZM623.75,648.289978c1.75,0,3.3300171,1.5800171,3.3300171,3.1600342v17.7299805h-23c-1.7600098,0-3.5100098-1.4000244-3.5100098-3.3400269v-17.5499878h23.1799927ZM627.0800171,574.539978h-23c-1.7600098,0-3.5100098-1.3999634-3.5100098-3.3299561v-17.3900146h23.1799927c1.75,0,3.3300171,1.4099731,3.3300171,3.1699829v17.5499878Z"/>
  <path class="st0" d="M488.5899658,508.9099731v-43.5499878h-47.1099854c-4.539978,0-8.5700073-4.5299683-8.5700073-9.0599976v-51.1099854h55.6799927v-24.4199829c0-10.0700073-9.8199463-19.8900146-19.8899536-19.8900146h-61.4100342v148.0299683h81.2999878Z"/>
  <path class="st0" d="M453.0700073,346.0299683l-.0499878-213.9899902c0-6.7999878-6.0400391-12.3299561-12.5900269-12.3299561h-33.1400146v226.3199463h45.7800293Z"/>
  <path class="st0" d="M559.6391602,508.9143677h70.9942017v-111.777832h39.0212402v-28.1960449c0-4.2808838-4.2808838-8.0562134-8.5602417-8.0562134h-152.3095093v28.1960449c0,4.2792969,4.2793579,8.0562134,8.5602417,8.0562134h34.237854v103.7216187c0,4.2792969,4.0273438,8.0562134,8.0562134,8.0562134Z"/>
  <path class="st0" d="M438.1699829,532.5800171h-30.8800049v116.0599976h45.7300415v-100.960022c0-7.2999878-7.3000488-15.0999756-14.8500366-15.0999756Z"/>
  <path class="st0" d="M517.72229,532.5790405h-44.0565796v149.2886353c0,4.7833862,4.2792969,8.5587158,8.8106689,8.5587158h44.0565796v-149.0366821c0-4.7833252-4.2792969-8.8106689-8.8106689-8.8106689Z"/>
</svg>