<?xml version="1.0" encoding="UTF-8"?>
<svg id="_Шар_1" data-name="Шар_1" xmlns="http://www.w3.org/2000/svg" version="1.1" viewBox="0 0 1080 1080">
  <!-- Generator: Adobe Illustrator 30.2.1, SVG Export Plug-In . SVG Version: 2.1.1 Build 1)  -->
  <g>
    <path d="M131.1080041,607.5457873l36.335622-86.7794645c1.6839506-3.8999699,3.5489913-5.2422765,7.8652816-6.1589281,10.2735924-2.1021379,21.7812106-3.838362,33.9553149-4.7186089,28.7093046-2.0732009,54.5995788,4.9687745,56.6083713,32.7744958,2.1824149,30.2121652-25.873472,68.5005725-85.0917801,72.7776578-15.0304728,1.0865402-34.2913582,2.1740139-45.4479979.4116531-5.1862692-.6823547-6.1215899-3.1830774-4.2248118-8.3068052ZM219.6796999,576.6718034c7.6804577-8.7128576,11.8287264-18.229419,11.1230353-27.9989463-1.0323999-14.2781091-12.5362843-18.7353509-25.3096659-17.8121651-2.1058717.1512195-6.30268.6058115-10.0271606,1.3283047l-25.4832883,61.3689856c4.8539597.2538994,9.3849444.2286962,12.2413129.0224029,15.0286059-1.0856068,29.7753088-8.1947908,37.4557666-16.9085819Z"/>
    <path d="M257.2810852,588.4603913c-.9782596-13.5266788,6.0207769-29.5942188,16.3186391-41.8215299,16.1636857-18.844565,37.3624212-26.570762,62.4629935-28.3844627,10.6712437-.7710328,24.2007228.3668473,35.1109307,2.9030413,3.5321891.8027703,4.6411322,3.5928636,3.0859982,7.18106l-20.2634148,47.8479075c-2.1861488,5.2936164-.3267088,8.0305029,3.5807287,7.7476664,3.6087323-.2604336,4.928636,1.3068353,3.6666065,4.7204758l-2.7966275,7.3042759c-1.5215297,4.0390545-3.4108401,5.0807889-7.41349,6.1262572-3.4145739.8494429-9.5548329,1.596206-13.1616984,1.857573-10.0700994.7271605-18.5458598-3.6470039-18.6392052-13.311051l-.3005721.0224029c-9.3868113,10.1961157-23.7246614,16.6714846-35.6000604,17.5293286-17.4331829,1.2592292-25.1939176-7.8494129-26.0508282-19.722945ZM334.1454037,550.2737304l4.3947004-10.2903945c-3.3510991-.3621801-7.452695-.6702198-11.3601326-.3873833-11.7241795.8466426-20.3735623,6.6079193-26.2300513,13.3782596-5.4383017,6.2840109-10.3800061,15.2526348-9.8479374,22.6175852.3584463,4.9603734,3.838362,7.1259862,8.948088,6.7563385,13.8281844-.9987955,28.1492323-18.198615,34.0953329-32.0744055Z"/>
    <path d="M364.6992129,575.5628603l22.277808-53.4318281c2.0685336-4.8324902,3.6572719-5.8536887,7.5665764-6.1365252l20.4389041-1.4757904c3.9093044-.2828365,5.412165,1.7240891,3.3436315,6.5575128l-21.773743,52.0363147c-2.1861488,5.2936164-.3267088,8.0295695,3.5807287,7.7476664,3.6087323-.2604336,4.9305029,1.3068353,3.6666065,4.7204758l-2.7966275,7.3042759c-1.5215297,4.0381211-3.4108401,5.0807889-7.4153569,6.1262572-3.412707.8494429-9.552966,1.596206-13.1598315,1.8566396-13.3782596.9661247-23.3270101-7.07838-15.7286963-25.3049986ZM395.8186952,502.3044738c-.5750075-7.9660946,6.9766336-16.3681121,18.5495936-17.2044867,8.4178862-.6076784,13.0702199,3.1354713,13.471605,8.6979224.5750075,7.9651611-6.9766336,16.3681121-18.5495936,17.2044867-8.4178862.6076784-13.0702199-3.1364047-13.471605-8.6979224Z"/>
    <path d="M407.3319142,598.4716831c-4.3797652.0130684-5.9927733-1.3815116-5.7500753-6.3848239l.4107197-8.9434207c.18109-3.7907558,1.3815116-5.9918398,5.6231256-5.8452876s10.2959952.3136405,16.158085-.1101475c11.1230353-.8027703,15.0715448-2.5987353,14.7243-7.4088227-.6198133-8.5672388-21.0419152-11.0203554-22.2796749-28.1548331-1.3572418-18.7876243,18.1948812-30.4744657,45.5506778-32.4505874,4.3592292-.3145739,9.028365-.5003312,13.7105692-.5358025,4.3797652-.0158687,5.9927733,1.3796447,5.7482084,6.3820235l-.4107197,8.9443542c-.1792231,3.7907558-1.3703102,6.1421259-5.6231256,5.8452876-4.2397471-.1465522-10.2941283-.3136405-14.6533575.0018669-8.5672388.6179464-11.7017766,3.2614875-11.472147,6.4174948.5955435,8.2666667,20.7618791,11.3433304,22.0444446,29.0789523,1.4431196,19.9908463-19.0984644,30.5398075-48.2558268,32.6456792-4.3592292.3155074-10.8448661.4807287-15.5252033.5180669Z"/>
    <path d="M479.7735286,619.6788196c-4.3816321.0130684-5.9927733-1.3805781-5.7500753-6.3848239l.4107197-8.9434207c.1792231-3.7888889,1.3796447-5.9909064,5.6212587-5.8452876,4.241614.1465522,10.2978622.3136405,14.9576634-.0233363,22.2442037-1.606474,31.5451372-8.775399,35.3928337-18.2695575l2.5501957-6.5285758-.4517916.0317374c-9.2785306,7.4685637-21.4283651,14.9950016-38.7121954,16.2430293-12.0247517.8690455-20.479976-5.3188197-21.2939477-16.592141-.3043059-4.2089431.6814213-9.4166818,3.2409515-15.7959049l17.8737731-43.2926531c2.1973502-5.1461307,3.6666065-5.7043361,7.5759109-5.9862391l20.2895515-1.4664559c3.9074375-.281903,5.5633846,1.7128877,3.494851,6.5472448l-16.1058116,38.4816323c-3.3436315,8.0967781-1.3759109,12.3365252,4.4861789,11.9127372,14.1287565-1.020265,31.8587777-21.1866005,41.548028-43.9451373l4.2640169-9.976754c2.1973502-5.1451973,3.4967179-5.9946402,7.4041554-6.2765432l20.440771-1.4767239c2.5539296-.1848238,4.1239988.6086119,4.2640169,2.5623306.0765432,1.0520024-.2875038,2.2869618-.9185185,3.9951822l-29.62969,70.88368c-10.0532973,23.9934961-31.9110511,37.2065344-65.4295096,39.6279135-4.3573623.3145739-10.8429992.4816622-15.5233364.5180669Z"/>
    <path d="M652.8833618,494.7980042v1.9117126c9.4306641,0,17.5133057,1.9807129,23.3742065,5.7280273,6.4849854,4.1462708,10.0651855,10.2944946,10.6412354,18.2741089.979126,13.5479126-5.4035645,28.1030884-17.5114136,39.9334106-13.1773071,12.8751831-31.404541,20.7582397-51.3242188,22.1969604-1.708252.1234741-3.4139404.1860352-5.0697021.1860352-9.4309692,0-17.5134277-1.9803467-23.3736572-5.7268677-6.4846191-4.145752-10.0650635-10.2941284-10.6419067-18.274231-1.9418945-26.8953247,25.8502197-59.0265503,68.8355713-62.1314392,1.7078247-.1234131,3.4133301-.1859741,5.0692139-.1860046l.0006714-1.9117126M623.2955933,565.6702271c.7318726,0,1.5006104-.0287476,2.2849121-.0853882,8.2910767-.598938,16.8193359-5.7967529,23.3978882-14.2606812,5.9696045-7.680542,9.3629761-16.8117065,8.8557739-23.8302612-.6357422-8.7834473-5.909668-13.4261475-15.2515869-13.4261475-.7317505,0-1.5003662.0287476-2.2844849.0853882-19.2214966,1.3886108-33.2677002,24.0422363-32.2537231,38.0905762.6339111,8.7836914,5.9077148,13.4265137,15.2512207,13.4265137M652.8826294,494.7980042c-1.7179565,0-3.4573975.0645752-5.2069092.190979-43.8872681,3.1700134-72.6339111,36.0696106-70.6045532,64.1758728,1.3222046,18.2924194,17.4207153,25.7751465,35.9223022,25.7751465,1.7178345,0,3.4581909-.0646362,5.2075195-.19104,43.8891602-3.1699829,72.6358032-36.0686646,70.6045532-64.1749268-1.3204956-18.2915649-17.4199219-25.7762451-35.9229126-25.7760315h0ZM623.2955933,563.7584839c-8.020874,0-12.7652588-3.6270752-13.3444824-11.6524048-.9763794-13.5275879,12.9003296-34.7758179,30.4847412-36.0462036.7398682-.0534668,1.4550171-.0803833,2.1467896-.0803833,8.0193481,0,12.763916,3.6271362,13.3447876,11.6524048.9558716,13.2269897-13.3502197,34.8084717-30.4846802,36.0462036-.7400513.0534668-1.4553223.0803833-2.1471558.0803833h0Z"/>
    <path d="M810.1150513,460.7171021c1.6808472,0,1.7154541.4775391,1.7282715.6544495.0372314.524292-.0004272,1.4126282-.753418,3.0669861l-.0113525.0249329-.0106201.025238-33.7923584,80.263855c-1.7445068,4.2242432-1.0375977,6.71521-.1373291,8.0609741,1.0128174,1.5140991,2.7699585,2.3479614,4.9476318,2.3479614.218811,0,.442688-.0081177.6731567-.0247803.2088013-.0150757.4086304-.0228882.5985107-.0228882,1.0192261,0,1.3867798.2286987,1.4293823.289978.0686646.0986328.1624756.65625-.2842407,1.8630981l-2.8005371,7.3144531c-1.2164917,3.2327271-2.4605103,3.9978638-6.0859985,4.944519-3.1110229.774292-8.9692993,1.5258179-12.8358765,1.8049927-.6645508.0480347-1.3270874.0723877-1.9692383.0723877-8.8023071,0-14.0990601-4.309082-14.1687622-11.5268555l-.0196533-2.0386353-2.0331421.1505737-.3024292.0223999-.7081909.0524292-.5021973.5020142c-9.9290161,9.9255371-23.2836914,16.1717529-36.6397095,17.137085-1.0221558.0738525-2.0294189.1113281-2.9938965.1113281-12.6109009,0-20.0195312-6.4196777-20.861145-18.0766602-.8967285-12.399231,5.2403564-27.838501,16.0162964-40.2927246,14.3690796-16.6065369,32.7160645-25.8255615,54.531189-27.4009705,1.6715088-.120697,3.536438-.1819153,5.5430298-.1819153,4.2750854,0,9.1991577.2839355,13.171875.759552l1.4282227.17099.5599365-1.3249817,9.4155884-22.2792969c2.0064697-4.6963501,2.8087158-4.7544556,5.7931519-4.9706116l20.4432983-1.4757996c.2193604-.0158997.4296265-.0240784.6305542-.0240784M722.4065552,553.7134399c.3818359,0,.7766113-.0145264,1.1735229-.0431519,15.5336914-1.1220093,31.6830444-20.0876465,37.369873-33.3500977l4.3927612-10.2904053.9950562-2.3309021-2.5145264-.3164062c-2.194519-.2761536-4.5935059-.5457764-7.6578979-.5457764-1.3660889,0-2.7496338.0519104-4.2299194.1586914-14.5671387,1.0523682-23.6685181,8.2599792-28.7384644,14.1209412-5.6020508,6.4749756-11.0055542,16.4588623-10.4489136,24.1676636.3814087,5.2782593,3.9920654,8.4294434,9.6585083,8.4294434M810.1150513,458.8053894c-.2449341,0-.5014038.0097046-.7688599.0290833l-20.442627,1.475769c-3.9055786.2828369-5.2161255.9829407-7.4135132,6.1262817l-9.4185181,22.2861938c-3.3984985-.4068604-8.4341431-.7731018-13.3991089-.7731018-1.9381104,0-3.8660889.0558472-5.6807251.1868896-21.0437622,1.5196838-40.3606567,10.1681213-55.8391724,28.0568542-10.4584351,12.0872803-17.4556274,28.1547852-16.477356,41.6814575.8138428,11.2723999,7.6720581,19.8504639,22.7678833,19.8504639,1.0063477,0,2.0514526-.038208,3.1317139-.116272,13.677002-.9885254,27.4267578-7.2687988,37.8534546-17.6917725l.3024292-.0223999c.086731,8.9798584,7.0198364,13.420166,16.0803223,13.420166.6903687,0,1.394165-.0258179,2.1071167-.0773926,3.6068115-.260437,9.7470703-1.0072021,13.15979-1.8566284,4.0045166-1.0454712,5.8938599-2.0881348,7.4135132-6.1262817l2.7966309-7.3042603c1.1739502-3.1707153.1177368-4.748291-2.930481-4.748291-.2335205,0-.4793091.0092773-.736145.027832-.1832886.0132446-.3614502.0197754-.5355225.0197754-3.5350342,0-5.1268921-2.72229-3.043335-7.7674561l33.7872925-80.2518005c.7822266-1.7185059.9950562-2.9422607.9204102-3.9942627-.1177368-1.6251221-1.402771-2.4308472-3.6351929-2.4308472h0ZM722.4065552,551.8017578c-4.2868652,0-7.4195557-2.0581665-7.75177-6.6555176-.520874-7.2136841,4.8296509-16.8170776,9.987915-22.7790527,5.8565063-6.7703247,14.8064575-12.5530701,27.430481-13.4650574,1.5043945-.1085205,2.8555908-.153717,4.0921631-.153717,2.9650879,0,5.2678223.2601013,7.4191895.5308228l-4.3928223,10.2904053c-5.9498291,13.8757935-21.9212036,31.1950684-35.7493896,32.1939087-.3520508.0253906-.6972656.038208-1.0357666.038208h0Z"/>
    <path d="M841.2620239,456.2355652h-.000061c5.9197998.0003357,9.4997559,2.5471191,9.8201904,6.9874878.4837036,6.7006836-6.1437378,14.3913574-16.7807617,15.1600952-.5483398.0396423-1.0891724.0597229-1.6073608.0597229-5.9188232,0-9.4972534-2.5468445-9.817749-6.9880066-.2449951-3.3832092,1.2675171-6.9454041,4.1497803-9.7732239,3.1743164-3.1143494,7.6594238-5.0273132,12.6288452-5.3864746.5476074-.0395203,1.0883179-.0595703,1.6071167-.0596008M840.8228149,485.6920166c.9471436,0,1.4185181.2029114,1.5438843.3927917.0534668.0810242.489502.8681946-.6532593,3.5409546l-21.7792969,52.0451965c-1.7435913,4.2261963-1.036499,6.7167969-.1362915,8.0619507,1.0125732,1.5131226,2.7693481,2.3464355,4.9467163,2.3464355.2194214,0,.4442749-.0081787.6752319-.0249023.2086792-.0150757.4083862-.0228271.5985718-.0228271,1.0177002,0,1.3847046.2283936,1.4273071.2895508.0687256.0987549.1626587.6568604-.2843018,1.8647461l-2.7979736,7.3119507c-1.2197876,3.2340698-2.463623,3.9993286-6.086853,4.9458008-3.1116943.7749634-8.9716187,1.5267944-12.8392944,1.8059082-.6661987.0481567-1.3303833.0725098-1.9741211.0725098-5.763855,0-10.2001953-1.8934326-12.4917603-5.331543-2.6619873-3.9938965-2.4402466-10.0119629.6412964-17.4035645l22.270874-53.4152527c1.8130493-4.2358093,2.8069458-4.7549133,5.9449463-4.9820251l20.4425049-1.4767151c.1911621-.0137939.3752441-.0209656.5518188-.0209656M841.2609863,454.3238525c-.5617065.0000305-1.1436157.0212402-1.7437134.0645752-11.572937.8363647-19.1245728,9.2384033-18.5477295,17.2044983.3727417,5.1646729,4.4087524,8.7616577,11.7244873,8.7616577.5620728,0,1.1445923-.0212708,1.7452393-.0646973,11.572998-.8363647,19.1246338-9.2393188,18.5496216-17.2044678-.3727417-5.1659241-4.4110718-8.7618713-11.7279053-8.7615662h0ZM840.8228149,483.780304c-.2206421,0-.4506226.008667-.6894531.0259094l-20.442627,1.4767456c-3.9074707.2828064-5.4962158,1.3040161-7.5646973,6.1365051l-22.277832,53.4318542c-7.1925049,17.2522583,1.3389893,25.3825073,13.6149292,25.3825073.6925659,0,1.397583-.0259399,2.1118774-.0775146,3.6087646-.260437,9.7490234-1.0072021,13.1635742-1.857605,4.0026855-1.0454712,5.8901367-2.0871582,7.4135132-6.1262207l2.7947388-7.3033447c1.1739502-3.1716309.1177368-4.7494507-2.9289551-4.7492676-.2334595,0-.4790649.0092773-.7357788.027832-.18396.0133057-.362915.0198975-.5375366.0198975-3.5369873,0-5.1246948-2.722168-3.0432129-7.7675781l21.7756348-52.0362854c1.9402466-4.5378418.7327271-6.5834351-2.6541748-6.5834351h0Z"/>
    <path d="M944.9633179,460.7171021c1.4880981,0,1.9298096.4424744,2.0748901.5878601.5739136.5749512.8510742,1.856842.8473511,3.9054565l-.7766724,87.558197c.0075073,2.5238647-.7232056,3.8584595-4.737793,4.1484985l-19.5411987,1.411377c-.1802979.0130615-.3563232.0197144-.5279541.0197144-.7519531,0-1.7706299-.1295776-2.3535156-.7468262-.428833-.4541626-.6181641-1.1765747-.5612793-2.1721802l.5152588-11.671936.0947266-2.145752-2.142334.1547241-48.0952759,3.4743042-.9767456.0705566-.5134277.8339233-.0849609.1380005c-2.3717041,3.8522339-4.8241577,7.8355713-7.085083,11.7431641-2.5977173,4.4154053-3.2937012,4.9997559-6.2058716,5.2104492l-24.6491699,1.7800903c-.0977783.0070801-.1938477.0106812-.2874146.0106812-.4533081,0-1.2651367-.0901489-1.6088867-.6937256-.3616943-.6350098-.171814-1.7283936.4935913-2.8502197,19.5906982-32.8826904,51.9990234-72.071991,78.8143921-95.3040161,2.6645508-2.3188171,4.0289917-3.0795288,7.371582-3.3214722l29.3087769-2.1170654c.2184448-.0158081.4274902-.0238037.6270142-.0238037M880.0761108,527.932312l3.9737549-.2870483,35.0213013-2.5296631,1.6923828-.1222534.0795288-1.6948242,1.9639893-41.8420715.1010132-2.1517029-2.1484375.1553345-.4517822.0326538-.7006226.0506592-.5010986.492157c-12.3185425,12.0985107-24.6889038,27.1099548-36.7675171,44.6173401l-2.2625122,3.2794189M944.9626465,458.8053894c-.2427368,0-.4978027.009491-.7642822.0287781l-29.3085938,2.1170654c-3.9074707.2828369-5.6473999,1.313385-8.4888306,3.7861023-27.5854492,23.899231-60.2021484,63.8771667-79.2017212,95.7676697-2.0679932,3.4864502-.5585938,6.4341431,2.7576294,6.4341431.1384888,0,.2807617-.005188.4254761-.015686l24.6488037-1.7800903c3.9093018-.2828369,5.0238037-1.5719604,7.7158813-6.1477661,2.2813721-3.9428711,4.7158203-7.894165,7.1502686-11.8483276l48.0952759-3.4743042-.5152588,11.671936c-.1866455,3.2579346,1.7513428,4.914978,4.824646,4.914978.2164307,0,.4385986-.0081787.6659546-.0246582l19.5408936-1.411377c4.0567627-.2930908,6.5248413-1.6801758,6.5117798-6.0609131l.7766113-87.535553c.0070801-3.8459167-.8331909-6.4223022-4.8345337-6.4219971h0ZM920.8974609,481.3668213l-1.9639893,41.842041-35.0213013,2.5296631c11.0800781-16.0600586,23.4147339-31.4545898,36.5335083-44.3390503l.4517822-.0326538h0Z"/>
  </g>
  <path d="M407.6889331,783.6706547c-66.0996392-23.5749769-120.7598291-71.197432-153.4615338-132.3234372l73.3859949,34.6662355c18.9993186,38.3466762,46.5284013,71.7197182,80.0755388,97.6572017Z"/>
  <path d="M674.2010721,296.354086c-29.5433985-10.5689724-61.3995186-16.3135137-94.5735728-16.3135137-125.5346271,0-231.8460552,82.2637982-267.9794278,195.8368414l-78.9564408-37.277363c34.4921401-116.2339556,142.0967617-200.9845708,269.5212422-200.9845708,64.7815534,0,124.4402697,21.908852,171.9881992,58.7386062Z"/>
  <path d="M684.7387695,302.4150391c29.7943115,12.0883179,57.0793457,29.1487732,81.2459106,50.8183594,25.6401978,22.9910278,46.5418091,50.0613708,62.1884766,80.5287781l-68.2182617-32.2026062c-17.3377075-38.0641785-43.2001953-72.1111755-75.2161255-99.1445312M674.2010498,296.3540955c36.1335449,27.9517822,65.2540894,64.5329285,84.3031616,106.6347046l73.8585205,34.8650818c-32.0551147-65.5275574-88.8291626-116.7559509-158.1616821-141.4997864h0Z"/>
  <path d="M769.3101807,612.8268433l75.6589355,35.7006226c-8.9345093,27.1687622-21.9844971,52.7364502-38.8044434,76.0223389-16.9348145,23.4449463-37.3103638,44.0584717-60.5604858,61.2679443-23.5198975,17.4091187-49.4535522,30.9369507-77.0804443,40.2076416-28.5682983,9.5866089-58.4772949,14.4474487-88.8962402,14.4474487-31.4784546,0-62.3686523-5.1976929-91.8127136-15.4487915-24.7009583-8.5997314-47.9734497-20.598999-69.3387451-35.7384644,27.0042114,8.3720093,55.1172791,12.6102905,83.7367859,12.6102905,120.222229,0,227.2852783-75.8833618,267.0973511-189.0690308M768.2026978,610.1904297c-37.9239502,110.4394531-142.6935425,189.7937622-265.9898682,189.7937622-33.1741638,0-64.9805298-5.7445679-94.5238647-16.3135376,47.5229797,36.8049927,107.1567993,58.7138672,171.9385376,58.7138672,125.161377,0,231.2490845-81.7914429,267.6808472-194.8671265l-79.1056519-37.3269653h0Z"/>
</svg>