<?xml version="1.0" encoding="UTF-8"?>
<svg id="_Шар_1" xmlns="http://www.w3.org/2000/svg" version="1.1" viewBox="0 0 1080 1080">
  <!-- Generator: Adobe Illustrator 30.2.1, SVG Export Plug-In . SVG Version: 2.1.1 Build 1)  -->
  <defs>
    <style>
      .st0 {
        fill: #f5881a;
      }

      .st1 {
        fill: #fff;
      }

      .st2 {
        fill: #cc6900;
      }

      .st3 {
        fill: #4c4c4c;
      }

      .st4 {
        fill: #cf6a00;
      }

      .st5 {
        fill: #ffc300;
      }
    </style>
  </defs>
  <g id="document">
    <path class="st4" d="M326.7631403,842.3877163c1.1647174.0030461,2.1089749-.9412113,2.1089749-2.1059288,0-1.1653155-.9418093-2.1095729-2.1089749-2.1095729h-36.1514094v-98.4157559h61.0733167c1.1647174,0,2.1089749-.9442761,2.1089749-2.1095916,0-1.1647174-.9411926-2.1089749-2.1089749-2.1089749h-63.1822916c-1.1646988,0-2.1089749.9442574-2.1089749,2.1089749v201.3280781c0,1.1647361.9442761,2.1089936,2.1089749,2.1089936,1.1647174,0,2.1089749-.9442574,2.1089749-2.1089936v-96.5841829l36.1514094-.0030461ZM456.5820427,945.1916679c1.1408344.0054942,2.0795883-.9087506,2.1065268-2.0575647.3282233-15.509271-2.811356-34.2065321-8.4040554-50.0195548-4.3930825-12.42298-12.1921296-28.4380926-25.0113098-37.4771596,5.426135-1.8860854,10.2662485-4.7482723,14.392955-8.5442887,11.7481634-10.803906,17.7070597-28.6965076,17.7070597-53.1909874,0-20.6690488-5.5369817-36.0595588-16.4535565-45.7391504-18.8044076-16.6684943-48.7734052-13.0524974-68.6004562-10.6587765l-2.284117.2749537c-1.0600097.1261427-1.8591376,1.0244842-1.8591376,2.0924362v203.2110987c0,1.1646988.9418093,2.1089936,2.1095916,2.1089936,1.1647174,0,2.1089749-.9442948,2.1089749-2.1089936v-91.1819122c5.3293882,2.135904,14.8767262,4.898896,30.4613278,6.211789,6.0391137.5082709,11.7291859.1800383,16.9697791-.9528164,24.5802101,13.9869251,35.2120482,59.3409198,34.6474429,85.8800698-.0244904,1.1647361.8983415,2.1279804,2.0630496,2.1518634h.0459253ZM372.3945181,847.3300988v-105.5883785l.4329404-.0514288c19.0793706-2.3024871,47.9099819-5.7868283,65.29677,9.6281627,9.9784376,8.8431254,15.035937,23.171159,15.035937,42.5836584,0,23.2624115-5.4990081,40.1164383-16.3433265,50.0863076-8.3097568,7.6429011-19.9262646,11.0813078-33.6058126,9.9269994-16.8920004-1.4200489-26.2672798-4.5357545-30.8165082-6.5853209ZM508.0270658,856.2105438c6.2036552,0,13.2573952-.5786866,20.4510555-2.3190071l16.3699659,87.6039076c.2124897,1.1432825,1.3020658,1.90197,2.4588783,1.6839955,1.1433409-.2149471,1.8992405-1.3153598,1.6840562-2.4586424l-16.7735127-89.7618632-.0215564-.1126875-21.2473055-113.6941765c-.1856073-.998153-1.0572439-1.7189043-2.0688054-1.7189043-1.0115008,0-1.8831374.7207513-2.0714357,1.7164562l-38.5155475,203.5687086c-.2180026,1.1432825.5352,2.246162,1.6784826,2.464174.1316556.0269478.2633112.0373382.3955835.0373382.9926401,0,1.8775077-.7048293,2.0685625-1.7164375l16.480495-87.1035977c3.391874.6754147,10.4162789,1.813203,19.1137796,1.813203l-.0026957-.0024668ZM489.6985805,850.2461439l19.1678527-101.2975276,18.834231,100.7941529c-16.4399588,4.01956-32.5489962,1.5658138-38.0020837.5033747h0ZM565.3260076,942.9699869c1.1648632,0,2.1091314-.9442574,2.1091314-2.1095542v-191.965712l74.8340457,192.57927c.3655802.9467242,1.3527074,1.4929687,2.3539159,1.3073988.9950882-.1879993,1.7189043-1.0569449,1.7189043-2.0716179v-203.5711753c0-1.1646988-.9418093-2.1089749-2.1089749-2.1089749-1.1653248,0-2.1095869.9442761-2.1095869,2.1089749v192.3263867l-74.8335749-192.5792887c-.365874-.9467055-1.3531803-1.4959962-2.353944-1.3073988-.995376.1879993-1.7190469,1.0569449-1.7190469,2.0716366v203.2105007c0,1.1652968.9415738,2.1095542,2.1091301,2.1095542h0ZM702.8470971,942.6870909c36.8776642,0,39.9658053-42.5591587,39.9658053-82.4496615,0-1.1646988-.9411926-2.1089562-2.1089749-2.1089562h-21.6427114c-1.1647081,0-2.1089749.9442574-2.1089749,2.1089562,0,1.1647361.941202,2.1089936,2.1089749,2.1089936l19.5337366.0030648c-.1102207,37.2273037-3.3710558,76.1251476-35.7503037,76.1251476-31.8899825,0-38.2983485-36.7404864-38.2983485-96.0195682,0-71.1938096,12.5258657-105.8032882,38.2983485-105.8032882,33.0197724,0,33.9744576,43.8800128,33.9744576,48.8811871,0,1.1646988.9418093,2.1089749,2.1095916,2.1089749,1.1646988,0,2.1089749-.9442761,2.1089749-2.1089749,0-5.4341147-1.0734836-53.0997535-38.1905759-53.0997535-38.1042289,0-42.5132334,62.7897542-42.5132334,110.0194065,0,50.7182544,3.2847088,100.2344718,42.5132334,100.2344718h0ZM799.1544856,734.8355112c-16.1412365,0-46.8150634,10.7071405-46.8150634,103.4016063,0,92.693849,24.8710765,104.3777264,48.9105643,104.3777264,24.0395065,0,43.9363752-23.3671193,43.9363752-102.9331591,0-74.2770732-18.8368777-104.8461736-46.0318762-104.8461736h0ZM799.1544856,739.0620386c26.9586351,0,41.8029006,35.7313075,41.8029006,100.6165814,0,65.4933377-13.3592951,98.7017167-39.7049329,98.7017167-9.9239533,0-21.2361115-1.837684-29.9016467-15.468868-9.8057529-15.428465-14.7799608-43.9179864-14.7799608-84.6798642,0-63.9520236,15.1247134-99.172014,42.5836397-99.172014v.0024481Z"/>
    <g>
      <path class="st5" d="M235.0956068,366.5052835c-16.2612683-9.3881179-37.2077189-3.8885024-46.6730174,12.5056549-8.0029404,13.8620345-5.7445565,26.7963502,0,39.7282085-16.1008148.9167022-25.1631669,3.8560417-33.2432879,17.8509651-9.3881179,16.2612683-3.8884837,37.2078497,12.5056549,46.6730034,8.1303538,4.6940636,18.3953783,7.8143524,26.8049279,5.5609815.8407643-.2252862,3.116939,29.8260721,27.4375101,29.8260721,12.1602669,0,16.8233975,1.0100303,35.8078528-3.4723378,3.5131205-.8294442,9.0476448,21.8143002,15.4462184,45.5441782,6.3985736,23.7298239,13.6611779,48.5456079,28.1778275,42.2933924,16.7358638-7.2087227,32.6872883-42.7647269,45.8395973-58.2951455,13.1529257-15.5303944,27.5543471-18.8675115,52.724877-7.8324298,17.9930205,7.8883865,51.7478116,26.2993362,76.8469477,36.6324962l-128.0583714-281.4626737c-9.7132857,21.240391-58.6560144,97.9506983-84.9067554,94.4559479h-11.8449102c-2.3300329-8.276072-8.7347548-15.3145721-16.8650713-20.0083134Z"/>
      <path class="st2" d="M807.2339899,166.2414572c30.7124172,4.4445581,4.0164952,17.2986284-30.183926,31.926732,25.9837484-8.1780825,52.4353273-14.0684039,82.2647083-2.2902279,23.2336323,12.1737595,9.9717006,17.2716806-15.2998742,20.7743732,16.685033,2.3073833,32.9285479,8.2821923,49.4684514,19.2030652,23.4589886,21.4259236,6.3318021,22.7853679-23.642073,19.6200836,18.3604508,8.1640106,35.639457,20.3646992,51.2963243,38.6186108,42.8880267,63.9434459-91.6693462-11.0439508-165.1570839-33.4386502l-15.2869983-17.6145831-17.0352985-19.1644936-12.4315577-14.1455472c30.8765148-20.3855548,54.4922566-45.9614605,96.0073277-43.4893629Z"/>
      <path class="st5" d="M850.6865939,292.4315149c20.1320173,5.079551,31.6927981,5.2865371,17.8877054-10.9949514-18.900547-17.997926-40.6528718-21.6378059-62.7505659-23.4087557,30.2666009-.5835828,54.3305884-2.1224488,32.5225366-14.8589728-30.5586913-14.549727-56.1860445-2.4739477-85.704965,3.4678025l5.0550513,14.4682856,6.9931822,19.6604866,6.1487177,17.957523c49.8615867,39.7753672,128.4429474,137.4513851,115.5484366,75.5201486-6.2320092-18.5527296-15.5374709-33.0344704-26.8918823-44.802854,22.3199855,12.0580259,35.5708727,15.6709579,24.5067204-7.0629812-11.0084253-13.6372949-21.435118-23.1068729-33.3149369-29.9457313Z"/>
      <path class="st4" d="M515.029668,657.4476201c-6.7033157-13.3772915-18.4240827-21.0074849-24.9921361-24.4340435.1177332-.1990251.2379705-.4182705.361609-.6599411l23.930594-46.5562186-9.2843632-4.6231387-23.8133093,48.0997939c-.0126703.0261629-.0194727.046869-.0316945.0725834-7.3556696-3.6302183-21.1733953-9.0087554-36.6475706-7.7681094,10.1566725,8.6546963,22.1850035,12.6261539,30.5021233,14.4392821-4.8082601,6.1811784-10.73734,16.4152185-11.0075657,29.5374962,12.3570868-7.4779626,18.2579108-19.1397136,20.8769319-26.3882646,4.8862256,5.4655102,15.2845689,15.1029608,30.1053812,18.2805604Z"/>
      <path class="st4" d="M655.2414662,638.5244234c-13.0419201-5.4049244-26.4650341-5.1782039-34.8955515-4.1978416l-15.6957006-51.1485224-9.9083864,3.0654728,16.0795107,49.711804c-7.6359119.3866881-20.6911378,2.4353574-31.9260967,11.0943892,14.1316061,3.4352297,27.1810761-.2554249,34.2016733-3.0322832,2.3657266,7.084659,8.2111225,19.7324907,21.3230098,27.6669964-.2574432-12.4847245-5.637438-22.3572677-10.3004565-28.6104689,8.3670536.5834333,19.8880106.1061094,31.1219978-4.5495461Z"/>
      <path class="st5" d="M565.7900736,591.4985888c126.1906628,0,228.3455029-102.1544709,228.3455029-228.3453743,0-126.1906744-102.15484-228.3449071-228.3455029-228.3449071s-228.3455073,102.1542327-228.3455073,228.3449071c0,126.1909033,102.15484,228.3453743,228.3455073,228.3453743Z"/>
      <path class="st4" d="M235.0956068,366.5052835c-16.2612683-9.3881179-37.2077189-3.8885024-46.6730174,12.5056549-8.0029404,13.8620345-5.7445565,26.7963502,0,39.7282085-16.1008148.9167022-25.1631669,3.8560417-33.2432879,17.8509651-9.3881179,16.2612683-3.8884837,37.2078497,12.5056549,46.6730034,8.1303538,4.6940636,18.3953783,7.8143524,26.8049279,5.5609815.8407643-.2252862,3.116939,29.8260102,27.4375101,29.8260102,12.1602669,0,16.8233975,1.0100922,35.8078528-3.4722759,0,0-21.1963065-29.0612281-22.6396404-61.2272622-1.4439319-32.1661509,16.8650713-67.4369722,16.8650713-67.4369722-2.3300329-8.276072-8.7347548-15.3145721-16.8650713-20.0083134Z"/>
      <path class="st4" d="M269.1637557,535.5290638c-2.8909661,34.4205679,29.5887194,81.588422,29.5887194,81.588422,0,0,39.8176203-40.2071349,42.7826649-75.510233,2.5939795-30.8902334-69.7774235-36.9684163-72.3713843-6.078189Z"/>
      <path class="st0" d="M333.4433952,542.7052787c2.8027783-12.2078281-8.7445286-12.2888803-9.337287-5.2282545-.9706072,22.138569-17.0261228,54.5647303-21.9580775,60.3718816,4.7096633-3.1591781,26.720403-32.4189338,31.2953645-55.1436271Z"/>
      <path class="st1" d="M344.4414114,458.268947c1.0618411-23.1699349-16.8601564-42.8132848-40.0301007-43.8745092-23.1699443-1.0618411-42.8132942,16.8607731-43.8744999,40.0301007-1.0618411,23.1700658,16.8601564,42.8134133,40.0301007,43.8749437,23.1699256,1.0615281,42.8132755-16.860717,43.8744999-40.0305352Z"/>
      <g>
        <path class="st3" d="M314.1086744,459.0276672c1.4800742-6.4169391-2.521695-12.8191849-8.9386388-14.2998757s-12.8197969,2.5210877-14.3004877,8.9380314c-1.4800928,6.4175558,2.521695,12.8198016,8.9386388,14.3004924,6.4175604,1.4806909,12.8197969-2.521097,14.3004877-8.9386481Z"/>
        <path class="st1" d="M302.8099901,452.0877686c-.2375968-2.2583932-2.2608507-3.8970708-4.5192345-3.659474s-3.8964634,2.2608413-3.6588667,4.5192252c.2375968,2.2583932,2.2608507,3.8970754,4.5192345,3.6594787s3.8964634-2.2608413,3.6588667-4.5192298Z"/>
      </g>
      <g>
        <path class="st4" d="M740.5923163,289.6424234c-13.0591912-33.6708606-34.8446508-61.4245925-61.7543962-81.6979984l-106.8531232,142.3835115,7.1790527,18.5099429,168.9539403,31.9882467c8.5467229-35.8090318,6.7360896-74.412734-7.5254736-111.1837026Z"/>
        <path class="st4" d="M667.3002231,199.8999051c-46.5582477-29.9162929-105.6680938-38.9488685-161.452592-20.0951861l60.1487507,155.0831271,101.3038412-134.9879411Z"/>
        <path class="st4" d="M585.1403073,384.2471392l56.1564817,144.7897536c50.8251362-22.3518946,87.1417287-65.0074059,103.0106051-114.6772844l-159.1670869-30.1124692Z"/>
        <path class="st4" d="M558.8890424,355.3716465l-177.1141859-33.5312989c-6.5405374,33.5321142-4.0073292,69.2165035,9.2442839,103.3834908,14.4539886,37.2671041,39.5810871,67.2912528,70.5321252,87.9591362l104.5165896-139.3019537-7.1788297-18.5093679.0000169-.0000065Z"/>
        <path class="st4" d="M628.2490597,534.2044276l-56.1925528-144.8827566-98.5158098,131.2314446c45.7173761,25.8194106,101.821792,32.3442609,154.7083627,13.6513121Z"/>
        <path class="st4" d="M492.7277398,184.7862128c-54.7361501,23.119615-93.063721,69.6942336-107.7583092,123.4027822l167.9431454,31.7733851-60.1848362-155.1761672Z"/>
      </g>
    </g>
  </g>
</svg>