<?xml version="1.0" encoding="UTF-8"?>
<svg id="_Шар_1" data-name="Шар 1" xmlns="http://www.w3.org/2000/svg" viewBox="0 0 512 300">
  <path d="M80.6848368,166.6802662c-11.1247206,0-19.8345577,8.5305761-19.8345577,19.4171298,0,10.84184,8.7098371,19.3359098,19.8345577,19.3359098,11.0799,0,19.7589163-8.4940699,19.7589163-19.3359098,0-10.8865537-8.6790163-19.4171298-19.7589163-19.4171298M90.6301365,186.097396c0,5.6618868-4.4627808,10.2703079-9.9452997,10.2703079-5.619802,0-10.0209412-4.5103586-10.0209412-10.2703079,0-5.8466409,4.4011391-10.4271052,10.0209412-10.4271052,5.5749601,0,9.9452997,4.5804643,9.9452997,10.4271052"/>
  <path d="M169.0497268,167.0525957c-2.095518,0-4.2610561,1.1010008-4.3731183,3.5578621l-.019621.5042478c-3.4318216-2.9835942-7.3959332-4.4346958-12.1108379-4.4346958-10.3459066,0-18.1480464,8.3316299-18.1480464,19.3778877s7.7685191,19.3750664,18.069605,19.3750664c4.7933461,0,8.8274992-1.5855848,11.9875759-4.7120406l.1120622,3.9725114h8.8134995v-33.9989356c0-1.9750132-1.9834558-3.6419034-4.331119-3.6419034M154.0029366,196.3869402c-5.6254019,0-9.8640584-4.4403385-9.8640584-10.3290427,0-5.8859684,4.2386565-10.3263069,9.8640584-10.3263069,5.8270839,0,9.9480783,4.2498563,10.0209198,10.3291282-.0028,6.0791865-4.1209944,10.3262214-10.0209198,10.3262214"/>
  <path d="M210.4706073,184.8526786h17.9071223c1.2886617,0,2.3392206-1.0477376,2.3392206-2.3363993v-5.0678696c0-1.2887472-1.0505589-2.3364848-2.3392206-2.3364848h-17.9071223v-10.7632703h20.6469711c1.2886617,0,2.336442-1.0478231,2.336442-2.3364848v-4.4543596c0-1.2886617-1.0477804-2.3336635-2.336442-2.3336635h-28.0737251c-1.2887044,0-2.3392634,1.0450018-2.3392634,2.3336635v44.801448c0,1.2858404,1.0505589,2.333578,2.3392634,2.333578h31.1133184v-9.7379323h-23.6865644v-10.1022253Z"/>
  <path d="M69.0334475,162.0112294v-4.4543596c0-1.2886617-1.047759-2.333578-2.3364634-2.333578H28.1596903c-1.2886831,0-2.336442,1.0449163-2.336442,2.333578v4.4543596c0,1.2887472,1.047759,2.3364848,2.336442,2.3364848h14.2455765v40.3442671h10.0461407v-40.3442671h14.2455765c1.2887044,0,2.3364634-1.0477376,2.3364634-2.3364848"/>
  <path d="M187.0655556,155.2235483c-1.8938146,0-4.8942085,1.1094648-4.8942085,4.093059v45.375716h9.7855956v-45.3729801c0-2.98633-3.0003939-4.0957948-4.8913872-4.0957948"/>
  <path d="M130.3107296,195.2022401c-.9104972-.2941018-1.9050144-.2296388-2.6642287.1793679-1.4847865.8039922-3.2076972,1.2241987-4.9754498,1.2241987-4.0789737,0-5.9783668-1.7537529-5.9783668-5.5244968v-15.2877356h10.4495475c2.1823592,0,3.3646013-2.1543811,3.3646013-4.1854788,0-2.0814541-1.0421591-4.1853933-3.3646013-4.1853933h-10.4495475v-12.2005218h-9.785617v12.2005218h-5.0426914v8.370872h5.0510913v15.7471841c0,8.4408922,5.5889812,13.8925475,14.2343767,13.8925475,2.728649,0,6.6899606-.53229,10.0629618-3.0731926l.103641-.0813055c1.7369318-1.2746405,2.115139-3.0872138,1.0897796-5.247152-.4118066-.8712765-1.1569998-1.5212073-2.0954966-1.8294157"/>
  <path d="M351.3684879,170.3717566c-.2185245-2.2747576-1.8798148-3.689524-4.3395402-3.689524-3.2272969,0-8.4436708.2577665-11.7802726,6.6703823l-.0784414-2.7426701c-.1120408-2.4569468-2.2775789-3.5579476-4.3759182-3.5579476-2.3392206,0-4.3226978,1.6668903-4.331119,3.6419889v33.9988501h9.788417v-15.0299691c.1765038-11.6149686,6.4966571-13.7496859,8.4269138-14.1279144,1.5268072-.2997444,1.7116895-.2381028,3.1292344-.4426061,2.7174492-.4006282,3.7483871-2.7259132,3.5607262-4.7205901"/>
  <path d="M260.6427899,166.6813777c-4.5720431,0-8.6426169,1.5436924-11.511349,4.3479187l-.019621-.4230278c-.1120408-2.45404-2.2804003-3.5522195-4.3759182-3.5522195-2.3420419,0-4.3254763,1.6668903-4.331119,3.6419034v33.9961143l9.7856384.0027358.0728415-20.9886935c.3978069-3.9893539,3.260939-8.0123072,8.7602576-8.0123072,5.1323326,0,8.4492707,3.7680081,8.4492707,9.606356v19.3919089h9.7856384v-20.4705101c0-10.6569149-6.521878-17.5401791-16.6156393-17.5401791"/>
  <path d="M385.9968783,167.0520827c-2.3420847,0-4.2190782,1.4427231-4.3647611,3.358916l-.0447992.8740979c-3.2329395-3.0116365-7.4379538-4.6028639-12.1809008-4.6028639-10.3935057,0-18.2320877,8.3484724-18.2320877,19.4451721s7.8021612,19.3078676,18.1508677,19.3078676c4.3086766,0,8.0542851-1.372703,11.1499201-4.0705739v1.2018846c0,5.5161183-4.3562972,9.2196634-10.8389759,9.2196634-5.7822634,0-9.723954-1.8713936-10.7941339-2.4456615-1.804152-.9665176-4.4179389-.8797405-5.6590227.9412967-.6695518.9804533-.9412967,2.2187586-.7311935,3.3169381.210146,1.1010008.8656766,2.0282764,1.9442351,2.7594271,3.8352497,2.5886087,9.7015971,4.1322156,15.7023849,4.1322156,12.2004791,0,20.0838603-7.3987117,20.0838603-18.848419v-31.1861599c0-1.9078143-1.8377514-3.4038007-4.1853933-3.4038007M380.9373872,186.1329618c-.0028213,6.1073142-4.1434154,10.2143088-10.0685831,10.2143088-5.6506015,0-9.9144789-4.3059408-9.9144789-10.219866s4.2638774-10.357085,9.9144789-10.357085c5.8551048,0,9.9957416,4.2498563,10.0685831,10.3626421"/>
  <path d="M403.1086862,167.0533651c-1.8938359,0-4.8942299,1.1094648-4.8942299,4.0957948v33.5450442h9.7855956v-33.5450442c0-2.98633-3.0003939-4.0957948-4.8913658-4.0957948"/>
  <path d="M403.0811996,151.4781963c-3.3422017.0841268-5.7711063,2.4345472-5.7711063,5.586224,0,3.2273396,2.4933248,5.65898,5.7991058,5.65898,3.3393804,0,5.8635261-2.4316404,5.8635261-5.65898,0-3.2833386-2.5521879-5.6562442-5.8915256-5.586224"/>
  <path d="M302.1325578,166.6825746c-11.1470988,0-19.2378047,8.1495262-19.2378047,19.3750664,0,11.0462578,8.6677951,19.3778877,20.1623017,19.3778877,5.2191952,0,9.889258-1.5267644,13.8757905-4.5384009,1.4063451-.9889172,1.8545939-3.3897795.9412967-5.0342702-1.0953582-1.9666347-3.728766-2.1263388-5.1407111-1.381167-1.3839455.7340575-5.0146919,2.4401044-8.8274992,2.4401044-5.4124988,0-9.7211754-2.9751302-11.0490791-7.6060364h25.0060896c1.3195253,0,2.21598-.8600767,2.3420419-2.2580006l.0028213-1.30824c0-11.2256257-7.4323539-19.0669435-18.0752477-19.0669435M310.8508376,181.8021421h-17.6914192c1.3250824-4.286277,4.818567-6.8412008,9.3905674-6.8412008,4.1518366,0,7.4603962,2.7398488,8.3008519,6.8412008"/>
  <path d="M433.3008846,166.6825746c-11.1443202,0-19.2350261,8.1495262-19.2350261,19.3750664,0,11.0462578,8.6677951,19.3778877,20.1595231,19.3778877,5.2191525,0,9.889258-1.5267644,13.8757905-4.5384009,1.4091237-.9889172,1.8545511-3.3926009.9384754-5.0342702-1.0869797-1.9666347-3.7259875-2.1291601-5.1379325-1.381167-1.3867395.7340575-5.020249,2.4401044-8.8274992,2.4401044-5.4152773,0-9.723954-2.9751302-11.0462578-7.6060364h25.0032683c1.3195253,0,2.21598-.8600767,2.3420847-2.2580006l.0027786-1.30824c0-11.2256257-7.4323539-19.0669435-18.0752049-19.0669435M441.8342393,181.8021421h-17.6914192c1.3223038-4.286277,4.818567-6.8412008,9.3877888-6.8412008,4.1517938,0,7.4631747,2.7398488,8.3036304,6.8412008"/>
  <path d="M473.326342,181.41639l-.0028213-.0027358c-5.8411265-1.3026828-7.471596-2.0619613-7.471596-3.5354625,0-2.3588844,2.913574-2.793112,4.6252635-2.793112,3.4402642,0,7.2586714.904876,9.6847546,1.8321515,2.5101673.9524965,4.4375599.2549452,5.5861812-2.0058768.9468966-1.8713936.2297243-3.9444692-1.7901309-5.1602894-1.989077-1.1962419-6.0372086-3.0704568-13.2398809-3.0704568-8.6117533,0-14.623741,4.7849676-14.623741,11.7522731,0,7.1801873,6.9140422,9.7940169,13.536804,11.2759821,5.639359,1.2746405,6.7879803,2.4737038,6.7879803,4.1181944,0,2.6922282-3.2665389,3.1852762-5.2443734,3.1852762-5.8495049,0-9.0628234-1.8265944-9.9761206-2.4205261-2.1347173-1.3867241-4.3142765-1.0365378-5.8215054.9357395-.6387309.8320345-.9076545,1.8825934-.7507717,2.8855318.1764611,1.0757799.8124134,2.0226337,1.8517726,2.7342916,4.266656,2.9246883,8.9591611,4.2694346,14.3800383,4.2694346,9.2169276,0,15.3185564-4.7373471,15.3185564-12.1444373,0-7.2138722-5.230395-10.0517834-12.8504098-11.8559781"/>
  <g>
    <path d="M250.7157105,105.9377905c1.6727117,13.1614393,10.3928089,19.8989715,19.8982149,22.4437541,11.405615,3.0552078,23.8174828,1.0711407,31.7624738-2.6366849,1.5049955-.7408264,3.5947947-2.1080128,3.5947947-5.064776,0-2.6855067-2.3544802-5.5379952-6.4443793-4.2094834-3.0646762.9909431-7.9603007,2.707403-15.7098824,2.1226104-5.8165506-.4389505-15.7528963-3.201762-17.9148822-11.062194-5.3178079-.494359-10.5561302-1.0667348-15.1863395-1.5932262Z"/>
    <path d="M284.9901669,72.2816833l.2785442,13.8286548c6.6477995-.3485613,11.4683222,1.2249937,14.0889409,2.9246753,1.446672.9931239,2.3063483,2.1502923,2.3143703,3.0325993.0138632,1.7186406-4.1978009,2.2932416-9.0642637,2.7241368-12.5453042.9516009-35.1494535-2.4806067-47.3279828-4.7125653-12.7983194-2.3471814-27.1242482-5.223035-38.2556971-6.8884479-6.4647847-.966154-10.9345765,4.3589749-10.9345765,9.2968679,0,4.2357412,3.1791647,7.6941622,7.041561,7.9705368,5.4731184.3915529,8.3978048.4790493,12.8092564,1.2701661,7.9624981,1.4240635,9.4179097,4.4909761,11.4318672,10.4081519,1.2177061,3.5780053,4.2780208,13.1504911,4.4814576,13.7826814.616875,2.1233224,2.6126023,3.5532161,4.9838497,3.3585523,3.3563548-.2770867,5.8967648-2.7190633,5.0844749-6.6981455-.6482342-3.1784415-2.0496893-10.6720652-3.6181208-18.035913,11.023536,1.1025166,42.6897571,5.4665651,56.9157839,3.9382269,10.0391629-1.0776829,17.5772802-4.6710423,19.8865547-12.0888299,1.6595828-5.339682.7765526-11.0454157-2.9225057-15.5662544-3.4642622-4.233516-9.413526-7.4287357-17.7223769-8.3081054-2.0562538-.2180289-4.1292636-.3296023-6.203742-.3296023-1.0886534,0-2.1780188.0291951-3.2673954.0926144"/>
    <path d="M285.0186055,72.2802147c-.0036494,0-.0087563.0007566-.0123946.0007566-.0058413,0-.010937.0007121-.016044.0007121-13.6645768.7940541-26.5576858,6.6419805-32.2342466,19.0866705,4.4223942.7196866,9.4047808,1.4546828,14.4593652,2.0715634,2.5630184-3.0719861,8.4153063-6.8155491,18.0643626-7.3295791,1.5924918-.0831349,3.0763475-.0532277,4.4530135.0583012l.7306236-13.9358223c-.7510402-.0284385-1.5028147-.0422795-2.2553125-.0422795-1.0631188,0-2.1269718.0284385-3.1893674.0896771"/>
  </g>
</svg>