<?xml version="1.0" encoding="UTF-8"?>
<svg id="_Шар_1" data-name="Шар 1" xmlns="http://www.w3.org/2000/svg" viewBox="0 0 512 300">
  <defs>
    <style>
      .cls-1 {
        fill-rule: evenodd;
      }
    </style>
  </defs>
  <path class="cls-1" d="M49.7854139,171.7145701l29.639308-43.6997624-3.9980265-16.9564369h-40.1153477l-4.2736983,22.0569236,27.0195649-3.3090456-33.361114,46.319373,5.5140795,13.2339876h64.516248l15.1635673-44.802828,6.5263678,21.6430658h-10.9375898l-1.1029616,17.6454178,16.3626612-3.3125273,2.6616644,8.8268717h32.1196542l11.166099-26.1923224,9.3740525,26.1923224h25.6410166l-20.6207963-41.1088371,20.3452948-37.1924015h-22.3322359l-10.3395756,23.1598379-9.0982861-23.1598379h-25.3647393l20.0742777,38.1554458-13.2760224,25.1673659s-16.5296272-43.0843495-19.4811074-50.7781077l4.2737834-12.5447041h-29.776652l3.5841971,11.5798433c-4.2743133,10.663725-24.6868372,61.5897256-24.6868372,61.5897256l.4244351-17.2006796-25.6412815,4.6873101h0ZM351.1353642,129.9443023h0v18.6105813c0,6.2033253,1.7920844,16.4048284,4.410976,22.0568479-3.0327116-.4136307-6.0657259-.8274128-9.0983239-1.2410435-1.05701,6.6628224-2.1137172,13.3259476-3.1707272,19.9889214h44.2515979c.734923-4.4113544,1.4699974-8.8228603,2.2049582-13.2339876,4.2737929,10.0629198,12.8210003,16.267002,24.2628279,16.267002,11.0280077,0,21.09176-7.1686402,21.09176-18.3347771,0-10.7524305-5.7900352-19.4370859-11.3042282-26.192171-4.9627359-6.2031739-10.0630333-11.7178968-10.0630333-15.9908193,0-1.516545.8266181-3.0333171,2.6187403-3.0333171,2.6196864,0,4.4118843,3.4461909,4.8248338,6.3413788,9.3280725-1.5947299,18.6562586-3.1888543,27.9844446-4.7835842v58.9602755h22.3329549c-1.8146013-20.8655309-2.4814815-38.6082825-2.4814815-59.5533607,4.7328738.4138578,9.4659746.8275642,14.1985457,1.2412706,1.0570857-6.6632009,2.11402-13.326099,3.1709165-19.9891485h-48.2488676c-.5640969,3.5728913-1.1281181,7.1456313-1.6922529,10.7184469-4.954486-7.9576795-12.9688931-13.199777-22.2942787-13.199777-11.0288024,0-20.9536687,6.6168046-20.9536687,18.3350041,0,10.7525062,5.9276345,19.2995622,11.3034335,26.1920196,5.1012435,6.3414545,10.0632983,11.7175183,10.0632983,15.9909706,0,1.5166964-.9648608,3.0324088-2.7571344,3.0324088-2.6188538,0-4.686364-3.4459638-5.1002596-6.3406219-11.5337497,1.8380644-23.0674995,3.6759016-34.6013249,5.5138903-.7128223-3.9171168-1.1029143-7.8719259-1.1029143-11.8551934h15.3017249c.9648986-6.0197081,1.9300622-12.0395675,2.8948851-18.0592755-6.0655367.397358-12.1309598.7942618-18.19661,1.1916197v-12.7716144c5.7439038.4138578,11.4878833.8275642,17.2318628,1.2412706,1.05701-6.6632009,2.1137551-13.326099,3.1707651-19.9891485h-44.940768c-1.05701,6.6170317-2.1137172,13.2340633-3.1707272,19.8509436,2.6193079-.3215193,5.2386915-.6431901,7.8580752-.9650122h0ZM301.5078159,129.9443023h0v59.4153072h22.332198l-2.1863013-27.5708139h15.8339575l3.1707651-19.9889214-19.2998271,1.3701659v-13.3637912l16.129062,1.2412706,3.1707651-19.9891485h-44.113658l-3.1706515,19.8509436,8.1336902-.9650122h0ZM238.9219707,148.5548836h0v-18.6105813l-10.8905029.9650122,3.1706515-19.8509436h23.572636c25.5029631,0,40.9426469,20.5402272,40.9426469,43.4241852,0,22.0566208-16.4044878,34.8770535-43.2858289,34.8770535h-21.3675075l3.1705569-19.9889214,9.0985699,1.2410435c-2.6197431-5.6520195-4.411222-15.8535226-4.411222-22.0568479h0ZM265.5272805,169.7843187h0c6.7549338,0,9.925661-7.719946,9.925661-16.6802542,0-8.270949-3.0324845-18.3350041-7.7198324-21.3673372l.8274696,7.9954475c-3.0332981-5.6520952-7.7200217-11.3044931-12.407275-15.0261855,2.5934607,5.1871485,4.5231823,10.7056558,5.6898442,15.8626808l-.6607495.1500878c-.912788-1.2003994-2.0050304-2.0939629-3.3754044-2.7787809v17.3699919c0,7.7191891,3.1709165,14.4743499,7.7202866,14.4743499h0ZM202.8041008,189.3596094h22.0567344c-2.5569038-26.8412647-2.2059232-51.3638511-2.2059232-78.3012386h-19.8508112v78.3012386h0Z"/>
</svg>