<?xml version="1.0" encoding="UTF-8"?>
<svg id="_Шар_1" data-name="Шар 1" xmlns="http://www.w3.org/2000/svg" viewBox="0 0 512 300">
  <path d="M94.3533389,173.9405504c-8.4173113,0-14.6729001-5.822812-15.4800469-14.0673365h33.1220757c3.6610945-14.5865029-4.4679667-25.511915-19.0832687-25.511915-12.3669152,0-22.4851844,10.6659637-22.4851844,23.7245676,0,13.5199077,10.2913229,23.7245664,23.8976227,23.7245664,10.2913229,0,18.1897374-5.2753831,21.7644322-13.3468514l-6.8608802-4.2951825c-2.1619921,5.8230815-7.3509805,9.7721515-14.8747504,9.7721515ZM92.912099,141.9715968c7.6101645,0,12.0784008,4.4681041,11.905347,11.0983349h-25.5116468c1.527899-6.9760739,6.5435642-11.0983349,13.6062998-11.0983349Z"/>
  <path d="M145.1174485,134.3612989c-5.9961353,0-11.01207,2.7673649-14.5865003,6.6301762v-5.3041567h-8.0714682v44.7682693h8.0714682v-23.5515101c0-7.8698799,5.3617778-14.6730323,14.1540033-14.6730323,7.3509754,0,11.7325526,4.6699594,11.7325526,11.3865824v26.8667616h8.0714682v-27.5875137c-.0287965-11.9342249-7.4661717-18.5355766-19.3715238-18.5355766Z"/>
  <path d="M239.669881,181.8104329c10.2913127,0,18.1900019-5.2753831,21.7644322-13.3468514l-6.8896818-4.2951825c-2.161987,5.8230815-7.350711,9.7721515-14.8747504,9.7721515-8.4173113,0-14.6729001-5.822812-15.4800571-14.0673365h33.1223452c3.6608301-14.5865029-4.4682312-25.511915-19.0835382-25.511915-12.3666355,0-22.4849047,10.6659637-22.4849047,23.7245676.0287863,13.5199077,10.319855,23.7245664,23.9261547,23.7245664ZM238.228631,141.9715968c7.6101746,0,12.0784058,4.4681041,11.9056267,11.0983349h-25.5119265c1.5279143-6.9760739,6.5435743-11.0983349,13.6062998-11.0983349Z"/>
  <path d="M190.5488566,142.0292738c5.1889885,0,9.6569552,1.3548707,14.7883506,5.3618312l.230657-.7783478,4.2951876-11.732559-6.6302385-2.1620175-1.2108576,4.7852574c-3.2573736-1.7007938-7.1491252-3.084489-11.3864451-3.084489-10.8390162,0-16.8351515,5.0158813-16.8351515,12.5396511,0,7.4373752,6.5438388,11.0984672,16.6620978,14.3270545,8.2445322,2.5078351,10.5795627,4.9292756,10.5795627,7.2643214,0,3.7474841-3.6610945,5.9094762-8.8788694,5.9094762-6.7166281,0-12.4530454-3.4013766-15.4800469-8.5903651l-6.1689246,5.1023294c3.7474841,6.0825299,11.2712488,10.9254109,21.3031284,10.9254109,11.8189422,0,17.5556443-6.2553192,17.5556443-14.1539982,0-5.188724-3.488051-9.4839065-16.8348972-13.8945498-5.9961353-2.0467984-10.3777125-3.2285873-10.3777125-7.0624661-.0287965-2.7674997,1.8449404-4.7565397,8.3885148-4.7565397Z"/>
  <path d="M45.6934033,142.0006349c5.1888575,0,9.6569082,1.3548427,14.7883036,5.3616735l.2306519-.7780833,4.2951825-11.7326912-6.6302284-2.1620175-1.210855,4.7852841c-3.2573838-1.7007938-7.1489929-3.0844903-11.3865544-3.0844903-10.8389374,0-16.8349414,5.0158838-16.8349414,12.5397605,0,7.4373752,6.5437279,11.0982002,16.6619665,14.3270519,8.24455,2.5078351,10.5795958,4.9292756,10.5795958,7.2643214,0,3.7474841-3.661092,5.9094762-8.8788007,5.9094762-6.7166777,0-12.4532317-3.4016411-15.4800717-8.5903651l-6.1977777,5.1023294c3.7475127,6.0825299,11.2713353,10.9254109,21.3031005,10.9254109,11.8189803,0,17.5556672-6.2555888,17.5556672-14.1539982,0-5.1889885-3.4880357-9.4841735-16.8349939-13.8945498-5.9960056-2.0467984-10.3776896-3.2285873-10.3776896-7.0627331,0-2.7673369,1.8737433-4.7563795,8.4174448-4.7563795Z"/>
  <path d="M332.1749634,158.1437291c0,13.5487042-9.6846837,23.810961-22.6278396,23.810961-5.738289,0-10.7832846-2.5078351-14.6443579-6.3707799v5.0159347h-8.0719972v-62.5255654h8.0719972v22.6291338c3.8610732-3.8628113,8.8794186-6.370752,14.6443579-6.370752,12.9431559,0,22.6278396,10.2335646,22.6278396,23.8110678ZM323.7568587,158.1437291c0-9.2535216-6.108931-15.8836712-14.5563713-15.8836712s-14.5563713,6.658946-14.5563713,15.8836712c0,9.2535216,6.108931,15.8834855,14.5563713,15.8834855s14.5563713-6.6299639,14.5563713-15.8834855Z"/>
  <path d="M382.8542957,172.4705191c-.3466568,0-.6346423-.0575981-.9226279-.1439928-.8932516-.3170465-1.4132368-1.0953968-1.4132368-2.2486512l.9812991-11.8477514.402602-4.1511923,1.7865845-18.4203041h-8.0128173l-.6053067,6.8896246s0-.0288245-.0293356-.0288245c-.0293356-.057649-.0879662-.144125-.1146571-.201774-.5786158-.8359967-1.269244-1.6143191-2.0185028-2.2773434-3.6904302-3.2862617-8.3034679-5.3906302-13.519127-5.3906302-12.8284784,0-22.4278406,10.1471979-22.4278406,23.5804439s9.6286774,23.5803091,22.4278406,23.5803091c5.5916312,0,10.4926341-2.392644,14.2977214-6.1113315.0559859.547968.1146571.7783503.2879855,1.2108576.0293356.057593.0293356.0863946.0293356.0863946.4319783.8359433.9786138,1.5566955,1.7012223,2.1043939.8932516.6631541,1.9892079,1.0953918,3.2851021,1.2972471.4906496.0863946,1.037285.1154556,1.5865652.1154556h4.2930515v-8.0141346h-2.0158581v-.0287965ZM359.7918128,173.9984181c-8.3594538,0-14.4123785-6.6014318-14.4123785-15.7682944s6.0529248-15.7683452,14.4123785-15.7683452c8.3594334,0,14.4123785,6.6014827,14.4123785,15.7683452s-6.0529451,15.7682944-14.4123785,15.7682944Z"/>
  <path d="M416.0627558,134.3612989c-5.9969185,0-11.0125786,2.7673649-14.5883516,6.6301762v-5.3041567h-8.0714886v44.7682693h8.0714886v-23.5515101c0-7.8698799,5.3623169-14.6730323,14.1537286-14.6730323,7.3515247,0,11.7325424,4.6699594,11.7325424,11.3865824v26.8667616h8.0714886v-27.5875137c-.0266909-11.9342249-7.4661819-18.5355766-19.369408-18.5355766Z"/>
  <path d="M460.7717995,157.3363153l23.17714-21.6489168h-10.5779556l-20.5826255,19.3429371v-36.9850256h-8.0448383v62.4102777h8.0448383v-19.7176313l21.8492248,19.7176313h11.7325424l-25.5983262-23.1192724Z"/>
</svg>