<?xml version="1.0" encoding="UTF-8"?>
<svg id="_Шар_1" data-name="Шар 1" xmlns="http://www.w3.org/2000/svg" viewBox="0 0 512 300">
  <path d="M326.7582607,120.4925954l-.7648837-.0007856-.0005853.5698704-.0002004.1951553-.001061,1.0330383-.0007857.7650257-.0005853.5698704.7648837.0007856c.8606008.0008839,3.67149,1.6505758,3.6692127,3.8679131l-.0036835,3.5864578-9.8595898,14.751012-9.8294106-14.7712339.0036835-3.5864578c.0022774-2.2173373,2.8165493-3.8612518,3.6771501-3.8603679l.7648837.0007856.0005853-.5698704.0007857-.7650257.001061-1.0330383.0002004-.1951553.0005853-.5698704-.7648837-.0007856-23.8295093-.0244745-.7648955-.0007856-.0005853.5698704-.0002004.1951553-.001061,1.0330383-.0007857.7650257-.0005853.5698704.7648955.0007856c.860589.0008839,3.6714782,1.6505758,3.6692008,3.8679131l-.0220588,21.4774596-.0202128,19.6800593c-.0022776,2.2176217-2.8165496,3.8615362-3.6771386,3.8606523l-.7648955-.0007856-.0007857.7650257-.001061,1.0330383-.0007857.7650257.7648955.0007856,23.8295093.0244745.7648837.0007856.0007857-.7650257.001061-1.0330383.0007857-.7650257-.7648837-.0007856c-.8606008-.0008839-3.67149-1.6505758-3.6692124-3.8681975l.0156469-15.2345296,9.1940499,13.8166091.6353607.9546248.6373321-.9533177,9.2222576-13.7976943-.0156469,15.2345296c-.0022776,2.2176217-2.8165496,3.8615362-3.6771504,3.8606523l-.7648837-.0007856-.0007857.7650257-.001061,1.0330383-.0007857.7650257.7648837.0007856,23.8295093.0244745.7648837.0007856.0007857-.7650257.001061-1.0330383.0007857-.7650257-.7648837-.0007856c-.8606008-.0008839-3.67149-1.6505758-3.6692124-3.8681975l.0202128-19.6800593.0220588-21.4774596c.0022774-2.2173373,2.8165493-3.8612518,3.6771501-3.8603679l.7648837.0007856.0005853-.5698704.0007857-.7650257.001061-1.0330383.0002004-.1951553.0005853-.5698704-.7648837-.0007856-23.8295093-.0244745Z"/>
  <path d="M157.7280741,170.0055795l-18.1262673-45.598301c-.0692433-.1701329-.1325716-.4056546-.1659997-.6285329.01297-.0759171.0364891-.1446712.0723042-.1974166.1342839-.2090414.510939-.2535078.7953647-.2528035l.7613972.0010944.0013213-.5687227.0011381-.7614615.0044362-.9362826-.0001419-.1925228.00128-.5689387-.7701992.0005883-25.7480093-.0298457-.7614385-.0013104-.00128.5689387.0018349.2013789-.0061292.9274265-.0011794.7612455.000359.5778051.7613972.0010944c.2932817-.0009887.6586599.0393181.7982527.2419008.0295219.0583903.0519221.1275457.0759614.2055675-.0373123.2364018-.1028857.4690266-.1677312.6097152l-18.2142759,45.5667395c-.5636276,1.4650024-.5721311,2.6678262-.0216511,3.5806422.6951645,1.1417406,1.9568858,1.3133991,2.0979884,1.332099l18.6570076.0192299.7701992-.0005883.0012334-.7612558.0041111-1.3215442-.0004596-.7701119-.7702945.0003826c-1.7241836-.0004079-2.1428739-.4156229-2.2230032-.5469559-.1273507-.1865636-.024714-.4170941-.0175923-.4278592l2.6342117-7.0881209,18.4273572.0172338,2.6023899,7.0408289c.0189729.0512273.1106037.2907419-.0093541.4786852-.0858897.1263522-.508193.5556892-2.2235618.5533723l-.7613972-.0010944-.0012334.7612558-.0041111,1.3215442.0005009.7703279.7702532-.0005986,18.5739298.0165286c.2245713-.0245721,1.4855766-.1922019,2.1842507-1.3346402.5518525-.903237.5497657-2.1134399-.00317-3.5667175ZM121.1040781,153.8600561l6.2947476-16.8670863,6.2621692,16.8783691-12.5569168-.0112829Z"/>
  <path d="M414.8605045,170.2612386l-18.1245742-45.589445c-.0691353-.1701536-.1325176-.4056649-.1659457-.6285432.0130653-.0757115.0365304-.1444552.0723455-.1972006.1430859-.2107241.511047-.2535284.7953774-.2530298l.7613845.0013207.00128-.5689387.0012334-.7612558.0043822-.9362722-.0000879-.1925331.00128-.5689387-.7702405.0003723-25.7480633-.0298354-.7613432-.0011047-.0013213.5687227.0018222.2016052-.0061165.9272002-.0011921.7614718.0003717.5775788.7703485-.0003929c.2843717.0007146.6497086.0408054.7893013.2433881.0294552.058627.0518554.1277823.0742143.1967217-.0372043.2363811-.0957227.4584775-.1642499.6276329l-18.2160102,45.5576674c-.5635736,1.464992-.5720358,2.6680319-.0216511,3.5806422.6952058,1.1419566,1.9568318,1.3134094,2.0980297,1.332315l18.6657683.0173312.7613845.0013207.0013001-.7614925.0040984-1.3213179-.0005009-.7703279-.7703072.0006089c-1.7152608-.0023376-2.1252031-.4192249-2.2141344-.5488752-.1273507-.1865636-.026461-.4259398-.026461-.4259398l2.6342784-7.0883575,18.4273032.0172441,2.6023899,7.0408289c.0207072.0602993.1212067.2978946-.0006061.4770128-.0840474.1354036-.499283.5539859-2.2323226.555271l-.7613845-.0013207-.0011921.7614718-.0040984,1.3213179.0003929.7703485.7703072-.0006089,18.5739711.0167446c.2245713-.0245721,1.4854813-.1924076,2.1841967-1.3346299.5518112-.903453.5497657-2.1134399-.0049583-3.5757792ZM379.3666013,153.3587434l5.1919766-13.9050434,5.1637978,13.9153019-10.3557744-.0102585Z"/>
  <path d="M222.1727872,120.385179l-.7649785-.0007857-23.8294263-.0244744-.7648837-.0007856-.0007857.7650257-.001061,1.0330383-.0007857.7650257h.0000711s-.0005853.5698705-.0005853.5698705l.7649074.0007856c.860589.0008839,3.6713241,1.6505757,3.6690468,3.8679129l-.0235143,22.8945513-19.5312377-23.7041689c.5482834-1.8038546,2.8047292-3.0717304,3.5429017-3.0709723l.7648837.0007856.0005853-.5698704.0007857-.7650257.001061-1.0330383.0002004-.1951553.0005853-.5698704-.7648837-.0007856-23.8294263-.0244744-.7649785-.0007857-.0005853.5698704-.0002004.1951553-.001061,1.0330383-.0007857.7650257-.0005853.5698704.7650259.0007857c.860352.0008836,3.6694765,1.6495783,3.6690016,3.8657798l-.0422738,41.159652c-.0022776,2.2176217-2.8163956,3.8615364-3.6769845,3.8606525l-.7649785-.0007857-.0007857.7650257-.001061,1.0330383-.0007857.7650257.7649785.0007857,23.8294263.0244744.7648837.0007856.0007857-.7650257.001061-1.0330383.0007857-.7650257-.7648837-.0007856c-.860589-.0008839-3.6714189-1.6505758-3.6691413-3.8681974l.022462-21.869998,19.2452083,23.3152706c-.8187141,1.4810039-2.6426715,2.4362314-3.2558204,2.4356016l-.7648837-.0007856-.0007857.7650257-.001061,1.0330383-.0007857.7650257.7648837.0007856,23.8294263.0244744.7649785.0007857.0007857-.7650257.001061-1.0330383.0007857-.7650257-.7649785-.0007857c-.860589-.0008839-3.6713241-1.6505757-3.6690465-3.8681973l.016198-15.7711236.0260736-25.3863953c.0022774-2.2173373,2.8163953-3.8612519,3.6769842-3.8603681l.7650496.0007858.0026325-2.5630896h-.0000711s.0005853-.5698705.0005853-.5698705Z"/>
  <path d="M286.728185,121.5330612c-.2719698-.808916-1.2514955-1.0825803-3.8813755-1.0855658l-.004361-.0000045c-17.6528245-.0159501-21.0511935,11.9827865-21.0833855,12.103819l-.01656.0622697-.0059678.0644137c-.0313019.3389894-.0383906.6640201-.0270739.9762235-.091267,2.1861499.7640266,3.7890855,2.2389893,4.1326557,1.2449381.2903382,1.828023,2.8976869,1.915604,4.1158276l-.0142532,11.9968085c-.0041212,4.0125571-5.59464,7.9960546-9.9245357,8.155667-4.2717041-.1684469-9.8538508-4.1634195-9.8497296-8.1759766l.0058938-5.7384273.0064836-6.3127062c.0711167-.9128014.5818265-3.7480275,1.9220669-4.057563,1.4754638-.3405399,2.3341906-1.9419047,2.2474147-4.1284271.0119578-.3120374.0055604-.636987-.0250216-.9758978l-.0058354-.0644258-.016432-.0623036c-.0319433-.1210984-3.4058003-12.1267906-21.0583952-12.1471015-2.6347864-.0027061-3.6148725.26923-3.8885033,1.0775856-.0760745.2246564-.073848.4337504-.0167654.6314769-.2311308.827692.5781013,1.4481666,1.3641984,2.0481397l.3755313.2904881c1.1673218.9316122,3.3712006,3.6999923,4.479368,6.1509786-.050188-.0108119-.1002568-.0222873-.1513032-.0280754l-.0419463-.0046885-.094778-.0028941c-1.3958559-.0014336-1.5198086,1.9788617-1.524556,2.5857965l-.0194193,18.907544c-.0081916,7.9756736.6550153,13.8597919,3.9185242,16.6534829.4971694.4253305,1.3432331,1.0919654,2.351259,1.8854258,2.6226189,2.0650275,7.01232,5.5212328,8.0065644,7.0638731,1.2503067,1.9400402,6.9928683,2.3530295,11.5899681,2.3577511l.4435216-.0013932.428278.0022886c4.5972658.0047217,10.3406635-.3964708,11.594799-2.3342705.9974108-1.5402629,5.3938936-4.9871124,8.0206067-7.0467485,1.0098672-.7917197,1.8576066-1.4566149,2.3555776-1.8809233,3.2693947-2.7869813,3.9446158-8.669725,3.9528074-16.6453986l.0040311-3.9248154.0147975-14.4075491.0005853-.5698704c-.0035663-.6122524-.1235458-2.5927983-1.5191765-2.5942317l-.0421762-.0000433-.0946227.007345c-.0510108.0056833-.1009963.0170085-.1510997.02767,1.1130694-2.4487049,3.3226182-5.2124574,4.4918035-6.1413854l.375665-.2896691c.7873041-.5983571,1.5978327-1.2171681,1.368403-2.0456649.0574532-.1976088.0600973-.4066978-.0154682-.63151Z"/>
  <path d="M93.6241019,177.3141059l.0354584-34.5239466h.0000711s.0161405-15.715094.0161405-15.715094c.002277-2.2170055,2.8163946-3.8605883,3.6770073-3.8597044l.7648837.0007856.0026331-2.5637533h-.0000948s.0004005-.3899788.0004005-.3899788l-.7648837-.0007856-25.097533-.0257769-.7649548-.0007857-.0004005.3899787-.0003852.375047-.0010616,1.0336545-.0007858.7650731-.0004005.3899787.7650496.0007858c.860589.0008839,3.6713245,1.6502438,3.6690474,3.8672493l-.0094005,9.1527674c-4.2096071.5008433-9.8663979,2.8838747-16.3601555,5.619905-1.3543975.5706605-2.7417541,1.1552708-4.1543747,1.7386227l.0172407-16.7863386c.0033265-3.2388094,3.7898382-4.0341714,3.8279576-4.0419536l1.9394869-.3879871.0004005-.3899787-1.695959-1.0179534c-.1531103-.0916912-3.8018242-2.2492591-8.4471082-2.2543146-1.7921388-.0021725-3.5037444.3219607-5.0871674.9627311-2.6623234,1.0782287-5.1668186,1.6237698-7.4441679,1.6214308-5.6494549-.0058024-8.0687863-3.3193412-8.1689448-3.4604186l-1.3860327-1.9504659-.0043509,2.3900693c-.0000054.0052143.000274.010097.0002687.0153112l-.0006692.3746675c-.0102966,10.0252067,6.6204415,12.931903,8.7090166,13.5979179l-.0187666,18.271974-.0274677,26.7437601c-.0022774,2.2173373-2.8164423,3.8609201-3.6771735,3.860036l-.7648837-.0007856-.0007857.7650257-.0010616,1.0336545-.0007857.7650257.7648837.0007856,25.0978174.0257772.7648837.0007856.0007857-.7650257.0010616-1.0336545.0007857-.7650257-.7648837-.0007856c-.8606364-.0008839-3.6713719-1.6502439-3.6690945-3.8675812l.0156165-15.2049506c2.3257755-.8099453,4.7135418-1.8856593,7.0278478-2.9281723,4.4236441-1.9927071,8.9894899-4.0493562,13.4868212-4.4730647l-.0232397,22.6272497c-.0022774,2.2173373-2.8164897,3.86092-3.6770787,3.8600361l-.7649548-.0007857-.0007857.7650257-.0010616,1.0336545-.0007857.7650257.7649548.0007857,25.097533.0257769.7648837.0007856.0007857-.7650257.0010616-1.0336545.0007857-.7650257-.7648837-.0007856c-.860589-.0008839-3.6713245-1.6502438-3.6690471-3.8675811Z"/>
  <path d="M481.6567826,118.2765447c-.1005192.1409187-2.5277544,3.4497642-8.1762613,3.4439628-2.2773848-.002339-4.7806475-.5530234-7.4403831-1.6367183-1.5818782-.6440213-3.2927792-.9713378-5.0850842-.9731787-4.6459832-.0051036-8.2989682,2.1459131-8.4521957,2.2375741l-1.6842559,1.0063759-.0005853.5699178,1.9230947.3993964c.1562166.0325362,3.8250024.8315735,3.8216973,4.0495259l-.0230511,22.4435658-20.4849033-21.6376475.0005879-.5723827c.0022774-2.2173373,2.816549-3.86092,3.677138-3.8600361l.7648955.0007856.0005853-.5698704.0007858-.7650731.0010619-1.0339389.0002004-.1951553.0005853-.5699178-.7648955-.0007856-25.0975211-.0257769-.7648955-.0007856-.0005853.5699178-.0002004.1951553-.0010619,1.0339389-.0007858.7650731-.0005853.5698704.7648955.0007856c.860589.0008839,3.6713245,1.6502438,3.6690471,3.8675811l-.0051406,5.0051138-.0462729,45.0533715c-.0022774,2.2173373-2.8163949,3.8609201-3.6769839,3.8600362l-.7648955-.0007856-.0007857.7650257-.001062,1.0339863-.0007857.7650257.7648955.0007856,25.0975211.0257769.7648955.0007856.0007857-.7650257.001062-1.0339863.0007857-.7650257-.7648955-.0007856c-.860589-.0008839-3.6714785-1.650244-3.6692012-3.8675813l.0266397-25.9375892,20.4849036,21.6373631-.0044383,4.3212883c-.0022774,2.2173373-2.8163949,3.8609201-3.6769957,3.8600362l-.7648837-.0007856-.0007857.7650257-.001062,1.0339863-.0007857.7650257.7648837.0007856,25.097687.025777.7648837.0007856.0007857-.7650257.001062-1.0339863.0007857-.7650257-.7648837-.0007856c-.8606008-.0008839-3.6714904-1.650244-3.669213-3.8675813l.0138404-13.4756674.032209-31.3601276c2.0899269-.6617234,8.7266573-3.554793,8.7369538-13.5799997l.0005853-.5699178.0019084-1.8581227.0005853-.5698704-1.3919121,1.9855346Z"/>
</svg>