<?xml version="1.0" encoding="UTF-8"?>
<svg id="_Шар_1" data-name="Шар 1" xmlns="http://www.w3.org/2000/svg" viewBox="0 0 512 300">
  <g>
    <path d="M32.4761071,199.2742432c.5654863-1.8766363,1.7654177-3.3820183,3.5981928-4.5145684s3.9271516-1.699614,6.2815757-1.699614h3.2238074l-8.0783297,27.6702502c-.0673574.3524669.0329018.6594711.3054745.9195307.2709951.2600118.6218843.3900417,1.0511023.3900417l26.8525443.028205c-.0908536.2787992-.2036496.6406837-.339918,1.0871353-.2490884.8349157-.5247803,1.7826515-.8318084,2.8415818-.3054745,1.0589304-.5874288,2.0254535-.8474646,2.8979918-.2616133.8740681-.437058,1.4583896-.5263339,1.756024h-27.2269298c-3.2567092,0-5.883694-.9759407-7.87468-2.9261968-2.0144942-1.9314687-2.6692804-4.1699894-1.9690674-6.7155144l6.3818349-21.734867Z"/>
    <path d="M77.0823231,199.2742432c1.8343288-4.1417366,5.1035748-6.2141825,9.8108217-6.2141825h31.4689615l-2.5110575,8.610938h-27.1580188c-.2490645,0-.5091002.0829896-.7816609.2505942-.2929256.1676524-.4965753.3900895-.610925.6688887l-1.4583896,4.9594903h18.5000883l-2.4108102,8.610938h-18.6034668l-1.3565887,4.5694009c-.0673574.3524669.0329138.6594711.3054745.9195307.2490645.2600118.5889825.3900417,1.0182004.3900417l26.5126263.028205c-.7472173,2.6191448-1.5852643,5.4810916-2.5110575,8.582733h-26.9214792c-3.2128361,0-5.7928285-.9759407-7.7399534-2.9261968-1.9690674-1.9314687-2.6128823-4.1699894-1.9345999-6.7155144l6.3818349-21.734867Z"/>
    <path d="M114.9002057,224.4363998c.9947281-3.3992759,2.1037821-7.1885457,3.3256322-11.3694824,1.2234276-4.1793592,2.2854892-7.8198596,3.1924711-10.9230308.9038746-3.1016415,1.3800849-4.7370533,1.423946-4.9046579,0-.036045.0125249-.06425.0360211-.0830374.3837792-1.226535,1.1983539-2.2102679,2.4437001-2.9527764,1.2437926-.7628735,2.6238536-1.1435453,4.1417605-1.1435453h25.1200404c3.1908936,0,5.7818572.9758929,7.7744208,2.9261968,1.9690674,1.9329985,2.6128823,4.1699416,1.9345999,6.7154666-.1582109.5576463-.5670639,1.9455712-1.2218501,4.1668343-.6579174,2.2196855-1.3800849,4.6806433-2.172717,7.3827777-.7926321,2.7037598-1.7889139,6.098303-2.9888215,10.185255-1.8093028,4.1433142-5.0691313,6.2142303-9.7748244,6.2142303h-35.0671543c.2255683-.7425085.8364933-2.8149544,1.8327751-6.2142303M148.4228257,218.3897741c.5764576-1.9502561,1.2155637-4.1104243,1.9173662-6.478927.7017786-2.3685027,1.5836867-5.3447993,2.6473259-8.9304672.0689349-.3524669-.0328899-.6595189-.3038969-.9195307-.2725607-.2600596-.6124787-.3900417-1.019778-.3900417h-18.7052917c-.1582109.5200715-.5419901,1.8202263-1.1529151,3.9005122-.6125026,2.0802859-1.2970475,4.3892713-2.0536585,6.9253787-.7597423,2.5361552-1.7043228,5.7161014-2.8353194,9.5429937h20.4017984c.1582109-.4824967.5263339-1.699614,1.1043691-3.6499179"/>
    <path d="M170.4371372,199.2742432c1.8092789-4.1417366,5.0691074-6.2141825,9.7779318-6.2141825h35.0311332l-2.6128823,8.610938h-30.6199193c-.2490884,0-.5091241.0829896-.7816848.2505942-.271007.1676524-.4636854.3900895-.5764576.6688887l-5.3636106,18.1398292c-.0689349.3524669.0219186.6594711.2709831.9195307.2725846.2600118.6218963.3900417,1.0526679.3900417h17.6526477c.2490645,0,.5091002-.0830374.7801072-.250642.2725607-.1676046.4198003-.3900417.4417429-.6688887l1.4944107-4.9594425h-17.5507989l2.4108102-8.610938h29.0581512c-.3853568,1.3001548-.9461582,3.2003112-1.6808506,5.6988437-.7362461,2.4985326-1.4380246,4.8623504-2.1037582,7.0914535-.6688887,2.2290553-1.0808729,3.5950377-1.2406614,4.0963218-1.8327751,4.1433142-5.1035748,6.2142303-9.8108456,6.2142303h-22.4037557c-3.1689749,0-5.7364424-.9759407-7.7054859-2.9261968-1.9690674-1.9314687-2.6254312-4.1699894-1.9690674-6.7155144l6.4491923-21.734867Z"/>
    <path d="M218.4383865,199.2742432c1.8327751-4.1417366,5.1035748-6.2141825,9.8108217-6.2141825h31.4674078l-2.5111053,8.610938h-27.1564173c-.2490645,0-.5091002.0829896-.7816609.2505942-.2945032.1676524-.4981528.3900895-.610925.6688887l-1.4599672,4.9594903h18.5016659l-2.4108102,8.610938h-18.6034668l-1.3565887,4.5694009c-.068911.3524669.0329138.6594711.3054745.9195307.2475108.2600118.5874288.3900417,1.0182004.3900417l26.5110726.028205c-.7456637,2.6191448-1.5837106,5.4810916-2.5110814,8.582733h-26.9199017c-3.2128361,0-5.7928285-.9759407-7.7399534-2.9261968-1.9690674-1.9314687-2.6128823-4.1699894-1.9345999-6.7155144l6.3818349-21.734867Z"/>
    <path d="M275.231277,218.4742457h-7.0272035v-.0297826.0297826c-.0234723.0547846-.1691822.5748561-.4417668,1.5602144-.3164218,1.1137628-.7017786,2.4468075-1.1544927,3.9976043-.4526663,1.5508446-.858388,2.9638194-1.2218501,4.2357692-.3618367,1.2735752-.5874288,2.047396-.6782585,2.3262431h-11.3381701l9.2673018-31.3483732c1.7873364-4.1229492,5.0126974-6.1859775,9.6745533-6.1859775h22.2016836c3.1454787,0,5.6910037.9758929,7.6381046,2.926149,1.9455712,1.9330463,2.5909876,4.1699894,1.9346238,6.7155144-.6563638,2.1930581-1.1999075,4.022702-1.6291494,5.4889316-.429194,1.4677594-.8270757,2.8337418-1.1873826,4.0963218-.5654863,1.8030164-1.7434991,3.2880335-3.5324131,4.459736-1.7857588,1.1513854-3.8582047,1.7278669-6.2110752,1.7278669h-4.1417844l8.825535,12.1761932h-12.1182534l-8.8600025-12.1761932ZM293.4604061,202.9519837c.0688871-.3336317-.0344675-.6312661-.3054745-.8912779-.271007-.278847-.6109489-.4182945-1.0182004-.4182945h-17.5163554c-.2490645,0-.5091241.084615-.7801311.250642-.2725368.1864398-.4542439.4088769-.5451213.6688887l-1.9675137,7.1885935h18.8055628c.7017786,0,1.1654879-.2600596,1.3926098-.7785536l1.9346238-6.0199983Z"/>
    <polygon points="324.4200762 201.615019 309.2800636 201.615019 311.8255885 193.0604909 352.3597558 193.0604909 349.7781858 201.615019 335.1128299 201.615019 326.2872948 230.649674 315.4582488 230.649674 324.4200762 201.615019"/>
    <path d="M355.7194013,199.2742432c1.8327512-4.1417366,5.1035748-6.2141825,9.809268-6.2141825h31.4689376l-2.5110575,8.610938h-27.1580188c-.2490645,0-.5090763.0829896-.7800833.2505942-.2945271.1676524-.4981768.3900895-.6109489.6688887l-1.4599672,4.9594903h18.5016659l-2.4108102,8.610938h-18.6034429l-1.3581424,4.5694009c-.0673574.3524669.0344675.6594711.3054267.9195307.2491123.2600118.5890064.3900417,1.0182482.3900417l26.5126024.028205c-.7456637,2.6191448-1.5836867,5.4810916-2.5110575,8.582733h-26.9199017c-3.2144137,0-5.7928285-.9759407-7.7415548-2.9261968-1.9674659-1.9314687-2.6128823-4.1699894-1.9329985-6.7155144l6.3818349-21.734867Z"/>
    <path d="M399.7142263,199.2742432c1.8092789-4.1417366,5.0691074-6.2141825,9.7763781-6.2141825h31.503405l-2.5471025,8.610938h-27.1564412c-.250642,0-.5106539.0829896-.7816609.2505942-.271007.1676524-.4637093.3900895-.5764815.6688887l-5.2962293,18.1398292c-.0673574.3524669.0344197.6594711.3054267.9195307.2725846.2600118.6234739.3900417,1.0526679.3900417l26.5471176.028205c-.769136,2.6191448-1.618202,5.4810916-2.545525,8.582733h-26.9543691c-3.5089408-.1112424-6.134348-1.1654879-7.8762696-3.1627364-1.7434991-1.9972485-2.3528227-4.1574167-1.8327512-6.4789748l6.3818349-21.734867Z"/>
    <path d="M443.1662723,199.2742432c1.9236287-4.1417366,5.1254696-6.2141825,9.6056184-6.2141825h2.9198865l-3.225361,11.4807249-.8474407,2.926149h17.3471254c.5655341,0,1.0746104-.1393996,1.5273245-.4182467.4746567-.2976344.7801311-.6782585.9164234-1.1419678l.4072515-1.4223446h.0344675l3.2238313-11.4243149h11.1016306l-9.472529,31.3765304c-1.7873364,4.1433142-5.00175,6.2142303-9.6400858,6.2142303h-2.9183568l3.2238313-11.0624782,1.0182004-3.3444435h-17.3127057c-1.3126797,0-2.1836405.5200715-2.6144599,1.5602144l-.3054267,1.0589304-3.4619484,11.7877769h-10.8635135l9.3362367-31.3765782Z"/>
  </g>
  <g>
    <polygon points="232.8354631 136.7604323 266.9232641 136.7604323 270.1998367 131.2292442 243.030947 131.2292442 266.3299308 96.0105994 259.7265227 96.0105994 232.8354631 136.7604323"/>
    <path d="M299.3967865,101.6025416c-.4662863-1.5510214-1.016344-3.0797179-1.652953-4.5846837-.1340128-.3168932-.2722329-.6324231-.4132329-.9465044-2.257438-5.0160982-5.3804423-9.5379401-9.2950192-13.4539442-4.1602884-4.1588505-9.0046473-7.425688-14.4004486-9.7082308-5.5870641-2.3621708-11.5203546-3.5599999-17.6351302-3.5599999-6.1147809,0-12.0494668,1.197829-17.6351355,3.5599999-5.3958066,2.2825428-10.2401602,5.5493803-14.4004486,9.7082308-3.8838589,3.8838803-6.9873183,8.3638418-9.2391805,13.3310725-.1605449.3545983-.3182992.7106025-.4690769,1.0693761-.6198547,1.4644914-1.1587393,2.9527136-1.6166485,4.4632606-1.2913622,4.2468291-1.9447201,8.6611795-1.9447201,13.1732649,0,6.1147862,1.1978237,12.0480768,3.5613686,17.6351622,2.2825694,5.3943846,5.5479743,10.2401495,9.7082574,14.4004486,4.1602884,4.1588931,9.004642,7.425688,14.4004486,9.7082308,5.5856688,2.3621708,11.5203546,3.5614058,17.6351355,3.5614058,6.1147756,0,12.0480661-1.199235,17.6351302-3.5614058,5.3958012-2.2825428,10.2401602-5.5493377,14.4004486-9.7082308,4.1602778-4.1602991,7.425688-9.0060639,9.7082521-14.4004486,2.3621495-5.5870854,3.5613739-11.5203759,3.5613739-17.6351622,0-4.4687992-.6407949-8.8399059-1.9084209-13.0518418M256.0000027,155.080336c-22.2924229,0-40.4259526-18.1349144-40.4259526-40.4259526,0-4.6111838.7748184-9.0437264,2.2029946-13.1732649h26.733316l-17.2191067,26.4903631h6.5978162l20.8139838-32.0229998h-34.5359377c6.7625523-12.899658,20.2862669-21.7214144,35.8328864-21.7214144,15.5954764,0,29.1568801,8.8775684,35.8971023,21.8442861h-21.7423652l-19.9316686,31.2844912h6.5587264l16.4079892-25.7533031h21.075049c1.4002543,4.0974998,2.1611196,8.4867136,2.1611196,13.0518418,0,22.2910382-18.1349357,40.4259526-40.4259526,40.4259526"/>
  </g>
</svg>