<?xml version="1.0" encoding="UTF-8"?>
<svg id="_Шар_1" data-name="Шар 1" xmlns="http://www.w3.org/2000/svg" viewBox="0 0 512 300">
  <defs>
    <style>
      .cls-1 {
        fill-rule: evenodd;
      }
    </style>
  </defs>
  <path d="M377.4241777,231.5177589c0,1.7567373-1.3944801,2.4796898-3.1000328,2.4796898l-4.8057056-.0245109v-4.9371515h4.3931048c2.1693381,0,3.5126335.6717679,3.5126335,2.4819727M378.1478511,239.2455526c0,2.5063635-2.1449473,2.7387367-4.1607315,2.7387367h-4.4686802v-5.5048681h4.8835639c1.6276944,0,3.7458479.3621371,3.7458479,2.7661313ZM366.5718402,226.4775172v18.091114h7.7011201c2.8677796,0,6.8725543-.9064241,6.8725543-5.0151299,0-2.8174361-1.9378058-4.0560795-3.5646592-4.5222679,1.5244842-.4913001,2.841106-1.783411,2.841106-3.9795429,0-3.0742002-2.4285052-4.5741734-6.2001857-4.5741734h-7.6499355ZM348.1713357,230.354811c.1023692-.2858408.2047384-.5693987.3346223-1.0087933.129163.4393946.2339353.7229525.3370254,1.0087933l3.1780112,7.7253907h-7.0285112l3.1788522-7.7253907ZM342.3806268,244.5686313l1.6031835-3.9040876h9.0710892l1.6024626,3.9040876h3.1000328l-7.6221805-18.091114h-3.2300368l-7.6490944,18.091114h3.1245437ZM319.8216736,226.4775172v18.091114h12.4546799v-2.7410196h-9.5104838v-15.3500944h-2.9441961ZM286.0702337,226.4775172v18.091114h12.6113576v-2.689835h-9.6648787v-5.0891434h8.734184v-2.6875521h-8.734184v-4.9371515h9.510604v-2.687432h-12.4570829ZM269.8925347,244.5686313l7.2876783-18.091114h-3.1788522l-5.6340311,14.6783265-5.6333102-14.6783265h-3.1788522l7.2876783,18.091114h3.0496892ZM247.7186676,226.4775172v18.091114h2.946479v-18.091114h-2.946479ZM223.786381,226.4775172v2.7142258h5.9954473v15.3768882h2.9465991v-15.3768882h5.9702154v-2.7142258h-14.9122618ZM209.3135138,230.354811c.1047722-.2858408.2078624-.5693987.3370254-1.0087933.1298839.4393946.2322531.7229525.3346223,1.0087933l3.1788522,7.7253907h-7.0285112l3.1780112-7.7253907ZM203.5259289,244.5686313l1.6000595-3.9040876h9.0710892l1.6031835,3.9040876h3.1025559l-7.6247037-18.091114h-3.2300368l-7.6489743,18.091114h3.1268266ZM179.9550585,226.4775172v18.091114h12.6114778v-2.689835h-9.6648787v-5.0891434h8.7364669v-2.6875521h-8.7364669v-4.9371515h9.5104838v-2.687432h-12.4570829ZM158.3245172,229.1649492h4.4190576c1.9402089,0,3.8261092.6992826,3.8261092,3.0245775,0,2.299222-1.8859003,2.9976636-3.8261092,2.9976636h-4.4190576v-6.0222411ZM158.3245172,244.5686313v-6.7718672h3.6694314l5.4284516,6.7718672h3.5395475l-5.7875849-7.0820988c2.3772004-.5669956,4.3929847-2.1182736,4.3929847-5.3481903,0-4.3166884-3.5669421-5.6608249-6.9529358-5.6608249h-7.2364937v18.091114h2.9465991ZM130.878756,235.6786106c-.0243908,6.1756747,4.9371515,9.224643,9.6136941,9.224643,1.9126941,0,3.720616-.4393946,5.2451002-1.1898618v-2.9189642c-1.1874588.904021-2.8677796,1.3946002-4.7277272,1.3946002-3.463852,0-7.1332834-2.066248-7.1332834-6.5104172.0267938-4.7813148,3.6182468-6.8238929,7.0796958-6.8238929,1.7079557,0,3.3859937.4669093,4.6521518,1.3441365v-2.8686207c-1.549716-.7740169-3.3324061-1.1874588-5.142731-1.1874588-4.7544009,0-9.5869003,3.1001529-9.5869003,9.5358358Z"/>
  <path d="M25.6298743,162.356666v45.0124132c0,.89525.7567151,1.5850406,1.6512441,1.5850406h6.3993971c.897653,0,1.5850406-.6897906,1.5850406-1.5850406v-30.2159776c0-.894529.4796454-1.0999884,1.0316221-.4126008,7.3655365,8.466366,14.6594627,16.9328521,22.0258403,25.4677045.2740659.2747868.6873876.4827693,1.030781.4827693.4133217,0,.7567151-.2079825,1.033905-.4827693,7.3631335-8.5348524,14.6579007-17.0013385,22.0258403-25.4677045.5511356-.6873876,1.0315019-.4819283,1.0315019.3432733v30.2853051c0,.89525.6873876,1.5850406,1.5843197,1.5850406h6.4687246c.8259225,0,1.5826376-.6897906,1.5826376-1.5850406v-45.0124132c0-.8969321-.6873876-1.5843197-1.5826376-1.5843197h-6.4687246c-.8969321,0-2.064686.5511356-2.6158216,1.2409263-7.7096509,8.8766839-15.4194219,17.7564917-23.0597453,26.6354584l-23.0566213-26.6354584c-.6213042-.8260426-1.5827577-1.2409263-2.6166627-1.2409263h-6.4702866c-.8929671,0-1.5803547.6873876-1.5803547,1.5843197"/>
  <path d="M128.0929198,199.3160349c-.8969321,0-1.5843197-.6882287-1.5843197-1.5827577v-25.7402085c0-.89525.6873876-1.5850406,1.5843197-1.5850406h25.7400883c.8953701,0,1.5851607.6897906,1.5851607,1.5850406v25.7402085c0,.894529-.6897906,1.5827577-1.5851607,1.5827577h-25.7400883ZM116.8720772,199.3160349c0,5.3009707,4.3371142,9.6380849,9.6365229,9.6380849h28.9095687c5.2985677,0,9.6356818-4.3371142,9.6356818-9.6380849v-28.9080067c0-5.2985677-4.3371142-9.6356818-9.6356818-9.6356818h-28.9095687c-5.2994087,0-9.6365229,4.3371142-9.6365229,9.6356818v28.9080067Z"/>
  <path d="M272.035079,199.3160349c-.89525,0-1.5826376-.6882287-1.5826376-1.5827577v-25.7402085c0-.89525.6873876-1.5850406,1.5826376-1.5850406h25.7448944c.8922462,0,1.5803547.6897906,1.5803547,1.5850406v25.7402085c0,.894529-.6881085,1.5827577-1.5803547,1.5827577h-25.7448944ZM260.8166394,199.3160349c0,5.3009707,4.3371142,9.6380849,9.635802,9.6380849h28.9078866c5.3009707,0,9.635802-4.3371142,9.635802-9.6380849v-28.9080067c0-5.2985677-4.3348313-9.6356818-9.635802-9.6356818h-28.9078866c-5.2986878,0-9.635802,4.3371142-9.635802,9.6356818v28.9080067Z"/>
  <path d="M380.969132,207.3690792v-6.4687246c0-.8953701-.6873876-1.5843197-1.5826376-1.5843197h-30.2844641c-.2078624,0-.4133217-.136252-.5519767-.4134418v-.2054593c0-.136252.0693275-.3433934.2078624-.4126008l30.9726927-26.8434409c.8252015-.6204631,1.2385232-1.6512441,1.2385232-2.6158216v-6.4686045c0-.8969321-.6873876-1.5843197-1.5826376-1.5843197h-45.0139752c-.8953701,0-1.5827577.6873876-1.5827577,1.5843197v6.4686045c0,.8953701.6873876,1.5827577,1.5827577,1.5827577h30.2843439c.2055795,0,.4134418.138655.5495737.4126008v.2078624c0,.138655-.0669245.3441143-.2054593.4126008l-30.9725726,26.8434409c-.8276046.6180601-1.2386434,1.6519651-1.2386434,2.6158216v6.4687246c0,.89525.6873876,1.5850406,1.5827577,1.5850406h45.0139752c.89525,0,1.5826376-.6897906,1.5826376-1.5850406"/>
  <path d="M452.9399713,207.3690792v-6.4687246c0-.8953701-.6875078-1.5843197-1.5827577-1.5843197h-30.2844641c-.2054593,0-.4126008-.136252-.5511356-.4134418v-.2054593c0-.136252.0693275-.3433934.2094243-.4126008l30.9702897-26.8434409c.8283255-.6204631,1.2386434-1.6512441,1.2386434-2.6158216v-6.4686045c0-.8969321-.6875078-1.5843197-1.5827577-1.5843197h-45.0139752c-.8953701,0-1.5827577.6873876-1.5827577,1.5843197v6.4686045c0,.8953701.6873876,1.5827577,1.5827577,1.5827577h30.285185c.2070213,0,.4148837.138655.5511356.4126008v.2078624c0,.138655-.0693275.3441143-.2054593.4126008l-30.9742547,26.8434409c-.8259225.6180601-1.2393643,1.6519651-1.2393643,2.6158216v6.4687246c0,.89525.6873876,1.5850406,1.5827577,1.5850406h45.0139752c.89525,0,1.5827577-.6897906,1.5827577-1.5850406"/>
  <path d="M486.3701257,207.3690792v-45.0124132c0-.8969321-.6875078-1.5843197-1.5827577-1.5843197h-6.4687246c-.89525,0-1.5827577.6873876-1.5827577,1.5843197v45.0124132c0,.89525.6875078,1.5850406,1.5827577,1.5850406h6.4687246c.89525,0,1.5827577-.6897906,1.5827577-1.5850406"/>
  <path d="M237.0245698,170.4080281c0-5.2985677-4.3386761-9.6356818-9.6356818-9.6356818h-28.9071657c-5.3018118,0-9.635802,4.3371142-9.635802,9.6356818v36.961051c0,.89525.6873876,1.5850406,1.5819166,1.5850406h6.4687246c.897653,0,1.5851607-.6897906,1.5851607-1.5850406v-13.3185703c0-.8953701.6873876-1.5827577,1.5819166-1.5827577h27.325249c5.2992886,0,9.6356818-4.3371142,9.6356818-9.6356818v-12.4240412ZM225.8061303,170.4080281c.89525,0,1.5827577.6897906,1.5827577,1.5850406v9.2538399c0,.8953701-.6897906,1.5851607-1.5827577,1.5851607h-25.7424913c-.892126,0-1.5819166-.6897906-1.5819166-1.5851607v-9.2538399c0-.89525.6873876-1.5850406,1.5819166-1.5850406h25.7424913Z"/>
  <path class="cls-1" d="M216.6530976,190.3786744h8.6285707c.9866854,0,2.2614944.8103027,2.82849,1.7945851l8.6380627,14.9839923c.5692785.9865652.2251642,1.7968679-.761401,1.7968679h-8.6286909c-.9865652,0-2.2637773-.8103027-2.8307729-1.7968679l-8.6356596-14.9839923c-.5669956-.9866854-.2252843-1.7945851.761401-1.7945851"/>
  <path class="cls-1" d="M274.0702234,105.3470844c0,2.2018544-1.7850088,3.9868186-3.9868186,3.9868186-2.2015867,0-3.9873985-1.7849642-3.9873985-3.9868186,0-2.2024342,1.7858117-3.9873985,3.9873985-3.9873985,2.2018097,0,3.9868186,1.7849642,3.9868186,3.9873985"/>
  <path class="cls-1" d="M269.2987806,98.5240658c0,1.3365375-1.0830847,2.4196221-2.4196221,2.4196221-1.3368497,0-2.4196667-1.0830847-2.4196667-2.4196221s1.082817-2.4196221,2.4196667-2.4196221c1.3365375,0,2.4196221,1.0830847,2.4196221,2.4196221"/>
  <path class="cls-1" d="M264.5688217,103.6916122c0,3.2489864-2.6344905,5.8834769-5.8834323,5.8834769-3.2492986,0-5.8834769-2.6344905-5.8834769-5.8834769,0-3.249254,2.6341783-5.8834769,5.8834769-5.8834769,3.2489418,0,5.8834323,2.6342229,5.8834323,5.8834769"/>
  <path class="cls-1" d="M276.8263106,97.8800852c0,1.6922724-1.3722225,3.0636027-3.0644949,3.0636027-1.6911572,0-3.0627998-1.3713303-3.0627998-3.0636027,0-1.6911572,1.3716426-3.0627552,3.0627998-3.0627552,1.6922724,0,3.0644949,1.371598,3.0644949,3.0627552"/>
  <path class="cls-1" d="M267.3456954,110.1460046c0,1.1088225-.8992177,2.00862-2.0088877,2.00862-1.1085102,0-2.0077279-.8997975-2.0077279-2.00862,0-1.10967.8992177-2.00862,2.0077279-2.00862,1.10967,0,2.0088877.89895,2.0088877,2.00862"/>
  <path class="cls-1" d="M252.9799362,109.1357174c0,1.0392367-.8418986,1.8811353-1.8808677,1.8811353-1.0383446,0-1.8802432-.8418986-1.8802432-1.8811353,0-1.038077.8418986-1.8799756,1.8802432-1.8799756,1.0389691,0,1.8808677.8418986,1.8808677,1.8799756"/>
  <path class="cls-1" d="M300.7056935,113.3204539c-.0631179,2.3924123-2.0229386,4.3124443-4.4308739,4.3124443-2.4479471,0-4.4326136-1.9846219-4.4326136-4.4335057,0-2.4476795,1.9846665-4.4323013,4.4326136-4.4323013.9255353,0,1.7841167.2832498,2.4950513.7682537l.5393789.5393343c.8983255.8992177,1.3666467,1.9864061,1.3964437,3.2457747"/>
  <path class="cls-1" d="M255.5562601,116.3957435c0,2.2869185-1.8536579,4.1400411-4.1399965,4.1400411s-4.1399965-1.8531226-4.1399965-4.1400411c0-2.286294,1.8536579-4.1391044,4.1399965-4.1391044s4.1399965,1.8528103,4.1399965,4.1391044"/>
  <path class="cls-1" d="M260.4858321,113.030424c0,1.3514806-1.0962435,2.4471442-2.4467873,2.4471442-1.3517482,0-2.4479917-1.0956636-2.4479917-2.4471442,0-1.3514359,1.0962435-2.4470996,2.4479917-2.4470996,1.3505438,0,2.4467873,1.0956636,2.4467873,2.4470996"/>
  <path class="cls-1" d="M260.0982036,118.1541224c0,1.1278248-.9141161,2.0416733-2.0419409,2.0416733-1.1277801,0-2.0416287-.9138485-2.0416287-2.0416733,0-1.1277801.9138485-2.0418963,2.0416287-2.0418963,1.1278248,0,2.0419409.9141161,2.0419409,2.0418963"/>
  <path class="cls-1" d="M280.0489792,99.8722901c0,.7507234-.6083402,1.3590636-1.3590636,1.3590636-.7498313,0-1.3581715-.6083402-1.3581715-1.3590636,0-.7500989.6083402-1.359019,1.3581715-1.359019.7507234,0,1.3590636.6089201,1.3590636,1.359019"/>
  <path class="cls-1" d="M291.5796982,112.0634048c0,1.4426558-1.1693086,2.6120089-2.6119643,2.6120089-1.4418082,0-2.6111168-1.1693532-2.6111168-2.6120089,0-1.4417636,1.1693086-2.6111168,2.6111168-2.6111168,1.4426558,0,2.6119643,1.1693532,2.6119643,2.6111168"/>
  <path class="cls-1" d="M290.6383722,122.3935462c0,2.0922122-1.6963762,3.7885883-3.7885883,3.7885883-2.0925244,0-3.7886329-1.6963762-3.7886329-3.7885883,0-2.0925244,1.6961085-3.7886329,3.7886329-3.7886329,2.0922122,0,3.7885883,1.6961085,3.7885883,3.7886329"/>
  <path class="cls-1" d="M300.7056935,120.0127761c0,1.160878-.9404338,2.1015795-2.1015795,2.1015795-1.1599413,0-2.1006873-.9407015-2.1006873-2.1015795,0-1.1602535.9407461-2.1006873,2.1006873-2.1006873,1.1611456,0,2.1015795.9404338,2.1015795,2.1006873"/>
  <path class="cls-1" d="M286.6889783,103.8316312c0,2.001037-1.6218391,3.6228761-3.6228315,3.6228761-2.0004571,0-3.6222962-1.6218391-3.6222962-3.6228761,0-2.0004125,1.6218391-3.6228315,3.6222962-3.6228315,2.0009923,0,3.6228315,1.622419,3.6228315,3.6228315"/>
  <path class="cls-1" d="M278.6334887,104.2987926c0,1.0044438-.813529,1.8182851-1.8171253,1.8182851-1.0044438,0-1.8180175-.8138413-1.8180175-1.8182851,0-1.0032841.8135736-1.8171253,1.8180175-1.8171253,1.0035963,0,1.8171253.8138413,1.8171253,1.8171253"/>
  <path class="cls-1" d="M285.5462551,110.7882456c0,1.11703-.9050611,2.0217789-2.0211544,2.0217789-1.1161379,0-2.021199-.9047488-2.021199-2.0217789,0-1.1164055.9050611-2.0211544,2.021199-2.0211544,1.1160933,0,2.0211544.9047488,2.0211544,2.0211544"/>
  <path class="cls-1" d="M293.4590939,105.440936c0,1.5660367-1.2695835,2.834728-2.8356201,2.834728-1.5654122,0-2.8350403-1.2686913-2.8350403-2.834728,0-1.5663043,1.2696281-2.8359324,2.8350403-2.8359324,1.5660367,0,2.8356201,1.2696281,2.8356201,2.8359324"/>
  <path class="cls-1" d="M270.9858341,111.4942289c0,.861793-.6984003,1.5601933-1.5601933,1.5601933s-1.5595688-.6984003-1.5595688-1.5601933c0-.8609009.6977758-1.5595688,1.5595688-1.5595688s1.5601933.6986679,1.5601933,1.5595688"/>
  <path class="cls-1" d="M252.1962042,84.7833295c0,1.2213641-.9904375,2.2114893-2.2118015,2.2114893s-2.2117569-.9901252-2.2117569-2.2114893c0-1.2216763.9903929-2.2118015,2.2117569-2.2118015s2.2118015.9901252,2.2118015,2.2118015"/>
  <path class="cls-1" d="M256.7188778,86.5922473c0,.8518904-.6910848,1.5429306-1.5429306,1.5429306-.8527379,0-1.5429306-.6910402-1.5429306-1.5429306,0-.8526933.6901927-1.542886,1.5429306-1.542886.8518458,0,1.5429306.6901927,1.5429306,1.542886"/>
  <path class="cls-1" d="M266.1216996,85.0493613c0,2.2462376-1.8206492,4.0668868-4.0671991,4.0668868-2.2462822,0-4.0677789-1.8206492-4.0677789-4.0668868,0-2.2465944,1.8214967-4.0680912,4.0677789-4.0680912,2.2465498,0,4.0671991,1.8214967,4.0671991,4.0680912"/>
  <path class="cls-1" d="M256.0801161,79.9712505c0,1.0307615-.8360552,1.8662368-1.8662368,1.8662368-1.0307615,0-1.8668167-.8354753-1.8668167-1.8662368s.8360552-1.8662368,1.8668167-1.8662368c1.0301816,0,1.8662368.8354753,1.8662368,1.8662368"/>
  <path class="cls-1" d="M264.558027,77.4563048c0,.8807953-.7144585,1.5952538-1.5952538,1.5952538-.8816874,0-1.5949415-.7144585-1.5949415-1.5952538s.7132541-1.5952538,1.5949415-1.5952538c.8807953,0,1.5952538.7144585,1.5952538,1.5952538"/>
  <path class="cls-1" d="M269.107286,69.8308641c0,.8810629-.7135664,1.5952538-1.5952538,1.5952538-.8807953,0-1.5949415-.7141909-1.5949415-1.5952538,0-.8807953.7141463-1.5949861,1.5949415-1.5949861.8816874,0,1.5952538.7141909,1.5952538,1.5949861"/>
  <path class="cls-1" d="M287.5548751,78.6835123c0,2.3848738-1.934083,4.3189122-4.3189122,4.3189122-2.3857214,0-4.3189122-1.9340383-4.3189122-4.3189122,0-2.3857214,1.9331908-4.3189122,4.3189122-4.3189122,2.3848292,0,4.3189122,1.9331908,4.3189122,4.3189122"/>
  <path class="cls-1" d="M277.138822,76.5457125c0,1.7755969-1.4394441,3.215041-3.2153533,3.215041s-3.2150856-1.4394441-3.2150856-3.215041c0-1.7759091,1.4391765-3.2153533,3.2150856-3.2153533s3.2153533,1.4394441,3.2153533,3.2153533"/>
  <path class="cls-1" d="M272.9581892,91.3786332c0,1.9910452-1.6134085,3.6044091-3.6038738,3.6044091-1.9905099,0-3.6038738-1.6133639-3.6038738-3.6044091,0-1.9905099,1.6133639-3.6038738,3.6038738-3.6038738,1.9904653,0,3.6038738,1.6133639,3.6038738,3.6038738"/>
  <path class="cls-1" d="M270.4017151,81.285574c0,.797783-.6471923,1.4449753-1.4452875,1.4449753-.7971585,0-1.4443954-.6471923-1.4443954-1.4449753,0-.7972031.6472369-1.4435479,1.4443954-1.4435479.7980953,0,1.4452875.6463448,1.4452875,1.4435479"/>
  <path class="cls-1" d="M276.3588815,84.8055435c0,1.5057736-1.2205166,2.7262902-2.7262902,2.7262902-1.5049261,0-2.7253981-1.2205166-2.7253981-2.7262902,0-1.505506,1.220472-2.7253981,2.7253981-2.7253981,1.5057736,0,2.7262902,1.2198921,2.7262902,2.7253981"/>
  <path class="cls-1" d="M276.3588815,67.3732375c0,1.0389245-.8427907,1.8817152-1.8817598,1.8817152-1.0400842,0-1.8829196-.8427907-1.8829196-1.8817152,0-1.0392813.8428353-1.8826519,1.8829196-1.8826519,1.0389691,0,1.8817598.8433706,1.8817598,1.8826519"/>
  <path class="cls-1" d="M278.4116171,70.4956313c0,1.5163007,1.2295716,2.7452478,2.7461846,2.7452478,1.5163007,0,2.7452478-1.2289472,2.7452478-2.7452478,0-1.5166575-1.2289472-2.7461846-2.7452478-2.7461846-1.5166129,0-2.7461846,1.229527-2.7461846,2.7461846"/>
  <path class="cls-1" d="M289.7391992,62.7990882c0,.7936792.6439806,1.4377045,1.4376599,1.4377045.7939915,0,1.4377045-.6440252,1.4377045-1.4377045,0-.7939469-.643713-1.4379721-1.4377045-1.4379721-.7936792,0-1.4376599.6440252-1.4376599,1.4379721"/>
  <path class="cls-1" d="M285.340754,67.2016372c0,1.2140487.9842818,2.199178,2.1992226,2.199178s2.1992226-.9851293,2.1992226-2.199178c0-1.2149408-.9842818-2.1992226-2.1992226-2.1992226s-2.1992226.9842818-2.1992226,2.1992226"/>
  <path class="cls-1" d="M297.2336759,74.3646001c0,2.5032589-2.0293619,4.5326208-4.5328884,4.5326208-2.5041064,0-4.5334683-2.0293619-4.5334683-4.5326208,0-2.504374,2.0293619-4.533736,4.5334683-4.533736,2.5035265,0,4.5328884,2.0293619,4.5328884,4.533736"/>
  <path class="cls-1" d="M286.1493318,60.2526059c0,.7936792-.6428209,1.4377045-1.4376599,1.4377045-.7936792,0-1.4377045-.6440252-1.4377045-1.4377045,0-.7939915.6440252-1.4377045,1.4377045-1.4377045.794839,0,1.4376599.643713,1.4376599,1.4377045"/>
  <path class="cls-1" d="M293.5602609,56.881443c0,.9869136-.7989428,1.7858563-1.7850088,1.7858563-.9860214,0-1.7858563-.7989428-1.7858563-1.7858563,0-.9851739.7998349-1.7846966,1.7858563-1.7846966.986066,0,1.7850088.7995227,1.7850088,1.7846966"/>
  <path class="cls-1" d="M280.0223493,83.9621729c0,.6802455-.5519133,1.2321588-1.2321588,1.2321588s-1.2313113-.5519133-1.2313113-1.2321588c0-.6805578.5510658-1.2316235,1.2313113-1.2316235s1.2321588.5510658,1.2321588,1.2316235"/>
  <path class="cls-1" d="M293.0945715,85.2820276c0,1.7759091-1.4394441,3.2153533-3.2153533,3.2153533-1.7756415,0-3.2150856-1.4394441-3.2150856-3.2153533,0-1.7755969,1.4394441-3.215041,3.2150856-3.215041,1.7759091,0,3.2153533,1.4394441,3.2153533,3.215041"/>
  <path class="cls-1" d="M285.1475197,72.1604262c0,.6463448.5247481,1.1699331,1.1710928,1.1699331s1.1698885-.5235883,1.1698885-1.1699331-.5235437-1.1702007-1.1698885-1.1702007-1.1710928.523856-1.1710928,1.1702007"/>
  <path class="cls-1" d="M295.3642274,67.0335162c0,1.0579713-.8568417,1.9150807-1.9150807,1.9150807-1.0573469,0-1.9141886-.8571093-1.9141886-1.9150807,0-1.0573469.8568417-1.9141886,1.9141886-1.9141886,1.058239,0,1.9150807.8568417,1.9150807,1.9141886"/>
  <path class="cls-1" d="M294.5594412,62.6374352c0,1.6978928,1.3765939,3.0741744,3.0744421,3.0741744s3.0741744-1.3762816,3.0741744-3.0741744c0-1.6978482-1.3763262-3.0744421-3.0741744-3.0744421s-3.0744421,1.3765939-3.0744421,3.0744421"/>
  <path class="cls-1" d="M297.7066807,75.4784185c0,.8243683.6688709,1.4931947,1.4932393,1.4931947.824636,0,1.4932393-.6688263,1.4932393-1.4931947,0-.8246806-.6686033-1.4935515-1.4932393-1.4935515-.8243683,0-1.4932393.6688709-1.4932393,1.4935515"/>
  <path class="cls-1" d="M291.2838695,80.2033369c0,.6364422-.5153808,1.1518229-1.1517783,1.1518229-.63555,0-1.1518229-.5153808-1.1518229-1.1518229,0-.6358177.5162729-1.1517783,1.1518229-1.1517783.6363976,0,1.1517783.5159606,1.1517783,1.1517783"/>
  <path class="cls-1" d="M294.4094749,81.2200921c0,.534383-.4332606.9670192-.9679113.9670192-.5334909,0-.9670192-.4326361-.9670192-.9670192,0-.5346953.4335283-.9670192.9670192-.9670192.5346507,0,.9679113.4323239.9679113.9670192"/>
  <path class="cls-1" d="M279.6850367,60.088321c0,.7036192-.570068,1.2727951-1.2734196,1.2727951-.7027717,0-1.2727951-.5691759-1.2727951-1.2727951,0-.7033516.5700234-1.2734196,1.2727951-1.2734196.7033516,0,1.2734196.570068,1.2734196,1.2734196"/>
  <path class="cls-1" d="M245.6836452,84.2802155c0,1.562825-1.2669517,2.8297767-2.8297767,2.8297767s-2.8297767-1.2669517-2.8297767-2.8297767,1.2669517-2.8297767,2.8297767-2.8297767,2.8297767,1.2669517,2.8297767,2.8297767"/>
  <path class="cls-1" d="M235.7522391,86.4604358c0,2.2772389-1.8463424,4.1233137-4.1233137,4.1233137-2.2781311,0-4.1242059-1.8460748-4.1242059-4.1233137,0-2.2772835,1.8460748-4.1233583,4.1242059-4.1233583,2.2769713,0,4.1233137,1.8460748,4.1233137,4.1233583"/>
  <path class="cls-1" d="M239.8697541,87.7589687c0,.8793233-.7124066,1.5917299-1.5908824,1.5917299-.8793233,0-1.5920421-.7124066-1.5920421-1.5917299,0-.8784757.7127189-1.59115,1.5920421-1.59115.8784757,0,1.5908824.7126743,1.5908824,1.59115"/>
  <path class="cls-1" d="M246.2355585,93.874532c0,2.498263-2.0252582,4.5235657-4.5235211,4.5235657-2.4985752,0-4.5238334-2.0253028-4.5238334-4.5235657,0-2.4985306,2.0252582-4.5238334,4.5238334-4.5238334,2.498263,0,4.5235211,2.0253028,4.5235211,4.5238334"/>
  <path class="cls-1" d="M256.7188778,93.8496863c0,2.498263-2.0253028,4.5235657-4.5235657,4.5235657-2.4985306,0-4.5235211-2.0253028-4.5235211-4.5235657,0-2.4985752,2.0249905-4.5229412,4.5235211-4.5229412,2.498263,0,4.5235657,2.024366,4.5235657,4.5229412"/>
  <path class="cls-1" d="M239.7238916,80.9152082c0,1.1318839-.9173724,2.0492117-2.0498362,2.0492117-1.1321962,0-2.0501485-.9173278-2.0501485-2.0492117,0-1.1328207.9179523-2.0501485,2.0501485-2.0501485,1.1324638,0,2.0498362.9173278,2.0498362,2.0501485"/>
  <path class="cls-1" d="M236.259457,92.9662593c0,1.0796054-.874372,1.9548249-1.9539327,1.9548249-1.0790255,0-1.9539773-.8752195-1.9539773-1.9548249,0-1.0789809.8749518-1.9539327,1.9539773-1.9539327,1.0795608,0,1.9539327.8749518,1.9539327,1.9539327"/>
  <path class="cls-1" d="M231.7002508,94.3989678c0,1.6166202-1.3102198,2.9268399-2.9268399,2.9268399-1.6159957,0-2.9267953-1.3102198-2.9267953-2.9268399,0-1.6159957,1.3107996-2.9267953,2.9267953-2.9267953,1.6166202,0,2.9268399,1.3107996,2.9268399,2.9267953"/>
  <path class="cls-1" d="M221.6385053,87.7896579c0,1.1070382-.8980579,2.0054084-2.0059883,2.0054084s-2.0063005-.8983701-2.0063005-2.0054084c0-1.1079304.8983701-2.0062559,2.0063005-2.0062559s2.0059883.8983255,2.0059883,2.0062559"/>
  <path class="cls-1" d="M228.2487074,80.0250457c0,1.4990827-1.2155207,2.714871-2.7154955,2.714871-1.4990827,0-2.7146033-1.2157883-2.7146033-2.714871,0-1.4996626,1.2155207-2.7154955,2.7146033-2.7154955,1.4999748,0,2.7154955,1.2158329,2.7154955,2.7154955"/>
  <path class="cls-1" d="M236.0092158,75.8040442c0,2.0267302-1.6432055,3.6708278-3.6710954,3.6708278-2.0276223,0-3.6708278-1.6440976-3.6708278-3.6708278,0-2.0278899,1.6432055-3.671943,3.6708278-3.671943,2.0278899,0,3.6710954,1.644053,3.6710954,3.671943"/>
  <path class="cls-1" d="M243.1505893,76.5457125c0,1.0389245-.8436829,1.8817152-1.8829196,1.8817152-1.0389245,0-1.8817152-.8427907-1.8817152-1.8817152,0-1.0401288.8427907-1.8829196,1.8817152-1.8829196,1.0392367,0,1.8829196.8427907,1.8829196,1.8829196"/>
  <path class="cls-1" d="M241.7833627,67.0335162c0,.8524703-.6913971,1.5429306-1.5432429,1.5429306s-1.5429306-.6904603-1.5429306-1.5429306c0-.8518458.6910848-1.5429306,1.5429306-1.5429306s1.5432429.6910848,1.5432429,1.5429306"/>
  <path class="cls-1" d="M225.2405948,72.1329488c0,2.2796031-1.8478144,4.1283096-4.1283096,4.1283096s-4.1283096-1.8487066-4.1283096-4.1283096c0-2.2804506,1.8478144-4.1291572,4.1283096-4.1291572s4.1283096,1.8487066,4.1283096,4.1291572"/>
  <path class="cls-1" d="M216.3203682,77.0619854c0,.6694062-.5428582,1.2122644-1.2125767,1.2122644-.6694508,0-1.212309-.5428582-1.212309-1.2122644,0-.6688709.5428582-1.2117291,1.212309-1.2117291.6697184,0,1.2125767.5428582,1.2125767,1.2117291"/>
  <path class="cls-1" d="M236.0092158,66.4085378c0,1.0672941-.8653169,1.9334585-1.9335031,1.9334585-1.0672941,0-1.9331462-.8661644-1.9331462-1.9334585,0-1.0681862.8658522-1.9331908,1.9331462-1.9331908,1.0681862,0,1.9335031.8650047,1.9335031,1.9331908"/>
  <path class="cls-1" d="M251.2738805,102.8262953c0,2.458831-1.993097,4.452508-4.452508,4.452508-2.4593663,0-4.4530878-1.9936769-4.4530878-4.452508,0-2.4593663,1.9937215-4.4530432,4.4530878-4.4530432,2.4594109,0,4.452508,1.9936769,4.452508,4.4530432"/>
  <path class="cls-1" d="M237.2983814,99.2358926c0,1.8013347-1.4607659,3.2624129-3.2624129,3.2624129-1.8013347,0-3.2624129-1.4610781-3.2624129-3.2624129,0-1.801647,1.4610781-3.263305,3.2624129-3.263305,1.801647,0,3.2624129,1.461658,3.2624129,3.263305"/>
  <path class="cls-1" d="M224.6682073,109.6040385c0,.883427-.716778,1.599313-1.6002051,1.599313s-1.5993576-.7158859-1.5993576-1.599313.7159305-1.5993576,1.5993576-1.5993576,1.6002051.7159305,1.6002051,1.5993576"/>
  <path class="cls-1" d="M219.0896588,61.5859317c0,.9784384-.7939915,1.7715377-1.7724299,1.7715377-.978706,0-1.7718054-.7930994-1.7718054-1.7715377,0-.9787506.7930994-1.7718054,1.7718054-1.7718054.9784384,0,1.7724299.7930547,1.7724299,1.7718054"/>
  <path class="cls-1" d="M225.0210428,64.3926024c0,1.1129263-.9024293,2.0159354-2.0158908,2.0159354-1.1138184,0-2.0170952-.9030092-2.0170952-2.0159354,0-1.1137738.9032768-2.0170952,2.0170952-2.0170952,1.1134615,0,2.0158908.9033214,2.0158908,2.0170952"/>
  <path class="cls-1" d="M215.3764551,68.5598087c0,1.1137738-.9033214,2.0162031-2.0162031,2.0162031-1.1137738,0-2.0168276-.9024293-2.0168276-2.0162031,0-1.1138184.9030538-2.0162477,2.0168276-2.0162477,1.1128817,0,2.0162031.9024293,2.0162031,2.0162477"/>
  <path class="cls-1" d="M218.6072867,66.294212c0,.3654145-.2958287.6612432-.6603511.6612432-.3654145,0-.6621354-.2958287-.6621354-.6612432,0-.3645224.2967209-.6612432.6621354-.6612432.3645224,0,.6603511.2967209.6603511.6612432"/>
  <path class="cls-1" d="M229.7743754,70.5760118c0,.8079978-.6553998,1.4633977-1.4625501,1.4633977-.8079978,0-1.4633977-.6553998-1.4633977-1.4633977s.6553998-1.4634423,1.4633977-1.4634423c.8071503,0,1.4625501.6554444,1.4625501,1.4634423"/>
  <path class="cls-1" d="M241.7833627,106.4328008c0,1.7782733-1.4420759,3.2200369-3.2203492,3.2200369-1.7782287,0-3.2200369-1.4417636-3.2200369-3.2200369,0-1.7782287,1.4418082-3.2203045,3.2200369-3.2203045,1.7782733,0,3.2203492,1.4420759,3.2203492,3.2203045"/>
  <path class="cls-1" d="M241.5527038,100.8981003c0,.8843192-.7159305,1.6002051-1.5999374,1.6002051-.883427,0-1.5993576-.7158859-1.5993576-1.6002051,0-.883427.7159305-1.5993576,1.5993576-1.5993576.8840069,0,1.5999374.7159305,1.5999374,1.5993576"/>
  <path class="cls-1" d="M226.593815,86.6767316c0,1.107975-.8980579,2.0063005-2.0059883,2.0063005s-2.0054084-.8983255-2.0054084-2.0063005c0-1.1079304.897478-2.0062559,2.0054084-2.0062559s2.0059883.8983255,2.0059883,2.0062559"/>
  <path class="cls-1" d="M234.6095159,109.3204765c0,2.4596786-1.9936769,4.4533555-4.4530878,4.4533555-2.4587864,0-4.452508-1.9936769-4.452508-4.4533555,0-2.4594109,1.9937215-4.4522403,4.452508-4.4522403,2.4594109,0,4.4530878,1.9928294,4.4530878,4.4522403"/>
  <path class="cls-1" d="M224.409491,114.3497434c0,1.5221441-1.2345229,2.7560872-2.7569793,2.7560872-1.5212966,0-2.7560872-1.2339431-2.7560872-2.7560872,0-1.5221887,1.2347906-2.7560872,2.7560872-2.7560872,1.5224564,0,2.7569793,1.2338984,2.7569793,2.7560872"/>
  <path class="cls-1" d="M219.7956421,124.7973777c0,.7384121-.5984376,1.3365375-1.3356899,1.3365375-.7384121,0-1.3368051-.5981254-1.3368051-1.3365375s.598393-1.3365375,1.3368051-1.3365375c.7372523,0,1.3356899.5981254,1.3356899,1.3365375"/>
  <path class="cls-1" d="M213.8855799,130.3087045c0,.6960361-.5642246,1.2605284-1.2611529,1.2605284-.695144,0-1.2596363-.5644923-1.2596363-1.2605284s.5644923-1.2602607,1.2596363-1.2602607c.6969283,0,1.2611529.5642246,1.2611529,1.2602607"/>
  <path class="cls-1" d="M239.6835229,112.6965907c0,1.2842143-1.0401288,2.3243431-2.3237187,2.3243431-1.2836344,0-2.3243431-1.0401288-2.3243431-2.3243431,0-1.2827423,1.0407087-2.3237187,2.3243431-2.3237187,1.2835898,0,2.3237187,1.0409764,2.3237187,2.3237187"/>
  <path class="cls-1" d="M230.3882468,116.3601031c0,.8939541-.7249856,1.6197872-1.6197872,1.6197872-.8942664,0-1.6200995-.7258331-1.6200995-1.6197872,0-.8951139.7258331-1.6200995,1.6200995-1.6200995.8948016,0,1.6197872.7249856,1.6197872,1.6200995"/>
  <path class="cls-1" d="M222.0594546,83.6578243c0,.7302491-.5917021,1.3219512-1.3207468,1.3219512-.7299815,0-1.321639-.5917021-1.321639-1.3219512,0-.7299369.5916575-1.3207468,1.321639-1.3207468.7290448,0,1.3207468.59081,1.3207468,1.3207468"/>
  <path class="cls-1" d="M248.1181658,88.7739397c0,.6720826-.5443302,1.2172603-1.2172603,1.2172603-.6720826,0-1.2172603-.5451777-1.2172603-1.2172603,0-.6726624.5451777-1.2181524,1.2172603-1.2181524.6729301,0,1.2172603.54549,1.2172603,1.2181524"/>
  <path class="cls-1" d="M250.0010853,77.0154611c0,1.0389691-.8427907,1.8817598-1.8820274,1.8817598-1.0389691,0-1.8826073-.8427907-1.8826073-1.8817598,0-1.0392367.8436383-1.882875,1.8826073-1.882875,1.0392367,0,1.8820274.8436383,1.8820274,1.882875"/>
  <path class="cls-1" d="M264.4594918,94.2349952c0,1.658104-1.3441205,3.0022245-3.0022245,3.0022245s-3.0022245-1.3441205-3.0022245-3.0022245,1.3441205-3.0022691,3.0022245-3.0022691,3.0022245,1.3441651,3.0022245,3.0022691"/>
  <path class="cls-1" d="M280.6926922,111.6375042c0,2.3102922-1.8727047,4.1829523-4.1829969,4.1829523s-4.1829523-1.8726601-4.1829523-4.1829523c0-2.3103368,1.8726601-4.1829969,4.1829523-4.1829969s4.1829969,1.8726601,4.1829969,4.1829969"/>
  <path class="cls-1" d="M285.4053439,116.5620803c0,1.6277271-1.3192748,2.9467343-2.9466897,2.9467343s-2.9466897-1.3190072-2.9466897-2.9467343c0-1.6273703,1.3192748-2.9466897,2.9466897-2.9466897s2.9466897,1.3193194,2.9466897,2.9466897"/>
  <path class="cls-1" d="M271.912217,113.3487789c0,.3663066-.2973007.6644995-.6644549.6644995-.3671988,0-.6644995-.2981929-.6644995-.6644995,0-.3671542.2973007-.6656147.6644995-.6656147.3671542,0,.6644549.2984605.6644549.6656147"/>
  <path class="cls-1" d="M278.5606913,117.0678261c0,.548434-.444323.9924894-.992757.9924894-.5487016,0-.992757-.4440553-.992757-.9924894,0-.5487016.4440553-.992757.992757-.992757.548434,0,.992757.4440553.992757.992757"/>
  <path class="cls-1" d="M282.002912,120.6541696c0,.5171204-.4192097.9354379-.9354379.9354379-.5162729,0-.9349027-.4183175-.9349027-.9354379,0-.5162729.4186298-.9354825.9349027-.9354825.5162283,0,.9354379.4192097.9354379.9354825"/>
  <path class="cls-1" d="M279.8741673,119.0623951c0,.3627827-.2944013.6562919-.6562919.6562919-.363095,0-.6571841-.2935092-.6571841-.6562919,0-.3630504.2940891-.6565596.6571841-.6565596.3618906,0,.6562919.2935092.6562919.6565596"/>
  <path class="cls-1" d="M300.7056935,130.5589457c-.0631179,2.3924569-2.0229386,4.3124889-4.4308739,4.3124889-2.4479471,0-4.4326136-1.9846665-4.4326136-4.4326582,0-2.4476795,1.9846665-4.4323013,4.4326136-4.4323013.9255353,0,1.7841167.2832498,2.4950513.7682537l.5393789.5393343c.8983255.8983255,1.3666467,1.985514,1.3964437,3.2448826"/>
  <path class="cls-1" d="M296.8986828,123.0182569c-.0403687,1.525668-1.2900577,2.7493516-2.8256729,2.7493516-1.5610854,0-2.8265651-1.265212-2.8265651-2.8262528,0-1.5604609,1.2654797-2.8259406,2.8265651-2.8259406.5901855,0,1.1377273.1806554,1.59115.4899106l.3437805.3437805c.5726552.5726998.8708481,1.2661042.8907425,2.0691507"/>
  <path class="cls-1" d="M292.353483,117.1803677c0,1.1161379-.905641,2.021199-2.0217343,2.021199-1.1161379,0-2.0220911-.9050611-2.0220911-2.021199,0-1.1169854.9059532-2.0217343,2.0220911-2.0217343,1.1160933,0,2.0217343.9047488,2.0217343,2.0217343"/>
  <path class="cls-1" d="M291.8422061,128.1533299c0,1.0880806-.8822673,1.9706155-1.9711954,1.9706155-1.088036,0-1.9706155-.8825349-1.9706155-1.9706155,0-1.0886158.8825795-1.9711954,1.9706155-1.9711954,1.0889281,0,1.9711954.8825795,1.9711954,1.9711954"/>
  <path class="cls-1" d="M294.90001,118.783829c0,.5162729-.4192097.9348581-.9354825.9348581-.5171204,0-.9354379-.4185852-.9354379-.9348581,0-.5171204.4183175-.9354825.9354379-.9354825.5162729,0,.9354825.4183621.9354825.9354825"/>
  <path class="cls-1" d="M300.7080577,124.4749191c0,.9530128-.7723574,1.7262178-1.7259501,1.7262178-.9529682,0-1.7244335-.773205-1.7244335-1.7262178,0-.9527006.7714653-1.7250134,1.7244335-1.7250134.9535927,0,1.7259501.7723128,1.7259501,1.7250134"/>
  <path class="cls-1" d="M288.4134564,99.0818225c0,.767986-.6223912,1.3912247-1.3906002,1.3912247-.7688335,0-1.3912247-.6232387-1.3912247-1.3912247,0-.7682091.6223912-1.3906002,1.3912247-1.3906002.7682091,0,1.3906002.6223912,1.3906002,1.3906002"/>
  <path class="cls-1" d="M256.4884864,122.5543072c0,1.1278248-.9138039,2.0416733-2.0425208,2.0416733-1.1269326,0-2.0418963-.9138485-2.0418963-2.0416733s.9149637-2.0419409,2.0418963-2.0419409c1.1287169,0,2.0425208.9141161,2.0425208,2.0419409"/>
  <path class="cls-1" d="M266.114964,115.8569891c0,1.5768314-1.2786385,2.8555145-2.8554699,2.8555145s-2.8555145-1.2786831-2.8555145-2.8555145,1.2786831-2.8554699,2.8555145-2.8554699,2.8554699,1.2786385,2.8554699,2.8554699"/>
  <path class="cls-1" d="M268.5720108,114.1740394c0,.6165478-.5004377,1.1161379-1.1169854,1.1161379-.6156556,0-1.1160933-.4995901-1.1160933-1.1161379,0-.6165032.5004377-1.1161379,1.1160933-1.1161379.6165478,0,1.1169854.4996348,1.1169854,1.1161379"/>
  <path class="cls-1" d="M259.8231168,122.4043409c0,.6595036-.5352305,1.1947788-1.1958939,1.1947788-.6595036,0-1.1947788-.5352752-1.1947788-1.1947788,0-.6606634.5352752-1.1950464,1.1947788-1.1950464.6606634,0,1.1958939.534383,1.1958939,1.1950464"/>
  <path class="cls-1" d="M228.7734109,100.8764663c0,1.6159957-1.3102198,2.9262601-2.9262155,2.9262601-1.6166202,0-2.9268399-1.3102644-2.9268399-2.9262601,0-1.6165756,1.3102198-2.9268399,2.9268399-2.9268399,1.6159957,0,2.9262155,1.3102644,2.9262155,2.9268399"/>
  <path class="cls-1" d="M218.3231448,113.1076374c0,1.9083451-1.5469898,3.4553349-3.4547551,3.4553349-1.9083451,0-3.4553796-1.5469898-3.4553796-3.4553349,0-1.9077653,1.5470344-3.4547997,3.4553796-3.4547997,1.9077653,0,3.4547551,1.5470344,3.4547551,3.4547997"/>
  <path class="cls-1" d="M214.8476032,119.09866c0,.948909-.7688335,1.7171627-1.7177426,1.7171627-.9480169,0-1.7168505-.7682537-1.7168505-1.7171627,0-.9480169.7688335-1.7168505,1.7168505-1.7168505.948909,0,1.7177426.7688335,1.7177426,1.7168505"/>
  <path class="cls-1" d="M221.2806739,130.3335502c0,1.9407739-1.5736197,3.5143936-3.5143936,3.5143936-1.9408185,0-3.5144382-1.5736197-3.5144382-3.5143936,0-1.9405063,1.5736197-3.514126,3.5144382-3.514126,1.9407739,0,3.5143936,1.5736197,3.5143936,3.514126"/>
  <path class="cls-1" d="M221.0801241,107.8804525c0,1.4060786-1.1403591,2.5464823-2.5473745,2.5464823-1.4061232,0-2.5464823-1.1404037-2.5464823-2.5464823,0-1.4070154,1.1403591-2.5473745,2.5464823-2.5473745,1.4070154,0,2.5473745,1.1403591,2.5473745,2.5473745"/>
  <path class="cls-1" d="M222.0544587,103.6889804c0,.6165478-.4995901,1.1161379-1.1160933,1.1161379-.6174399,0-1.11703-.4995901-1.11703-1.1161379,0-.6165032.4995901-1.1169854,1.11703-1.1169854.6165032,0,1.1160933.5004823,1.1160933,1.1169854"/>
  <path class="cls-1" d="M225.6922333,105.8127738c0,.765042-.6206069,1.385649-1.3862288,1.385649-.7647298,0-1.385649-.6206069-1.385649-1.385649,0-.7656219.6209192-1.3853367,1.385649-1.3853367.7656219,0,1.3862288.6197148,1.3862288,1.3853367"/>
  <path class="cls-1" d="M231.3512068,102.8710354c0,.6598158-.534383,1.1941989-1.1947788,1.1941989-.6597712,0-1.1941543-.534383-1.1941543-1.1941989,0-.6595036.534383-1.1947341,1.1941543-1.1947341.6603957,0,1.1947788.5352305,1.1947788,1.1947341"/>
  <path class="cls-1" d="M235.070254,104.426545c0,.5352752-.4332606.9688034-.9679113.9688034-.5352752,0-.9688034-.4335283-.9688034-.9688034,0-.534383.4335283-.9688034.9688034-.9688034.5346507,0,.9679113.4344204.9679113.9688034"/>
  <path class="cls-1" d="M225.305497,91.5648197c0,1.1321962-.9173278,2.049524-2.0492563,2.049524-1.132776,0-2.0501038-.9173278-2.0501038-2.049524,0-1.1324638.9173278-2.0498362,2.0501038-2.0498362,1.1319285,0,2.0492563.9173724,2.0492563,2.0498362"/>
  <path class="cls-1" d="M247.9053493,111.6018192c0,1.8238609-1.4782962,3.302157-3.3013095,3.302157-1.8232364,0-3.3015772-1.4782962-3.3015772-3.302157,0-1.8229688,1.4783408-3.3004174,3.3015772-3.3004174,1.8230134,0,3.3013095,1.4774486,3.3013095,3.3004174"/>
  <path class="cls-1" d="M229.1195555,121.9924467c0,2.6020617-2.1088949,4.710912-4.7100645,4.710912-2.6017495,0-4.710912-2.1088503-4.710912-4.710912,0-2.6011696,2.1091625-4.7100199,4.710912-4.7100199,2.6011696,0,4.7100645,2.1088503,4.7100645,4.7100199"/>
  <path class="cls-1" d="M224.1303004,128.3673508c0,.6960361-.56418,1.2611083-1.2602161,1.2611083-.6963484,0-1.2605284-.5650721-1.2605284-1.2611083,0-.6960807.56418-1.260573,1.2605284-1.260573.6960361,0,1.2602161.5644923,1.2602161,1.260573"/>
  <path class="cls-1" d="M232.5047248,119.8493834c0,.883427-.7158859,1.599313-1.6002051,1.599313-.8831148,0-1.5993576-.7158859-1.5993576-1.599313,0-.8831594.7162428-1.5999374,1.5993576-1.5999374.8843192,0,1.6002051.716778,1.6002051,1.5999374"/>
  <path class="cls-1" d="M235.7861845,116.446327c0,1.2205166-.9892777,2.2091698-2.2100619,2.2091698-1.2195798,0-2.2091252-.9886532-2.2091252-2.2091698,0-1.2198921.9895453-2.2094374,2.2091252-2.2094374,1.2207842,0,2.2100619.9895453,2.2100619,2.2094374"/>
  <path class="cls-1" d="M255.1244715,110.9712651c0,.4566343-.3694737.826108-.8252159.826108-.4557868,0-.8252605-.3694737-.8252605-.826108,0-.4557422.3694737-.8252605.8252605-.8252605.4557422,0,.8252159.3695183.8252159.8252605"/>
  <path class="cls-1" d="M262.8087032,111.3276245c0,.5130166-.4151059.9281225-.9281225.9281225-.512749,0-.9281671-.4151059-.9281671-.9281225,0-.5130612.4154181-.9281671.9281671-.9281671.5130166,0,.9281225.4151059.9281225.9281671"/>
  <path class="cls-1" d="M287.2815279,108.3791505c0,.5519133-.4466425.9994925-.9986004.9994925-.5519133,0-.9994479-.4475792-.9994479-.9994925,0-.5510212.4475346-.9982882.9994479-.9982882.5519579,0,.9986004.447267.9986004.9982882"/>
  <path class="cls-1" d="M281.7368802,108.3791505c0,.3902602-.3165706.7068754-.7059833.7068754-.3902602,0-.7068308-.3166153-.7068308-.7068754,0-.3893681.3165706-.7059833.7068308-.7059833.3894127,0,.7059833.3166153.7059833.7059833"/>
  <path class="cls-1" d="M219.4717115,118.4871081c0,1.0640824-.861793,1.9249833-1.9249833,1.9249833-1.0632349,0-1.9250279-.8609009-1.9250279-1.9249833,0-1.0623428.861793-1.9241358,1.9250279-1.9241358,1.0631903,0,1.9249833.861793,1.9249833,1.9241358"/>
  <path class="cls-1" d="M216.5548187,124.0101218c0,1.4534951-1.1792558,2.6318587-2.6318587,2.6318587-1.4534505,0-2.6318587-1.1783636-2.6318587-2.6318587,0-1.4534505,1.1784083-2.6318587,2.6318587-2.6318587,1.452603,0,2.6318587,1.1784083,2.6318587,2.6318587"/>
  <path class="cls-1" d="M227.0851976,114.3497434c0,.534383-.433216.9670192-.9670192.9670192-.534383,0-.9675991-.4326361-.9675991-.9670192s.433216-.9670192.9675991-.9670192c.5338031,0,.9670192.4326361.9670192.9670192"/>
  <path class="cls-1" d="M300.6469471,80.8272001c0,1.5166129-1.2298393,2.74614-2.74614,2.74614-1.5166575,0-2.7461846-1.229527-2.7461846-2.74614,0-1.5163453,1.229527-2.7452925,2.7461846-2.7452925,1.5163007,0,2.74614,1.2289472,2.74614,2.7452925"/>
  <path class="cls-1" d="M297.5236612,85.024471c0,.7638823-.6191349,1.3830618-1.3838647,1.3830618-.7633024,0-1.3830172-.6191795-1.3830172-1.3830618,0-.7641499.6197148-1.3830172,1.3830172-1.3830172.7647298,0,1.3838647.6188673,1.3838647,1.3830172"/>
  <path class="cls-1" d="M292.0634977,90.5416859c0,.7638376-.6188673,1.3830172-1.3830172,1.3830172-.7638376,0-1.3830172-.6191795-1.3830172-1.3830172,0-.7641945.6191795-1.3830618,1.3830172-1.3830618.7641499,0,1.3830172.6188673,1.3830172,1.3830618"/>
  <path class="cls-1" d="M217.2848002,85.4097799c0,.6992478-.5668564,1.2669517-1.2669517,1.2669517-.69956,0-1.2669963-.5677039-1.2669963-1.2669517,0-.7004075.5674363-1.2678438,1.2669963-1.2678438.7000953,0,1.2669517.5674363,1.2669517,1.2678438"/>
  <path class="cls-1" d="M225.2473304,95.0543677c0,.4665815-.3785734.844575-.8451549.844575-.4665369,0-.8445304-.3779935-.8445304-.844575,0-.4665369.3779935-.8442181.8445304-.8442181.4665815,0,.8451549.3776812.8451549.8442181"/>
  <path class="cls-1" d="M214.6637362,73.4929045c0,.8997975-.7290448,1.6291545-1.6291545,1.6291545-.8989054,0-1.6291545-.729357-1.6291545-1.6291545,0-.9001098.7302491-1.6291991,1.6291545-1.6291991.9001098,0,1.6291545.7290894,1.6291545,1.6291991"/>
  <path class="cls-1" d="M221.1637608,79.6984832c0,.9456974-.766514,1.7122114-1.7127913,1.7122114-.9456974,0-1.7127913-.766514-1.7127913-1.7122114,0-.9462773.7670939-1.7127467,1.7127913-1.7127467.9462773,0,1.7127913.7664694,1.7127913,1.7127467"/>
  <path class="cls-1" d="M213.6452414,63.3574694c0,.5428582-.4390594.9828098-.9819177.9828098-.5419661,0-.9819623-.4399516-.9819623-.9828098s.4399962-.9819623.9819623-.9819623c.5428582,0,.9819177.4391041.9819177.9819623"/>
  <path class="cls-1" d="M296.3882533,70.0647348c0,1.1924146.9670638,2.1594338,2.1594784,2.1594338,1.1932621,0,2.1603259-.9670192,2.1603259-2.1594338,0-1.1924592-.9670638-2.1594784-2.1603259-2.1594784-1.1924146,0-2.1594784.9670192-2.1594784,2.1594784"/>
  <path class="cls-1" d="M216.0145923,81.4106946c0,1.2213641-.9903929,2.2114893-2.2108648,2.2114893-1.2222562,0-2.2126937-.9901252-2.2126937-2.2114893,0-1.2216763.9904375-2.2118015,2.2126937-2.2118015,1.220472,0,2.2108648.9901252,2.2108648,2.2118015"/>
  <path class="cls-1" d="M296.140644,107.2662689c0,.480008-.3887882.8684839-.8684839.8684839-.4788482,0-.867681-.3884759-.867681-.8684839,0-.4788482.3888328-.8682609.867681-.8682609.4796958,0,.8684839.3894127.8684839.8682609"/>
  <path class="cls-1" d="M222.4324522,56.5408742c0,.7972031-.6472369,1.4435479-1.4443954,1.4435479-.7972031,0-1.44444-.6463448-1.44444-1.4435479,0-.797783.6472369-1.4441278,1.44444-1.4441278.7971585,0,1.4443954.6463448,1.4443954,1.4441278"/>
  <path class="cls-1" d="M287.7089451,91.6577792c0,3.3319986-2.7014445,6.0334431-6.0334431,6.0334431s-6.032551-2.7014445-6.032551-6.0334431c0-3.3311065,2.7005524-6.032551,6.032551-6.032551s6.0334431,2.7014445,6.0334431,6.032551"/>
</svg>