<?xml version="1.0" encoding="UTF-8"?>
<svg id="_Шар_1" data-name="Шар 1" xmlns="http://www.w3.org/2000/svg" viewBox="0 0 512 300">
  <g>
    <path d="M32.1331733,214.2802954v-13.7792852h8.8213109c4.1852982,0,7.919871,2.8331274,7.919871,6.7608596,0,3.9921278-3.0262978,7.0184256-6.9540245,7.0184256h-9.7871574ZM32.197569,194.7059916v-13.5217329h8.6925306c4.1209136,0,6.6320793,2.7043554,6.6320793,6.6320876,0,3.8633585-2.5111657,6.8896453-6.6320793,6.8896453h-8.6925306ZM25.6298743,218.9807092c0,.6438903.5150991,1.2233906,1.2233851,1.2233906h15.131456c8.1130249,0,14.0368292-5.2155293,14.0368292-12.4271144,0-5.9238043-4.6360017-9.0788659-8.0486403-10.4954214,3.0262978-1.7385171,6.6964859-5.2799195,6.6964859-10.2378883,0-6.7608596-5.6018701-11.9119906-13.3929499-11.9119906h-14.423181c-.708286,0-1.2233851.5795002-1.2233851,1.2233878v42.6256362Z"/>
    <path d="M62.4650053,218.9807092c0,.6438903.5150991,1.2233906,1.2233851,1.2233906h22.9225577c.708264,0,1.2233851-.5795002,1.2233851-1.2233906v-3.5414079c0-.6439013-.5151211-1.2234015-1.2233851-1.2234015h-17.4494788v-37.8608268c0-.6438876-.5794947-1.2233878-1.2233851-1.2233878h-4.2496938c-.708286,0-1.2233851.5795002-1.2233851,1.2233878v42.6256362Z"/>
    <path d="M94.0921294,197.7322785c0-9.1432615,7.5335631-16.8055775,16.6768192-16.8055775,9.2076517,0,16.7411928,7.6623159,16.7411928,16.8055775,0,9.2076572-7.5335412,16.6767917-16.7411928,16.6767917-9.143256,0-16.6768192-7.4691346-16.6768192-16.6767917ZM87.653226,197.7322785c0,12.8778343,10.2378938,23.1157061,23.1157226,23.1157061s23.1800963-10.2378718,23.1800963-23.1157061-10.3022674-23.2444919-23.1800963-23.2444919-23.1157226,10.3666576-23.1157226,23.2444919Z"/>
    <path d="M136.6242305,197.7322785c0,12.8778343,10.3666411,23.1157061,23.244448,23.1157061,5.7306394,0,11.2681139-1.9960557,15.6465771-6.245744.4507254-.4507254.5794947-1.2877862.0643956-1.7385116l-2.9619131-2.8975065c-.3863078-.3219397-.9658245-.3863408-1.5453193.0643901-3.0906824,2.3823965-6.3745517,4.2496829-11.074971,4.2496829-9.2076077,0-16.2260279-7.6623159-16.2260279-16.6767917,0-9.0144868,6.9540245-16.7411873,16.1616762-16.7411873,3.9921333,0,8.1130579,1.674116,11.1393227,4.314073.5794947.5795002,1.1590114.5795002,1.6097368,0l2.8330999-2.8975148c.5151211-.5151046.5151211-1.2877752-.0643737-1.802888-4.3784631-3.7989711-9.0788824-5.9882-15.5822034-5.9882-12.8778069,0-23.244448,10.3666576-23.244448,23.2444919Z"/>
    <path d="M181.5220802,218.6587585c0,.8370552.6438684,1.5453412,1.5453193,1.5453412h3.7345947c.8370552,0,1.5453193-.708286,1.5453193-1.5453412v-20.0250347l18.7372595,21.1196614c.1287693.1931594.5151211.4507145,1.1589894.4507145h5.1511447c1.3521763,0,1.6740885-1.4809456,1.1590114-2.1248414l-19.703084-21.6991507,18.6084463-18.9304216c.9014509-.96583.2575825-2.3180008-.9014289-2.3180008h-4.8291666c-.515143,0-.9658685.3219424-1.223429.6438849l-18.1577428,18.7372513v-17.8358059c0-.837047-.708264-1.5453302-1.5453193-1.5453302h-3.7345947c-.9014509,0-1.5453193.7082832-1.5453193,1.5453302v41.9817431Z"/>
    <path d="M214.1930195,197.7322785c0,12.8778343,10.3666631,23.1157061,23.2444919,23.1157061,5.7306394,0,11.268092-1.9960557,15.6465551-6.245744.4507254-.4507254.5795167-1.2877862.0643956-1.7385116l-2.9618912-2.8975065c-.3863298-.3219397-.9658465-.3863408-1.5453193.0643901-3.0906824,2.3823965-6.3745517,4.2496829-11.074971,4.2496829-9.2076517,0-16.2260718-7.6623159-16.2260718-16.6767917,0-9.0144868,6.9540684-16.7411873,16.1616981-16.7411873,3.9921113,0,8.1130139,1.674116,11.1393447,4.314073.5794728.5795002,1.1589894.5795002,1.6097149,0l2.8330999-2.8975148c.5151211-.5151046.5151211-1.2877752-.0643517-1.802888-4.3784631-3.7989711-9.0789043-5.9882-15.5822034-5.9882-12.8778288,0-23.2444919,10.3666576-23.2444919,23.2444919Z"/>
    <path d="M259.090913,218.9807092c0,.6438903.5794728,1.2233906,1.2233411,1.2233906h4.2497158c.708264,0,1.2233851-.5795002,1.2233851-1.2233906v-18.6084737h23.56647v18.6084737c0,.6438903.5150771,1.2233906,1.2233411,1.2233906h4.2496719c.6439123,0,1.223429-.5795002,1.223429-1.2233906v-42.6256362c0-.6438876-.5795167-1.2233878-1.223429-1.2233878h-4.2496719c-.708264,0-1.2233411.5795002-1.2233411,1.2233878v17.9645779h-23.56647v-17.9645779c0-.6438876-.5151211-1.2233878-1.2233851-1.2233878h-4.2497158c-.6438684,0-1.2233411.5795002-1.2233411,1.2233878v42.6256362Z"/>
    <path d="M312.3135881,204.8794788l7.8554754-17.6426327h.3219342l7.919871,17.6426327h-16.0972805ZM300.3371443,220.2040997h4.0565729c.7726157,0,1.2877807-.5151156,1.4809236-.965841,1.2877807-2.9619022,2.639957-5.8594142,3.9277377-8.8213164h21.0552603l3.9921333,8.8213164c.2575386.5795112.7083079.965841,1.4809676.965841h4.0565289c.9658026,0,1.4809236-.8370607,1.0945499-1.674116l-19.6386884-43.333914c-.1931429-.3863298-.7726157-.7082832-1.0945938-.7082832h-.6439123c-.3219342,0-.9014509.3219534-1.0945938.7082832l-19.7674796,43.333914c-.3863298.8370552.1287912,1.674116,1.0945938,1.674116Z"/>
    <path d="M344.7083642,218.9807092c0,.6438903.5795167,1.2233906,1.2233851,1.2233906h4.2496719c.6439123,0,1.223429-.5795002,1.223429-1.2233906v-42.6256362c0-.6438876-.5795167-1.2233878-1.223429-1.2233878h-4.2496719c-.6438684,0-1.2233851.5795002-1.2233851,1.2233878v42.6256362Z"/>
    <path d="M360.6673215,218.9806982c0,.6439013.5795167,1.2234015,1.2233851,1.2234015h4.056485c.708264,0,1.223429-.5795002,1.223429-1.2234015v-31.3575223h.0643956l27.9449331,33.2248087h1.6741105c.6439123,0,1.2233851-.5151101,1.2233851-1.1590004v-43.3339112c0-.6438876-.5794728-1.2233878-1.2233851-1.2233878h-4.1209245c-.708264,0-1.223429.5795002-1.223429,1.2233878v30.4560769h-.0643956l-27.9448892-32.3233633h-1.6097149c-.6438684,0-1.2233851.5151128-1.2233851,1.1590114v43.3339002Z"/>
    <path d="M406.7951451,203.3985223c0,9.7871574,7.3403543,17.4494623,17.4494568,17.4494623,10.1734542,0,17.5782481-7.662305,17.5782481-17.4494623v-27.0434493c0-.6438876-.5795167-1.2233878-1.223429-1.2233878h-4.3140236c-.7083079,0-1.223429.5795002-1.223429,1.2233878v26.7215096c0,6.3745298-4.1852762,11.3324876-10.8173665,11.3324876-6.5676947,0-10.6886192-5.0223589-10.6886192-11.4612734v-26.5927239c0-.6438876-.5151211-1.2233878-1.2233851-1.2233878h-4.3140675c-.6439123,0-1.2233851.5795002-1.2233851,1.2233878v27.0434493Z"/>
    <path d="M456.9502429,204.8794788l7.8555193-17.6426327h.3219342l7.919871,17.6426327h-16.0973245ZM444.9738869,220.2040997h4.056485c.7727036,0,1.2877807-.5151156,1.4809676-.965841,1.2877807-2.9619022,2.6400009-5.8594142,3.9277816-8.8213164h21.0552603l3.9920894,8.8213164c.2575386.5795112.708264.965841,1.4809676.965841h4.0565289c.9658026,0,1.4809236-.8370607,1.0945938-1.674116l-19.6386884-43.333914c-.1931869-.3863298-.7726596-.7082832-1.0945938-.7082832h-.6439123c-.3219781,0-.9014069.3219534-1.0945938.7082832l-19.7674796,43.333914c-.3863298.8370552.1287473,1.674116,1.0945938,1.674116Z"/>
    <path d="M25.6298743,240.0778091c0,4.0740115,3.2697251,7.3128346,7.3315142,7.3128346,1.807492,0,3.5540476-.6314593,4.9350504-1.9758826.1421777-.142595.1827874-.4074033.0203268-.5499874l-.9342307-.9166603c-.1218509-.1018536-.3046163-.1222243-.4874037.0203707-.9748184.7536945-2.0105842,1.3444234-3.4931331,1.3444234-2.9041723,0-5.1178487-2.4240384-5.1178487-5.2758289,0-2.8518124,2.1933716-5.2962106,5.0975439-5.2962106,1.2591409,0,2.5589244.5296167,3.5134379,1.3647831.1827874.1833364.3655528.1833364.5077305,0l.8935771-.9166493c.1624825-.1629657.1624825-.4073924-.0203048-.5703581-1.3810028-1.2018283-2.8635517-1.8944217-4.9147456-1.8944217-4.0617891,0-7.3315142,3.2795755-7.3315142,7.353587Z"/>
    <path d="M46.2100961,240.0778091c0-2.8925429,2.376148-5.3165703,5.2600045-5.3165703,2.9041833,0,5.2803093,2.4240274,5.2803093,5.3165703,0,2.9129136-2.376126,5.2758398-5.2803093,5.2758398-2.8838565,0-5.2600045-2.3629262-5.2600045-5.2758398ZM44.1792071,240.0778091c0,4.0740115,3.2291045,7.3128346,7.2908935,7.3128346s7.3112093-3.2388231,7.3112093-7.3128346-3.2494203-7.353587-7.3112093-7.353587-7.2908935,3.2795755-7.2908935,7.353587Z"/>
    <path d="M66.1442532,246.7999259c0,.2036962.1827764.3870216.3858686.3870216h1.2794567c.223386,0,.3858686-.1833255.3858686-.3870216v-9.9202094h.0203158l8.8140521,10.5109273h.5280353c.2030922,0,.3858906-.1629547.3858906-.3666509v-13.7090309c0-.2036962-.1827984-.3870326-.3858906-.3870326h-1.2997505c-.223408,0-.3858906.1833364-.3858906.3870326v9.6350194h-.0202938l-8.8140741-10.2257592h-.5077195c-.2030922,0-.3858686.1629657-.3858686.3666729v13.7090309Z"/>
    <path d="M86.3595592,246.7999259c0,.2036962.1624606.3870216.3858466.3870216h1.3200883c.2030922,0,.3858686-.1833255.3858686-.3870216v-5.3573227h5.4224761c.2031142,0,.3858686-.1833255.3858686-.3870326v-1.1203455c0-.2037072-.1827544-.3870326-.3858686-.3870326h-5.4224761v-4.7054817h6.4176212c.223408,0,.3858686-.1833255.3858686-.3870216v-1.1407272c0-.2036962-.1624606-.3870326-.3858686-.3870326h-8.1235781c-.223386,0-.3858466.1833364-.3858466.3870326v13.484964Z"/>
    <path d="M102.3305962,246.7999259c0,.2036962.1624825.3870216.3858906.3870216h8.1235562c.223408,0,.3858686-.1833255.3858686-.3870216v-1.1203565c0-.2036962-.1624606-.3870326-.3858686-.3870326h-6.4175993v-4.3795503h5.4224541c.2030922,0,.3858906-.1629657.3858906-.3870436v-1.1407162c0-.2036962-.1827984-.3870216-.3858906-.3870216h-5.4224541v-4.1554944h6.4175993c.223408,0,.3858686-.1833255.3858686-.3870216v-1.1407272c0-.2036962-.1624606-.3870326-.3858686-.3870326h-8.1235562c-.223408,0-.3858906.1833364-.3858906.3870326v13.484964Z"/>
    <path d="M120.8902626,239.8537422v-4.9499194h3.614984c1.3200663,0,2.4776941,1.0999748,2.4776941,2.4240274,0,1.4055355-1.1576277,2.525892-2.4776941,2.525892h-3.614984ZM118.7578274,246.7999259c0,.2036962.1624825.3870216.3858686.3870216h1.3200663c.2030922,0,.3858686-.1833255.3858686-.3870216v-5.194368h3.0666549l2.7011021,5.3980641c.0406097.0814829.1624606.1833255.3249212.1833255h1.584106c.345237,0,.4874257-.3259095.345237-.5907288l-2.7823214-5.1739753c1.7668824-.7129641,3.0057294-2.2610836,3.0057294-4.1351237,0-2.4240384-1.9902684-4.3591906-4.4273528-4.3591906h-5.5240112c-.223386,0-.3858686.1833364-.3858686.3870326v13.484964Z"/>
    <path d="M136.7320032,246.7999259c0,.2036962.1624825.3870216.3858686.3870216h8.1235562c.223408,0,.3858686-.1833255.3858686-.3870216v-1.1203565c0-.2036962-.1624606-.3870326-.3858686-.3870326h-6.4175993v-4.3795503h5.4224541c.2030922,0,.3858906-.1629657.3858906-.3870436v-1.1407162c0-.2036962-.1827984-.3870216-.3858906-.3870216h-5.4224541v-4.1554944h6.4175993c.223408,0,.3858686-.1833255.3858686-.3870216v-1.1407272c0-.2036962-.1624606-.3870326-.3858686-.3870326h-8.1235562c-.223386,0-.3858686.1833364-.3858686.3870326v13.484964Z"/>
    <path d="M153.1592124,246.7999259c0,.2036962.1827764.3870216.3858686.3870216h1.2794347c.223408,0,.3858906-.1833255.3858906-.3870216v-9.9202094h.0203158l8.8140741,10.5109273h.5280134c.2030922,0,.3858906-.1629547.3858906-.3666509v-13.7090309c0-.2036962-.1827984-.3870326-.3858906-.3870326h-1.2997725c-.223408,0-.3858466.1833364-.3858466.3870326v9.6350194h-.0203158l-8.8140741-10.2257592h-.5077195c-.2030922,0-.3858686.1629657-.3858686.3666729v13.7090309Z"/>
    <path d="M172.3387635,240.0778091c0,4.0740115,3.2697031,7.3128346,7.3315032,7.3128346,1.807492,0,3.5540805-.6314593,4.9350724-1.9758826.1421448-.142595.1827984-.4074033.0203158-.5499874l-.9342197-.9166603c-.1218729-.1018536-.3046054-.1222243-.4874037.0203707-.9748513.7536945-2.0105842,1.3444234-3.4931551,1.3444234-2.9041504,0-5.1178268-2.4240384-5.1178268-5.2758289,0-2.8518124,2.1933826-5.2962106,5.097511-5.2962106,1.2591848,0,2.5589573.5296167,3.5134709,1.3647831.1827984.1833364.3655308.1833364.5077195,0l.8935881-.9166493c.1624825-.1629657.1624825-.4073924-.0202938-.5703581-1.3810138-1.2018283-2.8635846-1.8944217-4.9147785-1.8944217-4.0618001,0-7.3315032,3.2795755-7.3315032,7.353587Z"/>
    <path d="M191.9833161,246.7999259c0,.2036962.1624825.3870216.3858686.3870216h8.1235781c.223408,0,.3858906-.1833255.3858906-.3870216v-1.1203565c0-.2036962-.1624825-.3870326-.3858906-.3870326h-6.4175993v-4.3795503h5.422498c.2030483,0,.3858247-.1629657.3858247-.3870436v-1.1407162c0-.2036962-.1827764-.3870216-.3858247-.3870216h-5.422498v-4.1554944h6.4175993c.223408,0,.3858906-.1833255.3858906-.3870216v-1.1407272c0-.2036962-.1624825-.3870326-.3858906-.3870326h-8.1235781c-.223386,0-.3858686.1833364-.3858686.3870326v13.484964Z"/>
    <path d="M207.3544766,245.9851302c0,.7740543.6295704,1.4055135,1.4013515,1.4055135.792031,0,1.4216015-.6314593,1.4216015-1.4055135,0-.794447-.6295704-1.4259062-1.4216015-1.4259062-.7717811,0-1.4013515.6314593-1.4013515,1.4259062Z"/>
    <path d="M216.0870239,240.0778091c0,4.0740115,3.2697251,7.3128346,7.3315032,7.3128346,1.807492,0,3.5540805-.6314593,4.9350724-1.9758826.1421448-.142595.1827984-.4074033.0203158-.5499874l-.9341978-.9166603c-.1218729-.1018536-.3046712-.1222243-.4874257.0203707-.9748513.7536945-2.0105842,1.3444234-3.4931551,1.3444234-2.9041723,0-5.1178268-2.4240384-5.1178268-5.2758289,0-2.8518124,2.1933386-5.2962106,5.0975329-5.2962106,1.2591628,0,2.5589134.5296167,3.5134489,1.3647831.1827544.1833364.3655528.1833364.5077195,0l.8935881-.9166493c.1624606-.1629657.1624606-.4073924-.0203378-.5703581-1.3810138-1.2018283-2.8635407-1.8944217-4.9147346-1.8944217-4.0617781,0-7.3315032,3.2795755-7.3315032,7.353587Z"/>
    <path d="M236.6672238,240.0778091c0-2.8925429,2.376159-5.3165703,5.2600374-5.3165703,2.9041504,0,5.2803313,2.4240274,5.2803313,5.3165703,0,2.9129136-2.3761809,5.2758398-5.2803313,5.2758398-2.8838785,0-5.2600374-2.3629262-5.2600374-5.2758398ZM234.6363237,240.0778091c0,4.0740115,3.2291594,7.3128346,7.2909375,7.3128346,4.0617342,0,7.3111654-3.2388231,7.3111654-7.3128346s-3.2494313-7.353587-7.3111654-7.353587c-4.0617781,0-7.2909375,3.2795755-7.2909375,7.353587Z"/>
    <path d="M255.6265515,246.718443c-.0405877.285179.1015571.4685045.3858906.4685045h1.3201103c.1624386,0,.345215-.142584.3655089-.2851681l1.462255-9.1054137h.0812193l3.6759095,9.3702111c.0406316.1222243.1828203.2240669.3453029.2240669h.3655089c.1828203,0,.3046273-.1018426.3453029-.2240669l3.6555717-9.3702111h.0609255l1.5028867,9.1054137c.0405877.142584.2030702.2851681.3858906.2851681h1.3200224c.2843335,0,.4264782-.1833255.3655967-.4685045l-2.4980319-13.6886602c-.0405877-.1629657-.2030702-.3055607-.3655528-.3055607h-.3249212c-.1421887,0-.3046273.1018536-.3452589.2240779l-4.2242387,10.4090847h-.0812193l-4.2445764-10.4090847c-.0406316-.1222243-.223408-.2240779-.3453029-.2240779h-.3249212c-.1624825,0-.3249212.142595-.3655528.3055607l-2.5183257,13.6886602Z"/>
    <path d="M277.7458331,246.718443c-.0405877.285179.1015132.4685045.3858466.4685045h1.3201103c.1624825,0,.3452589-.142584.3655528-.2851681l1.4622111-9.1054137h.0812632l3.6759095,9.3702111c.0406316.1222243.1827764.2240669.3452589.2240669h.3655528c.1827325,0,.3046273-.1018426.345215-.2240669l3.6556157-9.3702111h.0609694l1.5028427,9.1054137c.0406316.142584.2030702.2851681.3858906.2851681h1.3200663c.2843335,0,.4264782-.1833255.3655528-.4685045l-2.4980319-13.6886602c-.0405877-.1629657-.2030263-.3055607-.3655089-.3055607h-.3249651c-.1421448,0-.3046273.1018536-.3452589.2240779l-4.2242387,10.4090847h-.0812193l-4.2445764-10.4090847c-.0406316-.1222243-.223408-.2240779-.3452589-.2240779h-.3249212c-.1624825,0-.3249651.142595-.3655528.3055607l-2.5183257,13.6886602Z"/>
    <path d="M300.6571457,241.8703772c0,3.0962391,2.3152115,5.5202775,5.5037173,5.5202775,3.2087996,0,5.544305-2.4240384,5.544305-5.5202775v-8.5554154c0-.2036962-.1827764-.3870326-.3858906-.3870326h-1.360654c-.223408,0-.3858906.1833364-.3858906.3870326v8.4535618c0,2.016635-1.3200663,3.5851253-3.4118699,3.5851253-2.0715097,0-3.3712822-1.588861-3.3712822-3.6258667v-8.4128204c0-.2036962-.1624386-.3870326-.3858466-.3870326h-1.3607419c-.2031142,0-.3858466.1833364-.3858466.3870326v8.5554154Z"/>
    <path d="M319.9247467,246.7999259c0,.2036962.1827764.3870216.3858466.3870216h1.2794787c.223408,0,.3858906-.1833255.3858906-.3870216v-9.9202094h.0202938l8.8140741,10.5109273h.5280353c.2031142,0,.3858466-.1629547.3858466-.3666509v-13.7090309c0-.2036962-.1827325-.3870326-.3858466-.3870326h-1.2997725c-.223408,0-.3858466.1833364-.3858466.3870326v9.6350194h-.0203378l-8.8140741-10.2257592h-.5077415c-.2030702,0-.3858466.1629657-.3858466.3666729v13.7090309Z"/>
    <path d="M340.1400526,246.7999259c0,.2036962.1827764.3870216.3858906.3870216h1.3404041c.2030702,0,.3858027-.1833255.3858027-.3870216v-13.484964c0-.2036962-.1827325-.3870326-.3858027-.3870326h-1.3404041c-.2031142,0-.3858906.1833364-.3858906.3870326v13.484964Z"/>
    <path d="M352.6066675,246.7999259c0,.2036962.1827764.3870216.3858906.3870216h1.3404041c.2030702,0,.3858906-.1833255.3858906-.3870216v-11.9572152h3.3103128c.223408,0,.3858906-.1833255.3858906-.3870216v-1.1407272c0-.2036962-.1624825-.3870326-.3858906-.3870326h-8.7328108c-.223408,0-.3858906.1833364-.3858906.3870326v1.1407272c0,.2036962.1624825.3870216.3858906.3870216h3.3103128v11.9572152Z"/>
    <path d="M368.517965,246.7999259c0,.2036962.1624825.3870216.3858466.3870216h1.3404041c.2030702,0,.3858466-.1833255.3858466-.3870216v-6.4980389l4.8132434-6.783218c.1624386-.2648193-.0000439-.5907398-.3249651-.5907398h-1.5231366c-.1421887,0-.2640396.1018536-.3249651.1833364l-3.6759095,5.194346-3.6759095-5.194346c-.0609694-.0814829-.1624825-.1833364-.3249651-.1833364h-1.5028427c-.3249651,0-.4874476.3259205-.3249651.5907398l4.7523179,6.8035887v6.4776682Z"/>
    <path d="M380.0952966,245.9851302c0,.7740543.6295924,1.4055135,1.4013296,1.4055135.7919871,0,1.4215795-.6314593,1.4215795-1.4055135,0-.794447-.6295924-1.4259062-1.4215795-1.4259062-.7717372,0-1.4013296.6314593-1.4013296,1.4259062Z"/>
    <path d="M391.6149092,246.7999259c0,.2036962.1828203.3870216.3858906.3870216h1.3404041c.2030702,0,.3858906-.1833255.3858906-.3870216v-11.9572152h3.3103128c.223408,0,.3858906-.1833255.3858906-.3870216v-1.1407272c0-.2036962-.1624825-.3870326-.3858906-.3870326h-8.7328547c-.223408,0-.3858906.1833364-.3858906.3870326v1.1407272c0,.2036962.1624825.3870216.3858906.3870216h3.3103567v11.9572152Z"/>
    <path d="M406.221822,239.8537422v-4.9499194h3.614984c1.3200663,0,2.4776502,1.0999748,2.4776502,2.4240274,0,1.4055355-1.1575838,2.525892-2.4776502,2.525892h-3.614984ZM404.089343,246.7999259c0,.2036962.1624825.3870216.3858906.3870216h1.3201103c.2030702,0,.3858466-.1833255.3858466-.3870216v-5.194368h3.0666109l2.701146,5.3980641c.0405877.0814829.1624386.1833255.3249212.1833255h1.584062c.3453029,0,.4874476-.3259095.3453029-.5907288l-2.7823653-5.1739753c1.7668824-.7129641,3.0057294-2.2610836,3.0057294-4.1351237,0-2.4240384-1.9902904-4.3591906-4.4273528-4.3591906h-5.5240112c-.223408,0-.3858906.1833364-.3858906.3870326v13.484964Z"/>
    <path d="M422.0635846,246.7999259c0,.2036962.1624825.3870216.3858906.3870216h8.1235123c.223408,0,.3858906-.1833255.3858906-.3870216v-1.1203565c0-.2036962-.1624825-.3870326-.3858906-.3870326h-6.4175993v-4.3795503h5.422498c.2030702,0,.3858466-.1629657.3858466-.3870436v-1.1407162c0-.2036962-.1827764-.3870216-.3858466-.3870216h-5.422498v-4.1554944h6.4175993c.223408,0,.3858906-.1833255.3858906-.3870216v-1.1407272c0-.2036962-.1624825-.3870326-.3858906-.3870326h-8.1235123c-.223408,0-.3858906.1833364-.3858906.3870326v13.484964Z"/>
    <path d="M438.4907499,246.7999259c0,.2036962.1828203.3870216.3858906.3870216h1.2794347c.223408,0,.3858466-.1833255.3858466-.3870216v-9.9202094h.0203378l8.8140741,10.5109273h.5279914c.2031142,0,.3858906-.1629547.3858906-.3666509v-13.7090309c0-.2036962-.1827764-.3870326-.3858906-.3870326h-1.2997286c-.223408,0-.3858906.1833364-.3858906.3870326v9.6350194h-.0202938l-8.8140741-10.2257592h-.5076976c-.2030702,0-.3858906.1629657-.3858906.3666729v13.7090309Z"/>
    <path d="M460.7775656,245.2517954v-10.388714h2.6807643c2.9854356,0,5.1584584,2.1796008,5.1584584,5.1739972,0,3.0147562-2.1730228,5.2147167-5.1584584,5.2147167h-2.6807643ZM458.7060998,246.7999259c0,.2036962.1624386.3870216.3655089.3870216h4.6710986c3.9196114,0,7.128411-3.1980927,7.128411-7.1498689,0-3.9110568-3.2087996-7.1091494-7.128411-7.1091494h-4.6710986c-.2030702,0-.3655089.1833364-.3655089.3870326v13.484964Z"/>
    <path d="M477.4748763,245.781423c.3249212.3055388,1.8886894,1.6092207,4.3663834,1.6092207,2.6401327,0,4.528866-1.731445,4.528866-3.8499226,0-2.4851505-2.0105842-3.605496-4.3664274-4.5628867-1.6856191-.6925934-2.5792512-1.4055355-2.5792512-2.5666334,0-.7536836.5890047-1.8332986,2.2949616-1.8332986,1.1779216,0,2.5995011.93702,2.7416898,1.0185029.2843335.1833364.5483731.0611121.7108556-.2036962.1624386-.2444486.345215-.5296276.5076536-.7740653.2031142-.3055498.0406316-.5907288-.1218509-.6925824-.2031142-.142595-1.7262507-1.2018393-3.7571288-1.2018393-3.2290935,0-4.4476467,2.1796008-4.4476467,3.7684617,0,2.3629262,1.6247376,3.4425413,3.6962473,4.3184491,2.0105842.8351664,3.0666109,1.6092317,3.0666109,2.8314417,0,1.0388736-.8935442,1.8944107-2.2948738,1.8944107-1.5637682,0-3.1275803-1.3036819-3.2494313-1.4055355-.223408-.1833364-.5077415-.1018536-.6905179.1629547-.1827325.2648193-.3452589.5703691-.5280353.8351774-.2030702.3462912-.0608815.4888752.1218949.651841Z"/>
  </g>
  <g>
    <path d="M251.0109598,55.3425794c-.4774256-.9100721-1.2148161-1.6542998-2.1164412-2.1361497-1.1172144-.5970844-2.5905162-.5970844-5.5368583-.5970844h-5.3959474c-2.9464749,0-4.4196439,0-5.5368562.5970844-.9016271.4818499-1.6390156,1.2260775-2.1164433,2.1361497-.591519,1.1277372-.591519,2.6147164-.591519,5.5886758v5.4462908c0,1.1298814.0001328,2.0442451.0325789,2.8067061-.1411764,1.0460868-.791152,2.4522225-2.85973,2.4522225-.0970685,0-.1820686.003418-.2613052.0083786-.623295-.0129367-1.3346751-.0134066-2.1653769-.0134066h-5.4463593c-2.9739583,0-4.4609385,0-5.5887421.5915865-.9099383.4773603-1.6541649,1.2147487-2.1360159,2.1163758-.5971513,1.1172123-.5971513,2.5904487-.5971513,5.5368541v5.3959516c0,2.9464054,0,4.4196439.5971513,5.5368541.4818509.901625,1.2260775,1.6390156,2.1360159,2.1163737,1.1278036.5915907,2.6147838.5915907,5.5887421.5915907h5.4463593c2.9739583,0,4.4609385,0,5.5886073-.5915907.9100732-.4773582,1.6542998-1.2147487,2.1361507-2.1163737.5971518-1.1172102.5971518-2.5904487.5971518-5.5368541v-5.3959516c0-1.1669509-.0006722-2.1002192-.0378092-2.8744095.137691-.9273678.7335026-2.1301829,2.3798916-2.3380617.766349.035194,1.6878164.0356639,2.8346595.0356639h5.3959474c2.9463421,0,4.4196439,0,5.5368583-.5970844.901625-.4818509,1.6390156-1.2260775,2.1164412-2.1361507.591519-1.1276688.591519-2.614649.591519-5.5886747v-5.4462908c0-2.9739594,0-4.4609385-.591519-5.5886758Z"/>
    <path d="M300.7080577,74.3394089c-.4818467-.9016271-1.2260775-1.6390156-2.136018-2.1163758-1.1278015-.5915865-2.6147796-.5915865-5.5887358-.5915865h-5.4463582c-.830706,0-1.5420882.0004699-2.165242.0134066-.0792429-.0049606-.1642429-.0083786-.2613052-.0083786-2.0691154,0-2.7188212-1.4068733-2.859867-2.4530275.032444-.7623262.0325789-1.6764222.0325789-2.8059012v-5.4462908c0-2.9739594,0-4.4609385-.591519-5.5886758-.4774298-.9100721-1.2148161-1.6542998-2.1164454-2.1361497-1.117206-.5970844-2.590512-.5970844-5.5368541-.5970844h-5.3959474c-2.9463421,0-4.4196439,0-5.5368583.5970844-.901625.4818499-1.6390156,1.2260775-2.1164412,2.1361497-.591519,1.1277372-.591519,2.6147164-.591519,5.5886758v5.4462908c0,2.9740257,0,4.461006.591519,5.5886747.4774256.9100732,1.2148161,1.6542998,2.1164412,2.1361507,1.1172144.5970844,2.5905162.5970844,5.5368583.5970844h5.3959474c1.1467082,0,2.0683062-.0004699,2.8346553-.0356639,1.6463911.2078788,2.2422006,1.4107613,2.3798916,2.3381291-.0371306.7741903-.037805,1.7073911-.037805,2.874342v5.3959516c0,2.9464054,0,4.4196439.5971497,5.5368541.4818551.901625,1.2260775,1.6390156,2.1361528,2.1163737,1.1276666.5915907,2.6146447.5915907,5.5886094.5915907h5.4463582c2.9739562,0,4.4609343,0,5.5887358-.5915907.9099404-.4773582,1.6541713-1.2147487,2.136018-2.1163737.5971497-1.1172102.5971497-2.5904487.5971497-5.5368541v-5.3959516c0-2.9464054,0-4.4196418-.5971497-5.5368541Z"/>
    <path d="M251.0109598,123.8628906c-.4774256-.9100753-1.2148161-1.6543061-2.1164412-2.1361528-1.1172144-.5970823-2.5905162-.5970823-5.5368583-.5970823h-5.3959474c-.6922079,0-1.3006212.0002697-1.8448144.0080415-.123747-.0239979-.2794048-.0379398-.478768-.0379398-2.0343892,0-2.7361158-1.3949397-2.8897612-2.4484715.0359295-.7627245.0366017-1.6807738.0366017-2.825872v-5.3454734c0-2.9188545,0-4.3783492-.5971518-5.4851747-.4818509-.893179-1.2260775-1.6236618-2.1361507-2.0965314-1.1276688-.5860906-2.614649-.5860906-5.5886073-.5860906h-5.4463593c-2.9739583,0-4.4609385,0-5.5887421.5860906-.9099383.4728696-1.6541649,1.2033524-2.1360159,2.0965314-.5971513,1.1068255-.5971513,2.5663202-.5971513,5.4851747v5.3454734c0,2.918922,0,4.378345.5971513,5.4851663.4818509.8931832,1.2260775,1.623666,2.1360159,2.096603,1.1278036.5860232,2.6147838.5860232,5.5887421.5860232h5.4463593c.6391145,0,1.2059655-.0004046,1.7189223-.0061702.1328631.0610021.3597118.0959327.7077598.0959327,2.073271,0,2.7212341,1.4627104,2.860535,2.546874-.0331162.7655398-.0333838,1.6841961-.0333838,2.8217164v5.4462992c0,2.9739562,0,4.4609343.591519,5.5886684.4774277.9100753,1.2148161,1.6543061,2.1164433,2.1361528,1.1172123.5970823,2.5903813.5970823,5.5368562.5970823h5.3959474c2.9463421,0,4.4196439,0,5.5368583-.5970823.901625-.4818467,1.6390156-1.2260775,2.1164412-2.1361528.591519-1.1277341.591519-2.6147122.591519-5.5886684v-5.4462992c0-2.9740236,0-4.4610017-.591519-5.5886684Z"/>
    <path d="M300.7080577,104.9947655c-.4818467-.893179-1.2260775-1.6236618-2.136018-2.0965314-1.1278015-.5860906-2.6147796-.5860906-5.5887358-.5860906h-5.4463582c-2.9739646,0-4.4609427,0-5.5886094.5860906-.9100753.4728696-1.6542977,1.2033524-2.1361528,2.0965314-.5971497,1.1068255-.5971497,2.5663202-.5971497,5.4851747v5.3454734c0,1.1450308.0006743,2.0631476.0365996,2.8258046-.1536474,1.0535993-.8553698,2.448539-2.8897569,2.448539-.1993674,0-.355021.0139419-.4787701.0379398-.5441975-.0077717-1.1526086-.0080415-1.8448144-.0080415h-5.3959474c-2.9463421,0-4.4196439,0-5.5368583.5970823-.901625.4818467-1.6390156,1.2260775-2.1164412,2.1361528-.591519,1.1276666-.591519,2.6146447-.591519,5.5886684v5.4462992c0,2.9739562,0,4.4609343.591519,5.5886684.4774256.9100753,1.2148161,1.6543061,2.1164412,2.1361528,1.1172144.5970823,2.5905162.5970823,5.5368583.5970823h5.3959474c2.9463421,0,4.4196481,0,5.5368541-.5970823.9016292-.4818467,1.6390156-1.2260775,2.1164454-2.1361528.591519-1.1277341.591519-2.6147122.591519-5.5886684v-5.4462992c0-1.1370483-.0002697-2.0555023-.0333796-2.8208482.1391576-1.0842984.7868573-2.5477422,2.8606678-2.5477422.3480416,0,.5747618-.0349306.7077577-.0959327.5129505.0057656,1.0798057.0061702,1.7187895.0061702h5.4463582c2.9739562,0,4.4609343,0,5.5887358-.5860232.9099404-.4729371,1.6541713-1.2034199,2.136018-2.096603.5971497-1.1068212.5971497-2.5662443.5971497-5.4851663v-5.3454734c0-2.9188545,0-4.3783492-.5971497-5.4851747Z"/>
  </g>
</svg>