<?xml version="1.0" encoding="UTF-8"?>
<svg id="_Шар_1" data-name="Шар 1" xmlns="http://www.w3.org/2000/svg" viewBox="0 0 512 300">
  <g>
    <path d="M460.9439348,190.975708c-2.6932524-2.5702525-.2089092-15.8480542-3.0500947-20.0254413-4.4179859.4652795-9.3354589,1.874697-13.7467949,2.0857887-7.3699628.3526681-11.2559305-3.9091686-12.9817183,5.1165894-3.4258007,17.9167152-.309168,37.3739848-1.3206641,55.30291-.5144087,9.1179754-2.9627308,16.6686366-2.3234316,26.2684651.3078259,4.6223675,2.61031,11.6679646,2.3656439,15.7528248-.2900993,4.8433967-5.8889783,4.4564848-6.4712166-.5559583-.9157197-7.8833571,1.3680991-15.1506679-.144807-23.7889861-1.2709987-7.257087-4.9500839-11.8842803-6.878726-18.22268-1.6175831-5.3161176-.2300513-8.3242291.0257138-13.4640389.496025-9.9680317.4051341-19.9319343.5624054-29.7371232.1812806-11.3020648.1499827-22.5832605.6012617-33.8755949-1.164623-1.3527265-1.7431186-3.7677082-2.6237811-4.9649821-1.3234079-1.7991931-4.9691502-2.4167612-4.1267608-5.8416775,1.1642947-4.7336918,5.7600266-3.554938,7.29176-5.6007716.276584-.3694147,3.7824852-7.9119333,3.8879703-8.3707845.8209714-3.5711552-.3918859-13.9227928,6.2345159-12.1627985,5.3328709,1.4164282,6.6008256,10.0607021,6.2120627,14.6870045-.2232822,2.6570717-2.786179,6.7300006,2.0771551,7.3872391,5.9827971.8085245,27.7451549-.2651207,33.0186458-2.6478311,8.7118723-3.9362671-.9229285-20.1737149,9.6237063-20.2059955,4.7209442-.0144496,6.2997844,3.9006161,6.706584,7.9462469.8637417,8.5899313-.4367471,17.7015188-.6009644,26.2378237-.4819021,25.0501198-.4512045,49.9315578-1.1196816,74.7681651-.0918667,3.4132162-.9395011,10.1062824-5.0263462,10.7435767-6.1657793.961479-6.7659554-2.1932167-7.2470159-7.2742725-.9337895-9.8628692-.6014478-19.8940488-1.1825956-29.7561663-.3375335-5.7279663-1.1360899-11.5005127-1.4376279-17.2415429-4.8128799-3.2597746-3.8909865,11.6717136-8.3251982,7.440011ZM434.0643297,156.8195156c-.6629406.4739384-.8730573,3.3362476-.7110036,4.2338889.5820201,3.2239024,7.5504734,4.7937688,10.3076915,4.9414152,4.0344153.2160391,16.331028-3.5635785,11.0227638-8.7421361-2.0294066-1.9798184-9.108471-.570387-12.3082083-.5316631-2.0746068.0251073-6.2887987-1.3473573-8.3112435.0984951Z"/>
    <g>
      <g>
        <path d="M317.936174,117.7632755c2.0852189-1.7248209,4.1971153-.3763506,5.2112573,1.742853,3.2108116,6.7094784,3.8278588,31.9166903,3.9868085,40.3785614.397308,21.1511556-3.4504151,64.0055371-28.1601408,71.1255481-5.1841855,1.4938028-12.6091505.8025945-16.8235402,2.4402173-10.594159,4.1166663-1.1161409,23.1207902-1.7131583,30.3605946-.3837442,4.6535214-5.4616638,5.0420536-6.7727969.913404-1.9416626-6.1141348.3137998-17.1875185-.2386542-24.2789634-.7849577-10.0759238-5.7722294-12.9696783-10.1898095-20.7489525-10.9197307-19.2294369-7.4593322-51.8206984-4.3321776-73.1214539,1.0759662-7.3289924,3.2186884-24.6718653,7.0073238-30.3529051,3.6088617-5.4114699,7.8716688-1.1863656,9.2100994,3.4428294,3.2812831,11.3488891,1.6975309,30.0365173,1.7812416,41.9970283.0920259,13.1485936-1.8058332,36.7776679,1.5696997,48.6358162,3.7209901,13.0717293,17.8811616,8.019637,24.1195887-.1873081,13.2494418-17.4302658,9.8396386-60.5168593,12.2652687-82.3018265.2894308-2.5994238,1.0469424-8.3646035,3.0789899-10.0454429ZM271.0774521,162.5399504c-2.7543178,10.4093812-5.6149662,23.1880095-1.8645526,33.6673216.4277514,1.1952124,2.3074488,5.7706411,3.8905591,5.437689.7966336-.5505149.9181716-1.0821863.913156-2.0137809-.0220887-4.1026923-1.5592815-9.2653847-1.8029366-13.4296894-.3887067-6.6433788.5557737-13.8624711.0173596-20.4480278-.0575298-.7036704-.2195251-3.1229349-1.1535854-3.2135124Z"/>
        <path d="M367.587578,99.690978c7.0693753-6.501084,16.8660717-3.7842501,22.2898016,3.2880742,8.0636763,10.5147076,5.8031424,42.8647352,6.7049174,56.9238572.2790446,4.3504444.7130792,9.0773909,1.165229,13.4285266.8607807,8.2834788,6.0991117,28.553907,1.6633413,34.9418729-5.4798086,7.8914885-7.2231999-11.009421-7.4985862-13.9291222-1.4685497-15.5698624-.4082607-31.0190731-3.0937643-46.5250049-1.5529037-8.96637-4.2981115-23.3259135-7.558915-31.5523523-.7555876-1.9062159-2.3248948-6.2461912-5.1558071-4.2638771-.8840601.619053-.633006,14.6266603-.5693488,16.9884228.6530422,24.2286756,8.7513695,77.9494408-6.6703065,97.1888745-9.984781,12.4565924-26.1107086,9.3329881-35.0020238-2.3896585-4.4319119-5.8432006-9.0833536-26.4186946.5808551-27.9502321,8.4343435-1.3366343,7.5422063,7.5700762,9.6528627,12.4627623,2.4923419,5.7774666,11.8970571,8.7048941,14.2543683,1.5256879,1.3467803-4.1016279,2.1655363-14.7665362,2.6125023-19.5700058,1.6049738-17.2483877,1.4587055-34.1789787,1.1486937-51.3406736-.1598061-8.8465802-1.8348067-25.0650168,1.1772908-32.7283756.6386697-1.6248992,3.0492584-5.3496003,4.2988894-6.4987763Z"/>
      </g>
      <g>
        <path d="M69.4717681,163.9076669c8.1433592,9.0070338,14.8706395,18.2917163,18.7144669,30.0286987,2.4822123,7.5793418,7.3773081,27.9865565-7.1140662,25.2055391-4.3685232-.8383566-4.7768594-13.6697666-5.9890792-17.939896-2.728462-9.611199-9.6236231-20.9568268-18.5645999-25.8545426-5.3469686,3.8314744-6.9088855,12.204543-6.6816793,18.4153901.1979232,5.4103742,4.0842485,15.5253953-.2903028,19.5745166-1.8281534,1.6921542-3.4771786.6824237-4.5141705-1.3486651-3.4586994-6.7743308,2.0048277-25.3947299-.4062527-28.6773038-.5033343-.6852663-1.1365293-.263673-1.800312-.3492023-1.9343996,14.0238012-7.8016058,27.5719557-8.7521901,41.7488696-.6827437,10.1823675.5180018,20.6138739.4402433,30.7946436-.8383519,4.6471917-6.0510191,6.0243046-7.9747198,1.2450023-1.7771057-4.4150971,1.2383902-18.3433808,1.6845491-23.8795679.5541192-6.8758188,1.3700423-16.5789675.5421008-23.295634-.4158732-3.3737663-2.8653505-7.0343991-2.9179035-10.5614688-.3198964-21.4696966,2.4279462-64.3612684,9.2202715-84.2209767,1.3271022-3.8802414,4.8719565-12.4440093,9.8264268-7.1540984,6.8980479,7.3650777-1.6563916,32.2173163,1.5726689,35.4883207,1.7099964,1.7322084,5.3199834-.678224,6.8783214-1.8843188,7.6740668-5.939438,18.3426025-19.6675868,23.2179678-28.1520351,3.8727711-6.7396644,8.8733592-23.536593,18.8147596-20.9096227,7.2221514,1.9084209,1.9285761,11.8597712-.1005966,16.2737767-4.2195253,9.1786213-11.9976805,21.6740979-18.1099023,29.7576162-2.540083,3.3593034-12.3023827,13.3451007-13.0551576,16.1340164-1.3678742,5.0677642,2.7683572,6.6953661,5.3591564,9.5609423Z"/>
        <g>
          <path d="M165.1845076,163.9241728c6.6004023,8.3710478,2.9277071,12.3893625,1.5309938,21.222542-2.1031424,13.3008212,3.3305984,26.063904,3.884675,39.0405849.3513842,8.2295482-1.645733,17.2433876-1.0965555,26.1967332.1893687,3.0873137,4.5842318,21.8349062-2.357277,19.9124034-5.3638643-1.4855623-3.2227152-13.5108077-3.4922163-18.1491617-.8051931-13.8580938-4.3413742-18.1319881-7.4126944-29.94732-1.1865037-4.5644656-1.0416334-9.5380891-2.2090838-14.1359226-.9969024-3.9261552-3.4298237-7.3839639-4.558133-11.2031231-1.0241117-3.4664657-1.0009923-8.3488943-2.0967752-11.3437983-.2301525-.629034.2793238-1.0030652-.9036545-.7709891-6.5376515,3.0228389-11.7427975,5.4438541-17.2635131,10.1790927-5.2895882,4.5369955-8.5378946,8.3916974-11.584218,14.6845421-4.8431655,10.0046135-14.8883831,32.1188584-15.2809256,42.504972-.3543206,9.3748167,1.916561,19.658158.5544307,29.1634692-.3164273,2.2081148-1.4900451,4.8194349-4.0379146,3.5683585-5.1335775-2.5207325-.1584257-23.979258-.0555571-29.2652896.2217374-11.3942509-6.126526-22.6148672-1.9913526-34.0928169,10.7727793-28.9948578,19.1372202-58.9424081,30.0423643-87.8751812,2.8535041-7.5707195,6.3813032-17.8444822,10.3148117-24.7102023,1.5829075-2.7628769,3.9558194-7.7448686,7.2288775-3.8702008,3.6050715,4.2677076,9.133958,21.1504701,10.3553638,27.0035835,1.6500516,7.9072314,1.2405988,20.4797163,5.7424555,26.9475282,1.1625623,1.6702518,3.4627557,3.3889287,4.6858985,4.9401958ZM142.0583815,142.6909657c-1.0365738-1.2665162-4.2893583,5.526356-4.5363961,6.2571894-.7405457,2.1908216-2.806497,10.0949962-3.0217186,12.1934975-.4512161,4.3995458,5.6488766,5.1946541,8.8971032,4.3181408,1.7600682-.4749432,1.9772973-8.3150647,1.8409789-10.0184245-.3398818-4.2469742-3.5410929-8.4141535-3.1799674-12.7504032Z"/>
          <path d="M199.3448913,246.5159123c-1.1476721-.7161062-.4157112-10.4237895-.9182393-12.7961559-.9743535-4.5997891-6.7414576-8.5961693-8.3785444-12.6364637-4.5992318-11.3508035,2.3504637-27.6024973,3.3740234-39.001251.8340415-9.2882064-.5170185-19.7154488.0150896-29.1724217.4560415-8.1050681,2.2212097-18.6380299,3.5712865-26.7837252.4652134-2.8068675,1.8476631-12.0312758,4.8819321-12.6251578,3.0579929-.5985253,5.0374466.133627,6.5692547,2.7759321,5.8246276,10.0472395-.2471564,43.71589-1.0424134,56.4505132-.7640087,12.2342376-.6402243,24.6659105-1.137705,36.8073985-.3566667,8.7047889,7.521334,4.5489658,13.7350379,4.9324313,3.3800694.2085938,9.2457933.8854522,12.5580344,1.4517557,3.9517839.6756481,6.8535064,3.3190203,4.3193393,7.3015804-7.0610499,11.0967646-29.8373002-3.0001637-33.2749335,12.8378831-.3949434,1.8196044-.5734383,9.2411009-1.0976282,9.9923079-.4503651.64541-2.6039679.8213859-3.174534.4653731Z"/>
        </g>
      </g>
    </g>
  </g>
  <g>
    <path d="M296.0423814,51.9909965c-.7330973-.0269905-.6353677.9173187-.8438681,1.4010207-5.5722828,12.9271855-12.3205506,22.1614134-26.3783524,26.327732-9.9436489,2.9470048-26.1249274.9881513-35.2479157-4.0073489-7.5656135-4.1427242-17.6111594-14.7425126-16.7811345-24.0109885.2091281-2.3352294,2.4969952-6.5621613,4.5449016-7.7516666,1.6011479-.9300102,1.4736951.8281012,2.3451891.6044748.7294544-.1871789,1.2101646-3.8175228,2.9506463-1.3335393,1.0383162,1.4818657.2444395,2.9101882-.0826961,4.474447l1.8226452-.1731478c1.4771189.4186242-1.8181163,4.049606.2640064,5.2121655.4157778.2321508,2.2870233.4622615,2.4084575.9574767.1392949.5680522-.2788411,1.2661359-.2002133,1.8936105.0675331.538936.576363.814247.6057941,1.3863821.038792.7541087-1.0548614,1.5157952.3587765,1.9580311,1.7905676.5601528,2.4516628-.9969854,3.8192095-.9036377,2.2756303.1553327-1.4996017,2.1784321-1.6731881,2.4431964-.6456146.98473.5728827,1.1078078,1.0765373,1.8765232.2623349.4003952.296549.8679288.5249047,1.2320347,1.2717242,2.0277237,13.2095136,6.4081359,15.9344141,6.9048893,17.8179078,3.2482316,30.4090957-3.4849755,37.2286358-20.0562772,2.0650683-5.0180613,2.6831368-10.6457392,4.6153026-15.4910926.875638-2.1958651,3.3633828-5.807703,5.6041927-2.7260004,1.851025,2.5456458,1.5257675,11.8737921,1.7906005,15.3876806.0975123,1.2938241,1.1730289,5.4041155.1106202,6.16424-1.0048151.7189179-1.6724149-.4387023-1.822661-1.3290714-.4970089-2.94531,1.255357-6.2858572.4538453-9.6284126-.0534231-.2227913-.3306956-1.0234438-.6922596-.7670764-.3374301.2392552-1.5025204,3.769218-1.5632167,4.3928105-.292518,3.0053237.9890869,6.5803366.5289067,9.5169519-.2505202,1.5986812-1.702081.6797038-1.702081-.1488569v-3.8065505Z"/>
    <g>
      <path d="M268.64011,33.9567341c-1.2556003,1.2300898-2.9582619,2.1669767-1.8872154,4.2813344,1.207982,2.3846828,7.5084973,5.31045,9.4802363,7.8923648,1.2994576,1.7015887,1.1789088,4.3994395-1.3541088,4.2878686-1.6386946-.072179-7.6163987-4.8790084-9.342218-6.0848373-3.2411287-2.2645746-8.8712173-4.5124442-8.9414255-9.0337154-.0548777-3.5340153,5.2906753-8.0017319,7.560757-10.510162,1.8804033-2.0778372,7.2885319-8.7673072,9.3578705-9.6742979,2.0591277-.9025152,4.7236373.4169162,5.1081642,2.6636486.9763301,5.704549-6.2828026,12.5536977-9.9820601,16.1777961Z"/>
      <path d="M251.6911053,15.1431353c1.2039908-.0210363,1.6507156,1.522676,1.8949805,2.4899189,1.8155863,7.1893807.2202355,14.2733906-.0983108,21.3636041-.1432603,3.1886905,1.1094029,10.0279836-2.4007043,11.8631444-5.1865867,2.711661-5.5026125-5.0229262-5.796705-8.1431645-.6321815-6.7072681-.6635382-12.6108318-.578312-19.3142721.0227054-1.7858841-.3462061-4.0590404-.201474-5.6688279.2771547-3.0826636,2.2738717-2.1160871,4.5824573-2.2482699.7727285-.0442441,1.8231687-.3285937,2.5980683-.3421329Z"/>
    </g>
    <path d="M236.4447868,60.2144876c1.3387885-.3406927,1.5567763,2.154881.3402475,2.323433-1.5658546.2169516-1.1935949-2.1062746-.3402475-2.323433Z"/>
  </g>
</svg>