<?xml version="1.0" encoding="UTF-8"?>
<svg id="_Шар_1" data-name="Шар 1" xmlns="http://www.w3.org/2000/svg" viewBox="0 0 512 300">
  <path d="M118.1862331,196.1855574c-40.464655-7.2350609-2.6415335,36.8290637-24.2155065,51.4888249.0614339-3.6162823,2.4158086-6.2672108,2.8988255-9.9811996,1.5968631-12.2785162-5.733076-17.3042732-8.2897682-27.8023326-1.9809949-8.1341829-.464818-24.4919858-12.0563408-9.1691598l-3.1620159-3.0928727c-3.3563481-.4698443-6.3696467,1.0092501-8.2572019,3.7846271-1.4242238,2.0941151-.4722061,5.5310369-2.9349676,5.3655415-2.9673373-9.8742524,15.0934955-16.8126761,8.3134901-24.1926092-5.7467449,7.6154064-12.9835323,3.6977144-20.9666761,10.8045001-4.4031031,3.9197477-4.4299522,8.5487965-8.5488265,11.8807779.1511967-6.9200055,4.5573586-13.9812559,9.0841479-18.9167069,3.5677789-3.8898647,11.478436-5.9533805,10.5803445-12.8776324-7.7509195-1.286129-12.9907017,1.738548-19.6791076,4.5206185l13.6270256-11.3594321c-8.5107838-12.7724402-21.8072198,1.1590196-28.756685,8.3449337,2.6588731-11.3109752,11.5822048-21.0336321,22.6963636-24.2526835l-3.0183535-4.494288,4.4671467-2.4609286c.3185905-7.8743966-5.4913294-8.5018472-12.0375737-8.1808769l10.6005773-3.0237145.0048971-4.5277939-10.6071616-1.5424758.0071113-3.0219387,2.9945316-.7121662c-3.3473233-5.5960238-9.2417302-10.2646462-9.0498118-17.4367613l9.8357083,10.5855595c3.5059421,2.568392,10.4693847,6.1598932,14.7734408,5.751678,2.6008386-.2466748,12.0368559-3.336173,9.5035947-7.2946537l-2.2546844-2.2974341-10.6604229-4.4626501c5.9540368-5.6438774,13.6916999-5.1733154,21.183113-3.8131288l-9.0641456-15.1351753c.7498071-.7793151,12.7171169,13.8867409,18.9410447,7.6064162,7.0182628-7.0818574-4.5772288-17.6311014-6.8258729-24.2647749l15.1135125,16.6503062c-2.8683574-12.9995378.1462935-26.8244618,9.8666459-36.3303337.2359447,6.4003785-3.8984034,11.8862256-3.6819865,18.6945835.2981913,9.3809342,6.1024465,18.1148483,9.0352023,26.6957082,5.5918882,1.5898686,4.1791514-3.1998255,7.4949346-4.5004439l1.4341516,5.3920671c4.8779695,3.9947998,18.4584673-12.2765482,21.2836261-16.0010119-3.4124642,12.9203969-24.0150318,31.1996835,4.5574735,19.7014304l-3.0228008,6.7576234c2.3505596,7.9747374,25.8925624-7.3095719,31.789397-5.2425958l-11.3620894,6.0303299c-5.1609243,4.9570753-11.3263214,10.3707614-11.3489554,18.1737055,2.2119098.9293894,11.6691447.152642,10.5776697,3.7622517l-16.3972406,29.0903338,20.9477372,26.2159764,25.6998338-61.3926367c6.1034636-.4801302,22.0758644-2.8459157,25.6487217,1.736857l31.9612766,67.2163361-27.8160645,1.3226287-5.749297-11.6519865c-.9563914-.5864888-16.2894615-.6300891-18.7644765-.3405268-9.0723815,1.0614159-4.6910947,10.4293771-9.1906667,12.0008228l-23.8820859-1.2436507-.9292978-4.6263684-25.0404921,5.458936-17.3509696-22.1063643v22.715934ZM118.1862331,125.0089642v24.2303296l12.0427543-23.5780335,7.622751-1.3801228c-13.3200067-22.4804296-43.8193999-27.5596438-64.3045436-11.3517063-28.7279473,22.7296807-18.3259298,67.0873323,15.8507462,77.1984496l.006899-63.6124736,28.7813932-1.5064431ZM209.0426804,164.3749493l-5.2932088-12.0764761-5.2939092,12.0755006,10.587118.0009756Z"/>
  <path d="M324.9012326,196.1855574c-4.9497135-1.5293112-.8150238-17.4638807-.6849806-21.8866073.4864664-16.5445611-1.31592-32.8266892-1.594415-49.2978398,6.3118434.8068424,15.3522983-1.5024478,21.1491383.8252944,7.8489868,3.1517893,19.8741441,20.1377594,28.0618659,24.9418449l-2.2569384-25.7592855h28.0163186c4.3550802,0,.7781054,14.1987994.6858795,17.3429504-.5001882,17.0523304,1.9024457,33.7939568,1.6011133,50.7972525l28.9697022-67.9290265,23.3225914-.3225425,34.0055218,69.7656141-27.8393135,1.6186411c-3.4401766-17.096474-13.4002078-11.4599702-27.2582993-12.3076603l-4.8850834,12.3069864c-7.60531,1.2309876-15.4213041-1.7286828-22.5445207-1.7507122-7.1204447-.0220208-15.120178,3.4919974-22.4067623,1.3432747-6.9413603-2.0469205-23.6782345-26.9257748-31.339145-31.4900815l-1.529541,31.8018972h-23.4731318ZM445.2742915,152.2717961c-3.203077-3.1154256-6.3949966,10.1166481-6.0313061,12.1035607l10.5954005-.007224-4.5640944-12.0963367Z"/>
  <path d="M294.6133206,125.0089642c6.9140486,1.1465852,21.0373323,14.4421135,22.7860282,21.1713872,2.5340002,9.7512561-5.4658856,17.3422149-13.0689211,22.1962565l13.726184,24.0246591c-.0104995,2.0091235-20.2936262,4.3499462-23.1133515,3.5067695-6.7655338-2.0230836-13.5668776-18.0374649-19.2447874-22.437955-1.0455141,7.1768364,2.4414479,17.0194296-2.2866906,22.715476h-23.4731318l-3.0287912-71.1765932c14.4425861,1.6924434,33.9279152-2.2844556,47.7034614,0ZM275.6995625,162.8671537c4.3287839-2.099611,12.7119356-5.3801983,12.1779223-11.2800676.6777078-4.4873362-12.9165384-9.2797057-13.6992283-8.3990174l1.521306,19.679085Z"/>
</svg>