<?xml version="1.0" encoding="UTF-8"?>
<svg id="_Шар_1" data-name="Шар 1" xmlns="http://www.w3.org/2000/svg" viewBox="0 0 512 300">
  <path d="M36.454966,151.1426558c-1.0291469,0-2.0507266-.3140412-2.9133938-1.1010358-2.9966336-2.7582651-5.5922027-6.7726947-6.2278522-11.8919438-.9383398-2.2058553-1.4907496-4.7257518-1.4907496-7.5596894,0-16.1447421,7.1661921-22.0509859,16.5344558-22.0509859,17.0868656,0,41.3399232,19.7656744,42.4447426,33.1521515.8626673,2.1263991,1.415077,4.0976695,1.415077,5.9857,0,4.4117106-2.6712416,8.032643-9.2925912,9.8450009,5.5165301,5.3538341,9.9282407,10.7076682,11.5779027,12.5994823,1.2637319,1.4945332,1.8918142,3.3068912,1.8918142,5.1949217,0,4.2527982-3.6247159,7.9531868-7.8775142,7.9531868-2.2020717,0-4.5630558-.9421235-5.9857-2.7544814-6.6894549-8.6607253-5.2743779-17.0868656-9.9963461-21.6537049h-1.180492c-2.3685513,0-4.8884478-.0794562-7.5596894-.1589124v.3934973c0,7.2456483-.9459071,18.191685-5.2819452,18.191685-3.2236513,0-5.5846354-2.4404403-5.8267876-5.3576177-2.0431593-23.4660629-2.830154-19.2132647-6.2959575-37.4011661-.0832398-.2383686-.0832398-.6318659-.0832398-.8664509,0-2.5198965,1.975054-4.3322544,4.4117106-4.3322544,4.2527982,0,8.5888363,5.9062438,11.025493,14.6464253,3.7836283.4729535,12.5994823,1.9674867,13.0762195,2.0469429,5.8267876,0,8.5811762-1.6534456,9.050439-4.0144297-3.8593009-6.5381098-14.801554-14.6464253-24.2530576-17.8776439.1589124,2.99285.3178248,5.9857.3178248,9.0580062,0,.6280823-.0832398,1.9674867-1.1048195,1.9674867-.7113221,0-.7869947-2.2853115-.7869947-3.1479788,0-2.8377212.0756726-5.5922027.0756726-8.3504677-2.0431593-.5486261-3.9349735-.9421235-5.6678752-.9421235-4.8808805,0-8.3466841,2.595569-8.3466841,9.2925912,0,4.8808805,2.7544814,9.8412173,2.7544814,14.1734717,0,2.6750252-1.7329018,4.9603367-4.4041434,4.9603367ZM43.2276607,112.7123428c2.830154,0,2.4366566.6318659,5.7435478.6318659.4767372,0,.7869947-.1589124.7869947-.3934973,0-1.1010358-5.7435478-1.8918142-8.0288593-1.8918142-4.805208,0-8.0364266,2.2058553-10.1628257,5.6716589-.3102575.5524097-.5448425,1.180492-.5448425,1.6534456s.1513451.7869947.4691699.7869947h.0756726c.3934973-.5524097.7869947-1.0253633,1.2637319-1.4945332,2.2020717-3.4658036,5.7511151-4.9641204,10.3974107-4.9641204ZM35.1155616,146.0234066c-.9459071,0-1.8918142-.234585-2.6788089-.8664509.7869947,1.180492,1.649662,2.2058553,2.6788089,3.0723062.3934973.3140412.8626673.5524097,1.3394044.5524097,1.415077,0,2.0431593-.9459071,2.0431593-2.5993527,0-.4729535-.0756726-1.0253633-.1589124-1.5739894-.8626673.8626673-2.0431593,1.415077-3.2236513,1.415077ZM45.1119076,117.6764632c-4.7219682,0-8.1120991,2.3609841-8.3466841,8.5812691.3934973-.8664509.7869947-1.6534456,1.3394044-2.3609841,2.0507266-2.5993527,5.1987053-3.5452597,8.3466841-3.5452597,1.8161416,0,3.7003885.3140412,5.6678752.8664509v-2.2058553c-2.5198965-.8664509-4.8808805-1.3356208-7.0072797-1.3356208ZM53.4585917,121.5319804c1.3394044.397281,2.6788089.9459071,4.0182133,1.4983168,6.3791974,2.7544814,12.8340673,7.1661921,17.6392753,11.9676164-4.4873832-5.9062438-13.5453894-12.5200262-21.8088337-15.5885487,0,.7075385.1513451,1.415077.1513451,2.1226155ZM57.71139,156.4170337c1.5739894,0,3.1479788.0794562,4.7295354.0794562-1.3394044-.4729535-2.9133938-.7869947-4.805208-.9459071,0,.3178248.0756726.5524097.0756726.8664509ZM83.8562617,147.6768522v-.7869947c-.7869947,1.4945332-2.2020717,2.7582651-4.0938859,3.8593009-1.8085743,1.5739894-4.0938859,2.3609841-7.3251045,2.5993527.8702345.7075385,1.6572292,1.4945332,2.4442239,2.2815279,4.5630558-1.0215796,8.9747664-2.9133938,8.9747664-7.9531868Z"/>
  <path d="M118.1435017,151.6950655c-1.5815566,0-3.3068912.0756726-5.0397929.3934973.1513451,2.2020717.234585,4.4873832.234585,6.7726947,0,.6280823-.0832398,1.9674867-1.1048195,1.9674867-.7113221,0-.7869947-2.2853115-.7869947-3.1517624v-5.2743779c-7.7186018,1.7329018-15.1950514,6.3791974-15.1950514,13.1518921,0,.6280823.1513451,1.180492.3102575,1.6534456,2.1263991.4729535,4.6462956.5486261,7.0072797.5486261,8.2710115,0,17.2457779-3.227435,23.7838877-4.6462956,2.0507266-.4691699,2.9966336-.8626673,5.1230328-.8626673,2.3609841,0,4.3284708,1.3356208,5.2743779,3.227435,2.9133938.3140412,5.1987053,2.7544814,5.1987053,5.588419,0,2.9171774-2.6031363,5.4370739-5.5165301,5.5922027-8.5812691,1.5739894-18.191685,2.99285-29.2928506,2.99285-7.0072797,0-13.621062-1.4188606-17.4046903-5.4332903-4.6462956-2.1263991-7.7942744-5.7473314-7.7942744-11.8124877,0-6.6137823,4.1771257-11.3395341,8.1120991-14.6464253-.4767372-.3934973-1.0215796-.7869947-1.415077-1.180492-5.4408575-2.6788089-9.610416-7.9531868-9.610416-14.5669691,0-12.0508562,11.2600779-20.8704939,23.8595603-20.8704939,3.390131,0,5.7511151,1.3394044,7.400777,3.5452597,4.9641204,1.415077,7.2494319,6.5343261,7.2494319,12.7546111,0,2.3647677-2.0507266,4.4117106-4.4117106,4.4117106-1.9674867,0-3.6247159-1.4188606-4.1771257-3.227435h-.3934973c-2.3609841,0-4.3284708-1.9712704-4.3284708-4.3322544,0-.3140412-.0756726-.6318659-.0756726-.9459071-6.5381098,1.180492-11.7368151,5.8267876-11.7368151,11.8124877,0,1.6534456.3934973,2.99285,1.1048195,4.0938859,1.9674867.6318659,4.4041434.9459071,7.1661921.9459071,5.6678752,0,7.0829522-.4729535,10.6319956-.4729535,2.6712416,0,4.9565531,1.0253633,5.5089629,3.227435,2.6788089.2383686,4.7219682,1.577773,4.7219682,4.3322544,0,2.3647677-2.0431593,4.4117106-4.4041434,4.4117106ZM97.0384229,114.0517472c-4.1771257,0-10.9498204,3.5452597-13.8632142,11.1049492v.0794562c0,.6280823.1589124.9421235.4767372.9421235.4691699,0,1.2561646-.7869947,1.4907496-1.415077,2.2096389-5.5127465,9.1336788-8.5055965,11.8957275-9.213135.4691699-.1589124.8626673-.4729535.8626673-.8664509s-.3934973-.6318659-.8626673-.6318659ZM104.9083698,120.9833543c-.1513451-.6318659-.1513451-1.1048195-1.0215796-1.1048195-7.9531868,0-15.1193788,5.1192491-15.1193788,12.1303124,0,2.4404403.9459071,4.2490146,2.5198965,5.588419-.1589124-.7869947-.234585-1.5739894-.234585-2.4404403,0-8.1877717,7.0072797-12.9929797,13.855647-14.1734717ZM91.6808051,162.4027337c0,1.812358.8702345,3.0723062,2.2020717,3.8593009v-.7075385c0-3.7041721,1.8161416-6.8521509,4.3360381-9.213135,3.0723062-2.9171774,8.0288593-5.1987053,13.3032372-6.2997412v-1.4188606c-9.050439.7075385-19.841347,5.6678752-19.841347,13.7799744ZM132.8693832,173.5076828c-8.5888363,1.5739894-18.191685,2.99285-29.3004178,2.99285-1.3318372,0-2.6712416-.0794562-4.010646-.1589124,2.595569.6280823,5.5089629.9459071,8.5812691.9459071,10.9422531,0,20.3937567-1.3394044,28.8993532-2.9133938.0832398,0,.234585-.0794562.3178248-.0794562,1.7329018-.0794562,3.2236513-1.6534456,3.2236513-3.2312186,0-1.3356208-.8626673-2.595569-2.2020717-3.0685226-.0756726,2.9133938-2.595569,5.3538341-5.5089629,5.5127465ZM113.8907035,124.2902455c0,1.415077-.7113221,2.6788089-1.7329018,3.4658036.1589124.8664509,1.0215796,1.7329018,1.9674867,1.7329018,1.0215796,0,2.0431593-1.0253633,2.0431593-2.0507266,0-4.0938859-.9383398-7.400777-3.0647389-9.213135.5448425,1.812358.7869947,3.8593009.7869947,6.0651562ZM117.7500043,145.3158681c-.5524097,1.812358-2.2096389,3.1479788-4.1771257,3.1479788-.234585,0-.3934973.0794562-.6280823.0794562v1.180492c1.7329018-.3140412,3.4658036-.3934973,5.1987053-.3934973,1.0215796,0,2.0431593-1.0215796,2.0431593-2.0469429,0-1.4945332-1.0215796-1.812358-2.4366566-1.9674867Z"/>
  <path d="M155.3517027,118.777499c1.7329018.7075385,2.9133938,3.9387571,3.5414761,8.8990938,1.9674867,1.3394044,3.4658036,2.4404403,4.0938859,3.0685226,1.7329018-3.7760611,3.0723062-5.2743779,3.9349735-5.2743779.7869947,0,1.180492,1.180492,1.180492,2.9133938,0,2.5993527-1.180492,10.5525394-4.7976407,10.5525394,0,0-1.4226443-1.4188606-3.7003885-3.227435.0756726,1.9674867.0756726,4.0938859.0756726,6.2997412,0,1.9674867-.0756726,3.9349735-.1589124,5.8267876,4.1771257,1.4945332,8.1877717,3.1479788,11.5022301,5.1949217,7.0829522,3.1517624,12.7508275,7.0905195,12.7508275,14.3323841,0,7.7186018-9.8374337,11.2600779-21.1807514,11.2600779-2.3609841,0-4.8808805-.1551288-7.3251045-.4691699-1.415077,5.8267876-3.3068912,9.5271761-5.9024602,9.5271761-2.8377212,0-4.6462956-3.227435-4.9641204-6.4586536-2.595569-.6280823-4.1695584-4.0938859-4.1695584-7.2418646-1.180492-.5524097-2.3685513-1.1842757-3.390131-1.8918142-1.5739894-.6280823-2.9890664-1.4188606-4.3284708-2.2058553.1589124,2.99285.3102575,5.9857.3102575,8.97855,0,.6280823-.0756726,1.9674867-1.0972522,1.9674867-.7113221,0-.7869947-2.2815279-.7869947-3.1479788,0-2.9133938.0756726-5.8267876.0756726-8.6645089-4.5630558-3.0685226-7.5596894-7.1661921-7.5596894-12.1265288,0-2.3609841,1.9674867-4.3284708,4.3284708-4.3284708,0,0,6.3791974,4.2490146,14.0977992,8.3466841.6280823-4.7257518,1.1048195-8.5850527,1.415077-12.2854412-.6280823-.3140412-1.2561646-.7075385-1.8085743-1.0253633-8.1120991-3.6209323-15.036139-8.5812691-15.036139-17.6392753,0-6.3754137,4.2527982-11.0217093,9.8374337-11.0217093,2.6031363,0,5.4332903.7075385,8.3466841,1.6534456,0-.4729535.0832398-1.0253633.0832398-1.577773.1589124-4.2490146,2.595569-6.8483673,5.1154655-6.8483673.4767372,0,.9459071.1551288,1.4226443.3140412,1.415077.5524097,2.3609841,2.6788089,3.0647389,5.9857.3178248.0794562.7113221.1551288,1.0291469.3140412ZM137.4702752,120.4309446c-5.3500505,0-8.1877717,1.9674867-8.1877717,6.6932385,0,.7075385.234585,4.4117106.8702345,4.4117106.4691699,0,.5524097-.7113221.5524097-1.4983168,0-.5486261-.0832398-1.180492-.0832398-1.4945332,0-6.5381098,3.2312186-6.6932385,5.9100275-6.7726947h.234585c.9459071,0,.6280823.0794562,2.0431593.0794562.3934973,0,.5524097-.0794562.5524097-.2383686,0-.7869947-.1589124-1.180492-1.7329018-1.180492h-.1589124ZM141.7230735,125.9436911c-2.5198965,0-4.2527982,1.180492-4.2527982,4.2527982,0,4.0144297,1.8161416,7.0072797,4.6462956,9.3720474-1.0215796-1.8918142-1.7329018-4.1771257-1.7329018-6.6970221,0-2.9133938,1.4983168-5.3538341,4.0182133-6.1408288,0-.0794562.0832398-.234585.0832398-.3140412-1.0291469-.3140412-1.975054-.4729535-2.7620487-.4729535ZM144.3262098,129.3300384c-1.0291469.6280823-1.5739894,1.7329018-1.5739894,3.5414761,0,1.9712704.4691699,3.6247159,1.2561646,5.1987053.1589124-2.5993527.1589124-5.4332903.3178248-8.7401814ZM150.4632549,184.4537196c1.1048195-1.2599482,1.975054-4.3322544,2.5198965-6.617566-1.180492-.1551288-2.3609841-.4691699-3.4582363-.7075385-.8702345,2.0469429-1.8918142,3.4658036-3.0723062,4.0144297,0,2.0507266,1.0972522,4.0976695,2.7544814,4.0976695.3934973,0,.7869947-.1589124,1.2561646-.7869947ZM154.4057956,153.2690549c-.5524097,4.4873832-1.2637319,8.7401814-1.9674867,12.5200262,1.0215796.3934973,1.9674867.7075385,2.9133938,1.0253633.6280823-3.8593009,1.180492-8.1120991,1.5739894-12.5994823-.8702345-.3178248-1.6572292-.6318659-2.5198965-.9459071ZM154.799293,121.1384831c.1589124,1.3394044.3934973,2.7582651.4691699,4.3322544.3934973.234585.7869947.3934973,1.180492.6318659-.3934973-2.0507266-.8626673-4.1733421-1.649662-4.9641204ZM157.394862,141.7706084c0-2.8339376,0-5.4332903-.1589124-7.8737306-.5448425-.3934973-1.0972522-.8664509-1.649662-1.2599482v3.0723062c0,3.7003885-.1589124,7.1661921-.4767372,10.5525394.7113221.234585,1.4983168.5486261,2.2096389.7869947.0756726-1.7329018.0756726-3.4658036.0756726-5.2781615ZM178.4999409,164.608589c0,7.7186018-9.8450009,11.3395341-21.1807514,11.3395341h-.8702345c2.0507266.234585,6.0689398.3140412,6.1446124.3140412,6.6970221,0,13.2275647-1.2599482,16.6176956-4.3322544,1.4907496-1.3356208,2.2020717-2.7544814,2.2020717-4.5668394,0-3.4620199-1.4983168-5.8267876-4.1695584-8.032643.7869947,1.577773,1.2561646,3.2312186,1.2561646,5.2781615ZM157.3191895,167.3630704c1.649662.3934973,3.2236513.6318659,4.5630558.6318659,3.390131,0,5.6754425-1.4983168,5.6754425-5.4332903,0-2.3647677-1.4983168-4.2527982-3.8593009-5.8267876-1.4983168-.6318659-2.9967286-1.1842757-4.6462956-1.812358-.4767372,4.407927-1.1048195,8.5812691-1.7329018,12.44057Z"/>
  <path d="M175.7000559,146.0234066c-1.0215796,0-2.1263991-.3140412-2.9890664-1.1010358-3.4658036-3.2312186-6.3035248-8.1120991-6.3035248-14.3323841,0-13.2313483,12.5994823-20.3180841,26.1448718-20.3180841,20.7115815,0,31.5024895,10.393627,31.5024895,24.2568412,0,10.3141708-6.220285,19.2132647-19.5310895,19.2132647-2.0507266,0-4.1771257,0-6.4548699-.0794562.1513451,1.7329018.3102575,3.6209323.3102575,5.4332903,0,7.2456483-.9459071,18.191685-5.2743779,18.191685-3.2312186,0-5.5922027-2.4404403-5.8267876-5.3576177-2.0507266-23.4660629-2.8377212-19.2132647-6.3035248-37.4011661-.0756726-.2383686-.0756726-.6318659-.0756726-.8664509,0-2.5198965,1.9674867-4.3322544,4.4117106-4.3322544,4.3284708,0,8.6569416,5.9062438,11.1011655,14.7258815,5.0397929.5524097,12.5238098,1.8880305,12.9929797,1.9674867,4.805208,0,7.0072797-3.4658036,7.0072797-8.1120991,0-9.4477199-8.3466841-18.3468138-22.5201558-19.1338085.1589124,4.805208.6280823,9.5271761.6280823,14.4118403,0,.6280823-.0756726,1.9674867-1.0972522,1.9674867-.7113221,0-.7869947-2.2853115-.7869947-3.1479788,0-4.4911668.0756726-8.8990938.0756726-13.3108045h-.7869947c-11.7368151,0-14.6502089,3.5452597-14.6502089,8.1915553,0,4.5668394,2.8377212,10.0795859,2.8377212,14.1734717,0,2.6788089-1.7329018,4.9603367-4.4117106,4.9603367ZM193.2636586,113.5031211c1.415077-.0794562,1.9674867-.2383686,1.9674867-.397281,0-.234585-1.1048195-.3934973-2.3609841-.3934973h-.5524097c-11.9714.5524097-21.816401,5.1987053-23.231478,16.3036545v.7869947c0,1.2599482.3934973,2.2058553.7869947,2.2058553.3178248,0,.6280823-.5524097.7869947-1.9712704,1.2637319-11.025493,10.790908-15.7474611,22.6033957-16.5344558Z"/>
  <path d="M222.1024738,138.7020858c0-2.5198965,1.9674867-4.4117106,4.4041434-4.4117106,11.7368151,0,3.5490434,31.2641209,21.2639912,31.2641209,2.1263991,0,4.2527982-.8664509,6.3791974-1.8918142.234585-3.9349735.6280823-7.7186018.6280823-7.8737306,0-3.3863474.0832398-6.2997412.0832398-8.97855,0-5.0397929-.3178248-9.2925912-2.2853115-14.9604664-.0832398-.3140412-.1589124-.5524097-.1589124-.7869947,0-2.1263991,2.9133938-3.4658036,3.9349735-3.4658036,1.5739894,0,3.155546,1.3394044,4.4949505,3.4658036.234585-.0794562.3934973-.0794562.5448425-.0794562,6.220285,0,11.2600779,19.9208032,11.2600779,33.1521515,0,2.0469429-.1513451,3.9387571-.3934973,5.5922027-.9383398,6.1408288-.234585,12.44057-6.1370452,13.0724359-.234585,0-.4767372.0756726-.7113221.0756726-2.9133938,0-4.5630558-1.3356208-5.5089629-3.3863474-.3178248,0-.6356496,0-.9459071-.0756726.0756726,1.2599482.0756726,2.5198965.0756726,3.7798447,0,.6280823-.0756726,1.9674867-1.1048195,1.9674867-.7037549,0-.7869947-2.2853115-.7869947-3.1517624,0-1.1010358.0832398-2.2020717.0832398-3.227435-2.4442239-1.3394044-3.3068912-4.407927-3.390131-8.1120991-4.3284708,1.4983168-9.2093514,2.5993527-13.2275647,2.5993527-18.5851824,0-15.036139-15.9063735-18.42627-33.7802338-.0756726-.2383686-.0756726-.5524097-.0756726-.7869947ZM257.2977845,144.1353761c.4767372,0,.6280823-.5524097.6280823-1.4188606,0-2.9133938-3.3825637-12.44057-4.0938859-12.44057-.0756726,0-.0756726.0756726-.0756726.1551288,0,1.3394044,3.3068912,13.6248456,3.3068912,13.6248456.0756726,0,.1589124.0794562.234585.0794562ZM265.4098837,180.5149625c1.9674867,0,2.6788089-.8664509,3.1479788-2.2853115.7113221-2.0469429.9459071-6.0613726,1.3394044-8.8953102.234585-1.4983168.3934973-3.2312186.3934973-5.1987053,0-7.0072797-1.5739894-16.2998709-3.8593009-22.9136532-1.2561646-3.6247159-2.3609841-5.7511151-4.1695584-7.5596894,3.2312186,6.9278235,5.2743779,18.5057262,5.2743779,27.1664514,0,2.0469429-.0756726,3.8593009-.3178248,5.5127465-.8626673,5.588419-.3934973,11.4189903-4.7976407,12.8340673.5448425.8664509,1.4907496,1.3394044,2.9890664,1.3394044Z"/>
  <path d="M273.6506262,129.171126c.1589124,3.7798447.3934973,7.4802332.3934973,11.2600779,0,.6318659-.0756726,1.9712704-1.0972522,1.9712704-.7113221,0-.7869947-2.2853115-.7869947-3.1517624,0-3.1479788.1513451-6.1408288.234585-9.213135-2.3609841,1.812358-4.1772234,3.7003885-4.8808805,5.6716589-.5524097,1.5739894-2.2096389,2.8339376-4.1014531,2.8339376-1.3318372,0-2.595569-.6318659-3.3825637-1.5739894h-.5524097c-2.3609841,0-4.3284708-1.9712704-4.3284708-4.3322544,0-.4729535.0756726-1.0253633.234585-1.4945332,4.4117106-12.1303124,30.1630851-24.4914262,50.3979294-24.4914262,3.9349735,0,6.7726947.7075385,8.8234213,2.0469429,5.9781328,1.3394044,8.1877717,5.4332903,8.1877717,10.393627,0,15.5923324-12.8340673,26.9318665-22.9136532,33.7840174,5.1154655.3934973,9.9963461,1.3394044,13.0686523,3.0685226,4.2527982,1.1842757,7.1661921,3.1517624,7.1661921,6.3035248,0,13.621062-18.1160125,19.7618908-31.2603373,19.7618908-3.155546,0-6.3791974-.3140412-9.6860885-1.1010358-.7869947-.1589124-1.4983168-.6280823-2.0507266-1.180492-2.7544814-.3140412-5.1987053-1.6534456-5.1987053-4.6462956,0-2.3609841,1.9674867-4.3322544,4.3360381-4.3322544h.3102575v-.0794562c0-2.8339376.234585-5.8267876.5524097-8.9747664-1.649662-.0794562-2.6788089-.3934973-3.7003885-1.4188606-.3934973-.3934973-1.3394044-1.415077-1.3394044-3.1479788,0-2.1263991,1.415077-3.4658036,2.6788089-4.0182133,1.0215796-.4729535,2.1263991-.9421235,3.3068912-1.5739894.1589124-1.9674867.1589124-3.8593009.1589124-5.8267876,0-6.5381098-.3934973-13.0724359-1.2637319-18.5851824-1.180492.6318659-2.2777443,1.3394044-3.3068912,2.0469429ZM259.0836571,134.210919c0-.4729535.0832398-1.0215796.234585-1.4945332,3.390131-9.2925912,19.1375921-18.6646386,35.437463-22.599612-12.6751549,2.4404403-25.827047,8.6607253-32.8343267,15.5885487-2.1263991,2.1263991-3.6247159,4.2527982-4.3360381,6.2240686-.0756726.234585-.0756726.4729535-.0756726.7075385,0,.8664509.7113221,1.7329018,1.5739894,1.9674867v-.3934973ZM290.3439944,115.8641052c1.3394044-.4729535,1.8161416-.7869947,1.8161416-1.0253633,0-.4691699-.3934973-.7075385-.7869947-.7075385-4.4949505,0-20.5526691,6.4586536-25.3578771,13.9388868-.1589124.3140412-.234585.6280823-.234585.9459071,0,.3140412.0756726.4729535.234585.4729535s.3102575-.0794562.5524097-.397281c5.0397929-6.4548699,15.1193788-10.393627,23.7763204-13.2275647ZM276.7229324,173.1141855h-.4691699c-1.0291469,0-1.9674867.9421235-1.9674867,1.9674867,0,.8664509.7037549,1.812358,1.4907496,1.9674867h.0832398v-.3934973c0-1.3394044.6280823-2.5993527,1.5739894-3.3863474-.234585-.0794562-.4767372-.0794562-.7113221-.1551288ZM277.8277519,154.2906345c-.7869947.397281-1.4226443.7113221-2.1263991,1.0253633-.5524097.234585-1.2637319.8664509-1.2637319,1.812358,0,.8664509.3934973,1.180492.6356496,1.415077.3102575.3178248.4691699.4729535.7869947.5524097.0756726,0,.1513451.0794562.234585.0794562,0-.1589124-.0832398-.3140412-.0832398-.4729535,0-1.5739894.7869947-2.7582651,1.7329018-3.4658036,0-.3140412.0832398-.6280823.0832398-.9459071ZM285.1528563,171.6953249c9.3682638-.0794562,22.6790682-4.2527982,22.6790682-7.3251045,0-.234585,0-.4691699-.2421522-.7075385-2.6712416-.4729535-6.6894549-.7869947-12.44057-.7869947-3.0723062,0-5.9024602.1589124-8.6645089.3140412-.3934973,2.99285-.7037549,5.9062438-1.3318372,8.5055965ZM287.2792554,146.182319c8.6569416-5.6716589,17.7149479-13.4659332,19.5235222-20.4769965-.6280823-1.9674867-4.805208-3.3825637-8.1877717-3.3825637-.5524097,0-.7869947-.1589124-.7869947-.3934973,0-.7907783,2.5198965-.9459071,3.4658036-.9459071,1.9674867,0,4.4117106.5486261,5.8267876,1.8085743-.0832398-1.3356208-.7113221-2.4404403-1.8085743-3.3068912-1.1880593-.234585-2.4442239-.3140412-4.0182133-.3140412-2.6788089,0-9.2925912,1.6534456-16.0652859,4.2527982,1.2561646,6.5343261,1.9674867,14.6464253,2.0507266,22.7585244ZM311.0555759,124.8426552c0-1.577773-.5524097-2.8377212-1.8918142-3.8593009.2421522.7075385.3178248,1.415077.3178248,2.2815279,0,2.8377212-1.1048195,5.5922027-2.6788089,8.1915553-4.4041434,7.0072797-12.44057,12.9135235-19.5235222,17.4803629v1.2599482c10.7076682-6.3791974,23.7763204-16.6933682,23.7763204-25.3540935ZM311.766898,165.9479934c0-.5524097-.4767372-1.1048195-1.5739894-1.577773,0,1.9712704-1.3394044,2.99285-2.4442239,3.8593009-2.7544814,1.8918142-6.7726947,3.1517624-10.6319956,4.1733421,7.4840168-1.415077,14.6502089-4.2527982,14.6502089-6.4548699Z"/>
  <path d="M361.2036857,176.3416205c-.945807,0-1.8160415-.3140412-2.6030362-.8664509-.7869947.5524097-1.649662.8664509-2.595569.8664509-.8702345,0-1.7329018-.2383686-2.4442239-.7075385l-1.4983168-.5524097h-.4691699c-7.7942744,0-14.8847939,1.7329018-20.7872541,3.1479788,0,.9459071.0756726,1.9712704.0756726,2.9133938,0,.6318659-.0756726,1.9712704-1.0972522,1.9712704-.7113221,0-.7945619-2.2853115-.7945619-3.1517624v-1.2599482c-3.2236513.7869947-8.2634443,1.2599482-8.2634443,1.2599482-2.3609841,0-4.3360381-1.9674867-4.3360381-4.3284708v-.4729535c0-2.9133938,1.6572292-4.9603367,4.4117106-6.3791974-.0756726-.3934973-.1589124-.7869947-.1589124-1.180492v-7.0110633c0-5.5089629.0832398-10.3141708.0832398-14.5669691,0-11.5741191-.4767372-19.4516333-3.4658036-29.0582656-.1589124-.3934973-.1589124-.8664509-.1589124-1.3394044,0-2.3609841,1.9674867-4.3284708,4.3284708-4.3284708.9459071,0,1.8918142.3140412,2.6031363.8664509.7113221-.5524097,1.649662-.8664509,2.595569-.8664509,1.9674867,0,3.6247159,1.3394044,4.1771257,2.99285,4.9565531,15.8269173,6.5381098,25.4335497,6.6137823,51.5784214h3.1479788c3.4658036,0,5.1230328.0794562,6.5381098.234585-3.1479788-5.6678752-5.6678752-11.1806217-6.8483673-13.7005182-.1589124-.3140412-.2421522-.6318659-.2421522-.9459071,0-1.3394044.9459071-2.2815279,2.2853115-2.2815279,1.8085743,0,2.2096389,1.415077,2.9133938,2.6750252,0-.1551288-.0756726-.3140412-.0756726-.4729535,0-1.180492,1.0972522-2.2020717,2.3609841-2.2020717.8626673,0,1.8918142.4729535,2.1263991,1.2599482,1.7329018,3.7003885,9.6028487,11.4152067,15.1193788,18.9748961.5524097.7113221.7869947,1.577773.7869947,2.5198965,0,2.3647677-1.9674867,4.4117106-4.3285709,4.4117106ZM321.672437,137.203769c.0756726,1.6534456.7037549,2.4404403,1.415077,2.4404403s1.415077-.8664509,1.415077-2.4404403v-.234585c-.3102575-9.8450009-1.0215796-12.9929797-2.0432584-17.3252341-.3177257-1.4983168-1.0290478-2.2058553-1.5738903-2.2058553-.4767372,0-.7869947.5524097-.7869947,1.5739894,0,.397281,0,.7907783.0756726,1.2599482.9459071,4.2527982,1.180492,7.3251045,1.4983168,16.9317368ZM335.058914,165.9479934c-.3178248-26.1448718-1.6572292-35.3580068-6.5381098-50.9503391-.234585-.7075385-1.1048195-1.3394044-1.8918142-1.3394044-.3934973,0-.7869947.1589124-1.0972522.3934973,0,.0794562.0756726.1589124.0756726.2383686,4.9641204,15.8269173,6.5380104,25.5130058,6.6137823,51.8130064.9459071-.0794562,1.8918142-.0794562,2.8377212-.1551288ZM363.1712725,171.9299098c0-.4691699-.0832398-.7869947-.3178248-1.1010358-3.8593009-5.2743779-8.8990938-10.6319956-12.9097399-15.5923324-.7113221-.8664509-1.2637319-1.7329018-1.7329018-2.5198965.7869947,1.7329018,1.8842469,4.1733421,3.3067913,6.8521509,2.3610839,2.7544814,4.9566529,5.7473314,7.2419645,8.8196376,1.0215796.7869947,1.7329018,2.0469429,1.7329018,3.4658036,0,.6280823-.1589124,1.2599482-.3934973,1.8085743.3178248.1589124.7113221.3178248,1.1047194.3178248,1.1805921,0,1.9675868-.8664509,1.9675868-2.0507266Z"/>
  <path d="M366.1981752,137.3626814c-3.0723062,0-5.8267876-.9459071-5.8267876-4.5668394,0-2.5198965,1.0215796-4.1733421,2.2020717-4.3322544,9.5347434-.9459071,13.7043018-1.4188606,19.7656744-3.227435.0832398,0,.1589124-.0794562.2421522-.0794562.8626673,0,1.415077,1.2599482,1.415077,2.7544814,0,1.6534456-1.8085743,3.5452597-4.4873832,5.1987053,2.4366566,1.8880305,3.3825637,8.1120991,3.3825637,15.8269173,0,7.9531868-.7037549,15.1193788-1.8085743,21.3396638,2.6788089.7869947,4.5630558,2.5198965,4.5630558,6.1446124,0,3.6209323-1.4907496,6.1408288-3.2236513,6.2997412-1.2637319.1551288-2.5198965.234585-3.7003885.3934973.0756726,2.2815279.234585,4.5668394.234585,6.9278235,0,.6318659-.0832398,1.9712704-1.1048195,1.9712704-.7037549,0-.7869947-2.2853115-.7869947-3.1517624,0-1.4945332,0-2.9133938.0832398-4.3322544-1.1880593,2.2058553-2.6788089,3.4658036-4.570623,3.4658036-2.4442239,0-4.1771257-1.7329018-4.805208-3.6209323-5.0397929.7075385-9.0580062,1.5739894-13.9388868,2.99285-.0756726,0-.3102575.0794562-.3934973.0794562-1.2561646,0-2.0431593-1.812358-2.0431593-4.0182133,0-3.6209323,5.9024602-7.9531868,12.9097399-10.7871244,2.3609841-14.8053377,2.2853115-19.2170483,3.3068912-35.3580068-.4691699.0794562-.9459071.0794562-1.415077.0794562ZM369.7396513,137.9113075c-.6280823,0-1.0972522,14.0977992-1.0972522,14.0977992.0756726.0794562.234585.1589124.3934973.1589124,1.3394044,0,1.415077-3.9387571,1.415077-6.5381098v-.7869947c0-3.3068912-.234585-6.9316071-.7113221-6.9316071ZM375.0215965,183.5078125c-1.7329018.1551288-3.3144584.3934973-4.805208.5524097.3934973.8664509,1.2561646,1.5739894,2.3609841,1.5739894,1.180492,0,1.8918142-1.1048195,2.4442239-2.1263991ZM377.2236682,169.8072943c.5524097,0,1.1048195,0,1.5739894.0756726,1.1048195-6.1408288,1.7329018-13.1481085,1.7329018-20.9461665,0-4.7257518-.3178248-8.7401814-1.1048195-11.3395341-.3102575-1.2599482-.7870952-2.1263991-1.2561646-2.5993527.4690694,2.6788089.6280823,5.9062438.6280823,9.5309598,0,9.6860885-1.1048195,18.1122288-2.595569,25.2784209h1.0215796Z"/>
  <path d="M423.3763666,176.5762054v.2383686c0,1.3394044-.6280823,2.6750252-1.7329018,3.7003885.234585,3.6209323.4691699,7.2456483.4691699,10.8665806,0,.6318659-.0756726,1.9674867-1.0972522,1.9674867-.7113221,0-.7869947-2.2815279-.7869947-3.1479788v-8.5850527c-4.570623,3.3106748-11.1087328,4.9641204-16.4587832,4.9641204-14.6502089,0-23.1558054-13.0724359-23.1558054-25.1232921,0-3.7003885,1.1048195-7.0867359,2.8377212-10.0001297,2.4442239-7.7942744,9.6860885-13.386477,17.4803629-13.386477,4.1771257,0,8.5812691,1.6534456,12.3648974,5.4332903.8626673.8664509,1.2561646,1.9674867,1.2561646,3.0723062,0,1.4945332-.7037549,2.8339376-1.8842469,3.6209323v.5524097c0,2.3609841-1.9674867,4.3322544-4.3360381,4.3322544-1.0972522,0-2.2020717-.3934973-3.0723062-1.2599482-1.9674867-1.9712704-4.245231-2.8377212-6.4548699-2.8377212-2.9890664,0-5.8267876,1.577773-7.635362,4.0182133-.1589124.7075385-.234585,1.4945332-.234585,2.2058553,0,7.0867359,5.4332903,15.0399226,14.7258815,15.0399226,3.2236513,0,8.1045319-.9459071,10.8665806-3.3863474,1.0215796-.9459071,2.2777443-1.2599482,3.5414761-1.2599482,2.8377212,0,5.1987053,2.2815279,5.1987053,5.0397929,0,1.415077-.7869947,2.8339376-1.8918142,3.9349735ZM405.6614187,182.4067767c-12.5994823,0-20.6359089-9.6860885-22.6033957-20.0834992.3934973,10.790908,8.0288593,21.8920735,20.7115815,21.8920735,6.1370452,0,12.7583947-2.3609841,16.2998709-5.4332903-3.8593009,2.2058553-13.4697169,3.5452597-14.4080567,3.6247159ZM399.0400691,142.0884332c.7869947-.0794562,1.1048195-.6318659,1.1048195-1.0253633,0-.5524097-.5524097-.7869947-1.415077-.7869947-5.0397929,0-8.4299239,2.3609841-10.9498204,6.1408288,3.2312186-2.6750252,5.9857-3.7798447,11.2600779-4.3284708ZM410.2244745,150.9042872c-1.1048195,0-2.2020717-.3934973-3.0723062-1.2561646-1.9674867-1.9712704-4.2527982-2.8377212-6.4548699-2.8377212-2.4442239,0-4.7219682,1.1048195-6.5381098,2.8377212,1.4226443-.6318659,2.9966336-1.0253633,4.6462956-1.0253633,2.8377212,0,5.6678752,1.1010358,8.1120991,3.5452597.3934973.3934973.8702345.5486261,1.415077.5486261,1.0291469,0,1.8918142-.8664509,1.9674867-1.812358h-.0756726Z"/>
  <path d="M481.8485588,157.0488996c-.5524097,0-1.1048195-.0794562-1.5739894-.2383686-1.9674867-.7075385-4.1771257-1.415077-6.6970221-1.8880305,2.9209611,5.4332903,5.3576177,10.7076682,7.2494319,15.2782912.234585.5486261.3102575,1.1010358.3102575,1.6534456,0,2.3609841-1.9674867,4.3284708-4.3284708,4.3284708h-.3102575c-.7113221,1.4188606-2.2096389,2.3647677-3.8593009,2.3647677-.3178248,0-.6356496,0-.9459071-.0794562.0756726,1.7329018.1589124,3.4658036.1589124,5.1949217,0,.6318659-.0832398,1.9712704-1.1048195,1.9712704-.7113221,0-.7869947-2.2853115-.7869947-3.1517624v-4.8014244c-.6280823-.4729535-1.0291469-1.1048195-1.3394044-1.812358-2.3609841-5.7473314-6.0613726-14.4118403-10.0795859-22.3650271-1.3394044,0-2.7544814-.0794562-4.1771257-.0794562-4.7976407,0-9.8374337.1589124-14.5669691.5524097.1589124,5.3538341.7113221,10.6319956.7113221,16.0652859,0,.6280823-.0832398,1.9674867-1.1048195,1.9674867-.7114242,0-.7869947-2.2815279-.7869947-3.1479788,0-5.0397929.0755705-9.8450009.0755705-14.8053377-.4690679.0794562-.8625652.0794562-1.3317351.1589124-.5524097,5.9819164.6280823,17.0074094-5.6754425,17.0074094h-.3934973c-.7869947,1.4188606-1.9674867,2.3609841-3.7760611,2.3609841-2.3609841,0-4.3360381-1.9674867-4.3360381-4.3284708,0-3.1517624.0832398-6.2997412.3178248-9.2925912-1.1048195,2.1263991-1.8918142,4.1733421-4.7219682,4.1733421-2.3610855,0-4.3360381-1.9674867-4.3360381-4.3322544v-.4729535c0-6.2997412,4.570623-9.9206735,10.9498204-12.0470726,2.6788089-12.7546111,7.4764496-21.9715297,12.8340673-22.7585244,1.5739894-1.5739894,3.1479788-2.4404403,4.805208-2.4404403,7.7186018,0,17.011193,10.7114518,24.8811399,23.1520218,6.1446124.7075385,11.5779027,1.8918142,15.5128762,3.3863474,1.5739894.6280823,2.7544814,2.2815279,2.7544814,4.0938859,0,2.3647677-1.9674867,4.3322544-4.3284708,4.3322544ZM432.6311215,132.4780172c0-.234585,0-.3934973-.1589124-.3934973-.9383398,0-4.7219682,10.0039133-4.7219682,13.1518921,0,.5524097.3178248.9459071.3934973.9459071,0,0,4.4873832-11.3395341,4.4873832-13.7043018ZM433.0246188,159.0958425c-.234585,2.9133938-.1589124,6.7726947-.8626673,9.7655447,1.0215796-.3178248,1.4907496-1.1048195,1.8918142-2.99285.7037549-3.227435.5448425-7.7186018.9383398-11.3395341-.5448425.0794562-1.0215796.1589124-1.5739894.234585-.1589124,1.3394044-.3102575,2.8377212-.3934973,4.3322544ZM436.1801648,145.0774995c.6280823-3.7003885,1.3318372-7.1661921,2.595569-9.9206735-1.5739894,1.7329018-2.8377212,4.9603367-3.9349735,10.0795859.4691699-.0794562.8626673-.0794562,1.3394044-.1589124ZM442.4004498,133.5033805c-1.4983168,2.1263991-2.7620487,5.7473314-3.7836283,11.3395341,4.7219682-.3934973,9.5271761-.4729535,13.7043018-.4729535h1.180492c-3.8593009-6.1408288-7.7186018-10.6319956-11.1011655-10.8665806ZM464.9206056,144.9223708c-4.0938859-6.220285-10.0039133-14.018343-15.2026186-17.7187315-2.595569-1.8918142-4.8808805-2.7544814-6.6894549-2.7544814-.3934973,0-.8702345.0756726-1.415077.3934973,2.4366566.7075385,4.8808805,2.2815279,7.4764496,4.4873832,1.5739894.6280823,2.9966336,1.812358,4.3284708,3.1479788,2.6788089,2.6788089,5.1987053,6.4586536,7.7186018,10.7114518.3178248.4729535.5524097,1.0215796.8702345,1.4945332.9459071.0794562,1.9674867.1589124,2.9133938.2383686ZM478.6173402,171.0634589c-2.0431593-4.8808805-4.7976407-10.7076682-8.0288593-16.613912-.9459071-.1589124-1.9674867-.3140412-2.9890664-.3934973,3.7003885,6.4586536,6.8483673,13.0724359,9.050439,18.5057262.1589124.3934973.3178248.7869947.3178248,1.2599482.9459071-.0794562,1.8085743-1.0253633,1.8085743-1.9674867,0-.2383686-.0756726-.5524097-.1589124-.7907783Z"/>
</svg>